<svg xmlns="http://www.w3.org/2000/svg" fill="none" viewBox="0 0 52 83">
  <g clip-path="url(#a)">
    <path fill="#00CCBD"
      d="M11.46 75.5s-5.73-5.8-6.03-12.38c0 0 3.5 7 8.3 9.94 4.8 2.95 10.86 5.56 13.64 9.94 0 0 .85-4.8-13.22-18.61-9.52-9.35-9.1-26.87-9.1-26.87L.28 60.5c-.88 4.2-.32 8.32 11.18 15.01ZM51.7 64.04s-1.57-.9-3.66-4.08c0 0-.22 11.86-15.04 18.3 0 0 11.42-14.6 12.77-41.55l5.93 27.33Zm-4.76-43.76c0-6.27-3.94-11.36-8.8-11.36-1.29 0-2.5.35-3.6.99L25.47 0 16.4 9.9a7.14 7.14 0 0 0-3.59-.98C7.94 8.92 4 14.01 4 20.28c0 1.75.3 3.4.85 4.89l-.85.87v6.77l3.42-3.54a7.61 7.61 0 0 0 5.38 2.38c2.97 0 5.59-1.9 7.19-4.79l2.13 2.33 3.35 3.66 3.38-3.68 2.11-2.31c1.6 2.9 4.22 4.79 7.18 4.79 2.03 0 3.9-.89 5.39-2.38l3.42 3.54v-6.77l-.85-.87c.54-1.48.85-3.14.85-4.89ZM12.8 26.5c-.74 0-1.45-.23-2.08-.63l4.16-4.3-3.15-3.44-3.6 3.68c-.1-.49-.15-1-.15-1.53 0-3.37 2.2-6.21 4.82-6.21s4.83 2.84 4.83 6.21-2.21 6.22-4.83 6.22Zm12.67-2.55a9.69 9.69 0 0 1 0-15.06 9.69 9.69 0 0 1 0 15.06Zm12.67 2.55c-2.62 0-4.83-2.85-4.83-6.22 0-3.37 2.21-6.21 4.83-6.21s4.83 2.84 4.83 6.21c0 .53-.06 1.04-.16 1.53l-3.6-3.68-3.15 3.44 4.17 4.3c-.64.4-1.35.63-2.09.63ZM42.8 7.7l4.15-4.53v8.5A12.03 12.03 0 0 0 42.8 7.7ZM31.58 3.02c.28-.03.56-.04.84-.04 3.15 0 5.88 1.46 7.3 3.62a9.35 9.35 0 0 0-4.55.34L31.57 3ZM4 11.67v-8.5L8.15 7.7A12.03 12.03 0 0 0 4 11.67Zm7.22-5.07c1.42-2.16 4.16-3.62 7.3-3.62.29 0 .57.01.85.04l-3.6 3.92a9.38 9.38 0 0 0-4.55-.34ZM32.9 38.78l2.55-.45 1.08.67-1.04.73-2.49.2-1.01-.28.91-.87Zm1.97 11.77 5.16-7.84.38-3.26c-4.95 2.58-8.9 2.04-9.89 1.65-.92-.37-1.25-.26-1.28-.25.09-.14.89-2.23.89-2.27l-2.77.74 1.6-3.22 3.07-.73a4.15 4.15 0 0 0 1.15-.56l2.79-1.98c-2.2-.1-5.28-.16-7.32-.2l-3.17 3.52-3.16-3.52c-3.85.07-7.25.2-7.25.2l2.78 1.98s.62.43 1.16.56l3.07.7L24.36 39a2 2 0 0 1 .46 1.38v5.68l-.02 2.84c.17.1.35.13.44.13.36 0 1.59-.85 1.59-.85l1.31.74c.16.1.22.17.67-.1.66-.38.74-.94.74-.94l2.87 2.84-3.7-.56h-.04l-3.36 1.42-3.2-1.54a31.42 31.42 0 0 0-5.9 5.19 3.14 3.14 0 0 0-.77 2.18c0 .9.28 1.56.93 2.17.57.54 1.36 1.26 2.37 2.11 2.23 1.9 5.31 4.22 6.89 4.22 1.57 0 4.54-1.6 6.79-4.02a50.57 50.57 0 0 0 4.35-5.11 4 4 0 0 0 .7-2.02l.31-4.96-2.93.74h.01Zm-3.88 5.87s-2.12-1.04-5.43-.38a10.67 10.67 0 0 0-3.39-.15c-.49.4-.19 1.23.76 1.85.96.61 3.96.82 6.41.13 0 0-1.43 1.93-3.57 1.93-2.96 0-6.47-3.03-6.36-4.77l3.93-1.62 2.18.54 2.19-.54 3.83 1.68s-.02.88-.56 1.33ZM10.66 37.43l2.27-3.57 2.99 2.43s-1.22-.07-2.7.69c-1.5.76-2.56.45-2.56.45Zm24.38-1.14 2.99-2.43 2.26 3.57s-1.07.3-2.55-.45c-1.48-.76-2.7-.7-2.7-.7Zm-17.85 11.6a23.1 23.1 0 0 1-2.34-.76l-4.32-4.32-.11-3.37c4.95 2.58 8.9 2.05 9.88 1.66l1.19 2.26-2.45 3.23c-1.05 1.31-1.17 1.43-1.85 1.3Zm-1.68-9.56 2.55.46.9.87-1 .27-2.5-.2-1.04-.73 1.09-.66Z" />
  </g>
  <defs>
    <clipPath id="a">
      <path fill="#fff" d="M0 0h51.71v83H0z" />
    </clipPath>
  </defs>
</svg>