<svg xmlns="http://www.w3.org/2000/svg" fill="none" viewBox="0 0 50 84">
  <g fill="#FFB837" clip-path="url(#a)">
    <path
      d="M26.08 21.64v11.98s12.27.24 18.71.96h.02v-11.8l-4.59-.42h-.02l4.59-6.1.01-.03V6.4l-8.74 10.86L26.09 0v.08l-.01 13 5.1 8.7h-.04l-5.06-.14ZM9.9 45.89l3.4 6.39 2.14.8 4.32-6.74.01-.02v-1.88l-4.85 1.11-3.82-2.68-1.2 3.02Z" />
    <path
      d="m13.37 36.9-1.19 3.08h.01l5.88-.17 5.5 2.72.33 9.96c1.72 0 2.1-.88 2.17-1.11a.87.87 0 0 0 .01-.06s2.32 1 3.27.77c.94-.23 1.4-1.68 1.4-1.68l2.75 3.2v5.47l-.01-.01-4.94-4.82-4.1 1.96-4.08-1.96-4.97 4.84v6l2.66-3.01 6.39-2.67 6.41 2.67 2.66 3.01 4.14-5.24 1.76-8.65-3.8 1.07h-.02l3.38-6.34.02-.04-1.2-3.02-3.82 2.68-4.84-1.11v1.88l-.01.01L28 47.44l-2.65-4.87-.02-.04 5.5-2.71 5.85.16h.03l-1.18-3.07s-5.57-.68-11.09-.68-11.08.68-11.08.68Z" />
    <path
      d="M30.15 42.4v.4l2.42.62 1.47-1.21.04-.03-.37-.4-3.56.57v.05ZM4.2 22.78V34.6c6.35-.71 18.4-.96 18.7-.97h.01l.01-11.98-5.09.15h-.01l5.1-8.67V0l-9.98 17.26L4.2 6.4v9.84l4.61 6.12h-.05l-4.56.42ZM2.3 48.05 0 59l24.46 24.46 24.59-24.59.02-.02-2.38-10.82v.13l.18 9.49-.02.02-13.99 13.98v-2.47l-3.07-4.36-5.34-2.16-5.32 2.16-3.08 4.36v2.47l-.01-.01L2.01 57.61l.3-9.63v.07Zm16.45-5.25h.01v-.45l-3.56-.58-.36.4.02.03 1.48 1.22 2.4-.61ZM41.11 7.3l.06-.08-6.27 2.93.02.04 1.62 2.79 4.57-5.68Z" />
    <path d="m14.07 10.2.03-.04-6.27-2.93.08.1 4.55 5.65 1.61-2.78Z" />
  </g>
  <defs>
    <clipPath id="a">
      <path fill="#fff" d="M0 0h49.07v83.46H0z" />
    </clipPath>
  </defs>
</svg>