<svg xmlns="http://www.w3.org/2000/svg" fill="none" viewBox="0 0 319 27">
  <g filter="url(#a)">
    <path fill="url(#b)"
      d="M13.53 22.15c-.7 0-1.25-.16-1.67-.48a2.83 2.83 0 0 1-.91-1.51c-.18-.68-.27-1.53-.27-2.56 0-1.56.24-2.7.72-3.44.48-.73 1.26-1.1 2.31-1.1.57 0 1.05.12 1.43.36.39.24.68.62.87 1.15.2.52.3 1.2.3 2.05H14.7c0-.46-.04-.84-.1-1.16a1.35 1.35 0 0 0-.34-.72c-.15-.17-.37-.25-.65-.25a.98.98 0 0 0-.7.27 1.7 1.7 0 0 0-.4.82c-.08.37-.13.84-.13 1.43v1.22c0 .58.04 1.05.12 1.42.08.36.21.63.4.8.17.17.4.26.68.26s.5-.08.67-.23c.17-.16.29-.39.36-.7.07-.3.11-.69.11-1.16h1.58c0 .84-.11 1.52-.32 2.04-.22.52-.53.9-.94 1.14a3 3 0 0 1-1.5.35ZM21.8 22v-8.79h1.67V22H21.8Zm.33-9.54.75-1.7h1.38l.02.05-1.15 1.65h-1Zm8.3 9.54-1.73-8.79h1.75l.78 4.81a54.22 54.22 0 0 1 .19 1.36l.1.65h.08a10.48 10.48 0 0 0 .15-1.11c.04-.28.1-.57.14-.9l.78-4.8h1.72L32.65 22h-2.23Zm9.19 0v-8.79h1.67V22h-1.67Zm8.81 0v-7.34h-1.85V13.2h5.37v1.45h-1.84V22h-1.68Zm7.36 0 1.95-8.79h2.23L61.95 22H60.2l-.4-1.87h-1.94L57.49 22h-1.7Zm2.3-3.27h1.5l-.5-2.63a235.68 235.68 0 0 0-.1-.56l-.06-.38a10.8 10.8 0 0 0-.05-.35h-.09a18.07 18.07 0 0 1-.2 1.3l-.5 2.62Zm11.23 3.42c-.36 0-.7-.03-1.02-.11a1.9 1.9 0 0 1-.8-.41 1.9 1.9 0 0 1-.54-.82 3.9 3.9 0 0 1-.2-1.34v-.25h1.62v.26c0 .32.03.56.09.74.06.18.16.3.29.39.14.07.31.11.52.11.12 0 .23-.01.32-.04.1-.02.18-.07.26-.13a.76.76 0 0 0 .18-.23.82.82 0 0 0 .1-.3c.03-.13.04-.27.04-.42 0-.23-.05-.41-.14-.57a1.3 1.3 0 0 0-.38-.4 13.47 13.47 0 0 0-1.13-.58 5.4 5.4 0 0 1-.61-.33 2.28 2.28 0 0 1-.9-1.14c-.1-.27-.14-.59-.14-.96a3 3 0 0 1 .2-1.18 2.16 2.16 0 0 1 1.32-1.24 3.44 3.44 0 0 1 1.9-.01 1.76 1.76 0 0 1 1.24 1.15c.13.3.19.69.19 1.14v.28h-1.59v-.2c0-.22-.02-.42-.07-.57a.66.66 0 0 0-.24-.37.76.76 0 0 0-.47-.13.81.81 0 0 0-.4.1.63.63 0 0 0-.29.3c-.06.14-.09.31-.09.54 0 .23.04.42.13.58.1.16.22.29.38.4a6.04 6.04 0 0 0 1.14.58 3.5 3.5 0 0 1 1.14.8c.16.18.29.4.37.67.1.26.14.58.14.96 0 .63-.1 1.15-.32 1.56a2 2 0 0 1-.88.9c-.38.18-.84.27-1.36.27Zm14-.15v-8.79h2.38l.9 4.54a17.33 17.33 0 0 0 .17 1.03l.1.53h.08l.08-.42a35.63 35.63 0 0 0 .2-1.12l.89-4.56h2.34V22h-1.61v-4.78a13.3 13.3 0 0 1 .03-1.12l.02-.4h-.08a28.42 28.42 0 0 0-.22 1.12L87.54 22h-1.33l-1.06-5.18a15.99 15.99 0 0 1-.22-1.11h-.08c.02.13.03.28.03.46v.55l.01.5V22h-1.57Zm12.9 0v-8.79h4.75v1.45H97.9v2.15h2.64v1.44H97.9v2.3h3.12V22h-4.8Zm11.62 0v-7.34H106V13.2h5.37v1.45h-1.84V22h-1.68Zm8.82 0v-8.79h2.8c.64 0 1.13.12 1.48.35.36.22.61.53.76.92a4.52 4.52 0 0 1 0 2.75c-.15.43-.38.75-.7.97l1.23 3.8h-1.73l-1.02-3.24h-1.15V22h-1.67Zm1.67-4.64h.89c.38 0 .64-.13.79-.39.14-.25.22-.6.22-1.05 0-.29-.04-.52-.1-.71a.74.74 0 0 0-.32-.44 1.24 1.24 0 0 0-.64-.14h-.84v2.73Zm11.86 4.8c-.66 0-1.22-.16-1.67-.48a2.9 2.9 0 0 1-1.01-1.47 8.46 8.46 0 0 1-.34-2.6c0-1.05.12-1.92.34-2.58a2.9 2.9 0 0 1 1-1.48 2.8 2.8 0 0 1 1.68-.49c.68 0 1.24.16 1.68.49.45.31.79.8 1.01 1.48.22.66.33 1.53.33 2.58 0 1.06-.1 1.93-.33 2.6a2.8 2.8 0 0 1-1.01 1.47c-.44.32-1 .47-1.68.47Zm0-1.45c.25 0 .46-.05.62-.16.16-.1.3-.26.4-.47.1-.21.18-.47.22-.78.06-.31.08-.68.08-1.1V17c0-.42-.02-.78-.08-1.09a2.26 2.26 0 0 0-.23-.78 1.1 1.1 0 0 0-.4-.47 1.06 1.06 0 0 0-.6-.17 1.08 1.08 0 0 0-1.02.64c-.1.2-.18.47-.23.78-.05.3-.07.67-.07 1.09v1.2c0 .42.02.79.07 1.1a3 3 0 0 0 .23.78c.1.2.24.36.41.47.17.1.37.16.6.16Zm8.57 1.29v-8.79h2.84c.6 0 1.05.12 1.38.35.34.23.59.55.73.97.16.42.23.9.23 1.46 0 .57-.08 1.08-.25 1.52-.16.44-.42.78-.76 1.04a2.2 2.2 0 0 1-1.3.37h-1.2V22h-1.67Zm1.68-4.5h.84c.34 0 .59-.13.73-.4a2 2 0 0 0 .23-1.05c0-.34-.03-.61-.1-.82a.74.74 0 0 0-.32-.46 1.15 1.15 0 0 0-.61-.14h-.77v2.87ZM152 22.15c-.67 0-1.22-.15-1.68-.47a2.9 2.9 0 0 1-1-1.47 8.46 8.46 0 0 1-.34-2.6c0-1.05.11-1.92.33-2.58a2.9 2.9 0 0 1 1.01-1.48 2.8 2.8 0 0 1 1.68-.49c.67 0 1.23.16 1.68.49.45.31.78.8 1 1.48.23.66.34 1.53.34 2.58a8.2 8.2 0 0 1-.34 2.6 2.8 2.8 0 0 1-1 1.47c-.45.32-1 .47-1.68.47Zm0-1.44a1.05 1.05 0 0 0 1.01-.63c.11-.21.19-.47.23-.78.05-.31.08-.68.08-1.1V17c0-.42-.03-.78-.08-1.09a2.29 2.29 0 0 0-.23-.78 1.1 1.1 0 0 0-.4-.47 1.06 1.06 0 0 0-.61-.17 1.08 1.08 0 0 0-1.01.64c-.1.2-.18.47-.23.78-.05.3-.08.67-.08 1.09v1.2c0 .42.03.79.08 1.1a3 3 0 0 0 .23.78c.1.2.24.36.4.47.18.1.38.16.6.16Zm8.57 1.29v-8.79h1.68v7.33h2.63V22h-4.31Zm9.58 0v-8.79h1.68V22h-1.68Zm8.82 0v-7.34h-1.85V13.2h5.37v1.45h-1.84V22h-1.68Zm7.35 0 1.96-8.79h2.23l1.98 8.79h-1.75l-.4-1.87h-1.94l-.38 1.87h-1.7Zm2.3-3.27h1.5l-.5-2.63-.03-.23-.07-.33a51.15 51.15 0 0 1-.1-.73h-.09l-.06.44-.08.48-.06.37-.5 2.63Zm8.99 3.27v-8.79h1.59l1.67 4.2.08.25a6.45 6.45 0 0 1 .19.63h.06v-5.08h1.59V22h-1.59l-1.67-4.25-.14-.4-.14-.56h-.07l.02.48V22h-1.59Zm13.73.15c-.66 0-1.22-.15-1.67-.47a2.9 2.9 0 0 1-1.01-1.47 8.49 8.49 0 0 1-.33-2.6c0-1.05.1-1.92.33-2.58a2.9 2.9 0 0 1 1.01-1.48 2.8 2.8 0 0 1 1.68-.49c.67 0 1.23.16 1.67.49.45.31.79.8 1.01 1.48.22.66.33 1.53.33 2.58 0 1.06-.1 1.93-.33 2.6a2.8 2.8 0 0 1-1 1.47c-.45.32-1.01.47-1.69.47Zm0-1.44c.25 0 .46-.05.62-.16.16-.1.3-.26.4-.47.1-.21.18-.47.23-.78.05-.31.07-.68.07-1.1V17c0-.42-.02-.78-.07-1.09a2.3 2.3 0 0 0-.23-.78 1.06 1.06 0 0 0-1.01-.64 1.08 1.08 0 0 0-1.01.64c-.1.2-.18.47-.24.78-.05.3-.07.67-.07 1.09v1.2c0 .42.02.79.07 1.1a3 3 0 0 0 .24.78c.1.2.23.36.4.47.17.1.38.16.6.16Zm14.64-2.12v-1.82h1.4v1.82h-1.4ZM238.95 22v-.5a3.76 3.76 0 0 1 .51-1.83c.15-.26.32-.51.51-.75l.58-.7c.27-.3.5-.6.71-.89.22-.28.38-.57.5-.87.12-.3.18-.62.18-.98 0-.25-.02-.46-.06-.63a.68.68 0 0 0-.22-.4c-.1-.11-.25-.16-.45-.16a.63.63 0 0 0-.49.19c-.1.12-.19.29-.24.5-.04.2-.06.45-.06.73v.53h-1.4l-.02-.23v-.28c0-.6.08-1.09.24-1.48.17-.4.43-.69.77-.88.34-.2.77-.31 1.29-.31.34 0 .64.05.9.14a1.75 1.75 0 0 1 1.08 1.16 4.15 4.15 0 0 1-.8 3.75 21.62 21.62 0 0 1-1.22 1.43 4.83 4.83 0 0 0-.68 1.18h2.9V22h-4.53Zm11.96.15c-.46 0-.85-.1-1.15-.3-.31-.2-.54-.52-.7-.95a5.03 5.03 0 0 1-.21-1.6h1.38c0 .38.02.7.06.95.05.24.12.41.22.52.1.1.25.16.45.16a.6.6 0 0 0 .56-.31c.13-.21.21-.54.26-.97.05-.45.07-1.01.07-1.7a1.49 1.49 0 0 1-.81.8 1.72 1.72 0 0 1-1.57-.22c-.28-.2-.49-.5-.62-.9-.14-.41-.2-.9-.2-1.49 0-.72.08-1.31.26-1.76.19-.45.45-.79.8-1a2.68 2.68 0 0 1 2.28-.13c.3.13.55.36.75.68.2.31.34.75.43 1.32.1.55.15 1.26.15 2.12 0 .94-.05 1.72-.15 2.34-.1.61-.24 1.1-.45 1.46-.2.36-.44.61-.75.77-.3.14-.65.21-1.06.21Zm.02-4.52a.7.7 0 0 0 .53-.2c.12-.12.21-.3.26-.55a4.86 4.86 0 0 0 .01-1.8 1.1 1.1 0 0 0-.25-.59.7.7 0 0 0-.53-.2c-.24 0-.43.07-.55.2-.13.14-.22.34-.26.6a6.12 6.12 0 0 0 0 1.8c.05.25.14.43.26.56.12.12.3.18.53.18Zm15.54 4.52a2.9 2.9 0 0 1-1.2-.23 1.68 1.68 0 0 1-.77-.75 2.8 2.8 0 0 1-.26-1.3v-.58h1.6v.45c0 .31.05.55.13.73.1.16.27.24.53.24s.44-.1.54-.27c.1-.18.15-.45.15-.82v-6.4h1.66v6.5c0 .58-.1 1.05-.32 1.41-.2.36-.48.62-.84.78-.35.16-.76.24-1.22.24Zm10.56 0c-.53 0-.99-.09-1.37-.27a1.88 1.88 0 0 1-.9-.92c-.2-.43-.3-1.03-.3-1.79v-5.96h1.67v6.1c0 .47.07.83.2 1.07.13.23.36.34.68.34.35 0 .58-.11.72-.34.14-.24.22-.6.22-1.08v-6.09h1.66v5.96c0 .76-.1 1.36-.32 1.8-.2.43-.5.74-.88.91-.39.18-.85.27-1.38.27Zm8.27-.15v-8.79h1.68v7.33h2.63V22h-4.3Zm9.59 0v-8.79h1.68V22h-1.68Zm10.22.15c-.66 0-1.22-.15-1.67-.47a2.9 2.9 0 0 1-1.01-1.47 8.49 8.49 0 0 1-.33-2.6c0-1.05.1-1.92.33-2.58a2.9 2.9 0 0 1 1-1.48 2.8 2.8 0 0 1 1.68-.49c.68 0 1.24.16 1.68.49.45.31.79.8 1.01 1.48.22.66.33 1.53.33 2.58 0 1.06-.1 1.93-.33 2.6a2.8 2.8 0 0 1-1.01 1.47c-.44.32-1 .47-1.68.47Zm0-1.44c.25 0 .46-.05.62-.16.16-.1.3-.26.4-.47.1-.21.18-.47.23-.78.05-.31.07-.68.07-1.1V17c0-.42-.02-.78-.07-1.09a2.29 2.29 0 0 0-.24-.78 1.06 1.06 0 0 0-1.01-.64 1.08 1.08 0 0 0-1 .64c-.1.2-.19.47-.24.78-.05.3-.07.67-.07 1.09v1.2c0 .42.02.79.07 1.1.06.3.13.57.23.78.1.2.24.36.41.47.17.1.37.16.6.16Z" />
  </g>
  <defs>
    <linearGradient id="b" x1="156.39" x2="156.39" y1="7" y2="22.75" gradientUnits="userSpaceOnUse">
      <stop stop-color="#fff" />
      <stop offset="1" stop-color="#A79890" />
    </linearGradient>
    <filter id="a" width="317.83" height="31.77" x=".49" y=".57" color-interpolation-filters="sRGB"
      filterUnits="userSpaceOnUse">
      <feFlood flood-opacity="0" result="BackgroundImageFix" />
      <feColorMatrix in="SourceAlpha" result="hardAlpha" values="0 0 0 0 0 0 0 0 0 0 0 0 0 0 0 0 0 0 127 0" />
      <feOffset />
      <feGaussianBlur stdDeviation="5.09" />
      <feComposite in2="hardAlpha" operator="out" />
      <feColorMatrix values="0 0 0 0 0 0 0 0 0 0 0 0 0 0 0 0 0 0 0.25 0" />
      <feBlend in2="BackgroundImageFix" result="effect1_dropShadow_1_5" />
      <feBlend in="SourceGraphic" in2="effect1_dropShadow_1_5" result="shape" />
    </filter>
  </defs>
</svg>