<svg width="280" height="88" viewBox="0 0 280 88" fill="none" xmlns="http://www.w3.org/2000/svg">
  <g filter="url(#filter0_d_1_18)">
    <path
      d="M58.3434 59.7208V49.7999H62.127C63.1089 49.7999 63.9224 49.978 64.5675 50.3342C65.2221 50.6808 65.7131 51.2199 66.0405 51.9516C66.3678 52.6737 66.5314 53.6075 66.5314 54.7532C66.5314 55.8795 66.363 56.8134 66.026 57.5547C65.6987 58.2864 65.2077 58.8303 64.553 59.1865C63.908 59.5427 63.0945 59.7208 62.1125 59.7208H58.3434ZM60.8128 57.7424H62.0403C62.3773 57.7424 62.6661 57.6943 62.9068 57.598C63.1571 57.4921 63.3641 57.3381 63.5277 57.1359C63.6914 56.9241 63.8117 56.6594 63.8888 56.3417C63.9658 56.024 64.0043 55.6533 64.0043 55.2297V54.3488C64.0043 53.9252 63.9658 53.5546 63.8888 53.2369C63.8117 52.9095 63.6914 52.64 63.5277 52.4282C63.3641 52.2067 63.1571 52.0431 62.9068 51.9372C62.6661 51.8313 62.3773 51.7783 62.0403 51.7783H60.8128V57.7424ZM71.5262 59.7208V49.7999H78.8333V51.7783H73.9956V53.699H78.1835V55.6485H73.9956V57.7424H78.9199V59.7208H71.5262ZM87.558 59.8941C86.9996 59.8941 86.4749 59.8412 85.9839 59.7353C85.5025 59.639 85.0741 59.4705 84.6987 59.2298C84.3328 58.9892 84.044 58.6666 83.8322 58.2623C83.6204 57.8483 83.5145 57.3381 83.5145 56.7316C83.5145 56.693 83.5145 56.6497 83.5145 56.6016C83.5145 56.5535 83.5193 56.5101 83.529 56.4716H85.8973C85.8973 56.5101 85.8925 56.5535 85.8828 56.6016C85.8828 56.6401 85.8828 56.6786 85.8828 56.7171C85.8828 57.0252 85.9454 57.2707 86.0706 57.4536C86.1957 57.6365 86.3738 57.7665 86.6049 57.8435C86.8456 57.9205 87.1247 57.959 87.4424 57.959C87.6157 57.959 87.7746 57.9494 87.919 57.9302C88.073 57.9013 88.2078 57.8628 88.3233 57.8146C88.4485 57.7665 88.5544 57.7039 88.641 57.6269C88.7277 57.5499 88.7903 57.4632 88.8288 57.367C88.8769 57.2611 88.901 57.1407 88.901 57.0059C88.901 56.7749 88.824 56.5871 88.6699 56.4427C88.5255 56.2983 88.3282 56.1732 88.0778 56.0673C87.8372 55.9614 87.5628 55.8651 87.2547 55.7785C86.9466 55.6918 86.6241 55.6004 86.2872 55.5041C85.9598 55.3982 85.6421 55.273 85.3341 55.1286C85.026 54.9842 84.7468 54.8013 84.4965 54.5799C84.2462 54.3584 84.0488 54.0889 83.9044 53.7712C83.76 53.4438 83.6878 53.0539 83.6878 52.6015C83.6878 52.072 83.7841 51.6195 83.9766 51.244C84.1788 50.8685 84.4532 50.5605 84.7998 50.3198C85.156 50.0791 85.5603 49.9058 86.0128 49.7999C86.4749 49.6844 86.9611 49.6266 87.4713 49.6266C87.9816 49.6266 88.4581 49.6796 88.901 49.7855C89.3535 49.8914 89.7482 50.0647 90.0851 50.3054C90.4221 50.5364 90.6868 50.8349 90.8794 51.2007C91.0719 51.5665 91.1682 52.0046 91.1682 52.5148V52.7603H88.8288V52.6303C88.8288 52.4089 88.7806 52.2164 88.6844 52.0527C88.5881 51.889 88.4437 51.7591 88.2511 51.6628C88.0586 51.5665 87.8131 51.5184 87.5146 51.5184C87.2355 51.5184 86.9948 51.5521 86.7926 51.6195C86.5904 51.6869 86.4364 51.7831 86.3305 51.9083C86.2342 52.0334 86.1861 52.1827 86.1861 52.356C86.1861 52.5774 86.2583 52.7651 86.4027 52.9192C86.5471 53.0636 86.7445 53.1887 86.9948 53.2946C87.2451 53.3909 87.5243 53.4824 87.8323 53.569C88.1404 53.646 88.4581 53.7375 88.7854 53.8434C89.1224 53.9396 89.4449 54.06 89.753 54.2044C90.0611 54.3392 90.3403 54.5173 90.5906 54.7387C90.8409 54.9505 91.0382 55.2104 91.1826 55.5185C91.327 55.8266 91.3993 56.2021 91.3993 56.6449C91.3993 57.4055 91.2356 58.0264 90.9083 58.5078C90.5809 58.9892 90.1285 59.3405 89.5508 59.562C88.9732 59.7834 88.3089 59.8941 87.558 59.8941ZM98.4636 59.7208V51.8505H95.6476V49.7999H103.734V51.8505H100.933V59.7208H98.4636ZM108.45 59.7208V49.7999H110.919V59.7208H108.45ZM116.259 59.7208V49.7999H118.498L121.4 54.2044C121.448 54.291 121.516 54.4018 121.603 54.5365C121.689 54.6617 121.771 54.7965 121.848 54.9409C121.935 55.0757 122.002 55.196 122.05 55.3019L122.122 55.2875C122.113 55.0853 122.108 54.8879 122.108 54.6954C122.108 54.5028 122.108 54.3392 122.108 54.2044V49.7999H124.419V59.7208H122.195L119.148 55.1431C119.051 54.989 118.955 54.8254 118.859 54.6521C118.772 54.4691 118.695 54.3103 118.628 54.1755H118.555C118.565 54.3392 118.57 54.5077 118.57 54.6809C118.57 54.8542 118.57 55.0083 118.57 55.1431V59.7208H116.259ZM134.041 59.8941C133.059 59.8941 132.221 59.7112 131.528 59.3454C130.844 58.9699 130.32 58.4019 129.954 57.6413C129.598 56.8808 129.42 55.9181 129.42 54.7532C129.42 53.5883 129.598 52.6303 129.954 51.8794C130.32 51.1189 130.844 50.5557 131.528 50.1898C132.221 49.8144 133.059 49.6266 134.041 49.6266C135.032 49.6266 135.87 49.8144 136.553 50.1898C137.247 50.5557 137.771 51.1189 138.127 51.8794C138.484 52.6303 138.662 53.5883 138.662 54.7532C138.662 55.9181 138.484 56.8808 138.127 57.6413C137.771 58.4019 137.247 58.9699 136.553 59.3454C135.87 59.7112 135.032 59.8941 134.041 59.8941ZM134.041 57.9157C134.397 57.9157 134.705 57.8579 134.965 57.7424C135.234 57.6173 135.456 57.444 135.629 57.2225C135.802 56.9915 135.932 56.7123 136.019 56.385C136.106 56.048 136.149 55.6726 136.149 55.2586V54.2766C136.149 53.853 136.106 53.4775 136.019 53.1502C135.932 52.8133 135.802 52.5341 135.629 52.3126C135.456 52.0816 135.234 51.9083 134.965 51.7928C134.705 51.6676 134.397 51.605 134.041 51.605C133.684 51.605 133.372 51.6676 133.102 51.7928C132.842 51.9083 132.625 52.0816 132.452 52.3126C132.279 52.5341 132.149 52.8133 132.062 53.1502C131.976 53.4775 131.932 53.853 131.932 54.2766V55.2586C131.932 55.6726 131.976 56.048 132.062 56.385C132.149 56.7123 132.279 56.9915 132.452 57.2225C132.625 57.444 132.842 57.6173 133.102 57.7424C133.372 57.8579 133.684 57.9157 134.041 57.9157ZM149.517 59.7208V49.7999H153.055L154.124 54.2188C154.162 54.3825 154.211 54.5943 154.268 54.8542C154.326 55.1045 154.384 55.3693 154.442 55.6485C154.499 55.9181 154.552 56.1635 154.6 56.385H154.716C154.745 56.2117 154.783 56.0047 154.832 55.764C154.889 55.5137 154.947 55.2538 155.005 54.9842C155.063 54.7146 155.116 54.4595 155.164 54.2188L156.232 49.7999H159.684V59.7208H157.315V55.4463C157.315 55.0612 157.32 54.6761 157.33 54.291C157.339 53.906 157.349 53.5594 157.359 53.2513C157.368 52.9432 157.373 52.7122 157.373 52.5581H157.258C157.238 52.6929 157.2 52.8806 157.142 53.1213C157.094 53.3524 157.041 53.5931 156.983 53.8434C156.925 54.0841 156.873 54.2959 156.824 54.4788L155.525 59.7208H153.561L152.247 54.4788C152.208 54.3151 152.16 54.1226 152.102 53.9011C152.054 53.6701 152.006 53.4342 151.958 53.1935C151.91 52.9529 151.862 52.7459 151.813 52.5726H151.712C151.722 52.8036 151.732 53.0828 151.741 53.4101C151.751 53.7375 151.756 54.0792 151.756 54.4355C151.765 54.7917 151.77 55.1286 151.77 55.4463V59.7208H149.517ZM164.174 59.7208L167.365 49.7999H170.441L173.647 59.7208H171.019L170.513 57.959H167.206L166.701 59.7208H164.174ZM167.712 56.0528H170.008L169.387 53.7856C169.358 53.6893 169.32 53.569 169.272 53.4246C169.233 53.2706 169.195 53.1069 169.156 52.9336C169.117 52.7603 169.074 52.5918 169.026 52.4282C168.988 52.2549 168.949 52.096 168.911 51.9516H168.809C168.771 52.1345 168.723 52.3367 168.665 52.5581C168.607 52.7796 168.549 53.001 168.492 53.2224C168.444 53.4342 168.395 53.6219 168.347 53.7856L167.712 56.0528ZM178.11 59.7208V49.7999H181.893C182.875 49.7999 183.689 49.978 184.334 50.3342C184.989 50.6808 185.48 51.2199 185.807 51.9516C186.134 52.6737 186.298 53.6075 186.298 54.7532C186.298 55.8795 186.129 56.8134 185.792 57.5547C185.465 58.2864 184.974 58.8303 184.32 59.1865C183.674 59.5427 182.861 59.7208 181.879 59.7208H178.11ZM180.579 57.7424H181.807C182.144 57.7424 182.433 57.6943 182.673 57.598C182.924 57.4921 183.131 57.3381 183.294 57.1359C183.458 56.9241 183.578 56.6594 183.655 56.3417C183.732 56.024 183.771 55.6533 183.771 55.2297V54.3488C183.771 53.9252 183.732 53.5546 183.655 53.2369C183.578 52.9095 183.458 52.64 183.294 52.4282C183.131 52.2067 182.924 52.0431 182.673 51.9372C182.433 51.8313 182.144 51.7783 181.807 51.7783H180.579V57.7424ZM191.278 59.7208V49.7999H196.246C196.978 49.7999 197.574 49.9347 198.037 50.2043C198.499 50.4738 198.84 50.8445 199.062 51.3162C199.283 51.7783 199.394 52.2982 199.394 52.8758C199.394 53.492 199.269 54.0455 199.019 54.5365C198.778 55.0179 198.422 55.3982 197.95 55.6774L199.712 59.7208H197.026L195.596 56.2117H193.748V59.7208H191.278ZM193.748 54.3344H195.813C196.159 54.3344 196.424 54.214 196.607 53.9733C196.799 53.723 196.896 53.3957 196.896 52.9914C196.896 52.7218 196.852 52.4956 196.766 52.3126C196.689 52.1201 196.568 51.9757 196.405 51.8794C196.241 51.7735 196.039 51.7206 195.798 51.7206H193.748V54.3344ZM204.376 59.7208V49.7999H206.845V59.7208H204.376ZM212.185 59.7208V49.7999H215.969C216.951 49.7999 217.764 49.978 218.409 50.3342C219.064 50.6808 219.555 51.2199 219.882 51.9516C220.21 52.6737 220.373 53.6075 220.373 54.7532C220.373 55.8795 220.205 56.8134 219.868 57.5547C219.541 58.2864 219.05 58.8303 218.395 59.1865C217.75 59.5427 216.936 59.7208 215.954 59.7208H212.185ZM214.655 57.7424H215.882C216.219 57.7424 216.508 57.6943 216.749 57.598C216.999 57.4921 217.206 57.3381 217.37 57.1359C217.533 56.9241 217.654 56.6594 217.731 56.3417C217.808 56.024 217.846 55.6533 217.846 55.2297V54.3488C217.846 53.9252 217.808 53.5546 217.731 53.2369C217.654 52.9095 217.533 52.64 217.37 52.4282C217.206 52.2067 216.999 52.0431 216.749 51.9372C216.508 51.8313 216.219 51.7783 215.882 51.7783H214.655V57.7424Z"
      fill="url(#paint0_linear_1_18)" />
  </g>
  <path
    d="M2.10749 40.9087V29.237H5.01267V34.4018L8.88623 29.237H12.3011L8.58042 34.062L12.386 40.9087H9.03913L6.60966 36.2536L5.01267 37.8846V40.9087H2.10749ZM17.7655 40.9087V29.237H20.6707V40.9087H17.7655ZM26.953 40.9087V29.237H29.5864L33.0012 34.4188C33.0578 34.5207 33.1371 34.651 33.2391 34.8095C33.341 34.9568 33.4373 35.1153 33.5279 35.2852C33.6298 35.4438 33.7091 35.5854 33.7657 35.71L33.8507 35.693C33.8394 35.4551 33.8337 35.2229 33.8337 34.9964C33.8337 34.7699 33.8337 34.5773 33.8337 34.4188V29.237H36.552V40.9087H33.9356L30.3509 35.5231C30.2376 35.3419 30.1244 35.1493 30.0111 34.9454C29.9092 34.7302 29.8186 34.5434 29.7393 34.3848H29.6543C29.6657 34.5773 29.6713 34.7756 29.6713 34.9794C29.6713 35.1833 29.6713 35.3645 29.6713 35.5231V40.9087H26.953ZM47.5834 41.1126C45.9071 41.1126 44.6329 40.6199 43.7608 39.6345C42.9 38.6378 42.4696 37.1144 42.4696 35.0644C42.4696 33.7052 42.6791 32.5839 43.0982 31.7005C43.5286 30.8057 44.1572 30.1375 44.984 29.6957C45.8108 29.254 46.8075 29.0332 47.9741 29.0332C48.7103 29.0332 49.3842 29.1238 49.9958 29.305C50.6074 29.4862 51.1398 29.758 51.5928 30.1205C52.0572 30.4716 52.414 30.919 52.6632 31.4626C52.9237 32.0063 53.0539 32.6406 53.0539 33.3654H50.2167C50.2167 33.0596 50.1657 32.7821 50.0638 32.533C49.9619 32.2838 49.8089 32.0743 49.6051 31.9044C49.4125 31.7231 49.1803 31.5872 48.9085 31.4966C48.648 31.406 48.3535 31.3607 48.0251 31.3607C47.5834 31.3607 47.1983 31.4287 46.8698 31.5646C46.5413 31.6892 46.2695 31.8874 46.0543 32.1592C45.8504 32.4197 45.6975 32.7482 45.5956 33.1446C45.4937 33.5297 45.4427 33.9827 45.4427 34.5037V35.659C45.4427 36.3612 45.5276 36.9445 45.6975 37.4089C45.8788 37.8733 46.1562 38.2187 46.53 38.4452C46.9151 38.6718 47.3965 38.785 47.9741 38.785C48.4385 38.785 48.8406 38.7057 49.1803 38.5472C49.5201 38.3773 49.7806 38.1394 49.9619 37.8336C50.1544 37.5165 50.2507 37.1484 50.2507 36.7293V36.6104H47.6513V34.5207H53.0369V40.9087H51.4059L51.1511 39.7194C50.8793 40.0139 50.5678 40.2688 50.2167 40.484C49.8656 40.6878 49.4748 40.8407 49.0444 40.9427C48.614 41.0559 48.127 41.1126 47.5834 41.1126ZM63.4799 41.1126C62.823 41.1126 62.2057 41.0503 61.6281 40.9257C61.0618 40.8124 60.5577 40.6142 60.116 40.3311C59.6856 40.0479 59.3458 39.6685 59.0967 39.1928C58.8475 38.7057 58.7229 38.1055 58.7229 37.3919C58.7229 37.3466 58.7229 37.2956 58.7229 37.239C58.7229 37.1824 58.7286 37.1314 58.7399 37.0861H61.5261C61.5261 37.1314 61.5205 37.1824 61.5091 37.239C61.5091 37.2843 61.5091 37.3296 61.5091 37.3749C61.5091 37.7374 61.5828 38.0262 61.73 38.2414C61.8772 38.4566 62.0868 38.6095 62.3586 38.7001C62.6418 38.7907 62.9702 38.836 63.344 38.836C63.5479 38.836 63.7347 38.8247 63.9046 38.802C64.0859 38.768 64.2444 38.7227 64.3803 38.6661C64.5276 38.6095 64.6522 38.5359 64.7541 38.4452C64.856 38.3546 64.9297 38.2527 64.975 38.1394C65.0316 38.0148 65.0599 37.8733 65.0599 37.7147C65.0599 37.4429 64.9693 37.222 64.7881 37.0521C64.6182 36.8822 64.386 36.735 64.0915 36.6104C63.8084 36.4858 63.4856 36.3725 63.1231 36.2706C62.7607 36.1687 62.3813 36.0611 61.9848 35.9478C61.5998 35.8232 61.226 35.676 60.8635 35.5061C60.5011 35.3362 60.1726 35.121 59.8782 34.8605C59.5837 34.6 59.3515 34.2829 59.1816 33.9091C59.0117 33.524 58.9268 33.0653 58.9268 32.533C58.9268 31.91 59.04 31.3777 59.2666 30.936C59.5044 30.4942 59.8272 30.1318 60.2349 29.8487C60.654 29.5655 61.1297 29.3616 61.662 29.237C62.2057 29.1011 62.7777 29.0332 63.378 29.0332C63.9783 29.0332 64.5389 29.0955 65.0599 29.22C65.5922 29.3446 66.0566 29.5485 66.453 29.8317C66.8494 30.1035 67.1609 30.4546 67.3874 30.885C67.614 31.3154 67.7272 31.8307 67.7272 32.431V32.7198H64.975V32.5669C64.975 32.3064 64.9183 32.0799 64.8051 31.8874C64.6918 31.6948 64.5219 31.5419 64.2954 31.4287C64.0689 31.3154 63.78 31.2588 63.4289 31.2588C63.1005 31.2588 62.8173 31.2984 62.5795 31.3777C62.3416 31.457 62.1604 31.5702 62.0358 31.7175C61.9225 31.8647 61.8659 32.0403 61.8659 32.2441C61.8659 32.5046 61.9509 32.7255 62.1208 32.9067C62.2906 33.0766 62.5228 33.2239 62.8173 33.3485C63.1118 33.4617 63.4403 33.5693 63.8027 33.6712C64.1651 33.7619 64.5389 33.8695 64.924 33.994C65.3204 34.1073 65.6998 34.2489 66.0623 34.4188C66.4247 34.5773 66.7532 34.7869 67.0477 35.0474C67.3421 35.2966 67.5743 35.6024 67.7442 35.9648C67.9141 36.3272 67.9991 36.769 67.9991 37.29C67.9991 38.1847 67.8065 38.9153 67.4214 39.4816C67.0363 40.0479 66.504 40.4613 65.8244 40.7218C65.1449 40.9823 64.3633 41.1126 63.4799 41.1126ZM85.1281 41.1126C84.0861 41.1126 83.2083 40.971 82.4948 40.6878C81.7926 40.3933 81.2602 39.9913 80.8978 39.4816C80.5467 38.9606 80.3711 38.366 80.3711 37.6977C80.3711 36.9728 80.5523 36.3725 80.9148 35.8968C81.2772 35.4211 81.7529 35.0814 82.3419 34.8775V34.8095C81.8662 34.6057 81.4641 34.2942 81.1356 33.8751C80.8072 33.456 80.6429 32.935 80.6429 32.3121C80.6429 31.6778 80.8185 31.1172 81.1696 30.6302C81.5321 30.1318 82.0531 29.7411 82.7326 29.4579C83.4122 29.1747 84.239 29.0332 85.2131 29.0332C86.1531 29.0332 86.9573 29.1691 87.6256 29.4409C88.3051 29.7014 88.8261 30.0752 89.1886 30.5622C89.5623 31.0379 89.7492 31.5929 89.7492 32.2272V32.6349H87.3197V32.397C87.3197 32.1026 87.2405 31.8591 87.0819 31.6665C86.9233 31.4626 86.6968 31.3097 86.4023 31.2078C86.1192 31.1059 85.7681 31.0549 85.349 31.0549C85.0092 31.0549 84.7147 31.0945 84.4655 31.1738C84.2164 31.2418 84.0068 31.3437 83.8369 31.4796C83.6784 31.6155 83.5538 31.7798 83.4632 31.9723C83.3839 32.1649 83.3442 32.3801 83.3442 32.6179C83.3442 32.9237 83.4065 33.1842 83.5311 33.3994C83.6557 33.6033 83.8256 33.7619 84.0408 33.8751C84.2673 33.9771 84.5165 34.028 84.7883 34.028H85.9266V35.9138H84.6354C84.3636 35.9138 84.1031 35.9648 83.8539 36.0667C83.6161 36.1573 83.4235 36.3159 83.2763 36.5424C83.129 36.7576 83.0554 37.0578 83.0554 37.4429C83.0554 37.7827 83.1347 38.0771 83.2933 38.3263C83.4518 38.5755 83.6897 38.768 84.0068 38.904C84.324 39.0285 84.7204 39.0908 85.1961 39.0908C85.7058 39.0908 86.1135 39.0229 86.4193 38.887C86.7364 38.751 86.963 38.5585 87.0989 38.3093C87.2461 38.0488 87.3197 37.743 87.3197 37.3919V34.028H91.5501V35.9138H89.7662V37.29C89.7662 38.0715 89.602 38.751 89.2735 39.3287C88.9564 39.9063 88.458 40.348 87.7785 40.6539C87.0989 40.9597 86.2154 41.1126 85.1281 41.1126ZM110.726 43.1343L109.061 41.0786C109.004 41.0899 108.942 41.0956 108.874 41.0956C108.817 41.0956 108.761 41.0956 108.704 41.0956C107.594 41.0956 106.643 40.8747 105.85 40.433C105.068 39.9913 104.474 39.323 104.066 38.4283C103.658 37.5335 103.454 36.4122 103.454 35.0644C103.454 33.6939 103.664 32.5669 104.083 31.6835C104.513 30.7887 105.131 30.1261 105.935 29.6957C106.75 29.254 107.736 29.0332 108.891 29.0332C110.058 29.0332 111.043 29.254 111.847 29.6957C112.663 30.1261 113.28 30.7887 113.699 31.6835C114.118 32.5669 114.328 33.6939 114.328 35.0644C114.328 36.4462 114.112 37.5845 113.682 38.4792C113.252 39.374 112.623 40.0422 111.796 40.484L114.107 43.1343H110.726ZM108.891 38.785C109.31 38.785 109.672 38.7171 109.978 38.5812C110.295 38.4339 110.556 38.23 110.76 37.9695C110.964 37.6977 111.117 37.3693 111.219 36.9842C111.32 36.5877 111.371 36.146 111.371 35.659V34.5037C111.371 34.0054 111.32 33.5636 111.219 33.1786C111.117 32.7821 110.964 32.4537 110.76 32.1932C110.556 31.9213 110.295 31.7175 109.978 31.5816C109.672 31.4343 109.31 31.3607 108.891 31.3607C108.472 31.3607 108.104 31.4343 107.787 31.5816C107.481 31.7175 107.226 31.9213 107.022 32.1932C106.818 32.4537 106.665 32.7821 106.563 33.1786C106.462 33.5636 106.411 34.0054 106.411 34.5037V35.659C106.411 36.146 106.462 36.5877 106.563 36.9842C106.665 37.3693 106.818 37.6977 107.022 37.9695C107.226 38.23 107.481 38.4339 107.787 38.5812C108.104 38.7171 108.472 38.785 108.891 38.785ZM124.94 41.1126C123.944 41.1126 123.089 40.954 122.375 40.6369C121.662 40.3197 121.112 39.8327 120.727 39.1758C120.342 38.5075 120.149 37.6524 120.149 36.6104V29.237H123.055V36.6274C123.055 37.307 123.208 37.8393 123.513 38.2244C123.819 38.5981 124.289 38.785 124.923 38.785C125.569 38.785 126.05 38.5981 126.368 38.2244C126.685 37.8393 126.843 37.307 126.843 36.6274V29.237H129.731V36.6104C129.731 37.6524 129.539 38.5075 129.154 39.1758C128.78 39.8327 128.236 40.3197 127.523 40.6369C126.809 40.954 125.948 41.1126 124.94 41.1126ZM136.008 40.9087V29.237H144.605V31.5646H138.913V33.8242H143.84V36.1177H138.913V38.5812H144.707V40.9087H136.008ZM150.588 40.9087V29.237H159.184V31.5646H153.493V33.8242H158.42V36.1177H153.493V38.5812H159.286V40.9087H150.588ZM165.15 40.9087V29.237H167.784L171.199 34.4188C171.255 34.5207 171.335 34.651 171.436 34.8095C171.538 34.9568 171.635 35.1153 171.725 35.2852C171.827 35.4438 171.906 35.5854 171.963 35.71L172.048 35.693C172.037 35.4551 172.031 35.2229 172.031 34.9964C172.031 34.7699 172.031 34.5773 172.031 34.4188V29.237H174.749V40.9087H172.133L168.548 35.5231C168.435 35.3419 168.322 35.1493 168.208 34.9454C168.107 34.7302 168.016 34.5434 167.937 34.3848H167.852C167.863 34.5773 167.869 34.7756 167.869 34.9794C167.869 35.1833 167.869 35.3645 167.869 35.5231V40.9087H165.15ZM185.339 41.1126C184.682 41.1126 184.065 41.0503 183.487 40.9257C182.921 40.8124 182.417 40.6142 181.975 40.3311C181.545 40.0479 181.205 39.6685 180.956 39.1928C180.707 38.7057 180.582 38.1055 180.582 37.3919C180.582 37.3466 180.582 37.2956 180.582 37.239C180.582 37.1824 180.588 37.1314 180.599 37.0861H183.385C183.385 37.1314 183.38 37.1824 183.368 37.239C183.368 37.2843 183.368 37.3296 183.368 37.3749C183.368 37.7374 183.442 38.0262 183.589 38.2414C183.736 38.4566 183.946 38.6095 184.218 38.7001C184.501 38.7907 184.829 38.836 185.203 38.836C185.407 38.836 185.594 38.8247 185.764 38.802C185.945 38.768 186.104 38.7227 186.239 38.6661C186.387 38.6095 186.511 38.5359 186.613 38.4452C186.715 38.3546 186.789 38.2527 186.834 38.1394C186.891 38.0148 186.919 37.8733 186.919 37.7147C186.919 37.4429 186.828 37.222 186.647 37.0521C186.477 36.8822 186.245 36.735 185.951 36.6104C185.667 36.4858 185.345 36.3725 184.982 36.2706C184.62 36.1687 184.24 36.0611 183.844 35.9478C183.459 35.8232 183.085 35.676 182.723 35.5061C182.36 35.3362 182.032 35.121 181.737 34.8605C181.443 34.6 181.211 34.2829 181.041 33.9091C180.871 33.524 180.786 33.0653 180.786 32.533C180.786 31.91 180.899 31.3777 181.126 30.936C181.364 30.4942 181.686 30.1318 182.094 29.8487C182.513 29.5655 182.989 29.3616 183.521 29.237C184.065 29.1011 184.637 29.0332 185.237 29.0332C185.837 29.0332 186.398 29.0955 186.919 29.22C187.451 29.3446 187.916 29.5485 188.312 29.8317C188.709 30.1035 189.02 30.4546 189.247 30.885C189.473 31.3154 189.586 31.8307 189.586 32.431V32.7198H186.834V32.5669C186.834 32.3064 186.777 32.0799 186.664 31.8874C186.551 31.6948 186.381 31.5419 186.155 31.4287C185.928 31.3154 185.639 31.2588 185.288 31.2588C184.96 31.2588 184.676 31.2984 184.439 31.3777C184.201 31.457 184.02 31.5702 183.895 31.7175C183.782 31.8647 183.725 32.0403 183.725 32.2441C183.725 32.5046 183.81 32.7255 183.98 32.9067C184.15 33.0766 184.382 33.2239 184.676 33.3485C184.971 33.4617 185.299 33.5693 185.662 33.6712C186.024 33.7619 186.398 33.8695 186.783 33.994C187.18 34.1073 187.559 34.2489 187.921 34.4188C188.284 34.5773 188.612 34.7869 188.907 35.0474C189.201 35.2966 189.433 35.6024 189.603 35.9648C189.773 36.3272 189.858 36.769 189.858 37.29C189.858 38.1847 189.666 38.9153 189.281 39.4816C188.895 40.0479 188.363 40.4613 187.684 40.7218C187.004 40.9823 186.222 41.1126 185.339 41.1126ZM202.485 40.9087V29.237H210.402V31.5646H205.39V34.1639H209.74V36.4745H205.39V40.9087H202.485ZM216.069 40.9087V29.237H218.974V40.9087H216.069ZM225.257 40.9087V29.237H227.89L231.305 34.4188C231.362 34.5207 231.441 34.651 231.543 34.8095C231.645 34.9568 231.741 35.1153 231.832 35.2852C231.934 35.4438 232.013 35.5854 232.069 35.71L232.154 35.693C232.143 35.4551 232.137 35.2229 232.137 34.9964C232.137 34.7699 232.137 34.5773 232.137 34.4188V29.237H234.856V40.9087H232.239L228.655 35.5231C228.541 35.3419 228.428 35.1493 228.315 34.9454C228.213 34.7302 228.122 34.5434 228.043 34.3848H227.958C227.969 34.5773 227.975 34.7756 227.975 34.9794C227.975 35.1833 227.975 35.3645 227.975 35.5231V40.9087H225.257ZM240.128 40.9087L243.882 29.237H247.501L251.273 40.9087H248.181L247.586 38.836H243.695L243.101 40.9087H240.128ZM244.29 36.5934H246.991L246.261 33.9261C246.227 33.8128 246.182 33.6712 246.125 33.5014C246.08 33.3201 246.034 33.1276 245.989 32.9237C245.944 32.7198 245.893 32.5216 245.836 32.3291C245.791 32.1252 245.745 31.9383 245.7 31.7684H245.581C245.536 31.9836 245.479 32.2215 245.411 32.482C245.343 32.7425 245.275 33.003 245.207 33.2635C245.151 33.5127 245.094 33.7335 245.038 33.9261L244.29 36.5934ZM256.523 40.9087V29.237H259.428V38.4962H264.525V40.9087H256.523ZM274.289 41.1126C273.632 41.1126 273.015 41.0503 272.437 40.9257C271.871 40.8124 271.367 40.6142 270.925 40.3311C270.495 40.0479 270.155 39.6685 269.906 39.1928C269.657 38.7057 269.532 38.1055 269.532 37.3919C269.532 37.3466 269.532 37.2956 269.532 37.239C269.532 37.1824 269.538 37.1314 269.549 37.0861H272.336C272.336 37.1314 272.33 37.1824 272.319 37.239C272.319 37.2843 272.319 37.3296 272.319 37.3749C272.319 37.7374 272.392 38.0262 272.539 38.2414C272.687 38.4566 272.896 38.6095 273.168 38.7001C273.451 38.7907 273.78 38.836 274.153 38.836C274.357 38.836 274.544 38.8247 274.714 38.802C274.895 38.768 275.054 38.7227 275.19 38.6661C275.337 38.6095 275.462 38.5359 275.564 38.4452C275.665 38.3546 275.739 38.2527 275.784 38.1394C275.841 38.0148 275.869 37.8733 275.869 37.7147C275.869 37.4429 275.779 37.222 275.597 37.0521C275.428 36.8822 275.195 36.735 274.901 36.6104C274.618 36.4858 274.295 36.3725 273.933 36.2706C273.57 36.1687 273.191 36.0611 272.794 35.9478C272.409 35.8232 272.035 35.676 271.673 35.5061C271.311 35.3362 270.982 35.121 270.688 34.8605C270.393 34.6 270.161 34.2829 269.991 33.9091C269.821 33.524 269.736 33.0653 269.736 32.533C269.736 31.91 269.849 31.3777 270.076 30.936C270.314 30.4942 270.637 30.1318 271.044 29.8487C271.463 29.5655 271.939 29.3616 272.471 29.237C273.015 29.1011 273.587 29.0332 274.187 29.0332C274.788 29.0332 275.348 29.0955 275.869 29.22C276.402 29.3446 276.866 29.5485 277.262 29.8317C277.659 30.1035 277.97 30.4546 278.197 30.885C278.423 31.3154 278.537 31.8307 278.537 32.431V32.7198H275.784V32.5669C275.784 32.3064 275.728 32.0799 275.614 31.8874C275.501 31.6948 275.331 31.5419 275.105 31.4287C274.878 31.3154 274.589 31.2588 274.238 31.2588C273.91 31.2588 273.627 31.2984 273.389 31.3777C273.151 31.457 272.97 31.5702 272.845 31.7175C272.732 31.8647 272.675 32.0403 272.675 32.2441C272.675 32.5046 272.76 32.7255 272.93 32.9067C273.1 33.0766 273.332 33.2239 273.627 33.3485C273.921 33.4617 274.25 33.5693 274.612 33.6712C274.975 33.7619 275.348 33.8695 275.733 33.994C276.13 34.1073 276.509 34.2489 276.872 34.4188C277.234 34.5773 277.563 34.7869 277.857 35.0474C278.152 35.2966 278.384 35.6024 278.554 35.9648C278.724 36.3272 278.808 36.769 278.808 37.29C278.808 38.1847 278.616 38.9153 278.231 39.4816C277.846 40.0479 277.313 40.4613 276.634 40.7218C275.954 40.9823 275.173 41.1126 274.289 41.1126Z"
    fill="url(#paint1_linear_1_18)" />
  <path d="M1.74976 54.5781L48.0456 54.5781" stroke="url(#paint2_linear_1_18)" stroke-width="1.69893"
    stroke-linecap="square" />
  <path
    d="M277.401 55.8524C277.87 55.8524 278.251 55.4721 278.251 55.0029C278.251 54.5338 277.87 54.1535 277.401 54.1535V55.8524ZM230.256 54.1535H229.406V55.8524H230.256V54.1535ZM277.401 54.1535L230.256 54.1535V55.8524L277.401 55.8524V54.1535Z"
    fill="url(#paint3_linear_1_18)" />
  <path d="M1.74976 13.5916L88.6076 13.5915" stroke="url(#paint4_linear_1_18)" stroke-width="1.69893"
    stroke-linecap="square" />
  <path
    d="M277.401 14.8658C277.87 14.8658 278.251 14.4855 278.251 14.0164C278.251 13.5472 277.87 13.1669 277.401 13.1669V14.8658ZM185.447 13.1669H184.597V14.8658H185.447V13.1669ZM277.401 13.1669L185.447 13.1669V14.8658L277.401 14.8658V13.1669Z"
    fill="url(#paint5_linear_1_18)" />
  <path
    d="M172.49 13.3916C172.49 9.67722 170.156 6.66559 167.278 6.66559C166.521 6.66559 165.802 6.87538 165.153 7.24911L159.779 1.38635L154.404 7.24911C153.756 6.87538 153.037 6.66444 152.28 6.66444C149.401 6.66559 147.067 9.67607 147.067 13.3916C147.067 14.4257 147.249 15.4047 147.572 16.2794L147.067 16.7953V20.802L149.093 18.711C149.975 19.5914 151.08 20.1165 152.28 20.1165C154.035 20.1165 155.585 18.9964 156.531 17.2825L157.797 18.6628L159.78 20.8261L161.776 18.6479L163.028 17.2825C163.972 18.9964 165.524 20.1153 167.278 20.1153C168.479 20.1153 169.584 19.5903 170.465 18.7098L172.49 20.8009V16.7942L171.986 16.2783C172.309 15.4024 172.49 14.4234 172.49 13.3893V13.3916ZM152.28 17.0704C151.842 17.0704 151.424 16.9317 151.049 16.6933L153.511 14.1517L151.645 12.1179L149.517 14.2915C149.458 14.0015 149.423 13.7011 149.423 13.3916C149.423 11.3968 150.731 9.71276 152.28 9.71276C153.829 9.71276 155.137 11.398 155.137 13.3916C155.137 15.3852 153.829 17.0704 152.28 17.0704ZM159.779 15.5618C158.487 14.5082 157.661 12.9044 157.661 11.1068C157.661 9.30922 158.487 7.70539 159.779 6.65183C161.071 7.70539 161.896 9.30922 161.896 11.1068C161.896 12.9044 161.071 14.5082 159.779 15.5618ZM167.276 17.0704C165.728 17.0704 164.42 15.3852 164.42 13.3916C164.42 11.398 165.728 9.71276 167.276 9.71276C168.825 9.71276 170.133 11.398 170.133 13.3916C170.133 13.7011 170.099 14.0026 170.039 14.2915L167.911 12.1179L166.045 14.1517L168.508 16.6933C168.132 16.9317 167.714 17.0716 167.276 17.0716V17.0704ZM170.032 5.94106L172.49 3.26074V8.2935C171.837 7.29038 170.996 6.47987 170.032 5.94106ZM163.392 3.17132C163.557 3.15756 163.724 3.14724 163.893 3.14724C165.754 3.14724 167.372 4.01279 168.216 5.28989C167.909 5.23601 167.596 5.20735 167.278 5.20735C166.677 5.20735 166.089 5.3025 165.52 5.49166L163.392 3.17132ZM147.067 8.2935V3.26074L149.525 5.94106C148.562 6.47987 147.721 7.29038 147.067 8.2935ZM151.341 5.28989C152.185 4.01164 153.804 3.14724 155.664 3.14724C155.834 3.14724 156.001 3.15756 156.166 3.17132L154.039 5.49166C153.47 5.3025 152.882 5.20735 152.281 5.20735C151.963 5.20735 151.648 5.23716 151.342 5.28989H151.341Z"
    fill="#00CCBD" />
  <path
    d="M114.885 12.8078V12.8404L114.89 19.8961C114.89 19.8961 122.151 20.0429 125.963 20.4692H125.971V13.4811L123.258 13.2353H123.243L125.961 9.62073L125.969 9.60908V3.78236L120.792 10.2113L114.89 0V0.0465951L114.885 7.74644L117.911 12.8917H117.883L114.885 12.8078Z"
    fill="#F2B64A" />
  <path
    d="M101.931 13.4837V20.473C105.694 20.0513 112.826 19.9033 113.004 19.8998H113.012L113.017 12.8104L110.005 12.8943H109.995L113.01 7.7653L113.019 7.75132L113.013 0.00488281L107.112 10.2174L101.931 3.78608V9.61512L104.661 13.2367L104.629 13.2391L101.93 13.4837H101.931Z"
    fill="#F2B64A" />
  <path d="M123.782 4.32199L123.82 4.27539L120.105 6.00873L120.119 6.03203L121.08 7.68149L123.782 4.32199Z"
    fill="#F2B64A" />
  <path d="M107.78 6.04005L107.797 6.01093L104.085 4.27759L104.133 4.33583L106.824 7.68369L107.78 6.04005Z"
    fill="#F2B64A" />
  <circle cx="136.018" cy="13.6435" r="1.54718" fill="url(#paint6_linear_1_18)" />
  <defs>
    <filter id="filter0_d_1_18" x="29.9677" y="21.2507" width="218.781" height="67.0193" filterUnits="userSpaceOnUse"
      color-interpolation-filters="sRGB">
      <feFlood flood-opacity="0" result="BackgroundImageFix" />
      <feColorMatrix in="SourceAlpha" type="matrix" values="0 0 0 0 0 0 0 0 0 0 0 0 0 0 0 0 0 0 127 0"
        result="hardAlpha" />
      <feOffset />
      <feGaussianBlur stdDeviation="14.1879" />
      <feComposite in2="hardAlpha" operator="out" />
      <feColorMatrix type="matrix" values="0 0 0 0 0.395833 0 0 0 0 0.291927 0 0 0 0 0.291927 0 0 0 1 0" />
      <feBlend mode="normal" in2="BackgroundImageFix" result="effect1_dropShadow_1_18" />
      <feBlend mode="normal" in="SourceGraphic" in2="effect1_dropShadow_1_18" result="shape" />
    </filter>
    <linearGradient id="paint0_linear_1_18" x1="57.177" y1="54.4923" x2="221.177" y2="54.4923"
      gradientUnits="userSpaceOnUse">
      <stop stop-color="#EF9A00" />
      <stop offset="1" stop-color="#01D1C2" />
    </linearGradient>
    <linearGradient id="paint1_linear_1_18" x1="140.188" y1="25.9087" x2="140.188" y2="39.4102"
      gradientUnits="userSpaceOnUse">
      <stop stop-color="white" />
      <stop offset="1" stop-color="#A79890" />
    </linearGradient>
    <linearGradient id="paint2_linear_1_18" x1="0.687924" y1="57.0873" x2="49.4707" y2="57.0873"
      gradientUnits="userSpaceOnUse">
      <stop stop-color="#FAB60A" stop-opacity="0" />
      <stop offset="1" stop-color="#FAB60A" />
    </linearGradient>
    <linearGradient id="paint3_linear_1_18" x1="278.463" y1="52.4938" x2="228.824" y2="52.4938"
      gradientUnits="userSpaceOnUse">
      <stop stop-color="#00CCBD" stop-opacity="0" />
      <stop offset="1" stop-color="#00CCBD" />
    </linearGradient>
    <linearGradient id="paint4_linear_1_18" x1="-0.242396" y1="16.1007" x2="91.2813" y2="16.1007"
      gradientUnits="userSpaceOnUse">
      <stop stop-color="#FAB60A" stop-opacity="0" />
      <stop offset="1" stop-color="#FAB60A" />
    </linearGradient>
    <linearGradient id="paint5_linear_1_18" x1="279.472" y1="11.5072" x2="182.654" y2="11.5072"
      gradientUnits="userSpaceOnUse">
      <stop stop-color="#00CCBD" stop-opacity="0" />
      <stop offset="1" stop-color="#00CCBD" />
    </linearGradient>
    <linearGradient id="paint6_linear_1_18" x1="136.018" y1="12.0963" x2="136.018" y2="14.4173"
      gradientUnits="userSpaceOnUse">
      <stop stop-color="white" />
      <stop offset="1" stop-color="#A79890" />
    </linearGradient>
  </defs>
</svg>