<svg xmlns="http://www.w3.org/2000/svg" id="Capa_2" viewBox="0 0 618 251.4">
  <defs>
    <style>
      .cls-1{fill:#010101}
    </style>
  </defs>
  <g id="Capa_3">
    <path d="M6.5 198.4c8 8.3 25.2 12.6 25.2 12.6 5.5 7.7 14 14.7 24.8 20.6 10.7 6 30 12 36 14a233 233 0 0 1 14.5 5.8c2-1.6 36-13.4 48-18.6a76 76 0 0 0 35.6-32.4c7.7-15.2 7-31.2 7-31.2-18.2 2.3-26 9-46.3 9-20.3 0-35.5-17.4-35.5-17.4 31.7 12.6 50.4 5.6 61.1 1.9 10.8-3.7 20-5 20-5l-1.2-11.4s-5.5-.3-9.3 2.6c-3.8 3-7.1 3.7-7.1 3.7l-15.9 3.2 10.6-10.5a23 23 0 0 1 16-6.6h5.1c-2.4-33.9-.5-57 .7-73.6 1.3-16.7 5.4-34.8 5.4-34.8L107 0 12.8 30.4A394 394 0 0 1 19.9 97c.5 13.1-.8 40.9-.8 40.9a36.7 36.7 0 0 1 29.8-7l13.4-5.2.3.2 28.1 26.3 1.3 1.2-6-2.3-.4-.3-2.8-1.8a69.7 69.7 0 0 0-14.8-8.2 37.1 37.1 0 0 1-4.2 57l-9.3-10.5c0-.3-.2-.6-.3-.8l-.8-1.9c-5.9-11.8-13.4-6-13.4-6l7.2 17-9.1-8.3c-8.6-16.6-16.6-8.6-17.3-8l7.3 13.7.5 1-6.2-4.8-3.8-4.9c-3-3.8-7.2-4.3-10.3-2.4l-.7.4c-2-4.5-3-9.6-3-14.8a41.6 41.6 0 0 1 10.9-27c-.4.4-5.1 3.8-9.5 10.4A33 33 0 0 0 .4 166c-1 9.1 1 16 2 18.7L0 186.3l6.5 12Zm158-75.6 25.8 7.2h-9.5a25 25 0 0 0-14.8 4.8l-11.5 8-30.7 9.7 23.1-23.2c7.7-7.6 17.5-6.5 17.5-6.5ZM136.8 21l-8.2 10.2-2.9-5 11-5.2Zm-26.6 10.4v-23l17.6 30.3 15.4-19.1v17.3L135 47.7l8.2.7v20.8c-11.4-1.2-33-1.7-33-1.7v-21l9 .2-9-15.3ZM107.4 72c9.7 0 19.5 1.2 19.5 1.2l2.1 5.4-10.3-.3-9.7 4.8 4.7 8.7 2-2v-3.3l8.5 2 6.7-4.8L133 89l-6 11.3 6.8-1.9-3.1 15.2-7.3 9.3-4.7-5.3-11.3-4.7-11.3 4.7-4.6 5.3v-10.6l8.7-8.5 7.2 3.4 7.2-3.4 8.7 8.5v-9.6l-4.8-5.7s-.8 2.6-2.5 3c-1.7.4-5.7-1.4-5.7-1.4s-.4 2-3.9 2l-.6-17.5-9.7-4.8-10.3.3 2-5.4s9.8-1.2 19.6-1.2Zm17 10.5-2.7 2.2-4.3-1v-.9l6.3-1 .7.7Zm-33.8 6 8.6-2v3.3l-7.7 12-3.7-1.5-6-11.3 2-5.3 6.8 4.8Zm-.1-6 .6-.7 6.3 1v.8l-4.3 1-2.6-2.1Zm-1.3-56.4-3 5-8-10.2 11 5.2ZM71.7 48.4l8.1-.7-8-10.8V19.6L87 38.7l17.6-30.4v23l-9 15.4 9-.3v21.1s-21.6.5-33 1.7V48.4Zm-7.4 63.8 4.1-19.4-.5 17 24.7 24.7v-4.3l5.4-7.7 9.4-3.8 9.4 3.8 5.4 7.7v4.3L147 110l-.3-17 4.2 19-43.4 43.4-43-43Zm40.7 51.6c8.6 8.6 22.6 17.2 23 17.5l-36.3-7.8C90 164.9 88 160 88 160l17 3.8Zm-21.1 42.8s22.9 3.5 47.5 1.3 49.7-13.6 49.7-13.6-7.3 16.6-27.6 26.5c-20.3 10-44.7 17.1-46.6 18.2 0 0-8.6-3.5-18-6.5-10.6-3.3-22.6-8.7-22.6-8.7s11.2-8.4 17.6-17.2ZM238.5 90V30.3h19.2v25.5L279 30.3h23.8l-21.5 24.6L303.2 90h-22.7L268 67.7l-10.2 9.8V90h-19.2Zm72.4 0V30.3H330V90h-19Zm32 0V30.3h16.3l18.6 21.4a50.7 50.7 0 0 1 4.7 5.9c1 1.1 1.6 2 2 2.7l.5-.1-.1-4.9v-25h17.4V90h-16.2l-21-23.9a53.1 53.1 0 0 1-4.4-5.9l-.5.2.1 3.3V90H343Zm99.5 1c-10 0-17.4-2.5-22.3-7.7-5-5.3-7.4-13-7.4-23.1 0-6.9 1.2-12.6 3.8-17.1 2.5-4.6 6.2-8 11.1-10.4a46.8 46.8 0 0 1 29.4-2c3.6 1 6.9 2.4 9.7 4.2a19.7 19.7 0 0 1 8.9 17.1h-18.3c0-1.4-.3-2.5-1-3.6-.6-1-1.4-1.9-2.4-2.6-1-.7-2.3-1.3-3.6-1.7-1.4-.3-2.8-.5-4.3-.5a18 18 0 0 0-6 .9c-1.7.6-3.2 1.5-4.3 2.7a12 12 0 0 0-2.6 4.4c-.5 1.6-.8 3.6-.8 5.8v5.5c0 3 .5 5.4 1.5 7.5 1 2 2.5 3.6 4.6 4.7a16 16 0 0 0 7.6 1.6c2 0 3.9-.3 5.6-.9 1.7-.6 3-1.5 4.1-2.6 1-1.2 1.6-2.5 1.6-4v-.4h-13.6V56.7h31.9V90h-10l-1.8-5.9a28.3 28.3 0 0 1-13 6.2c-2.5.5-5.3.8-8.4.8Zm71.9 0c-4.1 0-8-.2-11.5-.8a30 30 0 0 1-9.4-3.2 16.3 16.3 0 0 1-6.3-6.1c-1.5-2.7-2.3-6-2.3-10v-1.1H503V71c0 1.8.3 3 1.2 4a6 6 0 0 0 3.4 1.9 23.7 23.7 0 0 0 7.2.4l2.3-.2 2-.7a4 4 0 0 0 1.4-1.2c.3-.5.5-1 .5-1.8a3 3 0 0 0-1.5-2.6c-1-.7-2.3-1.2-4-1.7-1.7-.5-3.5-.9-5.6-1.3l-6.5-1.4c-2.3-.6-4.5-1.3-6.5-2.2-2.1-.8-4-2-5.7-3.3-1.7-1.4-3-3-4-5.1-1-2-1.4-4.5-1.4-7.4 0-3.5.7-6.5 2.1-8.9 1.5-2.4 3.5-4.4 6-5.9s5.4-2.6 8.6-3.3a48 48 0 0 1 20.2 0c3.1.8 6 2 8.4 3.4a17 17 0 0 1 5.7 5.7 17 17 0 0 1 2.2 8.3v1h-18v-.3c0-1-.3-2-.8-3a5 5 0 0 0-2.5-2.2 9.8 9.8 0 0 0-4.4-.9c-1.8 0-3.2.2-4.4.5-1.2.4-2 .8-2.7 1.4-.5.7-.8 1.3-.8 2 0 1.1.5 2 1.5 2.7a13 13 0 0 0 4 1.7c1.6.5 3.5 1 5.6 1.3l6.5 1.4a43 43 0 0 1 6.5 2c2 .7 4 1.8 5.6 3.1 1.7 1.3 3 3 4 4.8 1 2 1.5 4.3 1.5 7 0 5-1.1 9-3.4 12a20 20 0 0 1-9.4 6.8c-4 1.4-8.4 2-13.5 2Zm-275.8 76v-59.7h19.2v44.5h30.7V167h-49.9Zm58.2 0v-59.7h51.6v14.4H316v8.2h27.8v13.7H316v9.1h33v14.4h-52.2Zm56.9 0 21.7-59.7h22.4l21.8 59.8H399l-2.5-8.5h-20.9l-2.5 8.5h-19.6Zm26-21.7h13.1l-2.9-9.6a73.4 73.4 0 0 1-2.5-8.9l-.8-2.8h-.6l-1 3.6-1.1 4-1.2 4.1-2.9 9.6Zm72.6 22.8c-10 0-17.4-2.6-22.4-7.8-5-5.2-7.4-12.9-7.4-23 0-7 1.3-12.6 3.8-17.2 2.6-4.6 6.3-8 11.1-10.3a46.8 46.8 0 0 1 29.4-2c3.7.9 7 2.3 9.7 4.2a21 21 0 0 1 6.6 7c1.5 2.9 2.3 6.2 2.3 10H467a6 6 0 0 0-1-3.5c-.5-1-1.4-2-2.4-2.7a12 12 0 0 0-3.6-1.6 18 18 0 0 0-10.3.3c-1.7.7-3.2 1.6-4.3 2.8a12 12 0 0 0-2.5 4.3c-.6 1.7-1 3.6-1 5.8v5.6c0 2.9.6 5.4 1.6 7.4s2.6 3.6 4.6 4.7a16 16 0 0 0 7.6 1.7c2 0 3.9-.3 5.6-1 1.7-.5 3-1.4 4.1-2.6a6 6 0 0 0 1.6-4v-.3h-13.6v-12.2h32v33.4h-10l-1.9-6a28.3 28.3 0 0 1-13 6.2c-2.5.5-5.3.8-8.4.8Zm72.8 0a42 42 0 0 1-16-2.8 21.8 21.8 0 0 1-10.2-8.4 25.3 25.3 0 0 1-3.6-13.9v-35.7h19.2v35.5c0 3.1.9 5.8 2.6 7.9 1.7 2 4.4 3 7.9 3s6.2-1 8-3c1.7-2.1 2.6-4.8 2.6-8v-35.4h19.2V143c0 5.5-1.2 10.1-3.6 13.9a21.5 21.5 0 0 1-10.1 8.4 41 41 0 0 1-16 2.8Zm40.8-1.1v-59.7h51.6v14.4H585v8.2h27.7v13.7H585v9.1h33v14.4h-52.2Zm-327.3 58.7c0 .5.6.9 1.1.9h8.9c.5 0 1-.3 1.2-1l5.5-46.4v-.1c0-.6-.3-1-.7-1h-9.6c-.5 0-.7.4-.7 1l-5.7 46.6ZM291 199l-.3 4.2-2.8 22.3c0 .6-.6 1.1-1.1 1.1h-8.2c-.5 0-1-.3-1-.9v-.2l2.6-21.6c.2-.9.2-2 .2-2.7 0-1-.2-2-.7-2.4-.7-.8-1.8-1.1-3.4-1.1a36 36 0 0 0-6.9.9l-3.3 27.1c0 .5-.6 1-1.3 1h-8.2c-.5 0-1-.3-1-.8v-.2l3.5-29c1-2.7 2.5-3.5 6.6-4.3a66 66 0 0 1 13-1.6c4.7 0 8.3.7 10.4 2.6 1 1.3 2 3 2 5.5Zm84.3-20c0-.5-.2-.6-.7-.6H365c-.5 0-.9.3-.9.8l-5.8 48.6c-1 5-3 5-6.4 5.2-1.4 0-2.7 0-3.6.2-1 0-1.4.3-1.6 1.4l-.5 3.9v.3c0 1 .5 1 1.2 1 1.3.3 1.8.4 6.4.4 7.8 0 14.2-2.3 15.5-12.7l6-48.5Z" class="cls-1"/>
    <path d="M352.2 217c-2 6-6.7 10.1-17.3 10.1-6 0-9.8-1.2-12.1-3.5-2.3-2.3-3-5.7-3-9.4a43 43 0 0 1 2.5-14.4c2.3-5.7 6.9-9.4 17-9.4 6 0 10 1.4 12 3.6 2.4 2.3 3 5.3 3 9.2 0 4.2-.6 10-2 13.8m-9.5-18.3c-.8-.8-2-1.4-4.4-1.4-4.8 0-6.4 2.2-7.3 7-.5 3.1-1 6.9-1 10.2 0 2.2.3 3.6 1.2 4.5s2.2 1.2 4.3 1.2c5 0 6.4-2.3 7.3-7.3a61 61 0 0 0 1-9.7c0-2.2-.2-3.6-1-4.5m66.6 18.3c-2 6-6.7 10.1-17.3 10.1-6 0-9.8-1.2-12.1-3.5-2.3-2.3-3-5.7-3-9.4a43 43 0 0 1 2.5-14.4c2.3-5.7 6.9-9.4 17.2-9.4 6 0 9.9 1.4 12 3.6 2.3 2.3 3 5.3 3 9.2-.1 4.2-.8 10-2.3 13.8m-9.4-18.3c-.8-.8-2-1.4-4.4-1.4-4.8 0-6.4 2.2-7.3 7-.5 3.1-1 6.9-1 10.2 0 2.2.2 3.6 1.2 4.5 1 .9 2.2 1.2 4.3 1.2 5 0 6.4-2.3 7.3-7.3a61 61 0 0 0 1-9.7c.2-2.2-.2-3.6-1-4.5m48.4 17.3c-2.4 7.4-7 11.1-17.6 11.1-5.1 0-9.8-.7-12.2-1.6-2.7-.8-3.2-2-3.2-3.7l.3-3.2 4.6-38.8c0-1 .6-1.4 1.5-1.6h8.1c.5 0 1 .3 1 .9v.1l-1 8.6-.5 3.9s4-1.3 8.3-1.3 7.7.9 9.6 2.9c2 1.9 3 5 3 9.5 0 4.3-.7 9-2 13.2m-9.3-17c-1-1.1-2.3-1.5-4.5-1.5-2.6 0-6.2.9-6.2.9l-2.6 21.3s2.3.5 5.1.5c4.8 0 6.8-1.4 8-8.3.5-2.9.9-5.9.9-8.9.2-2-.2-3.4-.7-4m42.8-1.3c-.3.5-.6.7-1.1.7h-.4c-.7 0-4.4-.9-8-.9-1.6 0-3.7.2-5 1.3-.8.7-1.2 1.7-1.2 2.8 0 2.8 3 2.8 6.2 3.5 2.7.4 5.3 1.1 7.1 2.9 1.4 1.2 2.1 3.2 2.1 6.2 0 3.2-1 6.6-3.3 9-3 3-7.7 4.3-12.8 4.3-5.7 0-11-1.4-12-2-.2-.1-.6-.1-.6-.7v-.5l1.4-4.2c.2-.6.6-1 1-1h.3c.9.2 5.5 1.7 9.6 1.7 2 0 3.5-.4 4.7-1.5 1.1-.8 1.5-2 1.5-3 0-1.4-.6-2.1-1.4-2.6s-2.2-.7-3.8-1c-2.5-.5-5.8-.8-8-3a8.4 8.4 0 0 1-2-5.8c0-3 .6-6 2.6-8.3 3.3-4.1 9-4.6 13.3-4.6 5.3 0 9.4 1 10.6 1.6.5.1.5.5.5.8v.4l-1.4 3.9Zm-161.1-18.3c-1.1-.3-4.1-1-9-1-7.7 0-11.8 3.5-12.7 10.6l-.3 4.3-1 7.2-3.1 23.4v.6l-.2 1.2c0 .5.5.7 1 .7h7.9c.5 0 1.2-.2 1.4-.9v-.5l3.5-24.5h8.2c.5 0 1-.3 1-1l.8-5.4c0-.5-.4-.8-1-.8H309l.5-4.3c.3-2.8 1.6-3.6 4.8-3.6 1.8 0 3.9.4 4.6.6h.3c.6 0 .8-.4 1-1l1.2-4.5v-.4c0-.3-.2-.7-.6-.7Z" class="cls-1"/>
  </g>
</svg>
