<svg xmlns="http://www.w3.org/2000/svg" viewBox="0 0 510.7 664.1">
  <g>
    <path
      d="M261.1 1.9 255.4 0l-5.8 1.9-233.3 75L0 82.2l3.7 16.6C4 99.6 21 177.4 21 257c0 50.5-3.2 94.5-5.7 129.9-1.6 22-2.9 39.2-2.9 51.9 0 31.5 3 69 38.8 116 23.4 30.7 66 57.5 123.3 77.6 5.4 2 12 4 19 6.3 18.2 5.9 41 13.2 52.6 19.9l9.4 5.4 9.4-5.4c11.5-6.7 34.3-14 52.6-20 7-2.2 13.5-4.3 18.9-6.2 57.3-20.1 100-47 123.3-77.6a173 173 0 0 0 38.8-116c0-12.7-1.3-30-2.8-52-2.6-35.3-5.8-79.3-5.8-129.9 0-79.5 17-157.3 17.2-158l3.7-16.7-16.2-5.3L261 2Z" />
    <path
      d="M264.5 203.8v71s72.8 1.5 111 5.8h.1v-70l-27.2-2.5h-.1l27.2-36.2.1-.1v-58.4l-51.9 64.4-59.1-102.4v.5l-.1 77.2 30.3 51.5h-.3l-30-.8ZM168.6 347.6v.1l20.1 37.8 12.7 4.8 25.6-40 .1-.1V339l-28.7 6.7-22.7-16-7.1 17.9z"
      fill="#f2b64a" />
    <path
      d="m189.1 294.4-7 18.2 35-1 32.5 16.1 2 59c10.2 0 12.4-5.1 12.9-6.5v-.3s13.8 5.9 19.4 4.5c5.6-1.3 8.3-10 8.3-10l16.4 19V426l-.1-.1-29.3-28.6-24.3 11.6-24.2-11.6-29.5 28.8v35.5l15.8-17.8 37.9-15.9 38 15.9 15.7 17.8 24.6-31 10.4-51.3-22.5 6.3 20-37.7v-.2l-7-17.9-22.7 16-28.7-6.7v11.2h-.1l-6.7 6.6-15.7-28.9v-.2l32.5-16.1 34.7 1h.2l-7-18.2s-33-4.1-65.8-4.1-65.7 4-65.7 4Z"
      fill="#f2b64a" />
    <path
      d="M288.7 327v2.3l14.4 3.7 8.7-7.2.2-.2-2.2-2.4-21.1 3.4v.4zM134.7 210.6v70c37.7-4.2 109.2-5.7 111-5.7s.1-71 .1-71l-30.2.8h-.1l30.2-51.4.1-.2V75.5l-59.2 102.3-52-64.4v58.4l27.4 36.3h-.3l-27 2.5ZM123.5 360.5l-13.7 64.9 145.1 145.1 145.9-145.8.1-.2-14.1-64.1v.7l1 56.3-.1.1-82.9 83v-14.7L286.5 460l-31.6-12.9-31.6 12.9-18.2 25.8v14.7l-.1-.1-83.2-83.2 1.8-57.2-.1.5zM221.1 329.4V326.6l-21.1-3.4-2.2 2.4.2.1 8.8 7.3 14.3-3.6zM353.7 118.8l.4-.5-37.3 17.4.2.2 9.6 16.5 27.1-33.6z"
      fill="#f2b64a" />
    <path d="m193.3 136 .2-.3-37.2-17.4.5.6 26.9 33.6 9.6-16.5z" fill="#f2b64a" />
  </g>
</svg>