<svg xmlns="http://www.w3.org/2000/svg" viewBox="0 0 624.89 251.78">
  <path fill="#000"
    d="M226.49 170.44v-59.73h19.19v44.45h30.65v15.28H226.5Zm58.17 0v-59.73h51.66v14.33h-32.47v8.25h27.78v13.72h-27.78v9.12h33.08v14.32h-52.26Zm56.87 0 21.79-59.73h22.31l21.79 59.73H387.1l-2.52-8.42h-20.92l-2.52 8.42h-19.62Zm26.13-21.79h13.02l-2.86-9.55a109.4 109.4 0 0 1-1.65-5.65 735.86 735.86 0 0 0-1.65-6.08h-.69a70.24 70.24 0 0 1-.91 3.56l-1.17 4.12c-.41 1.42-.81 2.76-1.22 4.04l-2.86 9.55Zm72.49 22.83c-9.96 0-17.41-2.6-22.36-7.81-4.95-5.21-7.42-12.91-7.42-23.09 0-6.83 1.27-12.53 3.82-17.1a24.37 24.37 0 0 1 11.11-10.33c4.86-2.31 10.74-3.47 17.62-3.47 4.17 0 8.09.48 11.76 1.43 3.68.95 6.92 2.37 9.72 4.25a20.05 20.05 0 0 1 6.55 7.08 20.24 20.24 0 0 1 2.34 9.9h-18.32c0-1.27-.3-2.43-.91-3.47a8.41 8.41 0 0 0-2.47-2.65 11.89 11.89 0 0 0-3.6-1.65 15.89 15.89 0 0 0-4.3-.56c-2.26 0-4.25.3-5.99.91a10.52 10.52 0 0 0-4.3 2.73 12.1 12.1 0 0 0-2.56 4.34 17.81 17.81 0 0 0-.87 5.82v5.56c0 2.89.51 5.37 1.52 7.42a10.52 10.52 0 0 0 4.6 4.73c2.05 1.1 4.59 1.65 7.6 1.65 2.02 0 3.89-.3 5.6-.91a9.83 9.83 0 0 0 4.12-2.65 5.8 5.8 0 0 0 1.56-3.99v-.35h-13.54v-12.15h31.86v33.34h-9.9l-1.91-5.9a28.27 28.27 0 0 1-12.93 6.16c-2.55.52-5.35.78-8.42.78Zm71.91 0c-6.25 0-11.59-.94-16.02-2.82s-7.83-4.69-10.2-8.42c-2.37-3.73-3.56-8.35-3.56-13.85v-35.68h19.19v35.42c0 3.18.87 5.82 2.61 7.9 1.74 2.08 4.37 3.13 7.9 3.13s6.18-1.04 7.94-3.13c1.77-2.08 2.65-4.72 2.65-7.9v-35.42h19.19v35.68c0 5.5-1.17 10.11-3.52 13.85a21.55 21.55 0 0 1-10.16 8.42c-4.43 1.88-9.77 2.82-16.02 2.82Zm39.87-1.04v-59.73h51.66v14.33h-32.47v8.25h27.78v13.72h-27.78v9.12h33.08v14.32h-52.26Zm-284.85-65.67-9.3-10.69a9.65 9.65 0 0 1-1.74.17c-6.14 0-11.42-1.2-15.82-3.61a24.44 24.44 0 0 1-10.17-10.52c-2.38-4.61-3.56-10.15-3.56-16.64 0-6.84 1.27-12.54 3.82-17.12a24.47 24.47 0 0 1 11.04-10.34c4.81-2.32 10.6-3.48 17.38-3.48s12.66 1.16 17.47 3.48a24.53 24.53 0 0 1 11.04 10.34c2.55 4.58 3.82 10.29 3.82 17.12s-1.28 12.46-3.82 17.04a25.1 25.1 0 0 1-10.95 10.43l13.65 13.82h-22.86Zm-8.34-24.68c2.09 0 3.93-.33 5.52-1a11 11 0 0 0 4-2.82 11.74 11.74 0 0 0 2.39-4.39c.52-1.71.78-3.58.78-5.61v-5.56c0-2.03-.26-3.9-.78-5.61a11.74 11.74 0 0 0-2.39-4.39 10.68 10.68 0 0 0-4-2.82c-1.59-.67-3.43-1-5.52-1s-3.93.33-5.52 1a10.48 10.48 0 0 0-3.95 2.82 12.1 12.1 0 0 0-2.35 4.39 19.21 19.21 0 0 0-.78 5.61v5.56c0 2.03.26 3.9.78 5.61.52 1.71 1.3 3.17 2.35 4.39s2.36 2.16 3.95 2.82c1.59.67 3.43 1 5.52 1Zm72.48 14.33c-6.26 0-11.6-.94-16.03-2.82a21.79 21.79 0 0 1-10.21-8.43c-2.38-3.74-3.56-8.36-3.56-13.86V33.59h19.21v35.46c0 3.19.87 5.82 2.61 7.91 1.74 2.09 4.37 3.13 7.91 3.13s6.18-1.04 7.95-3.13c1.77-2.09 2.65-4.72 2.65-7.91V33.59h19.21v35.72c0 5.51-1.17 10.13-3.52 13.86a21.58 21.58 0 0 1-10.17 8.43c-4.43 1.88-9.78 2.82-16.03 2.82Zm42.85-1.04V33.59h51.71v14.34h-32.51v8.26h27.81v13.73h-27.81v9.13h33.11v14.34h-52.32Zm62.75 0V33.59h51.71v14.34h-32.51v8.26h27.81v13.73h-27.81v9.13h33.11v14.34h-52.32Zm62.49 0V33.59h16.34l18.6 21.47c.52.58 1.22 1.42 2.09 2.52l2.65 3.35c.9 1.13 1.58 2.04 2.04 2.74l.44-.17c-.06-1.62-.09-3.23-.09-4.82V33.61h17.47V93.4H542.6l-20.95-23.9a52.28 52.28 0 0 1-2.52-3.17l-2-2.74-.44.17c.06 1.1.09 2.2.09 3.3v26.33h-17.47Zm99.25 1.04c-4.11 0-7.95-.3-11.52-.91a29.92 29.92 0 0 1-9.39-3.13 16.21 16.21 0 0 1-6.34-6.17c-1.54-2.64-2.3-5.95-2.3-9.95v-.48c0-.2.03-.42.09-.65h18.16a2.6 2.6 0 0 0-.09.65v.56c0 1.74.4 3.07 1.22 4a6.12 6.12 0 0 0 3.43 1.87c1.48.32 3.14.48 5 .48.7 0 1.43-.01 2.22-.04.78-.03 1.53-.12 2.26-.26a8.37 8.37 0 0 0 2-.65 3.55 3.55 0 0 0 1.43-1.17c.35-.49.52-1.11.52-1.87 0-1.1-.49-1.97-1.48-2.61a14.47 14.47 0 0 0-4-1.65c-1.68-.46-3.56-.9-5.65-1.3-2.09-.4-4.26-.88-6.52-1.43a44 44 0 0 1-6.52-2.13 22.62 22.62 0 0 1-5.65-3.35 14.65 14.65 0 0 1-4-5.13 17 17 0 0 1-1.48-7.43c0-3.48.72-6.43 2.17-8.86a16.93 16.93 0 0 1 5.95-5.91 28.1 28.1 0 0 1 8.6-3.3c3.22-.7 6.59-1.04 10.13-1.04s6.97.36 10.13 1.09a27.6 27.6 0 0 1 8.39 3.35 17.03 17.03 0 0 1 5.74 5.74 16.38 16.38 0 0 1 2.17 8.26v1.04h-17.99v-.35a5.72 5.72 0 0 0-3.26-5.21 9.84 9.84 0 0 0-4.48-.87c-1.74 0-3.2.17-4.39.52a5.96 5.96 0 0 0-2.65 1.43 2.8 2.8 0 0 0-.87 1.96c0 1.1.49 2 1.48 2.69.98.69 2.32 1.27 4 1.74 1.68.46 3.56.9 5.65 1.3 2.09.41 4.26.86 6.52 1.35 2.26.49 4.43 1.15 6.52 1.96a22.4 22.4 0 0 1 5.65 3.17 14.38 14.38 0 0 1 4 4.82 15.3 15.3 0 0 1 1.48 7.04c0 4.93-1.15 8.92-3.43 11.99a19.62 19.62 0 0 1-9.39 6.74 39.94 39.94 0 0 1-13.51 2.13Zm-143.9 92c-15.84 0-26.34 10.69-26.34 25s10.5 25 26.34 25 26.34-10.69 26.34-25-10.5-25-26.34-25Zm0 47.81c-10.5 0-17.65-7.63-17.65-22.81s7.16-22.81 17.65-22.81 17.65 7.63 17.65 22.81-7.16 22.81-17.65 22.81ZM315.72 189l2.58 1.72c1.72 1.15 1.72 1.81.57 3.63l-1.15 1.81c-1.43 2.29-4.49 7.06-6.11 9.83l-1.43 2.39c-1.15 1.91-2.1 3.53-2.1 3.53s-.86-1.62-1.43-2.48l-.67-1.05c-2.67-4.2-6.3-9.54-9.45-13.84l-1.34-1.81c-.57-.76-.29-1.34.19-1.81l2.1-1.91v-.48h-15.46v.48l2.86 2c1.05.76 1.91 1.62 2.67 2.67l1.24 1.62a249.8 249.8 0 0 1 11.64 16.51l1.15 1.81c.48.76.57 1.53.57 2.48v13.74c0 .76-.19 1.15-.86 1.62l-3.44 2.48v.38h15.65v-.38l-3.44-2.48c-.67-.48-.86-.86-.86-1.62v-13.46c0-1.15.38-2 .95-2.96l1.43-2.39c3.34-5.53 6.3-10.12 9.45-14.89l1.15-1.72c1.34-2 2.29-2.77 3.82-3.82l2.39-1.62v-.48H315.7v.48Zm-62.8-2.58c-15.84 0-26.34 10.69-26.34 25s10.5 25 26.34 25 26.34-10.69 26.34-25-10.5-25-26.34-25Zm0 47.52c-10.21 0-17.65-7.35-17.65-22.52s7.44-22.52 17.65-22.52 17.65 7.35 17.65 22.52-7.44 22.52-17.65 22.52Zm99.06-25.29-5.06-3.15c-3.91-2.48-6.78-4.96-6.78-8.97 0-4.39 3.15-7.35 7.63-7.35s7.44 2.29 9.73 6.01l1.53 2.48h.57v-8.59s-4.2-2.29-10.59-2.29c-8.59 0-14.31 5.63-14.31 12.41 0 4.96 2.19 9.73 8.97 13.93l5.06 3.15c3.91 2.39 7.25 4.87 7.25 9.54 0 5.25-3.44 7.92-8.3 7.92s-8.4-1.81-11.45-6.78l-2.1-3.53h-.57v10.02s5.15 2.67 12.12 2.67c9.45 0 15.84-5.44 15.84-13.55 0-5.73-2.96-9.83-9.54-13.93Zm51.63-19.75 3.44 2.48c.67.48.86.86.86 1.62v16.32h-24.53V193c0-.76.19-1.15.86-1.62l3.44-2.48v-.38h-15.65v.38l3.44 2.48c.67.48.86.86.86 1.62v36.84c0 .76-.19 1.15-.86 1.62l-3.44 2.48v.38h15.65v-.38l-3.44-2.48c-.67-.48-.86-.86-.86-1.62v-17.75h24.53v17.75c0 .76-.19 1.15-.86 1.62l-3.44 2.48v.38h15.65v-.38l-3.44-2.48c-.67-.48-.86-.86-.86-1.62V193c0-.76.19-1.15.86-1.62l3.44-2.48v-.38h-15.65v.38Zm-196.28-3.29h-.02a43.96 43.96 0 0 0-14.44-44.57 38.14 38.14 0 0 1 10.78 24.94l.04 1.43v.29c0 .59-.02 1.18-.04 1.76l-.01.31a45.2 45.2 0 0 1-.12 1.64l-.04.41c-.06.53-.12 1.05-.2 1.57l-.07.42-.22 1.26-.12.58-.28 1.22-.17.66-.34 1.21-.24.77-.23.67-.47 1.29-.19.48c-.21.52-.43 1.03-.66 1.54l-.13.28-.44.92a3.78 3.78 0 0 0-.91-.11 5.62 5.62 0 0 0-3.87 1.49c-.38.37-8.34 8.87-8.34 8.87l-6.69 4.59-.51-.74 2.87-4.21 6.74-12.78c-2.98-1.32-6.07.08-7.53 1.66-1.46 1.57-7.53 10.19-7.53 10.19l-8.18 6.11-3.05 2.28-1.01-.79 2.48-6.6 4.6-12.23c-3.03-.56-5.73.39-7.24 2.19l-.33.43c-1.71 2.46-5.29 10.02-5.29 10.02l-6.99 7.07-.91-.46-.48-.24-1.1-.61-.46-.27-1.08-.67-.44-.28a39.7 39.7 0 0 1-1.06-.73l-.4-.28-1.05-.79-.36-.28-1.03-.86a42.97 42.97 0 0 1-1.34-1.21l-.27-.26c-.34-.33-.68-.66-1-1l-.23-.24c-.34-.35-.66-.71-.99-1.08l-.18-.21-.97-1.16-.14-.18-.95-1.25-.09-.13c-.32-.44-.63-.89-.93-1.34l-.05-.07a43.6 43.6 0 0 1-.9-1.45l-.66-1.14-.13-.25-.63-1.23-.22-.45-.56-1.24-.13-.29-.6-1.53-.15-.41-.41-1.22-.14-.45c-.16-.53-.32-1.07-.46-1.61l-.04-.16c-.13-.49-.24-.99-.34-1.49l-.1-.49-.24-1.35-.06-.37c-.08-.56-.16-1.13-.22-1.69l-.02-.23c-.05-.52-.09-1.04-.12-1.57l-.02-.43c-.03-.6-.05-1.2-.05-1.8 0-.59.02-1.17.04-1.75l.03-.48c0-.12.02-.23.03-.35a31.8 31.8 0 0 1 .2-2.03l.14-1.13.14-.81.16-.88.08-.39.14-.61.19-.81.06-.25.21-.77.26-.93.01-.05a79.43 79.43 0 0 1 .52-1.57l.12-.34.25-.67.29-.74.06-.15.36-.82.29-.64.15-.31.36-.72.31-.6.19-.36.37-.66.38-.65.06-.1c.16-.27.33-.55.51-.82l.08-.12.54-.83.39-.57.29-.41.31-.42.45-.6.52-.66.47-.56c.33-.39.66-.77 1.01-1.15l.39-.42.17-.18.52-.54.44-.43.68-.66.37-.33c.46-.42.93-.83 1.41-1.22l.36-.3.79-.61.43-.32.82-.59.32-.22c.55-.38 1.11-.74 1.69-1.09l.37-.23.87-.5.47-.26.88-.47h.02l.39-.19.88-.43.18-.08c.45-.21.91-.41 1.37-.59l.29-.11c.47-.19.95-.37 1.43-.54l.27-.09c.49-.17.99-.33 1.49-.48l.26-.07 1.53-.42.24-.06c.52-.13 1.05-.24 1.58-.35l.22-.04c.54-.1 1.09-.2 1.64-.28l.18-.02c.56-.08 1.13-.15 1.7-.2h.12c.6-.05 1.2-.1 1.8-.13a38.1 38.1 0 0 1 19.14 4.15 597.94 597.94 0 0 1-1.29-37.7c0-33.45 7.15-65.57 7.15-65.57L94.36 0 0 30.36s7.15 32.12 7.15 65.57c0 27.21-2.31 50.4-3.17 64.94 11.3-6.22 22.49-5.14 22.49-5.14s8.1 3.69 11.58 20.75a39.28 39.28 0 0 0-9-2.11c-3.4-.17-7.86.08-13.58 1.23-2.16.55-4.36 1.23-6.66 1.96a48.16 48.16 0 0 0-4.7 1.76c1.02 9.71 4.23 20.04 13.7 32.45 12.72 16.67 38.37 26.04 46.34 28.85 7.97 2.8 22.91 6.94 30.21 11.17 7.3-4.23 22.24-8.37 30.21-11.17 6.59-2.32 25.29-9.14 38.75-20.86a45.81 45.81 0 0 0 27.5-12.82c4.61-3.8 9.29-8.51 9.29-8.51l9.77-11.7-2.54-1.1Zm-73.42-66.76s-.39 20.77-26.33 32.03c0 0 19.99-25.54 22.35-72.74l10.37 47.85s-2.74-1.57-6.39-7.14Zm-38.42 58.04c-8.53 0-17.16-7.47-23.67-20.5a67.95 67.95 0 0 0-3.63-6.4 97.97 97.97 0 0 1 3.1 3.83c6.64 8.65 18.52 13.43 24.2 13.43s17.56-4.78 24.2-13.43a91.02 91.02 0 0 1 3.1-3.83 67.95 67.95 0 0 0-3.63 6.4c-6.51 13.03-15.14 20.5-23.67 20.5Zm21.98 17.53c-1.72.75-2.7 1.14-2.7 1.14-13.32 2.88-25.81-10.85-25.81-10.85 12.62 2.36 18.42.57 24.44-3.22.7 4.57 2.1 8.92 4.07 12.94ZM72.9 78.6c-2.6 1.33-4.47.79-4.47.79l3.97-6.25 5.23 4.26s-2.14-.13-4.73 1.2Zm8.47 3.16 1.6 1.53-1.78.47-4.35-.34-1.83-1.28 1.9-1.17 4.46.79Zm3.94 4.05 2.07 3.95-4.29 5.67c-1.84 2.29-2.05 2.51-3.24 2.26-1.34-.28-4.1-1.31-4.1-1.31l-7.57-7.57-.19-5.89c8.68 4.51 15.6 3.58 17.31 2.89Zm-7.14 24.75c1.35-1.74 6.69-6.84 10.32-9.08l5.61 2.7 5.88-2.49h.07l6.48.98-5.04-4.96s-.13.97-1.29 1.64c-.79.47-.9.33-1.17.18l-2.3-1.3s-2.15 1.49-2.78 1.49c-.16 0-.48-.03-.78-.23l.03-4.97v-9.93c0-.83-.2-1.78-.8-2.42 0 0-3.47-4.46-4-5.17l-5.38-1.21a7.35 7.35 0 0 1-2.01-.98l-4.87-3.46s5.96-.23 12.7-.35l5.54 6.16L99.92 71c3.58.06 8.98.17 12.81.35l-4.87 3.46s-1.07.75-2.01.98l-5.37 1.29c-.57 1.1-2.81 5.63-2.81 5.63l4.84-1.3c0 .07-1.4 3.74-1.55 3.97.05-.02.63-.21 2.25.44 1.71.69 8.64 1.62 17.31-2.89l-.67 5.71-9.03 13.73 5.13-1.3-.56 8.69a6.98 6.98 0 0 1-1.22 3.53c-1.09 1.67-3.75 4.79-7.62 8.95-3.93 4.24-9.12 7.04-11.89 7.04s-8.16-4.07-12.06-7.38c-1.77-1.5-3.16-2.76-4.15-3.7-1.15-1.08-1.63-2.24-1.63-3.81s.38-2.55 1.35-3.81Zm32.93-33.17 5.23-4.26 3.97 6.25s-1.87.54-4.47-.79c-2.59-1.33-4.73-1.2-4.73-1.2Zm2.62 4.74-1.83 1.28-4.35.34-1.78-.47 1.6-1.53 4.46-.79 1.9 1.17Zm18.25-62.74v14.89a20.97 20.97 0 0 0-7.27-6.96l7.27-7.93Zm-25.43-.34c5.5 0 10.29 2.56 12.79 6.34a16.37 16.37 0 0 0-7.98.6l-6.29-6.87c.49-.04.98-.07 1.48-.07Zm-24.35 0c.5 0 1 .03 1.48.07l-6.29 6.87a16.37 16.37 0 0 0-7.98-.6c2.5-3.78 7.29-6.34 12.79-6.34Zm-25.43.34 7.27 7.93a20.97 20.97 0 0 0-7.27 6.96V19.39Zm0 40.04 1.49-1.53a24.64 24.64 0 0 1-1.49-8.55c0-10.99 6.9-19.9 15.42-19.9 2.24 0 4.36.62 6.28 1.73l15.9-17.35 15.9 17.34a12.46 12.46 0 0 1 6.28-1.73c8.52 0 15.42 8.91 15.42 19.9 0 3.06-.54 5.96-1.49 8.55l1.49 1.53v11.85l-5.99-6.19c-2.61 2.6-5.88 4.16-9.43 4.16-5.19 0-9.78-3.31-12.57-8.38l-3.7 4.04-5.91 6.44-5.87-6.4-3.74-4.08c-2.8 5.07-7.38 8.38-12.57 8.38-3.55 0-6.82-1.55-9.43-4.16l-5.99 6.19V59.42Zm-6.5 60.32 8.36-40.21s-.74 30.67 15.92 47.04c24.63 24.2 23.15 32.59 23.15 32.59-4.87-7.67-15.48-12.24-23.89-17.4-8.4-5.16-14.52-17.4-14.52-17.4.52 11.5 10.54 21.68 10.54 21.68-20.13-11.71-21.11-18.93-19.57-26.29Zm-37.82 18.93 21.76-7.16c12.72 0 20.73 9.69 29.95 31.76 9.16 21.93 23.58 33.83 30.5 37.03 0 0-31.52 3.43-47.21-26.48-6.35-12.11-6.1-34.77-34.99-35.15Zm108.09 90.43c-1.94.68-4.46 1.49-7.14 2.36-6.31 2.03-13.22 4.26-19.03 6.76-5.81-2.5-12.73-4.73-19.03-6.76-2.68-.86-5.2-1.67-7.14-2.36-11.14-3.92-31.25-12.35-40.71-24.75a74.57 74.57 0 0 1-4.64-6.81c6.39 5.38 24.81 15.9 71.35 15.9 14.97 0 27.04-1.1 36.77-2.77a45.93 45.93 0 0 0 14.08 7.22c-8.64 5.17-18.07 8.95-24.51 11.21ZM83.75 110.18l6.9-2.83 3.82.94 3.82-.94 6.71 2.93s-.04 1.55-.98 2.34c0 0-3.71-1.83-9.5-.68a18.72 18.72 0 0 0-5.94-.25c-.87.69-.33 2.14 1.33 3.23 1.67 1.08 6.92 1.45 11.22.23 0 0-2.5 3.38-6.26 3.38-5.18 0-11.33-5.32-11.14-8.36Zm24.36-60.83c0-5.9 3.87-10.88 8.45-10.88s8.45 4.98 8.45 10.88a13 13 0 0 1-.27 2.67l-6.3-6.44-5.52 6.02 7.29 7.53a6.74 6.74 0 0 1-3.65 1.11c-4.58 0-8.45-4.98-8.45-10.88Zm-44.1 2.67a13 13 0 0 1-.27-2.67c0-5.9 3.87-10.88 8.45-10.88s8.45 4.98 8.45 10.88-3.87 10.88-8.45 10.88c-1.3 0-2.54-.4-3.65-1.11l7.29-7.53-5.52-6.02-6.3 6.44Zm24.1-9.43c0-5.32 2.44-10.06 6.26-13.18 3.82 3.12 6.26 7.86 6.26 13.18s-2.44 10.06-6.26 13.18a16.97 16.97 0 0 1-6.26-13.18Z" />
</svg>