<svg xmlns="http://www.w3.org/2000/svg" fill="none" viewBox="0 0 1001 1000">
  <path fill="url(#a)"
    d="M294 318.9v400c0 82.6 141.8 158.5 208.2 186.1 66.4-27.6 208.2-103.5 208.2-186V318.9H294Zm208.2 671.9-14-5.2c-2.6-1-66.9-25-131.9-67C261.8 857.5 214 790.3 214 719V238.8h576.6V719c0 71.3-48 138.5-142.5 199.6a752 752 0 0 1-131.9 67l-14 5.2ZM294 318.8V719c0 82.5 141.8 158.4 208.2 186 66.4-27.6 208.2-103.5 208.2-186V318.9H294Zm208.2 672-14-5.2c-2.6-1-66.9-25-131.9-67C261.8 857.5 214 790.3 214 719V238.8h576.6V719c0 71.3-48 138.5-142.5 199.6a752 752 0 0 1-131.9 67l-14 5.2ZM335.6 230.5c18.6-2.6 59.8 1 79.7-1.4 21.8.3 32.7.4 40.6 1.2-9.6.1-24.7.4-24.3-.7-11.2.8-17 1.8-17.3 2.9.5-1.7-24.2-1.3-35.5-.3-16.6.6-29.8-1-43.2-1.7Zm132.5 9 3-.6-34.5 1c7-.5 30.4-1.2 31.5-.4Zm91-2.4c31.4.2 68.5-.4 83.2 1l-6 1.9c-15.2.3-43.4-1.7-42.7.8.3-1.1-17.2-1.8-14.1-3L559 237Zm58.6.8-10 1.2c-17.5-.7 1.7-.9 10-1.2Zm-41-4.2c24.6-.4-14.7-1.4 9.8-1.2 8 .8-1.6.9-9.9 1.2Zm82 4.3-21.6-.8 52.2-1-30.6 1.8Zm-7.2 1.1c19.2-.2 41.4-1 57.8-1-9.4-.6-12.2-.5-18.9-1 23.1.5 43.5 1 71 .6-29.2 1.4 10.3 1.8-12.2 3.7 1-2.7-31.5.4-33.8-1.1l16.6-.7c-17.3-1.3-29 .9-47.6-.6-9.8.6 1 1.3 7.8 1.3-16.1-1-30.3.6-40.7-1.2Zm127.5-.7c-3 .4-1.8.7.8 1l9.7.4-.2 4.2c.4 3.4 1 6.3 1.4 10.5.4 4.3.5 9.8-.3 19.1a168.7 168.7 0 0 1-1.8-23.2l-.1-9.6h-13c-8-.9 6-2 3.5-2.4Zm9.4 33.2c-.1 17.8 2.3 24 2.6 25.4l-1.3 1 .3 8.3-1.9-13c.5-9.3-.7-12.5.3-21.7Zm6.9 11.2a14697 14697 0 0 0-.2-25.9l-.4-8.8 1 11 .6 10 .7 10.7-.3-1.5c.7 5.7.7 33 .9 52.2-.6-13.8-1.1-20.8-.2-32.8-1.7 2.9-2-4.4-2.1-14.9Zm3.4 4.3-1.1-14 1 14Zm-10 40.6.5-6.6-.6 27.1v-20.4Zm6-35c1 1.7 1.2 37.3 1 31.7 0-20.4-1.7 13.2-1.5-8.6 1.6-2.2.2-17.7.5-23Zm-6.3 73.3 1.4 22.3-1.4-22.3Zm-.2 21.8c2.9 10.4-1.4 14.6.3 38.4.2-4 .4-5.4.2-10.9 1 11.2.1 32.9 1.2 46.8-.3 5.5-1.2 3.8-1.5 12 .8-1.2.8 5.6 1.5 8.6-.4 19-1.7 6.3-3 10 2.2-15.7.8-45 1.6-66.5l-1-4.4c-.4-11.1 1.5-25.6.7-34Zm6-31 1.6 7.4c.2 26-2.1 8.9-1.7 33.6 3.5-9.9.5 13.9 3.6 16.2-.5-7-.9 12-1.7 13.1-1.2-3 0-20.4-1.3-26.4l-.3 19.1c-.9-29 .6-34-.2-63Zm-1.7 93.9 2.3 23.9-1.6 9c.5 11.2 1.6 4.6 2-4.7-.9 12-2.2 46.3-.8 64.9l.2-1.4V556c-.1 8.3 1-18.3-.4-10.4 1.5 25-1.1 38.4.3 63.8-1 3.1-1.3 15.6-2.3 18.7 1 3.7 1.5 3.5 1.8 15.7-1 14-1.2 49.7-3 47.6-2-7.4 1.7-18.4-.7-23-.8 1.7-.3 33-1.6 17-.3-32.7 2.7-62.5.7-94.6-.9-25.7 5.2-50.6 5-93.1l-1.6 5 1-9.2c-2.8-3.6.2-24.6-1.3-42.9Zm2.8 21.4-.2-33c-.7 31.3 2.5-.6 1.6 28l-1.5 5Zm-3.6 145.2 1-14c-1.8-15.8 1.2 6.3-1 14Zm.2 43.7-1.1-13.3 2 7.5-.9 5.8Zm0 27.3c.3 12.2-.5 24.9-1.6 14.3.7 2.5 1.6-3.3 1.7-14.3Zm-19.3 94.6a45 45 0 0 1-1.6 2.9c-.8 1.2-1 1.3-1 .8 0-1 1.2-4.6 1.3-6.2-2.6 8 .9 2.1 3.3-3.4 2.5-5.4 4.5-10.2.2.7l-2.2 5.2Zm-41.8 55.3c5.1-6.6 7.7-8.9 8.7-9.5a87.2 87.2 0 0 1-8.7 9.5ZM788 560.1v-8.4 8.4Zm0 0v5.4-5.4Zm-6.2 181.6.4-1.8-.4 1.8Zm-244-501.2h-11.2 11.1Zm-13-2.9c19.7-1.3 21 3.1 52.8 2.2l-40 .6c-18.2-2 14-1-12.7-2.8Zm268.4-2.4h1v.4-.4h-1ZM230.3 787.4l.6-.1 3.5 8c1 2.7 2.6 5.2 3.9 7.8-1.4-2.6-3-5-4.2-7.8l-3.8-8Zm0-2.6c-1.9-4.6-3.4-9.3-5-13.9-1.2-4.7-2.6-9.4-3.6-14.1 3.6 14 9 27.4 15.7 40.2a251.6 251.6 0 0 0 24.3 36 376.7 376.7 0 0 0 63.5 59.8l-5-3c.2.4-1.4-.8-4.4-3.1l-5.5-4.3A325.9 325.9 0 0 1 268 842c-3-3.4-6-6.7-8.6-10.2l-7.8-10.3c-4.6-7-9-13.3-12-19-3.5-5.6-5.7-10.4-7.3-13.6-1.5-3.1-2.4-4.6-2.2-4Zm-4-7.5-2.9-5.5-1.9-5.5c-1-3.6-2.3-7-2.8-10.9-.5-3.7-1.4-7.5-2-11.8a161 161 0 0 0-.9-6.6c-.3-2.3-.9-4.7-1.1-7.3 2.3 13.8 5 23.2 8.5 36.1l1.3 5.8 1.8 5.7Zm-15.7-57c.4-9.4-.5-20.6-.2-26 1.8 3.3.3 18 .2 26Zm-6.8-25.3v-4.4l.3 4.5-.3-.1Zm.3.1.8.3c-.3 3-.5 2.2-.8-.3Zm-.3-4.5c-.3-3.9-.5-8.5-.9-10.9v4c-.3-5.5-1-15.3-.5-17.9-.1 11 .4 11.1 1.5 11.4l.2-17.7c2.7 3.4-.1 15.4-.3 31.1Zm-.7-56 1.6 18.3c-1.5 5-1.6-11.4-1.6-18.2Zm1.8-26.8c.4 4.3.3 22 1 11.2.3 3 .2 6.4.2 10-.4-12-2.2-.7-1.2-21.2ZM206 629v5.2-5.2Zm36.5 185.1c-1-2-.8-2-.2-1.2l.2 1.2Zm-36-242.7v-6.8 6.8Zm298 413A849.8 849.8 0 0 1 471 971c-11.7-5.1-24.7-10.8-40.2-17.9-.1 2.1-12.5-5.7-15.1-4.8 15.9 7.8-14.4-6.4-43.8-24-29.6-17.5-57.7-38.7-46.7-29.8l7.4 4.3-8.3-3.6c-13.4-10.7-30-27-38.9-34.3-.2-.4 1.3 1 4 3.5 2.8 2.5 6.7 6.3 11.9 10.5l8.2 7 9.5 7.6 5 4 5.4 3.8 10.9 7.9c7.5 5 14.8 10.1 21.9 14.5 7 4.5 13.7 8.4 19.3 11.8a218 218 0 0 0 17.4 9.5c5.4 4.1-39.3-18.2-80.7-50a372 372 0 0 1-58.5-55c-1.6-1.8-2.9-3.7-4.2-5.3-2.6-3.4-5-6.3-6.8-8.8l-6.4-9-.2-2.6a232 232 0 0 1-17.5-29.6c-1-2.4-2.2-4.7-3.3-7l-2.8-7.3-2.6-7.5-2-8 .3-5.2c1.5 8 2.5 13.3 4.5 18.2l2.8 7.8 4.3 9.7-3.6-9.1-2.3-7.8c-.7-2.3-1.4-4.4-1.8-6.5l-1.1-6-1-5.6c-.4-1.8-.5-3.7-.8-5.7-.4-4-1.1-8.4-1.3-14-.9.5-1 5.3-1 6.4 0 1.2-.3-1.2-1.3-15.2.8-8 2.9 10.5 2.5-14.3.5-29.9-2.3-23.9-2.5-50l-.7 17.6c0-9.6-.5-27.5.5-36.8-.1 11 1 38.6 2.9 37.8-.5-11 .2-35.4.2-45l1.3 5.8c1.2-10.5-.7-16.6.5-29.9-.8-12.5-2 7.7-2.5.6.5-2.6 1.2-27 .3-35.4-2.8 6 .9 29-1.8 44.5l.4-23c-2.7-14.6 0 36.9-2.1 29.4-2.9-17.4 2.7-36.1-1-52.3-.6 10.7-.7 45-1.7 40.5 1-12-1-20.7-1.3-37.3L208 550c-.9-8.5-.9-1.7-1.4 5 1.6-29.6-.3-79.4 1.7-121.2-.4-24.7-1.3-3.1-2.3-14.4 1.7-13.1.3-35.4.4-49 0-4.1-1.6-11.5-2.3-7.6l1.1 34.5c-.9-1.7-2.4 3.4-2.2 15.7 3.3-8.5-2 48.6 1.7 51.1l-1.7-.5 1.2 44.2.2-1.3v6.1l.3 15.5c.3 12.4.5 27.8.1 40-.5-7 .1-47.8-1.7-23.8-1-18 .5-50.4-.2-83.4l-1 6.5c-1.7-34.7.4-80.6 0-119l1.6 11.4c.6-13.5 1.8-30.8.5-43.5.1 16.4-.8 8-1.4 5-.5-10.8-.4-24-.4-38.3v-56h4.7s-2.6.3 0 .5c24.3-.3 29.5-.6 41.1-1 15 .3 20.2 1.2 29.4 2.2 5.6-.2 19.3-.1 14-1-2.9-.1-5.8-.2-7.8-.1 16-1.7 11.2.5 31.3-.6-15.5 1.4 4.8 2 3 3.5 23.5-.6 2.2-2.6 5.1-3.2 28.5.8 32.2 2 60.8 2.3 1.7-.9-20.3-.6-22.7-1.6 8.1.3 17.7.2 19.2-.2l-17.6-.7c29.8 1.1 58.4 1.4 91.5.7l-2.6-.5H472l-7.4 1.7c11-.4 23 1 28.8-.3h-4l13.8-.6-14.2 1.6c17.6.8 41.9-2.7 70.5-2.4 6.2 2.3-49.4.8-53.1 3.7 9.4.5 25.7 1 31.4.2-1.1-.8-8-.8-14.8-.8 25-1.5 62.6.9 78.5-1.7l-18.9-.9c22-.3 36 2.8 43.4 1.1l-17.3 2.9c22.3-1.4 51-1.1 71.8-2.2.5-1.7-30 0-28.6-.3l10-1.2c32.4 1 9.2 1 48.5 2l.4-1.1c13.1 1.7 48.3-1.6 35 1.4l-10.6-.7 1 1.3 48-.9c-4.6.6 7 .8 14 1-.2 5.2-.5 8.4-1 5.3l.6 12.7.2 3 .1 2.1.3 4.2c-.6 2.4-1 .3-1.4-3.8l-.1-1.6-.2-2-.2-5.8-.5-11.8c-9.8.4-18 .8-18.6 1.3.6.9 10.7.8 15.7.7l-9.2.3h-7.7l-11.6-.8c-7.5-.6-15-1.5-25-1.5l-10 1.2.5-1.7a116 116 0 0 0-18.4 2.1c-19.8-2.3-41.2.5-71.1 0 24.9-1-16-1.6-11.7-2-13.7 0-47.4 2.9-59 .8-8-.8 16.7-1.2-2.3-1.5-12.4.2-21 1-13 1.8-27.4.5-60.1.1-90.2.2l7.2-1.1a284 284 0 0 0-47 1.8c-2.7-.5-4.2-.1-1.2-.8-24-1.8-30.8 2.3-70.3 1.9 2.2 1.5 20 1.7 32.5 1l-3.3 1.7c34.2 0 72.6-.3 100.2-1.4l-12.7 1.4c24 2.4 17.2-2.4 39.6.4 16.6-.7-12-1 .5-1.7 11.7.5-3 3 16.6 3.2-73.9.9-158 .7-235.4 1-1.5.4 2.6.5 6.7.6-4.8.4-15.8.6-30.5.6l-24.7-.2-25.2-.3-.7 51.6-.5 52.4c0 31.9.3 55.4 1.8 57.6-.7 3.9-1.5-8.6-1.4 7.8.3 1.5.8 5.7 1.5 1.8-2.6 41.6.1 97.1-1.6 147.2.8-1.1 1.2 10 1.8 10.1-1.8 17.2.1 46.6-.9 62.6l1-5.2V679c.2 1.4.3-5.4.4-9.5.4 11-.6 13.5-1.4 14.6l2 22.5-.5 12.6.1 12.5 1.4 12.8 2.7 12.8c4.3 17.2 12 34.2 22.2 50a273.2 273.2 0 0 0 35.9 44 508.7 508.7 0 0 0 42.4 38c10 5.5 18 10.7 34 21l-7.5-5.5c16.7 9.6.4 1.4 14.5 9.7 10 5 4 0-9-7.6-7.5-5.7-2.4-2.9 3.4.5 25 16.6 50.3 30.8 74.8 43.6a1100.9 1100.9 0 0 0 53.6 26.1l17.2 7.5Zm54.3-31c6.3-2-23.1 11.4-8.1 6.3a527 527 0 0 0 82.3-42 578 578 0 0 0 79.5-58.6c6.3-4.9 9.8-8.5 13.3-11.7 3.6-3.3 6.7-6.7 11.5-11.9 0-.3-.2-.6-.9-.2l4.2-5 4.3-5.6 4.6-6.1 4.3-6.5c1.4-2.2 3-4.3 4.3-6.6l3.8-6.5c2.6-4.1 4.6-8.3 6.5-11.8 1.7-4.2 2-7.6-1.5.2 4.9-11 8.5-20.6 11.6-29.1 1.4-4.3 2.4-8.4 3.4-12.2 1-3.8 1.2-7.4 1.5-10.8-2.3 11.4.3-11.6-2 2 .9-6 1-10.6 1.6-14.2l1.6-9c1.2-5.3 2.4-9.9 2.6-20.3-.3-1.2-.7-2.5-.8 1.7 1.9-22.6-1-69.3 2-71.8l-1.3-9.2c1-9.9 1.7-7.4 2.1-24-.5-10.7-1.1.5-1.6-3.5 1.2-4.5.7-33.5 2.4-46.6 1.9-.8-2.6 23.4-.8 36.5.3.4.4-1.5.5-4.2-.2 34.3-1.7 64.5-2.9 93.2-.6 14.3-1.2 28.3-1.5 42.2l-.1 10.4-.5 10.1c0 3.4-.6 6.7-1 10-.3 3.4-.7 6.8-1.4 10.1-1 3-1.7 5.6-2.3 8.2a101.9 101.9 0 0 0-3.9 17.8l1.9-4.1 1.9-5.4c1.3-3.8 2.8-8.1 3.6-12.3 2.1-8.2 2.3-15.6 1.1-16 1.5-5.6 2-11.3 2.9-17 0-6.7 2.5-6.6 3-9.5a104 104 0 0 0 .9 15.9c.6 3 1.5 2.4 2.3-6.1-.5 16.7-2 13.8-3 10.6-.7-1.6-1.3-3.3-1.7-2.8-.6.5-.7 3.2-1.5 10.3l1.3 4.5c-.2-2.8-1 2-2.8 8.5-1.4 6.6-4.2 14.7-5.2 19.2l1.5-3.6c-6 18.3-15.6 37-28.2 54.7a313.4 313.4 0 0 1-45.1 49.9 485.8 485.8 0 0 1-54.6 42.2 657 657 0 0 1-56.9 34.5c-10.3 2.8-24 10.2-37.8 17.3-13.8 7-27.7 13.6-37.5 15.4-8.5 4 13-3.3-3.5 3.8-8.3 3.5-9.5 2.6-9.3 2.1L502 990c-3.9-1-2.5-3.8 6.6-9.3 9-5.4 25.2-13.7 50.4-27.3Zm12.6-91.8c5.4-4.6 15-10 24.7-15.9 9.7-5.8 19.3-12 24.5-17.4 13.2-9.4 19.4-14.4 24.4-17.7-5.3 4.8-14 12-14.5 10.8-9.1 8.6-9.3 8.4-8.5 10-.7-1.4-15.5 9.5-22.1 14.8-10.1 7.3-19.5 10.9-28.5 15.4Zm86.5-50.1 1.2-2c-6.1 6.2-12.7 12-19.3 17.8a242 242 0 0 1 18.1-15.8Zm44.5-61.5-3.4 6.8a86.1 86.1 0 0 0 9.7-42.1l.2-7.4c.1-4.6.3-8.4.7-11.2l1.9 4.6c0 5.8-.2 14-.6 20.7 0 1.7-.2 3.3-.3 4.7 0 1.5-.3 2.7-.3 3.8-.2 2.1 0 3.4.6 3.4-.8-.3-5 12.4-5.6 9.7-1 2.3-1.8 4.7-3 7Zm7-35.2c.4 2.5.8 5 1 7.5-1.7 13.2-.4-1.3-1-7.5Zm-6.8 21.2a51 51 0 0 1-.4 1.8c-.1-.2-.6 1-1 2.2l-1.2 2.3c0-.1.6-1.5 1.6-5.7 1-2.6 1.2-2.3 1-.6Zm6.9-52.3-.8 16.4-1-39.6 1.8 23.2Zm1.1 5.4c-.2-14.5-1-31.3-1.1-43.8-.5 7.2-.4 9.3-1 14.3.5-17.5 1.2-32.9.6-53.7 1.4 22.1 1.9-7.9 3.8 9.2-2.8-.7.4 23.9-1.2 25.6l-.6-12.6c-1.3 13.2.8 22-.7 36.1.7 7.4 1.4-.7 1.4-5.9-1 12.2.6 23-1.2 30.8Zm-.7-96.5c1 5.4 1.2-8 1.6-12.1-1-6.4-2.7-8.9-1.2-23 2.1 3.5 2 24.2 1.9 37.7-.8 6-1.9-4.6-2.3-2.7Zm2.4-33.7c.1-13.4-2.3-18.1-2.6-19.2l1.3-.8-.3-6.3 1.9 9.8c-.5 7.1.7 9.5-.3 16.5Zm-6.3 17.2c-1.3-9.6-2.3-23.3-2.3-23.3l.3 1.1c-.7-4.4-.7-25-.9-39.6.6 10.5 1.1 15.8.2 24.9 3.4-4.4 1.4 22 2.7 37Zm-2.9-18.3-1-10.6 1 10.6Zm9-41.4-.6 5 .6-20.5v15.5Zm-6.1 26.5a192 192 0 0 1-1-24c0 15.5 1.7-10 1.5 6.5-1.6 1.7-.2 13.5-.5 17.5Zm6.3-55.5-1.4-16.9 1.4 17Zm.2-16.5c-2.9-8 1.4-11-.3-29.1-.2 3-.4 4-.2 8.2-1-8.5-.1-24.9-1.2-35.5.3-4 1.2-2.8 1.5-9-.8.9-.8-4.3-1.5-6.5.4-14.4 1.7-4.8 3-7.6-2.2 11.9-.8 34-1.6 50.4l1 3.3c.4 8.4-1.5 19.4-.7 25.8Zm-6 23.5-1.6-5.6c-.2-19.7 2.1-6.8 1.7-25.5-3.5 7.5-.5-10.5-3.6-12.3.5 5.3.9-9 1.7-10 1.2 2.4 0 15.6 1.3 20l.3-14.4c.9 22-.6 25.8.2 47.8Zm1.7-71.2-2.3-18.1 1.6-6.9c-.4-8.4-1.6-3.5-2 3.6.9-9 2.2-35 .8-49.2l-.2 1.1v-10.3c.1-6.3-1 13.8.4 8-.5-6.6-.5-12-.4-17.3 0-2.9.2-4.1.3-6l.2-5.6h-5.3l-3 .1-4 .3c-2.4-1-11.8-1.3-14.1-2.3-2.8 1-2.7 1.6-12 1.8-10.6-1-37.6-1.2-36-3 5.6-2 14 1.8 17.4-.7-1.3-.8-25-.3-12.9-1.5 12.4-.2 24.3.5 36 1 6 .2 11.8.3 17.8.3 5.9 0 11.8-.2 18.8-.7h2c.2 5 0 10.5-.6 15.4-.4 4.9-1 10-1.7 15.4-1.4 11-2.7 23.4-2.6 39l1.5-3.8-1 7c2.8 2.7-.2 18.6 1.3 32.5Zm-2.8-16.2.2 25c.7-23.7-2.5.4-1.6-21.2l1.5-3.8Zm-5.5-86.2a200 200 0 0 0-5.8.2c-2.2 0-4.3-.3-5.8-.9l10.4 1.1c5.2-1 4.2-.6 1.2-.4Zm-44.7-.5 10-1.1-5.6 2-4.4-.9Zm-20.7.1c-9.2.3-18.8-.6-10.8-1.6-1.9.6 2.5 1.5 10.8 1.6Zm-73-7.9c-13 1.8 21.1 2.3 3 2.4-14.5-.4-5.4-1.5-3-2.4ZM506 310c6.5-.4 9.2 0 10 .5-4.7 0-8.5-.1-10-.5Zm206.8 30.3v6.4-6.4Zm0 0v-4.1 4.1ZM593.3 312l1.5.2-1.5-.2Zm100.4 460.7-4.8 7 4.8-7Zm-8 6.3a125 125 0 0 1 10-13.1c3.2-4 7.5-9 11-20.8-2.8 9.4-7.4 18.8-13 27.6-9.7 10.2 5.2-9.2-8 6.3Zm21.1-194.5v-.9.9Zm-413.8-2-.6-.1.7-13.3-.1 13.4Zm-1 1.9-1 22.5-.4-133.7.8 4.3c.2-.4.3 6.3.4 16.5v37.7c-.2 27.4-.3 54.6.2 52.6Zm.9 6.4c2.3 13-.9 21.5.8 37.5-1.1-10.6-2.3-18.2-1.8-28.4l1-9.1Zm4.4 44.6c-.4 7.1.5 15.6.2 19.7-1.8-2.5-.4-13.6-.2-19.7Zm6.8 19.2v3.3l-.3-3.4h.3Zm-.3-.1-.8-.2c.3-2.3.5-1.7.8.2Zm.3 3.4c.3 3 .5 6.4.9 8.3V663c.3 4.2 1 11.6.5 13.6.1-8.3-.4-8.4-1.6-8.7l-.1 13.5c-2.7-2.6.1-11.7.3-23.6Zm.6 42.4-1.5-13.8c1.5-3.8 1.6 8.7 1.5 13.8Zm-1.6 20.2c-.6-2.9-.3-16.6-1-8.4-.4-2.2-.3-4.8-.3-7.5.4 9 2 .7 1.3 15.9Zm-1.3-16Zm-6.6-144.2c-.2 1.6-.4 1.6-.6.8l.6-.8ZM306.4 745c.5 1.5 1.1 3 1.8 4.4l-1.6-3.5-.2-1Zm-19.2-426c-.4 18-1 35.2 0 61.2 2-.6.6 10.5 2.6 12-.3-27 1.2 101.8 2 80.2l-.8-6.4 2 6.7c-.6 13-2.1 30.6-1 39.4-.6 2.4-.1-110.3-.7-106 2.3-10 2.3 150.9 3.3 155l-1.2 1.8c1.3 20 3 32.9 3.9 49.7l-1.5 3.8c.5-12.3-.5-15.7-1.1-28.3.2 21.8-.7 25.8-.4 42.4 2-.6 1-14.3 2 6.7-.8 6-2.9-7.9-2.5 10.8-.5 22.7 2.3 18.2 2.5 38l.7-13.4c0 7.3.5 20.9-.5 27.9.1-8.3-1-29.3-2.9-28.7.5 8.4-.3 26.9-.2 34.2l-1.3-4.5a48 48 0 0 0-.3 10.6c.2 3.4.3 7 0 12.2.4 2.5.7 3.3 1 3.3l.5-2c.3-2 .6-4.5 1-1.9 0 .5-.2 2 0 4.2.2 2 .4 4.8 1 7.6.7 2.7 1.2 5.7 2.2 8.2 1 2.5 1.8 4.7 2.6 6.2.6-2.7-1.7-7.6-3.3-13.8-.5-1.5-.8-3.1-1-4.7-.3-1.7-.7-3.3-.8-5 0-3.4-.1-6.6.7-9.5-.2 3 0 5.7 0 8.6.2 2.8.7 5.7 1 8.5 1.3 2.5 1.6 2 1.2.1 0-2-.8-5.4-1.1-9.1l-.4-5.5v-4.8c.2-2.7.4-4 1-2.7.7 3.3.8 6.8 1 9.9v4.8l.3 4.8a69.8 69.8 0 0 0 1.6 9.4c1.1 3 2.4 5.8 4.3 8.2l-2.4-8-1.1-5-.6-2.5-.3-2.5-.6-4.6v-3.6c0-2 .2-2.9.5-2.1a30.5 30.5 0 0 0 1.4 11.7c1.3 3.9 3 8 5.2 13.4 1.3 4.5 2.9 9 4.9 13.5 3.7 5 1.3.6-.4-3.9a125 125 0 0 0 22.9 33.4 458 458 0 0 0 35 33.3c14.8 11 2.5.5 9.8 4.8 6.8 7.3 21.4 15.5 30 21 2.5 1.7 8 3.1 6 1-7.5-4.2-14.9-8.6-22.1-13.1 1.5 0-.8-3.3-8.3-8.5 1.6 3.1-5.5-2.5-13-9-7.6-6.6-15.6-14-17.4-13.4l1.4-1a233.6 233.6 0 0 1-23.3-22l.4.9c.2-.1-1-1.3-2.8-3.4-1.7-2.2-4.4-5-7-8.6a93.3 93.3 0 0 1-14-24.4c.7 1 1.8 3.5 3.1 6.2 1.5 2.8 3.1 5.9 4.7 8.3 3.1 4.7 4.9 7 1.2-.6 3.6 5.2 8.6 12.5 15.1 20.6 6.6 8 14.8 16.6 24.1 24.3l-2.7-4c9.8 8 21.2 17.3 33.4 26.4a389 389 0 0 0 37.4 25l-8-3c8.2 5.7 18.8 13.4 27.8 16.7-10.8-5.8-4.8-3.6-2.6-3 14.8 7.2 36 19.1 57 27.5 0 0-1.2-.1-.4.5l1 .4.4.1h.2l.6.2 1 .3 1-.5.5-.3.2-.1.7-.4 6.8-3.3c10.3-4.4 14.1-5.3 20.8-7.4 3.6-2 12.8-6.6 8.9-5.6l-5.3 2.5c10-6.9 7.7-3.2 20.5-11.2-9.6 6.7 4.1.1 3.6 2 15-9 .2-3 1.8-4.7l20.3-10a214 214 0 0 0 19.7-11.3c.6-1.4-13 7.7-15.2 7.7 5.4-3 11.3-6.9 12-7.8-3.8 2.2-7.5 4.4-11.4 6.4a293.1 293.1 0 0 0 55.3-38.8l-1.8 1a304 304 0 0 0 11.3-10l-2.9 5c5.8-5.8 13-10.8 15-14.9l-2.1 2c2.1-2.5 4.4-5 6.4-7.6-1.8 3-3.8 5.7-5.8 8.7a94.5 94.5 0 0 0 14-17.6c4.7-7.1 9.5-15.2 13.9-23.9 1.9-1.4-1.5 6.4-6.7 14.5-5 8.2-11.9 16.5-11.7 18.5 5.1-4.7 12.4-14 14.1-17.9-1.2.2-3.9 4.3-6.9 8.2 4.9-7.6 11.2-16.8 15.3-26 4.2-9.2 6-18.2 5.4-23.5l-1.4 6-2 6 1.3-5c.5-1.7.7-3.2 1-4.6.9-2.9 1.1-5.5 1.6-7.8l.4-3.6.2-3.4c0-2-.1-3.7-.5-5.1l1.4 6.5 1.3 6.3-.3-6.3a4674.3 4674.3 0 0 1-.8-21 521 521 0 0 0-1-26.8c-1.6-.4.1 22.8-.2 21.7l-1.2-7.5c1-24.7 1-7 2-36.9l-1.2-.3c1.7-10-1.5-36.6 1.5-26.6l-.7 8.1 1.3-.6-.9-34.5c1 3.4.7-13.3 2-8.8l-1.2-12.7c2-5.8 2.3 23.3 3.8 24.7.9-.5.7-6.5.6-9.4 1.4 15.3-1.9 22.9-2 38l1.3 7.6-1.7-.4c.3 6.3 1.4 11.8 2.1 14-2.3 15 .5 31.2 0 53.9-1-18.9-1.6 12-2 8.8l.3 10.1c.2 2 .2 4 .2 6s.2 4.1-.1 6.2c-.3 2-.3 4.1-.8 6l-1.3 5.6a33.4 33.4 0 0 1-3.6 8.1c-1.6 2.4-.5-.4-.1-2.4.3-2 .7-2.9-2 3.3a1555.6 1555.6 0 0 0-3.8 9.3c-.6 1.9-.3 2.2 1.4-.2-8.9 18.1-25.6 36.3-42.4 51.1l3.2-4.4a297.8 297.8 0 0 0-25.9 23.9c-1.8.8-2.5 1.7-1.1-.1-7.8 4.6-12.2 8.3-17.7 13a161.7 161.7 0 0 1-25.3 17.8c2.3.5 13.8-6.3 21.3-12.2l-1 2.9c10.8-7 22-15 32.2-23.4a249.7 249.7 0 0 0 26.4-24.4l-6 7.5c7.4-5.2 9.2-8 11-10.6a44 44 0 0 1 10.2-10.5c7.7-10-6.7 6.2-1-1.4 6-6.5 1 3.9 10.4-7.9a288.2 288.2 0 0 1-64.3 61 624.3 624.3 0 0 1-77.5 46.7c-.8.8 2-.5 4.8-1.8-2.7 1.8-8.8 5.1-17.2 9.2a417.8 417.8 0 0 1-22.4 10.1l-10.2 4.2a560.7 560.7 0 0 1-41.1-19.7c-13.4-7-26.4-14.2-37.9-21-22.9-13.6-39.5-25.1-41.9-24.8-2-2.3 6.2 2.6-4-4.6-1.1-.4-4-2-2 .3-12.1-10.3-26.6-21.9-40.5-35.5a207 207 0 0 1-19.6-22.1c-6-8-11.2-16.6-14.9-25.6-.3 1.2-4.3-6.5-4.7-6.6-1.7-6.6-4-15.5-4.9-24.6l-.4-6.7V712c0-4 0-7.7.3-10.8l-1 4v-38.4c-.3-1.1-.3 4-.4 7.2-.4-8.4.6-10.3 1.4-11l-2-17.2c3.3-50-1.8-112.3.2-169.9a170 170 0 0 1-2.3-30.6l-.5 7.2c-1.3-14.8.8-.9.1-13.5-1-8.5-2.3-2.6-1.4 9-.6 7.3-1.1 2.8-1.5-2.4.2-46.2 1.2-89.2 4-126.6Zm57.8-12.6c5 .7-19.8.6-7.7 2.2 38.7 3 101.5.6 147.2 3 12.2 1.1 15.5 1.2 26.5 1.8.2-.3.2-.6-.3-.9 12.5.1 32.6-.3 45 .4 3.6-.3 6.2-1.5-.6-1.2 19-1 32.7 2.3 43.4 1.3-9.2-.8 9.2-1.2-1.8-1.8 19.8-.2 18 4.1 33.7 4.6 1-.3 2-.6-1.3-.7 17.2 1.8 52.6-1.1 54.5 2l7-1.4c3.7.5 5 1 7.1 1.3 2.4.3 5.3.6 12 .8l2-.1c.2 2.6.4 2 .7.9.2-1 .5-2.6.7-1.1-.3 1.3-.5 3.9-.7 7l-.3 10.7c-.3 7.2-.5 15.2-1.4 20.2-1 .2-.3-4.2.4-10a135.7 135.7 0 0 0 .8-13.7 20 20 0 0 0-.4-4.4c-.3-.2-.5 1.4-.5 3.5l.2-12.7a12888.2 12888.2 0 0 1-34-1.3l-30.7-1.7a718 718 0 0 0-58.6-1.2 48 48 0 0 0-20.8 1.3c7.7.6 29.7 1.8 30.2-.8l13.4 1.7c5-.1 5 2.6 7.1 3-9.4-.3-20 2.3-7.3 3.3-24.8.3 8-5.7-14-5l-3.2 2c4.2-1.1-14.9-2-22-1.4l3 .4c-58.4-.9-136.4 0-201 .6-16-4.8-47.5 1.7-62.4-2.2-7.1.7 10.1 1.7-3.5 2.3-6.9.3-7.5-1-7.2-1.3l-6.2.4c-5-4.7 7-8.8 51-11.9Zm59.7 324.5h.4v.4l-.4-.4Zm.7 7.9c.8 0 1.2.3 1.5 1.1-.7 0-1-.8-1.5-1.1Zm0 4.8-1 1.1c0-.5.3-.8 1-1Zm-2.2-85.9-.8.8c-.3-.8.4-.4.8-.8Zm.4 40c.3-.4.7 0 1.5 0 0 .4.3.4.7.4-.4.3-.7.3-1.1.3-.4 0-.8 0-1.1-.7Zm.3 9.3-.3-.3.3-.4.4.4-.4.3Zm.8-1.5.4.4h-.4v-.4Zm-2.3-18.3-.3-.7 1.1.4-.8.3Zm24.3 62.8c0-.4 0-1.1.4-1.9.4 0 .7 0 1.1.4.4.3.8.7 1.1 1.5 0 .7-.7 1.5-1.8 1.8-.4-.3-.4-1-.8-1.8Zm-21.6 25h.7l-1.1.4.4-.4Zm-2-74.7-1-.7c.2-.3.5-.4.7-.4.4.4.8.7.4 1.1Zm-.7 37c.4-.4.8-.8.8 0h-.8Zm.8-46c-.8 0-1.1 0-1.5-.7l1.5-.7-.4.7c0 .4 0 .8.4.8Zm0 .4v-.3l1.1.3c-.4.4-.7.4-1.1 0Zm1.1 1.5h.8l-.4.4-.4-.4Zm24.7 44.5c-.8-.4-.8-1.2-.4-2.7.4 1.2.7 2 .4 2.7Zm23-159.2c0-1.1 0-1.9-.4-3-.3-2.2-1-4.5-1-6.7 0-1.5-.5-2.6-1.2-4.1-.4-.4-1.1-1.2-.8-1.9 0-.4 0-.8-.3-.8l-3-3.3a55 55 0 0 0-6.7-4.5 7.7 7.7 0 0 0-2.3-1.5 12.8 12.8 0 0 0-4.5-2.6h-3.3l-2.3-1.1c-.3 0-.7 0-1-.4-.8-.4-1.6-1.1-2.3-1.1-1.1-.4-2.3-.8-3.4-.8h-5.2c-.8.4-1.1.4-1.9.4-1 .4-2.2.4-3 .8l-2.6 1-.4.5a8 8 0 0 0-3.7.6l-.2.2c.1 1-.8.5-1.4.5l-2.8-.2c-.5-.2-1.1-.2-1.2.4-.1.7-.5 1-1.4.5-.7 0-1.5 0-2 .3-.7.6-1.2 1-2.3 1.3-.4-.3-1-.3-1.2.3.3.4.8.6.6 1.2-.7-.5-1.3 0-1.9-.2-.6.5-1 .8-1.8.8l-.4.3c.1.5 0 .7-.3.8l-.7.6-.5 1h-.2c-.5.5-1.6.7-2.1 1.2h-.9c-.4.3-.3.8-.2 1.3l-.4.3-2.4 1.9c-.1.6-.5 1-.9 1.2l-1.3 1c-.5 1-1.4 1.7-2 2.8l-.3.1c-.4-.2-.6 0-.8.1l-.8.6c-.4.3-.5 1-1 1.4-.2.1-.3.7-.5.9l-.6.4c-.5.4-.8 1.2-1.4 1.7l-.2.1-.8 1.2c-.2.2-.3.8-.7 1.1-.6.5-1.1.9-1 1.9l-.4.3-3.7 4.5c-.3.3-.4 1-.8 1.2-.8 1.8-2 3.3-3 4.7l-2.9 3.8c-.1.1-.5.4-.4 1-.1.6-1.2.8-1 1.8l-.6.4c-.7.6-1 1.4-1.5 2.3-1.1.9-1.7 2.5-2.6 3.7-1.2 1.5-2 3.2-3.2 4.7-.9 1.2-1.5 2.8-2.5 4.2a17 17 0 0 0-2.3 4c-1 .7-1.5 1.7-2.1 2.8-.7 1-1.7 1.8-2.3 2.8l-2.6 3.7-2.8 3.8c-.3.8-.8 1.2-1.3 2.2-.8.6-1.3 1.5-1.8 2-1.1.8-1.7 2.4-1.9 4.2.1.5 0 .6.5 1.3.5.8.6 1.3.4 1.4.3.6.6 1 1.1 1.4 1.3 1.3 2.4 1.6 3.8 2.2.7.6 1.7 1 2.3 1 .2 0 .5.3.5.3.2.3.7.6.9.4 0 0 .4.2 0-.6l.3-.2 2.9-.5-.1.6s-.1.7.3.9l1 .4.5-.4c.2-.2.6-.4.9 0 .7.5 1 .2 1.7.3.2-.2.9-.1 1-.3.2-.1.7.1 1 .5.2.3.7.5.9.4l1.7-.2c1.3.2 1.8-.3 2.9-.5.6 0 .8 0 1-.2l.4-.3c.7-.6 1.6-.7 2.4-.7.2 1-1 .2-.6 1 .7.6 1.2.8 1.7.4l2.5-1.9.2.4 1-.8c1.2-1.5 2.5-2.5 3.9-3.5l.7-.6c.2-.1.4-.3.8 0v-.6l1.1-.8c.2-.2.6 0 1-.2l.6-.5c.5.2.8 0 1-.2.4-.3.6-.4.7-1l1.5-1.6a6 6 0 0 1 1.6-1.7l.3-.2a26 26 0 0 1 2.7-2.3l.2.3h.2l.2-.3c-.4-.8.3-.8.5-1v.6l.8-.6c.4-.3.6-.4.5-1 .1-.6.7-1 1-1.3l1.8-1.3c.4.6.6 1 .6 1.4l10.4-6c0 .5.1 1 .4 1.3v.7c-.3.8-.3 1.5-.3 2.6v2.7c-.4.7-.4 1.8-.4 3 .4 1 .4 2.2 0 3.3v3.4c0 .7-.4 1.8-.4 2.6.4 1.1 0 2.2.8 3.3-.4.8-.8 2-.4 3 0 1.1 0 2.6-.4 3.8 0 1.4-.3 3 1.2 3.7-1.2 1.1-1.2 2.2-.8 3 0 1.1-.7 2.6 0 3.3 0 .8-.4 1.5 0 2.3v2.6c-.4 1.5 0 3 0 4.5 0 1 .4 2.2.4 3.3-.4.8.4 1.5-.4 2.3.4.3.4.7.4 1 .4.5.4 1.2 0 1.6a4 4 0 0 0 .4 3v.7c-.8.8-.4 1.5-.4 1.9 0 .7 0 1.1.4 1.5 0 .3-.8.7-.4 1.5.4 0 0 .7-.4 1-.4.5.4 1.2 0 1.6.8.7.4 1.5 0 2.6 0 1.1 0 2.2.8 3 .3.7 0 1.1 0 1.8.3.8-.8 1.5.3 2.3l-.3.4c0 .7 0 1.8.3 3 0 .3.4 1 0 1.4 0 .8-.3 1.5.4 2.3 0 .3-.4 1.1.4 1.8l-.4.4c-.4.4 0 .8 0 1.1.3.3.3.5 0 .8-.4.4-.4.7 0 1.1-.4.8 0 1.1.4 1.1-.4.4-.4.8-.4.8v1.8c.4.8.8 2 .4 2.7 0 .7-.4 1.4.3 2.2v.4c-.3.7 0 1 0 1 0 .8-.3 1.2 0 1.2 0 .8.4 1.5 0 1.9-.3.3 0 .3 0 .3v3h.4c-.4.4-.7.8-.4 1.2v.3a6.4 6.4 0 0 0 0 3.8c.4.7.4 1.4 0 2.2v2.2c.4 1.5.4 3.4.4 4.9 0 .7 0 1.1.4 1.9-.4 0-.4.3 0 .7 0 .4-.4 1.1-.4 1.5l.4 1.1.4.4c0 .4-.4.7-.4 1.1-.4 1.9.4 4.1 0 6 .4 1.1 0 2.2 0 3.3 0 .8 0 2 .4 2.6-.4.4 0 .8 0 1.2v4.8c-.4.8-.4 1.5 0 2.3v.7c0 1.9-.4 4.1-.4 6.4v5.6c0 2.6-.4 5.2-.4 7.8v1.5c-.4 1.9 0 3.7-.4 5.6-.3 1.1-.3 2.6-.3 3.7.3 1.5 0 2.6-.4 3.7v1.5c0 1.2.4 2 0 3-.4 0-.7.8-.4 1.1.4 0 0 0 0 .4-.3.8 0 1.1 1.2 1.5.7 0 1 .4 1.4 1.1.4.8.4 1.5 0 2.3.4.3.4.7.8 1l3.7 1.6h.8l2.6.3.4.4c.3.8 1.4.8 2.2.8 1.1 0 1.9.3 2.6 1 .8.8 1.5.8 1.9 1.2h2.2c.4 0 1.1-.4 1.5-.4 1.1 0 1.9.4 2.6 1.5.4.4 1.1.8 1.9.8h1.5c.7 0 1.9 0 2.6-.4.4 0 .8 0 1.1.4.4.7 1.1.7 1.9.7.7.4 1.5 0 1.9.8 0 .3.3.3.7.3.8-.3 1.5-.3 2.6-.7.4-.4.8-.4 1.1-.8.4-.7 1.2-1.8 1.2-3v-2.2c0-.7 0-1.5-.4-1.9 0-.7 0-1 .4-1.4a4 4 0 0 1 1-2.7c.5-.7 1.6-1 1.6-2.2l.3-.4c.8-.3 2-.7 2.7-1.5.7-.3 1.4-.3 2.2-.7.4-.4 1.5-.4 1.9-.8.3-.3.7-.3.7-.3.4-1.1.8-1.1 1.5-.8v-1c1.1.3 1.9.3 2.2-.5l.4-.7c.4-.8.8-1.5.4-2.3-.4-.7-.4-1.4-.8-2.2-.3-.4-.3-.7-.7-1.1-.4 0-.4-.4-.8-.8-.7-.7-1.8-1.5-2.2-2.6 0-.7-.4-1-1.1-1a11 11 0 0 1-2.6-2c-.4-.3-.8-.3-.8-.7a8 8 0 0 0-1.9-1.1l.4-.4c-.4-1.1-1.5-1.1-2.2-1.5v1.1c-.4-.3-.8-.3-1.1-.3 0 0-.4 0-.4-.4 0-.8-.8-.8-1.1-1.5l.7-.8c0-.3.4-.7-.4-1l-.3-.4a26 26 0 0 0-1.1-3c-.4 0-.4.3-.8.3s-.4-.7-.7-1v-2c-.4-1.4-.4-2.6-.4-4v-1.2l-1.1-3.7-.8.4c-.4-1.2-.7-2-.4-3l2-.4c-.5-.8-.5-1.9 0-2.6 0-1.1 0-2.3-.5-3.4v-1c0-.5.4-.8 0-1.2-.5.2-.7.6-.7 1.1v2.2c0 1.5-.4 2.7.4 3.8l-.8.7-.7-.3c-.8.7-.8 1.8 0 2.6-.4.7-.4 1.5-.8 2.2v6l-.4.3a62 62 0 0 0-1-4v-4.2a23 23 0 0 1 0-7.4c0-1.2-.4-2.3-.8-3.4-.4-.8-.4-1.5 0-1.9.3-.7.3-1.5.3-1.8-.7-1.2 0-2.3 0-3.4v-7.8c0-.8.4-1.5.4-2-.4-3.3-.4-6.3-.4-9.3v-6c.4-1 0-2.5 1.2-3.7.3 0 .7.4.7 1.2v3.3c0 .4 0 .8.4 1.1.4-.3.4-.7.7-1a7 7 0 0 0 1.5-3c0-.4 0-.8.4-.8.4-.4 1.1 0 1.1.4.4.3.8.3 1.1 1l.4-1v-3.4c0-1.1-.4-2.6 0-4.1v-.4c-.4-.4 0-.7 0-1.5v-1c0-.8-.4-2 0-2.7v-.4c-.4-.7 0-1 0-1.5.8-.7.8-1.8.4-2.6v-.7c.3-.4.3-1.1.3-1.5 0-1.1 0-1.9.4-3 .4-1.5.4-3.4.4-5.2.4-1.5 1.1-3 1.9-4.5l1 1.5c.3.2.4.5.4.7 0 1.1.8 1.5 1.5 1.9.4-.8.4-1.5.4-2.2-.4-1.2-.4-2.3-.4-3.4.4-2.6.8-4.9.8-7.5 0-.3 0-.7.4-1l1-3.8v-4.1c.4-.4.4-1.2.8-1.5 0-.4.4-1.1.4-1.9.7-.7.4-2.2 1.1-3-.4-1.1 0-2.2 0-3.7v-1.1l1.1-2.3c.4-.7.8-1.8.8-3 .4-.7.4-1.8.4-2.6 0-1 .3-1.8 0-3v-.3c.3-1.5.7-3 .7-4.5.4-.8 0-1.5.4-2.6.3-1.5.3-3.4 0-5.3l.3-.7c.4-.8.4-1.9.4-2.6v-4.5c.4-1.5.4-3 .4-4.5s.4-3 .4-4.5c.3-2.6.3-4.8.7-7.4 0-1.9.4-3.8.4-5.6 0-.8.3-1.5 1.1-2.3 1.1-.7.7-2.2 1.5-3 .4-.3 0-.3 0-.3V500c.4-1.5.4-3 .7-4.5v-4.9c.4-1.8.4-3.7.4-5.6 0-1.8-.4-3.3-.4-5.2l-.3-1.5Zm-110.7 62.7c-.2.1-.4.2-.9 0l2-1.4.2.3-1.3 1ZM406.2 651c-.8-.2-1-.6-.8-1.1-.3 0-.3-.4-.7-.8 0-.7.4-1.2 1.1-1.5.4-.3.7-.3 1.1-.3.4 0 .4.3.8.7v.4l-.4.4c-1.1.3-1.5 1-1.1 2.2Zm-.8-3.7c.3-.5.5-.8.8-.8v-.7l.7.3h.4c0 1.2-.8.4-1.1.4l-.8.8Zm3.4 5.6-1.1-.8c.7-.3.7 0 1 .8Zm-.8-9.4c.8-.3.8 0 .8.4l-.8-.4Zm-1-59-1.2.4.4-1.1-1.2-.8-.3-1h.7v.3l.8-.4c0-.3 0-.7-.4-.7l-1.5-1.1c.4 0 .4-.4.8-.4.7 0 1.5 1.1 2.2 1.1l-1.1 1.1c0 .8 0 1.1.7 2.6Zm-.5 2-.7.3c-.4-.4-.8-.8 0-1.5l.7 1.1Zm-4.8-6.4c.7.3.4.7.7 1h-.3c-.8 0 0-.7-.4-1Zm-.8-1.2.4-.7-1.1.4c0-.8.7-.4.7-.8l-.3-.4 1.5-.7c0 .7-.4 1.1-.8 1.5h1.5c.4 0 .8 0 .8.4-.4.7-1.2-.4-1.2.7l-1.5-.4Zm.4 2-.4.7-1-.4v-.8c0-.3.3-.3.7 0l.7.4Zm.4-4.6c-.4-.7-.4-1-1.5-1l1.1-1.6h-.7l.7-.7-.4-1.9 1.5-.4c-.3-.3-.3-.7-.7-1-.8 0-1.1-1.2-.8-2 0-.3.4-.3.4-.3v-.4l-.7-.7c0-.8.3-1.2.7-1.5l.8-.8c0 1.1 1 1.1 1 1.9l.4 1.1c.8 0 1.5 0 2-.7l.7.7-.8.4.4 1.1h-.4l-.4-.8-1.4.4V567h-1.2l.8-1.1h-1.9c0 1.1.8 1.5 1.5 1.8l-.7 1.2 1.4 1.8c0 .4 0 .8-.7.4-.4 0-.4.4-.8.4l2.7 1.5a2 2 0 0 1-1.5 0c-.8.3-1.9.7-1.5 1.8l.7.4c.4-1.1.8-1.9 2.3-1.5l-.8.4h.4l1.1-.4c-.4 1.1-1.5.8-1.9 1.5-.3.8-1 .8-1.8 1.1Zm2.2-57.5-.7.8-1.1-.8c.7 0 1.4-.3 1.8 0Zm-1-2.2v-.4l.3.4v.4l-.4-.4Zm4-.8h-.7v-.3h.7v.3Zm.4 27.3v.4h-.8v-.4h.8Zm-.4 35.1-1.5.7c0-.5.5-.7 1.5-.7Zm-2.6-7.5.8-.7.7 1.1v1.1c-.7-.4-1.5.4-2.2-.4l1.5-.7-.8-.4Zm-.4-1.5.4-.7c.3.2.1.5-.4.7Zm1.2 0 .7-.3a1 1 0 0 1-.7.3Zm0-3.7v.4h-.4l-1.1-.4c.7-.4 1-.4 1.5 0Zm-2.7-1.9c.4-.7.8-.3 1.5-.7-.3 1.1-.7 1.1-1.5.7Zm2.3-1h-.8c-.7 0-1.5 0-1.8.3l-1.2-1.1 1.2-.4.3.7 2-.3.3-.8 1.1.4-.8 1.1h-.3Zm-3.4-4.2v-3h1.1l1.5 1.1h-1l1 1.2h-.7c-.4.3-.8 1-.8 1.4-.3.4-.3.8-.3 1.2h-.8l-.4-.4c.8-.4.4-.8.4-1.5Zm1.9-13-1.1-.4 1.5-1.2-.4 1.5Zm.4 5.2c-.4 0-.4.3-.4.3-.4 0-.4-.3-.4-.3-.3 0 0-.4 0-.4l.8.4Zm-.8-7.9h-1.1l.7-.7v-.8h-.7c0-.7-.4-1 .4-1.5v-.7l2.2.7c-.4.4-.7 0-1.1 0l-.8 1.5 1.2.4c.3-.8.7-.8 1-.8l-1.8 2Zm-.4-20.9c-.3-1.1.4-1.1.8-1.5l.7 1.1-.3.8-1.1-.4Zm1.2 3.4h-1.2c.4-.4.4-.8 1.2 0Zm.7 19.8c.4 0 .8.3.8 1-.8-.2-1-.5-.8-1Zm1.1 13.4h-2.2c.7-.4 1.5-.7 2.2 0Zm-2.2 1.1v.8l-.4-.4v-.4h.4Zm1.9 1.1-.8-.7 1.5-.8-.7 1.5Zm.3-3.7c-.3 0-.7-.4-1-1.1.7-.8 1 .7 1.8.7-.4 0-.8.4-.8.4Zm-.3-3 .3-.3.4.7-.7-.4Zm.7-6c-.4 0-.4-.3-.7-.7l.7-.4v1.2Zm-1.5-11.5v-1.1h1.1l-1 1Zm.8-7.9-.8-.7c.8 0 1 .2.8.7Zm-.8-3.3.8.7c-.4 0-.8-.3-.8-.7Zm0-5.3h-.7l.7-.3v.3Zm-1.5 6c.4.4.8.8.4 1.1h-1.5l1.1-1Zm.8 1.5-.4 1.1c-.2-.2-.1-.6.4-1Zm-1.5 3.4c0-.3.2-.4.7-.4.4.4 0 .7-.3 1.1h.7c-.3.4-.7 1.1 0 1.5l.8 1.1-.8.8v-.4c-.3-.4-.3-1.1 0-1.5l-.7.4-.8-1.1.8-.8c-.8 0-.8-.4-.4-.7Zm1.1 4.8c.4 0 0 .4 0 .8h-.4l-1-1.2c.7-.3 1-.3 1.4.4Zm-.4 1.5.4.4c-.4.7-.7 1.5-1.9 1.1l1.5-1.5Zm-1 13.8 2.2 1.1-.8.4h.8v.4l-1.2.4.4.7c-.7.4-1.1.8-1.9 0h.8l-.4-1.5-.7-.4.7-1Zm1.8 25.4 1.9-.4c0 .5-.3.8-.8.8l-1.1.4v-.8Zm4.1 18.7c0 .4-.4.4-.4.7h-.7v-.3l1.1-.4Zm0 25-.4 1.1c-.3-.7 0-.7.4-1Zm-.7-5.6v-1.1c.7.2.7.6 0 1.1Zm1 15.7-.3.4s-.4 0-.4-.4h.8Zm.8-21.7v2.3a2 2 0 0 1 0-2.3Zm-.7-4.5.3-.3v.3h-.3Zm-7.5 33-.4-.5h.4l.4.4h-.4Zm1.9-3-.4-2 .8.4c-.8-1-1-1.8-.4-2.6-.4 0-1.1 0-1.5-.7h1.5c0-.8-.4-1.5-.4-2 0-.3.4-.7.4-.7l.7-.7-1.5-.8c.3-.5.7-.6 1.2-.3-.4-1.2-1.2-1.9-1.9-3l1.5.3.4-.7-1.2-.8.4-1-.7.3c0-.8.3-.8 1-1.1l-1-.4c0-.7 1.4-1.1 1-2.2l-1.4.3.7-1.5c-.7 0-1-.7-1-1.4l1.8-1.2-1.1-1c.7-.5 1-1.2.3-2l1.2-.3-1.5-1.1c.7-.8.7-1.2 0-2l.3-.3-1.5-1.1c.4-1.1 1.5-1.1 2.3-1.9h-1.1c0-.3-.4-1 .3-1.5l-.7-.3c0-.4.4-.8.4-1.2.3-.3.3-.7.7-1 .4 0 .4-.4.4-.4-.4-1.2 0-2-.8-2.7-.3-.7 0-1 .4-1.4-.4-.4-1.1 0-.8-.8l1.2.4h.3c-.2-.3-.3-.5-.3-.8-1.5 0-1.9-1.5-2.6-2.6l1.4.4-1-1.5 1-.8c-.7-.2-1-.7-.7-1.4h.7l-.3-.8 1.5-.4c-.8-.7-1.5-1-1.2-2.2H400l1.4-1.9c.4.4.8.4.8.4.7 0 .7-.8 1.1-1.5l1.5.8-1.5.7.4 1.5-.8.4 1.5 1 .4-1 .7.7-.3.4c-.4.4-.8.4-.8.7 0 .4.4 1.2.8 1.2.7.3 1.5 1 1.8 1.8h-1.4s-.4 0-.4-.3c0-.8-.8-.8-1.5-1.2 0 .8-1.5.8-1.1 1.5.3.4 1.1.8 1.5.8.3 0 .7.3 1 1.1-.7 0-1-.4-1.4-.8.2.8.9 1.3 1.9 1.5v.8l.3-.4.8-.4c.7.4-.4.8-.4 1.2.8.3 1.1.7 1.1 1.5l-1.5 1.4c-.3.4-.7.4-1 0l.3-1c-.8 0-1.1-.4-1.5-.4-.4 0-.4.3-.4 1.4l.8-.3c.7.3.7 1.8 1.9 1.1l1 1.5-.3 1.1.4.4-.8.7.8.4-.8 1.1c-.3.4 0 .8.4.8l.4.7-.4.4c0 .7.7 1.1.4 1.9v.3l.3.4c-.7.7.4.7 0 1.5 0 .4-.3.7-.3 1.1 0 .4.3.8.3.8h-1c.3.7 1 .7 1.4 1.8l-1.1.8c0 .7 0 1.1-.4 1.5-.4.3-.4.7 0 1 0 .8.4 1.2.4 1.6l-.8.7 1.2 2.3c-.4.3-.4 1-.4 1.5.4.7.4 1 .7 1.8h-.7l.4 1.5-1.2.4 1.2.7-.8.8h.4v.7h1.1c0 .4-.4.8-.8 1.2l.8 2.2-.8-.4c-.3.4-.3.8-.3.8 0 .7.3.7.3 1.1.5.7.4 1.2-.3 1.5.3.4 1.1.4 1.1 1.1v1.1c0 .8-.8.8-1.1.8-.4.3-.8.7-1.5.7v1.1l.7.8.8-.8v-.3l-.4.3c-.4-.7 0-.7.8-.7l.7-1.5c.4 1.1-.4 1.1-.7 1.5 0 0 0 .4.3.4.8 0 .4.7.4 1-.4.5-.7-.7-1.1.5l1.5.7-.8.8.8.3c-.4.8-.8.8-1.1.8l.7.7c-.4.8-.7.4-1.1.4 0 .7.7.7 1.1 1.5-.4 0-.7 0-1.5-.4 0 1.1 1.1 1.1 1.1 1.9h-1.5l-1.4 1.1.3.8s-.3 0-.3.3c-.3 0-.5 0-.8-.3l-.4-2.7c-.7 0-.7-.7-.7-1.4.4 0 .7 0 .7-.8h-.7v-1.1l.4-.4-1.2-.7c.8-.4 1.2.7 1.5 0l-.3-1.5-.8-.4.8-.7-1.2-.4.8-1.1-.4-.4.8-.4v-.7h-.8c-.4.3-.4 0-.7 0l1-.8Zm-1.1.3V633c.7.3.3.7 0 1Zm0-6 .3-.7c0 .5-.1.7-.3.7Zm4.4-37.7c-.7 0-.7-.7-.7-1.1.7 0 1.1 0 .7 1.1Zm-1.8-1.9-.8-.7c.8.4 1.1.4.8.7Zm-2.3 50.4h.4v.4l-.4-.4Zm1.1 43.7-.3-.3.3-.4.4.4-.4.3Zm.8.4.7-.4c0 .5-.2.7-.7.4Zm.4-.7c0-.5 0-1 .3-1.2 0 .4.4.8.4 1.2h-.7Zm3-.8-.4-.4.4-.3.3.7h-.3Zm-.8-1.9c0-.3-.4-.3 0-.3 0-.4.4-.4.8 0l-.8.3Zm3-14.2c-.8 0-1.5 0-1.9.4-.7 0-.3.8-.7 1.5h.7l-.3 1.1-.8-.3v.3l1.1.4c.8-.4 1.1.7 1.9 1.1l-1.1.4c0-.4-.4-1.1-.8-1.1-.7.3-.3 1-.7 1.8.7 0 1.1-.7 1.5.4-.8 0-1.5.4-2.3 0v.4l-1.5.7c.4.8.8.4 1.2.4.3 0 .7-.4 1.4 0-.3.7-.7.7-1.4.4v.3l1.4.4v.8h-1v1.8c-.4.4-.8-.3-1.6-.3 0 0-.3 0-.7.3l1.5 1.1c.3.4 1.1 0 1.8.4l-1.8.4c.7.4.7.7.3 1.1l.8.8c-.8.3-1.1 0-1.1-.4-.4 0-.4-.4-.8-1.1-.3.7-.3 1-.7 1.5h-.4l.4.3c-.4.4-.8.4-.8 0 0 0 0-.3.4-.3l-.4-.4.4-.4-.8-.7 2-.8-1.6-.4c-.7 0 0-.7-.3-1-.8-.4 0-.8.3-1.6l-.7-.3V673c.3.4 1.1 1.1 2.2.4h-.7c-.4-.4-.8-.4-.8-.4-.4-.8-.7-1.1-1.1-1.5l.7-.4c-.3-.7 0-1.8 0-2.6.4-.7.4-1.5.4-2.2 0-.8-.4-1.5 0-2.3.4-.7 0-1.4.8-2.2v-.7c-.8-.8-.4-1.5 0-2.3.3-.7.3-1.5.3-1.9 0-.7 0-1.4.4-1.8l-.4-.4v-.7c0-.8.4-1.5.4-2.3 0-.4.4-.4.4-.7l1.1.7c0-.4.4-.4.7 0h-.7l1.1 1.1-.7.4c.2 1 1 1.6 2.6 1.9-.4.3-.4.7-1.1.7-.4 0-.8-.3-1.5-.3l1.5 2.2-.4.7 1.1.8-1.5.7c0 1.2.8.4 1.1.8l-1 1.1.7.8h-1.2l1.2.7-.8 1.5 2.3.4v.3Zm-1.1 2.3.3-1.1c0 .3.4.7-.3 1Zm-.8-14.6-.3 1.1c-.4-1 0-.7.3-1Zm2.3 1.9-.4-.4.4-.3s.3 0 .3.3l-.3.4Zm4-35.1s-.3 0-.3-.4l.4-.3s0 .3.3.3l-.3.4Zm2.7 14.6c-.8-.8-.4-.8.4-1.2l-.4 1.2ZM420 617h-.4c0-.7.4-.7.4-.4v.4Zm0-10 .8.7c-.4 0-.8 0-.8-.8Zm1.1 7v.4l-.7-.4v-.3l.7.3Zm0 13.8v-.3l.4.3h-.4Zm-.7-11.2c0-1 .4-.3 1.1-.7-.4.7-.7.4-1.1.7Zm2.2 6.8c0-.8.4-1.2 1.1-.8l-1 .8Zm6.4 16-.4 1.5c-.4-.7-.7-1.1-.4-1.9l.8.4Zm-24-40.3 1.2-.4c-.3.5-.6.7-1.1.4Zm22.1 29.9c-.4.7.4 1 .4 1.8l1.1-1.8v1.8l-.8.4-.7 1.5c-.8-1.9 0-3.7-.4-5.6.8.4.4 1.1.4 1.9Zm1.5 14.2c0 .7.4 1.4 0 2.6-.8-.8-.8-1.9 0-2.6ZM631 487.4l.4-1 1 .7c-.3 0-.7.7-1.4.3Zm.7 2.7c.4 0 .4.3.4.3v.4h-.7v-.4l.3-.3Zm-1-14.2-.8.3v-.3l.7-.4v.4Zm-15.4 154.6-1.1-1.2c.5-.2.9.2 1.1 1.2Zm21.3-143.8a1 1 0 0 1-.4-.8c0-.3.4-.7 1.1-1l-.7 1.8Zm2.2 1.1-.3-1.1c.7-1 1.3-1.2 1.8-.8 0 .8-.7 1.5-1.5 2Zm-16.4 148.6c.4.4.8 1.2.8 1.5-.8.4-1.2 0-1.5-.7-.4-.8-1.2-1.5-1.5-2.3h-.4c.4-1.8-1.1-2.2-1.9-3.3-.3-.4-.7-.8-1-1.5 0-.4-.5-.8-.8-1.1-.4-.4-1.2-1.2-1.2-1.9-.3-.4-.7-.8-.7-1.1-.5-.5-.5-1 0-1.5.7 1.1 1.5 1.9 1.9 3 .3.7.7 1.5 1.5 2.2 0 .4.3.4.7.8 0 .7.4 1 .8 1.5.7 1 1.4 1.8 1.8 3 .4.3.8 1 1.5 1.4Zm-4.1-1.8c.7.7 1.1 1.5 1.5 2.2-.4.4-.8.4-.8 0-.3-.7-.7-1.5-1.5-1.9v-.3c0-.8-.7-1.2-1-1.9v-.4l.7.8.7.3c.5.3.6.7.4 1.2ZM606 594.2l.7 1.2c-.5-.3-.7-.7-.7-1.2ZM634.4 489l-1.5-.3c0-.8.7-.4 1.5-.8v1.1Zm1 156.5.4-.4v.8l-.3-.4Zm-.3-.8-.7-.3c.7-.4.7 0 .7.3Zm-.4-5.2c-.7-.7-1.5-1.5-2.2-3 .7.4 2.2 2.3 2.2 3Zm2 2.6-1.2-1.8c.7.5 1.1 1 1.1 1.8Zm-5-6.7-.7-1.1h.4l.7 1.1h-.4Zm-16 4.5c-.5.2-.9.2-1.1 0 .3-.4.7-.4 1 0Zm25 7.8.4-.3.3.7-.7-.4Zm-10.5-15 .8.8h-.4l-.3-.7ZM500.3 707l.4.4h-.8l.4-.4ZM590 559.1c-.3 0-.7-.7-1-1 1-.5 1.4 0 1 1Zm24.3 52.7v-.4h.4v.4h-.4ZM681 677c-1.5 0-2.6-.7-3.7-1.8l-.8-.4c-.7-.4-1.4-1.1-2.2-1.5l-6.7-4.5-1.1-.4c-.8-.3-1.9-.3-2.6-1-.4-.8-.8 0-1.2 0a9.5 9.5 0 0 0-2.6-2 20.1 20.1 0 0 0-3.3-2.6c-1.5-1-3-2.2-4.5-3.7-.8-.7-1.5-1.1-2.3-1.9l-1.8-1.8c-.8-1.1-1.9-1.9-2.6-3l-.4-.4-2.3-1.9-.3-.3c1.1 1.1 1.8 2.2 3 3.3.3.8.3 1.2.7 1.5l.8 1.1c.3.4.7 1.2.7 2-.4 0-.7 0-.7-.5 0-.7-.4-.7-.8-1-.4-.4-.4-.8-.7-.8-.4-.4-.8-.8-.8-1.1-1.1-.4-2.2-.4-3-1.5-.3-.4-.7-.4-.7-.8s0-.7.3-1.1l-2.6-3-1 1.5-.8-.8c-.8-.3-1.5-1-1.5-1.8l-.4-.4c-.7-1.1-1.1-2.2-2.2-3-.4-.7-.8-1.1-1.5-1.5v-.3a6.6 6.6 0 0 0-1.9-2.7c-.4-.7-.7-1.4-.4-2.2.4-.7 0-1.5-.7-2.6h-.4v1.9c-.7-.4-1.1-1.2-1.5-1.9v-.4l-1.5-1c-.3-.5-1-.8-1-1.6 0-.4-.5-1.1-1.2-1.1-.4-.4-.8-.8-.8-1.1a26 26 0 0 0-1-3c-.4-.4-.4-.8-.4-1.1 0-.4-.4-.4-.8-.8h-.7c-.8-2.2-1.5-4-2.7-5.6v-.7c-.7-1.2-1-2.6-2.6-3.8l-.3-1-.4-.8c-.4-.8-.4-1.2 0-1.5l-.8-.8c-.7-1-.7-2.2-1.8-2.6v-.4c-.4-.7-.4-1.4-.8-2.2l-.4-.7-1-2c-.4 0-.8-.3-1.2-1v-.8c-1.5-1.1-1.5-3-2.2-4.5-.4-.7-1.2-1.5-1.2-2.6v-.3c-.3-.4-.3-1.2-.7-1.5-.4-1.2-.8-2.6-1.5-3.8-.4-.3-.4-.7-.4-1 .8.3 1.2.7 1.2 1.4.3.8 1 1.9 1.5 2.6l.3.8 1.1 1.8.4.8v-1.5c.8-.4 1.1 0 1.1.4.4.7.4 1.5.4 1.8.3.3.4.5.4.8 1.1.4 1.1 1.5 1.1 2.2.4.4.4.8.7.8.4 0 .4.3.4.3.4.4.8.8 1.1 1.5 0 .4.4.8.4 1.2 0 .3 0 .7.4 1.4v.4l.7-.7c.4.3.8.7.8 1.5 1.1 1.8 2.2 4 3.3 6.3.4.8 1.2 1.9 1.5 3 .8.7 1.5 1.9 2 3l.3.7.7 1.2a53 53 0 0 0 3 4.8l1.9 3-.4-.8c0-1-.7-1.8-1.5-2.6v-.3c0-.8-.7-1.2-1-1.9 0-.2-.2-.5-.5-.8a7.6 7.6 0 0 0-1.5-3c-.7-1-1-2.6-1.8-3.7-.8-1-1.5-2.2-1.9-3.3-1.1-1.5-1.9-3.4-3-4.9-.7-1.5-1.5-2.6-2.2-4a7.6 7.6 0 0 0-1.5-3c-.8-1.2-1.1-2.3-1.9-3l-.4-.8-.7-1.9-.4-.4a7.5 7.5 0 0 0-1.5-3c0-.3 0-.7-.3-1l-.4-1.2-.8-1.1-.3-.4c-.8-.7-1.2-1.5-1.2-2.2-.3-.8-.3-1.1-1-1.5-.4-.4-.4-.8-.8-1.1 0 0-.4-.4-.4-1.2-.4-.3-1.1-1-1.1-1.8 0-1.5-1.1-2.6-1.5-3.8-.4-.7-1.5-1-2.3-1.8-.3-.4-.3-.8-.7-1.1 0-1.2-.4-2-1.1-2.3a6 6 0 0 1-1.5-2.6c-.8-1.1-1.1-2.2-2.3-3-.3-.4-.3-.7-.7-1.1 0-.4-.4-.8-.8-1.1 0 0-.3-.4-.3-.8 0 0 0-.3-.4-.7-.4-.8-1.1-1.5-1.5-2.3-.7-.3-.7-1-1.1-2.2 1.5.7 1.9 2.6 3.3 3.4.4-1.2 0-2-.3-2-.8-.3-1.1-.7-1.1-1-.4-.4-.4-1.2-.4-1.9.4 0 .4-.4 1.1-.4h1.1c0-.3 0-.7.4-1a23 23 0 0 0 4.9-2.7l3.7-1.5.7-.7c.8-.4 1.5-1.2 2.3-1.5 1.1-.8 2.2-.8 3-1.9h.3a3.4 3.4 0 0 0 2.3-2.2c.3-.4.7-.4 1.1-.4.4 0 1.1-.4 1.5-.8l.7-.7c.4 0 .8-.4.8-.8.4-.3.7-.7 1.5-1 .3-.5 1.1-1.2 1.5-1.6.3.4.7.4.7.4.4-.8 1.1-1.1 1.5-2.2 0-.8.4-1.2 1.1-1.5 1.2-.8 2.3-1.2 2.7-2.6.3-.4.7-.4 1-.8.4-.4 1.2-.7 2-1.5.3-.4.7-.7 1-1.5v-1c-1 .7-1.8 1.4-3 2.5-.3.4-1 .8-1.4 1.1h-1.5l.7-1-1-1.2c1-.4 2.2-.8 1.8-2.2.7 0 1.1.7 1.1 1.8 1.9-1 2.6-2.6 3.7-4l-1-.5c-.5-.7.3-1 .7-1.4-.4-1.2-.4-1.5.7-2 .4 0 .8-.3.8-1 0-.4.3-.4.3-.8 1.5-.7 2.6-1.9 3.8-2.6 0-.7.3-1.2 1-1.5 1.6-.7 3-1.9 3-4 0 0 0-.5.4-.8.4-1.2 1.5-1.5 2.3-2.3l-.8-.7 2-.8c0-.7.7-1.5.3-2.2 0-.8.7-1.1.7-1.9-.3 0-1 .4-1.8-.4l1-1c-.7 0-1 .3-1 .7-.8.3-1.2.7-2 .3-.3 0-.7-.3-.7-.3.4-.8.4-1.2 1.2-1.9.7 0 1.4-.8 1.4-1.1.4-.8.8-1.1 1.2-1.5.7-.8 1.8-1.5 2.6-2.3 2.2-2.2 4.5-4.4 7-6.3l.4-.4c-1-.3-.7-1-.7-1.8-.8.3-1.1.7-1.5 1l-2.2 2.3c-.8.8-1.5 1.1-2.3 1.5-.3 0-.7.4-.7 1.1-.4.8-.8.8-1.1.8h-1.5c-.4.3-1.2.7-1.5 1.1-.4 0-.4.4-.8.4l-1.1.7-.8.4c-.3 0-.3.4-.7.7-.4.4-.8.4-1.1-.3l-.8-.8v-.7c-.7-.5-1-1.2-.7-1.9v-.8h-1.1c0-.3-1.2-.7-1.5-1.4 0-.4-.4-.4-.8 0-.7.3-1.1.3-1.1-.4-1.1.4-1.1 1.5-1.5 2.6-.7-.4-.7-.8-.4-1.1 0-.8.4-1.5.8-1.9l-1.9-2.6.8-.4v-.3h-.4c-.4 0-.4.3-.8 0 .4-.8.8-1.2 1.2-.8.7 0 1 0 1.5.4.3-1.1-.8-.8-.8-1.1.4-.4.4-1.2.8-1.5l.3-.4c.8-.4 1.1-.8 1.9-1.1.7 0 1.5-.4 2.2-1.1h.4l.8-.4-.8-1.1a7.2 7.2 0 0 1-3.7 1.8c0 .3-.1.5-.4.8-.4.4-.7.4-1.1.4-.4 0-1.1 0-1.5.3l-.4.4s-.3 0-.3-.4l-.4-.3.7-.4c0-.4.4-.4.8-.4.4-.4.4-1.5.4-1.5-.4-.7-.8-.7-1.5-.3h-.4l-3 1c-.4.4-.7.4-1.1.4-.8.8-1.5 1.2-2.6 1.2-.8.3-1.5.3-1.9 1l-.7.5-1.5.3a50.4 50.4 0 0 1-7.5 4.9c-1.5 1.1-2.6 2.2-4.1 3-.8.7-1.5 1.5-2.3 1.8-1.5.8-2.6 2-4 3l-3.4 2.3c-1.2.7-2.3 1.8-3.4 2.6-1.1.3-1.9 1.1-3 1.8-1.1 1.2-2.6 1.5-3.3 3-.4.4-1.2.4-1.5.8l-1.2.4-3 2.2c-.7.4-1.4 1.1-2.2 1.5-.7.7-1.5 1.1-2.2 1.5-.8.3-1.2.7-1.9 1.1-1.1.7-2.2 1.5-3.7 2.2l-3 2.3c-.8.3-1.5.3-2.3.7l-.7.8c-.8.3-1.5 1.1-2.3 1.5-1.8.7-3.7 1.8-5.2 3-.4.3-1.5.7-1.9.3 0-.5-.2-.8-.7-1-.4-.5-.8-.8-.8-1.6h.4l.8.8c.7.3 1 .3 1-.4.4-.8.8-1.9.4-3v-1.1c0-.4 0-.8-.3-.8-.4-.3-.8-.3-.8-.3-.3 0-.3.3-.7.7v-1.5h.3c.8.4 1.2 0 1.5-.3.4-.8.8-1.2.4-1.5v-1.5s0-.8-.4-.8c0-.3-.3-.7-.3-.7.3-1.1.3-1.9.3-2.6 0-.8 0-1.9-1-1.9 0-.4 0-.8.3-.8.7-.3.7-.7.4-1.4 0-.8-.4-2-.4-2.7 0-.2-.1-.4-.4-.7-.4-.4-.4-.8 0-1.1.4-1.1 0-2.3 0-3.4-.4-1.5-.7-3-.4-4.5 0-.3 0-.7-.3-1V486c0-1.1 0-2.6-.4-4.1v-3.4c.4-1.5.4-3-.4-4v-1.2c0-.7 0-1.9.4-3v-.4l-.7-5.2c-.4-1.1 0-2.2-.8-3v-.7c.4-.4.4-.8 0-1.1 0-.8 0-1.2-.4-2v-2.5c-.3-1.5-.7-3-1.5-4.5-.7-1.5-1.8-3-3.3-3.7-1.5-1.5-3.4-2.3-5.2-3.4a24.6 24.6 0 0 0-7.5-2.2l-5.2-1.2c-.4-.3-.8-.3-1.5-.3-.4 0-.8 0-1.5.3-.8.4-1.9.4-3 .4-.8 0-1.5 0-1.9.4-.4.4-1.1.4-1.5.7l-3.7 1.2-.4.3c-.3.4-.7.4-.7.4-1.1 0-1.9.7-2.3 1.1-.7.4-1 .8-1 1.5-.5 1.1-.8 2.6-1.2 4.1 0 1.1-.4 2.3 0 3.4v2.2c0 1.5-.8 3-.4 4.1-.3 1.5 0 2.6-.3 4.1v.8c-.4 1.9-.4 3.3-.4 4.8 0 2-.4 3.8-.4 5.6 0 1.5-.4 3.4-.7 4.9-.4 1.1-.4 1.9-.4 3 0 .7 0 1.5-.4 2.2 0 .4-.3 1.1-.3 1.9 0 1.1-.4 2.6-.4 4.1-.4 1.1-.8 2.6-.8 4.1a33 33 0 0 0-.7 6c-.4.7-.4 1.5-.8 2.6 0 1.1-.3 2.2-.7 3.3v3c-.4.4-.4.8-.4 1.2-.4 1-.4 2.2-.4 3.3 0 1.5-.7 2.6-.7 4.1-.4 1.5-.8 2.6-.8 4.1-.3 1.5-.3 3-1 4.5v.4c.3.7 0 1.5 0 2.2-.4.8-.4 1.9-.4 2.6v1.5c-.4.8-.8 1.5-.8 2.6-.4 1.2-.4 2.3-.7 3.4-.4 1.1-.8 2.6-.4 3.7v.4l-1.1 6c-.4 1-.4 1.8-.8 3 0 .7 0 1.8-.4 2.6-.3 0-.3.7-.3 1v.8c0 .8-.4 1.5-.4 2v1.4l-.4.7c.4.4 0 .8 0 1.2-.3.7-.7 1.5-.7 1.8-.4.8-.4 1.5-.4 2.3 0 .3-.4.3 0 .7l.4.4c-.4.7-.4 1.5-.8 2.2-.3 1.2-.3 2-.7 3v.8c.4.3 0 1.1 0 1.5v.7c0 1.1.4 2.3-.4 3.4l-.7 3v.7c-.4.8-.4 1.1-.4 1.9 0 .4 0 .7-.4 1.1 0 1.1-.3 1.9-.3 2.6-.4 1.9-.4 3.4-.8 4.9l-1.1 4.4v.4c0 1.1.4 2.3 0 3.4-.4.7-.4 1.5-.8 2.2 0 1.5-.3 2.6-.3 3.7 0 1.2 0 2-.4 3a7 7 0 0 0-.8 2.6l-1 5.3v.7c-.8.8-.4 1.5-.8 2.6v1.2c-.4.3-.4 1-.4 1.8a1 1 0 0 1 0 1.5v1.9c-.4.7 0 1.5-.4 1.9-.3 1-.3 2.2-.3 3 .3.3 0 .7 0 1-.8 1.6-.8 3.4-1.2 5v1.8c-.3 1.1-.3 2.2-.3 3-.4 1.1-.4 2.6-.8 3.7-.3.8-.3 1.5-.7 2.2-.4 1.2-1.1 2.3-.8 3.4v.4c-.3.3-.3 1.1 0 1.8.4.8.4 1.5-.3 2-.4.3-.8 1-.8 1.4-.4.4 0 .8.4 1.1 0 .4.3.8.3.8.4 1.1.4 1.5-.7 1.8-.4 0-.8.4-1.1.8l.3 1.1c.4.8.4 1.5-.7 2.3l1.1.3-.4.8c.4.7.8 1.1.8 1.5 0 .7-.4 1.5-.4 1.8-.3 2-1 3.8-1 5.6 0 .8 0 1.2.3 1.5 0 1.1-.4 2.3-.4 3 0 .4-.4.8-.7 1.1l-.4.8c-.4.4-.4.7-.8.7a2 2 0 0 0-1 2v2.5c-.5.8-.5 1.5-.8 2.3 0 .7-.4 1.4-.4 2.2 0 .7-.4 1.9.4 3-.3.5-.2 1.1.3 1.9-.7.7-.7 1.4-.7 2.2 0 .7.7 1.1 1.1 1.5-.5 1-.7 1.7-.7 2.2h.3c1.1.4 1.1.8 1.1 1.5 0 .8-.3 1.1-.3 1.9-.4 1.5-.8 3-.8 4.5 0 .7-.3 1.5-.7 2.2v2.2c0 .8-.8 2-1.5 2-.4.3-.8.7-.8 1l-.3 1.2v1.8a16 16 0 0 0 2.2 2.6l2.2 2.3c.8.3 1.2.7 2 1.1.7 0 1 0 1.4.7h1.1c0 .4.4 0 .4.4.7.4 1.9.4 2.2-.4l1.2 1.2-.4.7 1.5.8c.7-.4 1.1-1.2 1.8-.4l-.3.7c.3.4 1.1.8 1.5 1.2 1.1 1 2.2 1 3.3 1.5l-.7-1.5.7-.4c-.7-.4-1.5-.8-2.2-1.5l1.9-1.1 1.5-2.3c-.4 0-.8-.3-.8 0-.4.4-1.5.8-1.1 2-.8.3-1.5-.8-2.2-.8v-.4h1.4c-.3-.4-.7-1.1-1.4-.8l-.4-.3c0-.4.4-.4.4-.4.3 0 .7.4 1 .4.4.7.8.7 1.6-.4a5 5 0 0 1-2.6-2.2c.3 0 1 0 1.4.3h.4c.4 0 .4-.3.4-.3l.4-1.2c.3-.7 0-1-.8-1.4.4-.4.8-.4.8-.8-.4-.4 0-.7.3-.7 0 0 .4-.4.8-.4.7 0 1.8 0 3-.8h.3c.8.8 1.2.4 2 .4.7.4.3 1.1 0 1.9h.3c.7-.4 1.5-.4 2.2 0 .8 0 1.1 0 1.5-.8h.4l.3.8c.4-.4.8-.8 1.2 0h1c-.4.5-.8.5-1 0l-.8.3.4.4c.4.8.7 1.1 1.5.4.4-.4.7-.4 1.1-.4h.4c.3 0 .3-.4.3-.4 0-.3.4-.7 0-1 0-.8.4-.8.8-.8.4-.4.7-.4.7-.8l.8-.7.7-.8c.4-.7-.3-1.8 0-2.6l-1.4-.4c-.4-.7-.8-1-1.2-1.4-.3-.4-.7-.4-.7-.8 0-.7-.4-.7-1.1-.7.5-.5.5-1 0-1.5.2-.5.6-.7 1-.4 1.6-.4.8-1.9 1.2-2.6-.5-.5-.9-1.3-1.1-2.3.7-.7.7.4 1.5.8.4-.4.4-1.1.7-1.5l-1-.7v-.4l.7.4c.7-.8 0-1.5.3-2l-1-.7.7-.3-.8-.8c.8-.4 1.1-1.1.8-1.9v-.3c.3-.8.7-1.1.7-1.9-.4-.4.4-.7.4-1.1l.4-.4c0-.4-.4-1.1-.4-1.5l.7-.7c-.5-.5-.3-1 .4-1.5l-.4-3h1.2v-1.1h-1.2l.8-1.5h.4c-.8-.8-.4-1.1.3-1.5l-.3-1.1c.7-.4.7-1.1 1-1.9v-.7c.4-.4.4-.8 0-.8l.8-1.1-.7-.8v-2.2h.7l-.7-1.5.7-.7c0-.4 0-.8.4-1.2a8 8 0 0 0 1.1-1.8c1.1.3.8 1.5 1.1 1.8-.3 0-.3.4-.7.4h-.8l.4 1.1v.4c.4.4.8.4.8.7 0 .4-.4.8-.8.8 0 1.1 0 2.2-.4 3.4 0 .7 0 1.8-.7 2.6l.4.7-.8.8v1.8c-.4 0-1.1 0-1.1.8l.7.7c-.3.4-.7.8-.3 1.5v.4c-.4.7-.4 1.5 0 2.2 0 .4 0 .8-.4.8-.4 1.5-.4 3-.4 4.1-.3 1.5 0 3-.7 4.1.3 1.1 0 1.9-.8 2.6l.4.4c0 .4-.4.7-.4 1.1 0 1.9-.3 3.4-.7 5.2l.7.8-.7 1.5v.3c-.4.4 0 1.2.3 1.2l-.3 2.6c.3-.4 1.1-1.1 1.5-1.9v-.7c-.4-.8-.4-1.5 0-2.3l.3-1.1v-1.9c.4-.3.4-1 .4-1.5.4-.7.4-1.5.4-2.2 0-.4.3-.8.3-1.1 0-1.5 0-3 .4-4.5v-.8c.4-1.4.8-3.3 1.1-5.2 0-.7.4-1.1 1.2-1.5 0-.3.3-.7.3-.7v-1.5c-.3-.4 0-1.1.4-1.5.4-.8.7-1.9 1.5-2.6-.4 0-.8-.4-.8-.4v-1.1c-.7-.2-1-.6-.7-1.1.4-.4.4-.8.7-1.1 0-.8.4-1.2 1.2-1.5 0 1 0 2.2-.8 3.3h.8l1.4-3 .4-.7v2.6c-.4.7-.4 1.5 0 2.2v1.2c.5.2.9 0 1.1-.4 0-.4 0-.8.4-.8s.4-.3.8-.7l.7-1.5c.4-.4.4-.8.4-1.1.3-.4 0-.4-.4-.8a7.1 7.1 0 0 1-1.9 3.8v-.4c0-.4.4-1.1.4-1.9 0-.7.8-1.9 0-2.6.4-.7.8-1.5.8-1.9.3-.7.7-1.5.3-1.8 0-.4.4-.8.4-.8 0-.7.4-1.5.7-2.2 0-.8 0-1.1.4-1.5l-.4-.8.8-.3c-.4-.8-.8-1.2-.4-1.5.4-.8.4-1.1.8-1.5.7-.8.7-1.5.7-2.3.4-.3.4-.7.4-1v-.8l-.8-.4c-.3-.7.8-1.1.4-1.9.3-.2.5-.3.8-.3.3 0 1 .3 1.8.3-.7-1.5-.3-1.8.8-1.8l-.4 1.5c2.6-.8 3-3 4.1-4.9l-2.6-1.9c-.4.4 0 1.2-.7.8v-.8c0-.7 0-1.5.3-2.2a1 1 0 0 0 0-1.5c0-.4 0-1.1.4-1.5.5-.5.5-1 0-1.5l-.4.8h-.7v-.4c0-.7 0-1.5.4-2.2.3-.4 1-.4 1.8 0-.7-.8.8-1.2 0-1.5-.5.5-.8.5-1 0 0-.4.3-.8.7-.8 0-.7.7-1.5 1.4-1.5.8 0 .4-.3.8-.7H523c-.3-.4 0-1.1.4-1.1.7.3 1.1 0 1.9 0l.3-1.9v-.8c1.5-1 1.5-3 2-4.4.7-1.5.7-3.4 1.4-4.9.4-.7.7-1.5 1.5-1.9.4-.3.7-.3 1.1 0 .4-.7.8-1.4.4-1.8-.4-.8-.4-1.1 0-1.5-.8.4-1.1.4-1.5.4v-.4c.3-1.5.3-3 1.1-4.5v-1.1c0-.4.4-.8.7-.8.8 0 .8.8.8 1.2 1.5-1.2 1.5-2.7 1.9-4.2-.4-.7-1.5-.7-.8-1.8h1.5c0-.4 0-.8.4-1.1 0-.4 0-.8.3-1.2.4-.3.8-.7.8-1 .4-.5.4-.8.7-1.6.4-.7.4-1.5.8-2.2 0 0 0-.4-.4-.4 0-.4-.3 0-.3 0l-.8.4c-.7-.8-.7-1.5-.4-2.6l1.2-3.8c.3-.7.3-1 .3-1.4.4-1.2 1.1-2.7 1.1-3.8v-.7c.4-.4.4-.8 0-1.1-.3-.4-.3-.8-.3-1.2.3-.7.3-1 0-1.8v-.4c.7-.8.3-1.5 0-1.9.3-1 .7-1.8 1.1-2.6.4-.7.4-1.5.7-2.2.4.3.8.7 1.2.3.7-.7 1-1.8 1.5-2.6 0-.3-.4-.3-.4-.7 0 0-.4 0-.4.4-.4 0-.7.3-1.1.3l.7-1.5h1.5c.4 0 .8 0 1.2.4.3.8 1 1.5 1.8 2.6.8.8 1.5 1.9 2.3 3 1.1 2.2 2.6 4.5 3.7 6.4l3.4 6.3c.3.4.7.8.7 1.1l3.7 6c.8 1.5 1.5 3 2.7 4.5l.3.7a15 15 0 0 0 2 3.4c.7 1.9 2.1 3.7 3.3 5.6.3.7 1 1.5 1.5 2.6v.4l1 1a24 24 0 0 0 3 5.3l1.2 1.9c.7 1.5 1.9 3 2.6 4.5 1.1 1.8 2.2 4 3.7 6l.4.3c.8 1.1 1.1 2.2 2.2 3 .4.4.4 1.1.8 1.5l1.1 1.9s.4.3.4.7l2.2 3a39 39 0 0 0 3 4.5c.8 1.1 1.5 1.8 2.3 3.3.3 1.2 1.4 2 2.2 3 .4.8 1.1 1.5 1.5 2.6.7 1.5 1.9 2.6 3 4.1l4.5 4.9c1.5 2.2 3 4.1 4.8 6 .8.7 1.5 1.5 2.3 2.6l2.2 2.6c.7.7 1.5 1.1 2.2 1.9.4.7 1.2 1 2 1.8.3 0 .7.8 1 1.1l.4.4c.7 0 1.1.4 1.1 1.1l1.1 1.5a11 11 0 0 1 2.6 1.9l.4.4 1.5 1c.4.5.4.8 1.1 1.2 1.1.4 2.6.8 4.1 1.9h.4c.4.3.8.3 1.1.3a17 17 0 0 0 6 2.7l1.5.3c.7 0 1.1-.3 1.9-1 0-.5-.8-.8 0-1.2-.4-.4-.8.4-.8-.4.4-.4 1.1-.7 1.5-.4.8 0 1.5.4 2.2.8.8 0 1.2.7 1.5 1.5 0 0-.7 0-.3.4.3.3 1 .3 1.5.3.3.4.7 0 .7-.3l.4-.4c.2.2.3.5.3.7 0 .5.3.8.8.8 1.5.4 3 1.1 4.1 1.5l2.2 1.1c1.2 0 2.7.4 3.8.4.7 0 1.5-.4 1.8-.8v-.4c-.3-1-.3-1.4.8-1h1.1l2.6.3c1.5.4 3 1.1 4.1 1.5.8 0 1.2.4 1.5.4.4 0 1.1-.4 1.5-.4-.4-.4-.7-.8-.7-1.1a7.7 7.7 0 0 0-2.3-1.5c-.7 0-1-.4-1.5-.8-1-.7-1.8-1-2.6-1.5-2.2-1-4-1.5-5.6-3.3-.3 0-.7-.4-1-.4a5.8 5.8 0 0 1-3-2.2l-.8-.8-.8-.4c-.4.8-.7.4-1.1 0-1.1-.7-2.2-1.4-3-2.2-1.1-.7-2.2-1.5-3.4-2.6 0-.4-.3-.4-.3-1.1 1.1.3 2.2.3 3.3.7.8.4 1.2.4 1.5 0 .4-.3 0-.7-.7-1-1.9-1.2-3-2.7-4.9-3l-.4-.5-.3-.3.3-.4v-.4s-.3-.3 0-.7c0-.4.4 0 .8 0h1.1v-1.9l1.1-.4h1.5l3.4 1.2c.4 0 1.1.3 1.9.3 1.8 0 4 .4 6 .8 1 .4 2.5.7 3.7.7.3 0 .7 0 1 .4.5.4 1.2.4 2 .4h.7c.4 0 1.1-.4 1.5 0 .7 0 1.5.3 2.2-.4h.8c.4 0 1.1.4 1.9.4l1 .3c.8 0 1.2-.3 2-.7.3 0 .3.4.7.4.7 0 1.1 0 1.5-.4l1.1-1.1c-.4-1.1-1.1-1.1-2.2-1.5Zm-76.9-87.4.8.8v.4l-.8-.8v-.4Zm24.3-78.7v-.4l.4.4c0 .2-.2.3-.4.3v-.3Zm-1.9 2.2.4.4-.4.3-.4-.3.4-.4Zm-2.2 2.6c0 .3-.3.4-.8.4 0-.4.4-.8.8-.4Zm-1.9-29.9-.7.4c0-.5.2-.6.7-.4ZM478 725.7l-.8.7-.3-.4c0-.3.3-.7 1.1-.7v.4Zm4.8 7.4-.3.8-1.1-1.5c.2 0 .7.2 1.4.7Zm-3-3c.4-.3.8-.7 1.2 0-.4.4-.8 0-1.1 0Zm19.5-39.9c-1.3 0-2-.4-2.3-1.1.8 0 1.5.3 2.3 1.1Zm-1.1 4.5c.3 0 .7 0 .7.3v.4c-.4 0-.7 0-.7-.4v-.3Zm-.4-3.8v-.3c.5 0 .7.2.7.7l-.7-.3Zm.7 2.7-.3-.4v-.4l.7.8h-.4Zm-.7 2.2c-.3 0-.5-.1-.8-.4l.8.4Zm-1.1-8.6c.7 0 .7.4.7.8l-.7-.8Zm.7-1.9.4-.7c0 .5-.1.7-.4.7Zm0-86.6c0 .8.4 1.1-.4 1.1-.3-.3-.3-.7.4-1Zm-1.5 4.5.4-.4h.7c0 1.1.4 1.9-.3 2.6-.4-.3-.8-.3-.8-1v-1.2Zm2.3 99.3c-.4-.4-.8-.4-1.2-1.1 0 0-.3-.4-.7-.4l-.4-.7v-.4h.4c.4 0 1.1.4 1.5.8.7.2.8.8.3 1.8Zm-.4-3c0-.3.4-.3.7.4l-.7-.4Zm-.4 5.3-.7-1.2.7-.3c0-.4.4 0 .8 0v.7l-.8.8Zm.4 1.4c-.8.8-1.1.8-1.5.8-.4 0-.8 0-1.1-.4.7-.3 1.1-.7 1.5-.7l1 .3Zm.4-1 .3.3h-.3v-.4Zm-2.7-8.3h.4v.4h-.4v-.4Zm0 4.9h.4v.3h-.4v-.3Zm.4 2.2c0 .4.4.7 1.1 1.1-.5.5-.8.6-1 .4-.8-.8-.8-1.1 0-1.5Zm-1.1-92.6h.4v.7H494l.8-.7Zm-1.1 96.3.7-1 .8 1h-1.5Zm5.6.4.3.7c-.3 1.2-1.5.4-1.8 1.5l-.8-1-.7.7-1.2-1.5c.4-.8 1.2-.8 2-.4l.3.4c.7.3 1.5.3 1.9-.4Zm0-9.7c-.4.4-1.2.4-1.9 0v-.4h-1.1c.2-.2.6-.2 1.1 0l1.1-.4-.7-.7c.3-.4 1-.4 1.5 0 .3.4.3 1.5 0 1.5Zm.7-5.6-.7-.8c0-.3.3-.3.7 0 .4 0 .4.4 0 .8Zm.4-109h-.4l.4-.4v.4ZM506 664c-.4 0-.4-.3 0-.7h.4c0 .4 0 .7-.4.7Zm1.9 5.3c-.4-.4-1.2-.4-.8-1.2.3.3.6.4 1.1.4 0 .4 0 .8-.3.8Zm.3-2.3-.7-.3c.2-.3.5-.4.7-.4l.4.4-.4.3Zm11.6-23.1v.7l-.4-.3.4-.4Zm-2.6-7.9h.4c.3.4.7.8.7 1.5-.4-.3-.7-.3-1.1-.7v-.8Zm1.1 3.4c0-.8 0-1.5.4-2.2l.3 2.2-.3.4v.7c-.4 0-1.1.8-1.9.4.4-.8 1.1-1.1 1.5-1.5Zm-.7 9.7.3.4-.3.3h-.4l.4-.7Zm-1.2-5.6.8-.7c.2.7.4 1.3.4 1.8-1.2 0-1.2-.3-1.2-1Zm-1-3.7h.3c.4 0 .7.3.7.7l-.3.4h-.4l-.4-.8v-.3Zm0 3.7v.4c-.5 0-.8-.4-.8-.4.2-.2.5-.2.7 0Zm-3.4 10.8c.3-1 .7-1.8.7-3 .4-.7 1.1-1.4 1.9-2.2h.3c-.3-.4-.3-.7-.3-.7.5.2.6.5.3.7l-.3 1.1c0 .4.3 1.1-.4 1.5l-.4.4c.4 1.1-.7 1.9-1 3v.7h-.5l-.3-.3v-1.2Zm.7 2c0 .7-.4.7-.7.3 0-.4.3-.4.7-.4Zm.8 14.8h-.4l-.8-.7c-.7 2.2-1 2.6-.3 3.7.3 0 0-1.1.7-.7v2.2c-.4.4-.4.8-.4 1.1 0 .4 0 .8-.3.8-.4.3-.4 0-.8-.4v-.4l-1 .4h-.5c-.3-.7 0-1.9 0-3 .4-1.1.4-2.2 1.2-3l-.8-.3c-.2-.3-.2-.5 0-.8 0-.4.4-.4.8-.7l-.8-1.2.8-.7-.4-.4 1.1-1.9c.4-.3.4-.7.8-.7 0-.4.3-.4.3-.4 0 .4.4.4 0 .4 0 .7-.3 1.1 0 1.5l1.5-.4c.8 2.3-.7 3.7-.7 5.6Zm3-13.4h.3s.4.4 0 .4c-.4.3-.7.7-.7 1l1 .5-1.4.7.7.4v.7c-1.4.4-1.4 1.1-1.4 2.3l-.4.7c-.8-.4 0-1.5-.8-1.9l-1 .8-.5-1.5h-1c-.4 0-.8-.4-.4-.7.3-1.2 0-2.7 1-3.8h1.2c.4-.7.4-1 .4-1.8 0-.4 0-.8.3-1.2.8-1.5 1.2-3 1.5-4.4l.4-.8c-.4-.7 0-1.1.7-1.9.8 1.2-.3 1.5-.3 2.3.7.3 1.1.7 1.5 1.1.3.7.7 1.5.3 1.9l-1 2.2c-.5 1.1-.5 1.9-.8 2.6l-.4.8c.2-.3.5-.4.7-.4Zm2.2.4c-.4.3-.8.3-1.1 0 .3-.4.7-.8 1-.4v.4Zm0-6.4c.7-.4 1.1 0 1.1.4-.7.4-.7 0-1.1-.4Zm.7-4.5c-.5-.5-.5-1 0-1.8 1.2.7 1.2 1 0 1.8Zm2-5.6s-.5.4-.8.4v-1.5l.3-.4c.4 0 .8.4.8.4 0 .4-.4.8-.4 1.1Zm8.9-17.9c-.3-.2-.3-.7 0-1.5.5.5.5 1 0 1.5Zm6.7-93-.4.4s-.4 0-.7-.4c0-.7 0-1 .7-1.8.4.7.4 1 .4 1.5v.3Zm1.1-11.2c-.4-.7 0-1 .4-1.5 0 .8-.1 1.3-.4 1.5Zm-.7-10.8-.8-.7-.7 1c-.4-.3-.4-.7-.4-1.4l1.1.4c.4-.8 1.1-.8 1.9-.4-.3.5-.6.9-1.1 1.1Zm2.6 65 .3-.8c.3.5.2.8-.3.8Zm1.8 5.2c-.7-.7 0-1.1 0-1.5.4.8.4 1.1 0 1.5Zm-1-79.5c-.4-.4-.4-1.2 0-1.9l1 1.1-1 .8Zm1.4 72.8 1.1 1.5c-1-.4-1.5-.4-1-1.5Zm1.9-53c-.4 0-.8.7-.8 1.4l-.3.4-.4-1.5v-.3l1.1-2.3c.4.4.4 1.1.8 1.5 0 0 0 .4-.4.8Zm2.2 4.4-.7.4c-.4-.4-.4-.7 0-.7 0-.4.3 0 .7 0v.3Zm1.5-1 .8-.8c0 .3 0 1-.8.7Zm33.2 52.2v-.8h.4l-.4.8Zm3.8 3c.7.4.3 1.1.7 1.5-.7-.4-1-.4-.7-1.5Zm1.1 4.1 1.1-.8c.4.4.8.8.4 1.2-.4.3-.8.3-1.5-.4Zm2.2 9.3c-1-.3-1-1.5-.7-3 .4 0 .7.4.4 1.2 0 .3 0 .7.3 1v.8Zm.8-3.3c-.4-.4 0-.8 0-1.1l.7.3c0 .8-.3.8-.7.8Zm43 59.7.3-.4c.4 0 .4.4.4.4 0 .8.3.8.7 1.1.8.8.8 1.5.4 2.3-.8-.4-1.1-1.1-1.1-1.5 0-.8 0-1.1-.8-1.5v-.4Zm-1.2-.4-.7-.7c-.4 0-.4-.8-.8-.8-.7-.7-1.5-1-1.5-2.2 0-.2-.1-.5-.4-.7 2 0 3.4 1.8 3.4 4.4Zm-4.5-6.3c-.5 0-.7-.4-.7-1.1.3.3.7.7.7 1.1Zm-19.8-33.2c.4.7.8 1.5 1.2 1.8v.4a2 2 0 0 1 1 1.9c0 .3 0 1.1.8 1.5v.7c-.3-.4-.7-.7-1.5-1.1-.3 0-.7-.4-1.5-.4l.4-.7c-.4-.8-.4-1.5-.4-2.3-.2-.2-.6-.3-1-.3-.5 0-.8-.4-1.6-.4l.4-1.1c1.1-.4 1.1-.8.4-1.5l-.4-.8h.4c.7.8 1.5 1.5 1.8 2.3Zm-2.2 3.7c-.4-.4-.8-.4-.4-.8l.4-.3c.4.3.4.7 0 1.1Zm-.4-9.3c.4.7.8 1.4.4 2.6a4 4 0 0 1-1.9-3.4c.8 0 1.1.4 1.5.8Zm-2.6-4.5c.4 0 .8 1.1.8 1.5v.3l-.4.4c-.3 0-.5-.1-.8-.4-.3-.3-.7-.7-1-1.5l-.5-.3V595c.4.7.4 1 .8 1.5.4.7.4 1 1.1 1Zm-1.1-15.3h-.4l-.4-.8.8.8Zm0 2.2L599 583c.7 0 1 .4 1 1.5Zm-1.1 15v-.4l.3.3c0 .4-.3.4-.3.4v-.4Zm.3 2.2c.3 0 .4.1.4.3.4 0 .4.4 0 .8l-.7-1.1h.3Zm-1.5-23.2h-.7c-.4-.3-.8-.3-.8-.7-.3-.8-.3-1.5-.3-2.3.7.8 1.5 2 1.8 3Zm-.3 18v.3c-.8-.4-1.2-1.5-.8-1.9l.4-.3s.4.3 0 .3c0 .4.4.8.4 1.5Zm-2.3-7.9c.4 0 1.1.4 1.1 1.1.4.4 0 .8-.7 1.1l-.4-.3c-.7-.5-.7-1.1 0-1.9Zm-1 3.7.7 1.5c-.8-.2-1-.7-.8-1.5Zm-2.3-7.4h.3l-.3.3v-.3Zm-.8 4.8-.7-.4c.3-.3 0-1.4 1.5-1.4 0 .7.3 1.4.3 2.2l.8.7v1.2c-1.1-.8-1.5-1.2-1.9-2.3Zm.8 6.4.3-.4.4.7-.4.4-.3-.7Zm1.8 2.2.4 1.9c-.4-.4-.7-.4-1.1-.4a7 7 0 0 1-.8-2.6h.8l.4-.8 1 .8v-.8l.8-.3c.4 0 .4.3.8.3 0 .4 0 .8-.4 1.2-.4.7-.7 1-1.9.7Zm1.5 15.7v-.4l.8.4c-.4.4-.8 0-.8 0Zm1.1-14.2-.3-1.1 1.1-1.1.4.7c.3.4.7.4 0 .8v1c0 .4-.4.4-.4.4-.4 0-.8 0-.8-.7Zm.8 13.4c.7.4 1.1 1.2.7 2-.3-.5-1-.8-.7-2Zm1.5 4.1c-.4 0-.8 0-.8-.3l.4-.4h.4v.8Zm.7-7-.3-1.2c-.4-.7-.4-1 .3-1.5l-.3-.7c0-.4-.4-.8-.4-1.1 0-.4 0-.8.4-.8h.3v.8c0 .3 0 1 .8 1.5.7-.4.7-.8.4-1.5l-.8-1.5v-.4c.8 0 1.5.4 1.1 1.1 0 .8.4 1.1.4 1.9 0 .4.4 1.1.4 1.9l.3-.4c.3-.2.3-.5 0-.8l-.3-1 .3-.4c.3.2.5.3.8.3l1.5-.3c-.4.7-.8.7-1.5 1l.7.8c.3.8.2 1.4-.3 1.9l-.8.7.8 1.2-1.5.3-.4-1h-.7c-.8 0-1.2 0-1.2-.8Zm2 5.2c-.5-.4-.8-.4-.8-.8.3 0 .7 0 .7.8Zm.3 12.7h-.8v-.4h.8v.4Zm-.8-6.4c-.3-1-.7-1.8-.7-2.6v-.4h.3c.4 0 .8.4 1.2.8-.8.7 0 1.5-.8 2.2Zm7.1 11.6c0-.2-.1-.5-.4-.7-.3-.4-.7-.8-.7-1.5l-1.1-2.3c-.8.8-.4 1.5 0 2.3l.3.3c-.3 1.5.8 2.3 1.2 3.4v.7c-1.5-1-1.9-3-3-4 .3-.8.3-1.6-.4-2l-1.1-2.2c-.4-.3 0-.7 0-1.5h1.1l-.4-.7c-.3 0-.3-.4-.3-.4 0-.7 0-1.5-1.2-1.9l.8-.7 2.2 1.9c-.3 1 .4 1.8.8 3h.4c.7.7 1.4 1.4.7 2.6l1.1 1 .8 3.4c-.5 0-.8-.2-.8-.7Zm2.3 4.5c-.3 0-.5-.1-.8-.4v-.7c.8-.4.8 0 1.1.7l-.3.4Zm-.4-4.1h.4l.7 1.8v.4l-.4.4a6.4 6.4 0 0 1-1-2.3l.3-.3Zm-.4-3v-.4c.4 0 .8 0 .8.4v.4c-.4.3-.8 0-.8-.4Zm1.9 13c0-.3 0-.7-.4-1-.4 0-.4-.4-.4-.8h.4c.4 0 .4.4.4.4 0 .3.4 1 .7 1 .4.4.4 1.2.4 1.6-.7 0-.7-.8-1.1-1.2Zm0-3.7c.7.3 1 .8.7 1.5-.7 0-.7-.4-.7-1.5Zm3.3 8.2-.7-.7h.4l.3.4v.3Zm2.7 3.4-.4-.4h.4l.3.4h-.3Zm.3-1.1c.4-.4.8 0 .8.3-.4 0-.8 0-.8-.3Zm1.5 1.8-.3-.3v-.4l.3.4v.3Zm1.5-3.3v-.8h.4c.7.8 1.1 1.5 1.9 2v1.4c-.8-.4-1.2-.8-1.5-1.1-.8-.4-.4-.8-.8-1.5Zm.4 6c.7.3 1.5.7 1.9 1.4-.8 0-1.2 0-2-1.4Zm2.6-1.2-1.5-1v-.8h.8c.3.3.7 1 .7 1.5v.3Zm.4 4.5c1 .4 1.8 1.9 2.2 3-1.5-.4-1.9-1.5-2.2-3Zm.7-9c.5 0 .8.3.8.8-.4.4-.4-.4-.8-.7Zm1.5 5c-.7-.5-1.1-.8-1.1-1.6v-.4h.4c.3.8 1 .8.7 2Zm5.6-2.3c0-.4-.7-.8-1.1-.8-.8 0-1.1-.4-1.5-.7 0-.8-.8-1.2-1.1-1.9l-.4-.8-.4-.7c-.3-.4-.3-.8-.7-1.1l-.4.7-.7-.3 1.8 1.8c-.3.4-.7.8-1 .8-.5 0-.8-.4-1.2-.8 0-.3-.4-.7-.4-1-.3 0-.3-.5-.7-.8l-.4-.8c-.7-1.1-.7-1.5 0-2.2 0-1.2-.4-1.9-1.1-2.6-.8-1.2-.8-2.3-1.9-2.7-.2.8 0 1.4.8 2 .3.3.3 1.4 0 1.8h-.8c-.4-.4-.7-.8-1.1-.8l.4.8-1.2.4.4 1c-1.1-.7-1.9-1.8-2.6-2.5l-.8 1c.8.5.8 1.2 1.2 1.6.3 1.1.3 1.8.3 3v.7c-.3.8-.3 1.1 0 1.9.4.4.8.7.4 1.1-1.1-.7-2.2-1.1-2.2-2.6 0-.4-.4-.4-.4-.8l-2.6-3.7v-.7c0-.4.4-.8.4-.8 0-1.1-1.2-1.9-.8-3 .4 0 .8.4 1.1.8l.4-.8.7.4.4-.4v-3.3c.8-.4.8 1 1.5 1 .4-1-1.1-3.6-2.2-4l-.4.7-1.1.8c-.4.3-1.1.3-1.1 0 0-.8-.8-1.1-1.2-1.1l-.3-.4.7-.4c.8-.7 1.1-.7 1.9.4v.4c.7-.4 0-.8.4-1.2h.3l.8-1.8c-.4-.4-.8-.8.3-1.2v-.7c-.7.4-1 0-1.4-.4l-.4-.3v1.8c-.4.4-1.1 1.1-1.1 1.9-.8-.4-.8-1.1-1.5-1.9l-.4.8c-.8-.4-1.1-1.1-.4-2.3l-.7-.7v-.8c.3-.7-.4-1.5 0-2.6 0 0 0-.7-.4-.7-.4-.4-.7-.4-1.1-.4v1.9c-.8 0-.4-.8-.8-1.1-.5.5-1 .2-1.5-.8h-.3c-.8 0-.8-.4-.8-.7.8-1.2.4-2.3 0-3.4-.4-.8-.4-1.1-.7-1.5l-1.2-2.6c-.3-.8 0-.8.4-1.1.8-.4 1.1-.4 1.5-.8l.4.4c.3.7.3 1.5.7 1.9 0 .7.4 1 1.1 1 .8-.3 1.2 0 1.2.8-.4.8.3 1.2.7 1.5v-.3c-.4-.4-.4-.8-.4-1.5 0-.4-.7-1.2-1-1.2l-.8-.3.7-.8 2.3.8-.8 1.1c.8.4.8 1.5 1.9.7v-1.8c.7.3.7.7.7 1.1.4.4.8.4.8.7v.8c-.8 0-1.5.4-2.3.7l.8.8h.4c0 1.5.7 2.2 1.8 3-.2.5-.5.6-.7.4a6.5 6.5 0 0 1-1.5-2l-.8-.3c0 .8 0 1.1.8 1.5 0 .4.4.8.4 1.1.3.4.7.8 1 .8l.5-.8.3 1.1-1.5.8c.4.4 1.2.4 1.5 0 .4-.4.4-.8 0-1.5l.8-.4.3.8 1.5.4v-.8c-.7-.7-1-1.9-1.8-2.6a8 8 0 0 1-1.2-1.9l.8-.7v-.8s-.4 0 0-.3c0-.8-.4-1.2-1.1-1.5 0 0-.4 0-.4-.4h1.1c.8 0 1.1.4 1.1.7v1.2c.4.3.4.7.4 1 .4.5.4 1.2 0 1.6.4 1.1 1.5 1.5 1.5 2.6.8 0 1.1.7 1.5 1.5 0 1.1 1.1 1.8 1.9 2.6.3.4.3.7.3 1.1 0 .4 0 .8.4.8l.4.7v.8l.4 1v.4c1.4.8 1.8 2.3 3.3 3l-.7.8c1 1.1 1.5 2.6 2.6 3.3l.3.8s.4.4 0 .4c0 .3-.3.3-.7.3l-.8-.3c0 .7 0 1 .4 1.8 0 .4.4.8.8 1.5l.3.8.8.7c.4 0 .7.4 1.1.8 0 .7.8.7 1.1 1.5.4 0 .8.3.8.7.7.8 1.1 1.9 1.8 2.6 0 .4.4 1.1.8 1.5 0 .4.4.4.7.8.8.3.8 1 .8 1.8l-1.1-1v-.1Zm2.6 3-1-1.2c.7 0 1 .4 1 .8v.4Zm13.8 3 2 1c.3.4.3.8.3 1.2a6.2 6.2 0 0 1-2.3-2.3Zm-38.8-58 .4.8h-.4v-.7ZM501.8 700.7h-.4v-.4c.3 0 .4.2.4.4Zm-18 30.6.8 1.2c-.7.3-1.1 0-1.9-.8l1.2-.4Zm145-244.5c.3 0 1 0 1 .3 0 .8-.3.8-1 1.1v-1.4ZM511.4 685.3l1.1.4c0 1.5-.4 2.2-1.1 2.2v-2.6Zm6.7-24.3c-.4-.3 0-.7 0-1 .8.3.4.7 0 1Zm-3 15 .8-.4c0 .5-.3.6-.8.4Zm4.1-9.4v2c-.3.3-.7 0-.7-.5 0-.7 0-1 .7-1.5Zm-1.8-.3.3-.4v.7l-.3-.3Zm2.6-2.3c.5.8.2 1.4-.8 1.9l.8-1.9Zm3.3-22.4c-.2-.5 0-.9.8-1.1 0 .7-.4 1.1-.8 1.1Zm3 10.1c-.3.7.4 1.5-.7 1.9-.4-.4-.4-1.2-1.1-1.2 0-.3 0-.7-.4-1.4 0 0 .4-.4.7-.4l.4.4v1.4l1.1-.7Zm80-29.9h-.4a5 5 0 0 1-.8-2.6c1.1.4 1.1 1.1 1.1 2.6ZM508 705.1c-.3 1.5-.3 3-1 4.5-.5.7-.5 2.2-.5 3.3 0 0 0 .4-.3.8v.7c0 .4-.4.4-.8.4l-.3-1.1.7-.4c.4-.4.4-.7.4-1.1 0-.4 0-.8-.4-1.1a1 1 0 0 1 0-1.5c.4-1.1 0-2.3.4-3 0-.8.3-1.5 0-1.9-.3-.2-.1-.5.3-.7.8.3.4 1.5 1.5 1.1Zm15.7-60.9-.7.8v-.4s0-.4.7-.4ZM485.4 732l1 .3c-.3.4-.7 0-1-.3Zm28-40v1.9c-.5-.5-.5-1.1 0-1.9Zm-1.5-1.5c0 1.2.3 2.3.3 3 0 1.1-.3 1.9-.7 2.3l-1.1.3c.3 1.2.7 2.3 0 3l-.8-.3c-.4.3-.4 1-.7 1.4l-1.2 1.2c.3.2.5.2.8 0 .4 0 .7 0 1.1.3-.7 1.2-1.1 1.5-1.9.8l-.7.4c-.8-1.2.4-2 0-3l1.1.3c.3 0 .4 0 .4-.3.4-.4.4-.8 0-.8 0-.4 0-1.1.4-1.5l-.4-1.5.7-1h-1.5c0-.8 0-1.2.4-2v-3c1.1-.3 1.1.4 1.5 2 .8-.4 1.5-1.2 1.1-2 0-.7 0-1 .8-1.4.3 0 .3.3.3.7v1.1Zm2.6 5.3v-1.2c.5.3.5.7 0 1.2ZM492 722.3l1.1 1.1c-.4.4-1.1.7-1.1 1.5 0 0-.8.4-1.1.4l-.4-.4a2 2 0 0 0 1.1-1.9s0-.4.4-.7Zm17.5-38.1c0-.4 0-.8.8-.8 0 .8-.4.8-.8.8ZM625.4 487c0-.7.4-1 1.1-1 0 .3-.7.7-1.1 1ZM532 621c0-.3.4-1 .4-1.8 0-.7.4-1.1.4-1.5 0-.4.4-.4.4-.4s.3 0 .3.4.4.8.8.4v.4c-.8.3-1.5 1-1.5 2.2 0 .4-.4.4-.8.4Zm73.2-2.5h-.3c-.4 0-.4-.4 0-.8.3 0 .7.4.3.8Zm40 78 .4.4h-.8l.4-.4Zm-18.7-69c0-.4-.7-.8-.7-1.6.7.4.7.8.7 1.5Zm-14.2-.4c-1-.4-.7-1.2-1-2 .7.5 1 .8 1 2Zm-83.6 5.6-.8-1.2h.8c.4.4 0 .8 0 1.2Zm.4 4-.4.4-.8-.3c.4 0 .4-.4.8-.4 0 0 0 .4.4.4Zm-1.5-2.2.7-.7h.4c-.3.5-.6.7-1.1.7Zm12.3-32.5c.4.4 0 .8-.4.8-.3-.4-.3-.8 0-.8h.4Zm4.5-24.2c.2 1.5.1 2.6-.4 3.3 0-1-.4-2.2.4-3.3Zm-2.6 16.4.7.7c-.7.4-1.1 1.2-1.9 1.5h-.7v-1l1.9-1.2Zm1.5-3.4v.8s-.4.4-.8.4h-.7c-.8-.4-.8 0-.8.7-.4.4 0 .8-.4 1.5-.7-1.5-.3-3.4 1.2-4.9.3.8 1 1.2 1.4 1.5ZM580.2 179v-.4l.3.7-.3-.3Zm-31.3-12.6-1.3-.6h1.2l.3.4 1.1.4c-1.3.5-2.6 0-3.9.3.3-.4.8-.2 1.3-.2.5.2.8-.2 1.3-.3Zm12 0c-.1-.2-.1-.4.1-.6.3-.2.5-.5 1-.7.5 0 1 .4 1.4 1-.3.3-.8.3-1.3.5-.2 0-.8 0-1.3-.2Zm-9.2-.7c.8-.2 1.3-.4 1.8-.2-.2.4-.8.4-1.8.2Zm5.7 0c.5 0 1-.3 1.8-.1-.5.4-1.3.4-1.8 0Zm-1.6 0c-.5.2-.7.4-1.2.2l.2-.5 1 .2Zm-1.7 14.9v.4c-.3-.2-.5-.4 0-.4Zm-27-.4c0 .2 0 .4-.5.7-.2-.3 0-.5 0-1 .2 0 .2-.1.2-.4.3.3.3.5.3.7Zm-4.9 1c0 .4 0 .6-.4.8l-.6-.8.5.2c.3 0 .5 0 .5-.2Zm1.3-1.2.2.2-.2.3v-.5Zm-1 .5c.2.2.2.4 0 .7h-.3l.3-.7Zm36-1.3.7.6c-.3 0-.6-.2-.8-.6Zm-68.7 1.7.6.4c-.6.2-.3-.2-.6-.4Zm29.3.3.3.4-.5.3.2-.7Zm30.5-1.6h.3l-.3.2v-.2Zm-22 .4-.3-.7c.3.2.4.4.3.7Zm5.2.3.3.2-.3.3-.3-.3.3-.2Zm23-2c0 .5-.5.7-.8 1 0-.5.2-.7.7-1Zm-23.6 1.6v.2h-.2l.2-.2Zm-3.8 1.1-.5.7-.2-.4c.2-.2.5-.5.7-.2Zm-25-128.8c.2-.3.4-.6.7-.7-.3.4 0 .9-.6.7Zm-1.4 3 .7-1c0-.5.3-.8.7-1.4-.2 1.2-.8 1.9-1 2.7-.5 0-.4-.3-.4-.3Zm2.5-4.8-.2-.2.3-.2v.4Zm-34.3 57-.2.1v-.2h.2Zm51.6-78.9-.4-.4c.3-.4.6-.7.6-1.1.1-.4.1-.6.8-.3V28l-.5.1-.6.3Zm-52.5 80.3-.2-.2.2-.2v.4Zm-2 2.5-.1-.2.3-.2v.2l-.1.2Zm.8-1.5h.5c0 .3-.3.4-.3.2-.1 0-.2 0-.2-.2Zm37.7-62.4h-.3V47c.3 0 .3.2.3.2ZM540.9 27l-.7.3V27c.3-.4.6-.5 1-.7 0 .4-.2.4-.3.6Zm19.7 76.5.2.2c0 .2-.3.3-.3.3 0 .2-.3 0-.5 0v-.2c.3-.2.5-.1.6-.3Zm-32-77.2.3-.8c.3-.1.5-.3.5 0v.3c-.4.4-.4.6-.9.5Zm-.2 1c-.1-.5 0-.8.1-1 .2.4 0 .6-.1 1Zm-.2.5h-.2l.3-.2v.2Zm8.5-.7c-.1.5-.5 1-1 1.5 0-.3.4-.8 1-1.5Zm-13-2.6v-.1c0-.2 0-.4.3-.4h.2l-.3.4c0 .2-.3.2-.3.2ZM472 105.1h-.2l.3-.2v.2Zm51.5-77h-.3v-.2h.3v.2Zm2.7-2 1-2 .8-.3.2.4c-.3.6-1 1.3-1.3 1.8 0 .4-.3.4-.7.1Zm-32.9 45.4c-.2.1-.3.2-.5.1v-.1c0-.2.3-.4.6-.6v.6Zm-.6.7c-.4 1-1 1.7-1.6 2.4.1-.8.7-1.3.8-2l.3-.2.5-.2Zm-2.6 4h-.5l.6-.8c.3-.1.3-.3.6-.7-.1.8-.4 1-.7 1.5ZM502 56l-.3.2V56h.3Zm-5.3 9.4V65c.7-.7.9-1.9 1.8-2.7 0 .8-.4 2-1.8 3Zm4.2-7.5c-.1-.5 0-.9.5-1.2 0 .4-.1.8-.5 1.2Zm-2.1 3.8-.2-.2c.3-.6 1.7-2.7 2-3.5l.2.6c-.1.4-.4.8-.7 1.3-.4.6-.7 1.1-.8 1.7 0 .2-.3.2-.5.1Zm-10.4 16.8-.2-.3c0-.4.1-.6.8-.6l-.6.9Zm6-9.9c.7-.9 1.1-1.8 1.7-2.5 0-.2.3-.2.5-.1l-.3.5-1.1 2c0 .2 0 .4-.8.1Zm9.2-7.3h.2l-.2.2v-.2Zm-20.7 33 .3-.1.1.4s-.3.2-.2 0l-.2-.2Zm-.1-8.3h-.3l.3-.2h.2l-.2.2Zm-8 15.5v-.8c.3.3.3.6 0 .8Zm-.9 1.7-.5-1c0-.3.3-.5.8-.4l-.3 1.4Zm1-2.5c.3-.7.4-1 1.3-.8-.3.4-.3.6-.6.7-.3.4-.5.1-.7.1Zm1-1.2-.7-.5c.3-.2.5-.2.7-.1l.6-.7-.3-.7 2-1c0-.7-.6-.4-.8-.6.4-.7 1-1.2 1.5-1.8.3-.1.3-.3.3-.3 0-.4.1-.8.6-.9v-.2c.1-.4.2-.8.5-1 .6-.6 1.2-1.3 2-1.6l.2-.2-.1-.6 3.1-4.1c.4-.6 1-1 1-1.6a7 7 0 0 1 1.6-2c.8-.9 1.5-2 2.1-2.9.6-.5 1-.8 1.2-1.4 0-.2.3-.3.4-.5.1-.8.7-1.3 1.3-1.8l.3-.6c.1-.8.7-1.3 1.3-2l.4-.7c0-.6.2-1 .7-1.3l.6-.5c0-.4.4-1 .7-1.3a16 16 0 0 0 2.1-4l1.4-2.2 1.4-2.8 1.8-3.3c.3-.6.7-1.1.8-1.7.7-1.5 1.5-3 2-4.5s1.2-3 2-4.6c.4-.6.5-1.4.9-2 0-.5.3-.8.6-1.2.2-1 .6-1.9 1-2.8l.4-.8c1-1.4 1.3-3.2 2-4.6.2-1 .6-1.6 1-2.3.4-1.5 1.1-2.6 1.8-3.9.4-.5.6-.7 1.4-1-.3.2-.4.6-.4.8l-.1.7c-.8 1.5-1.2 2.8-1.8 4.4a10 10 0 0 0-.9 2.4v1.4c-.5.3-1.3.8-1 1.6v.4c-.4.4-.7.5-.7.7l-.3.4c-.4 1-.5 1.7-.7 2.7l-1.4 2.5c0 .2-.3.4-.4.6l-.2 1.3-1 2.5-.2.1c-.2 1.2-.9 2.3-1.3 3.2L507 54l-1.9 4-1 2-1.1 1.8-1.8 3.3-.4 1-.6.5-.4.7-.1 1a4 4 0 0 0-1.8 2c-.5 1.2-1.2 2.3-2 3.4-.7.7-.8 1.4-1.4 2 .2.4.1.6-.3.7 0 .2-.1.4-.3.3-.3.4 0 1-.8 1.3-.5.2-.6.7-.9 1.1-.3.3-.3.7-.9 1-.2.2-.3.6-.4 1-.6 1-1.3 2-2.1 2.8l-1 1.1c0 .4-.5.7-.6 1.1-.9.9-1.8 1.7-2.2 2.7v.5c-1.3.4-1.3 1.6-2.4 2.3v.2c-.3.5-.9 1-1.2 1.6-.3.3-.6.5-.7.9l-1.4 1.3c-.1.6-.7 1-1 1.5 0 .6-.9.8-.7 1.5-.5 0-.8.4-1.1.8h-.5Zm-3.8 4.8c.3-.2.3-.4.6-.5v-.6c.5 0 .8 0 .5.4-.1.4-.4.8-1.1.7ZM491.8 81l.2-.2h.3l-.3.4h-.3V81Zm1.8-10.1c0-.8.2-1.2.8-1.5-.2.6-.5 1-.8 1.5Zm65.8 32.3s-.2-.2 0-.2c0 0 0-.2.3-.2v.2c0 .2-.2.2-.3.2Zm-5.5 6.7.9-1c-.1.5-.2 1-.7 1.2l-.2-.2Zm3.8-3.8-1.1.8-.7 1.1c0 .2-.3.4-.8.7.5-1.5 1.8-2.3 2.2-3.4.7.3.7.4.4.8ZM590.5 30l-.2-.2.3-.2v.4Zm35 24.3c.2-.6 0-1 .1-1.6 0-1.2.3-2.5.2-3.7l.5-2.7c.3-2.6.5-5 .9-7.3.1-2 .2-4 .1-6-.4-1.4-.7-2.6-2.1-3.6-1.3-1-2.2-2.2-3-3.5-.5-1-1.2-2-2-3-.2-.3-.4-.5-.5-1-.4-.8-1-1.5-1.8-2.2-.2 0-.4-.3-.6-.5-.5.3-1 .3-1.4 0l-1.1-.2c-.5 0-1 0-1.5.2-.2 0-.5.1-1-.2l-.8-.3-1-.1a.7.7 0 0 1-.3-.3c-.5 0-1.2-.2-1.7.2l-.6.3h-.2l-.8-.8-1 .5v.1c-.6.6-.8.1-1.2-.1-.5.3-.6.9-1.4 1-.4-.1-.7.2-1.2.4-.3.1-.4.5-.4.7-1.3-.4-.9-1.5-1.2-2.4l-.6.5-1.6 2.2a3 3 0 0 0-1 1.6c0 .4-.1.8-.6 1.1.3.7-.4.6-.4.8l-1 1.8c-.1.4-.4.5-.7.9-.5.3-.6.7-1 1.2-.4 1.4-.9 2.7-1.6 3.8l-.7 1.5c-.4.7-.7 1.4-1.3 2l-.8 1.4c-.2.2-.3.6-.1.8.2.2 0 .2 0 .2l-.8.5c-.3.3-.4 1-.5 1.5-.6.3-.7.9-1 1.4l-.4.8-1.2 2.6-1 1.8c-.5 1.5-1.2 2.8-2 4.1-.5 1.5-1.4 3-2.2 4.5l-3 5-4.1 6.8c-.3.4-.6.5-.6 1l-2.4 3.7c-1 1.7-2.2 3.3-3.3 5-1 2-2.5 3.7-3.6 5.5l-3.7 4.9c-.7 1.4-2 2.8-2.9 4.1 0 .4-.3.5-.4 1l-.9.8-.3.7c-.6.7-1.2 1.4-1.6 2.2l-1.5 2c0-1-.2-1.9.4-2.6.7-1 1.4-2.2 2.3-3.2 1-1.5 2.1-2.9 3.4-4.5.3-.5.9-1 1.3-1.8.6-1 1.3-2 2.2-3l.6-1 1-1.6c.3-.1.4-.7 1-.4 0-.8 0-1.2.6-1.5l4-6.2c1.3-2.6 3-5.1 4.4-7.7l1-1.8 1-1.5c.2-.7.8-1.4 1.1-2.2l1.3-2 2-4.3c.7-1 1.1-2.2 1.8-3.3-.3 0-.6 0-.8.3-.3.8-.7 1.3-.8 2a49 49 0 0 1-2.8 5l-2 3.7c-.6 1.3-1.5 2.4-2.1 3.5a97.3 97.3 0 0 1-5.1 8.2c-1 1.2-1.9 2.7-2.9 4.1l-2 3c-.6.8-1 1.7-1.6 2.4l-.9 1.1c-.3.5-.7 1.3-1.2 1.8-.2.8-1 1-1 1.4l-2 3.1-.3.4c-.8.6-1.2 1.6-1.9 2.5-.3.5-.9 1-1.5 1.7V92l.4-2c0-.7 0-1.5.2-2.3l.2-1.1c0-1.2.4-2.3.4-3.5 0-.2-.1-.5.1-.6.2-.8.3-1.6.2-2.2V80c.5-1.3.5-2.5.5-3.9l.2-1 .1-.5-.1-7c-.2-.4 0-1 0-1.4v-5.6l-.1-5.4.2-3.6-.4-4.6a27.7 27.7 0 0 0-2-10.7 7.8 7.8 0 0 0-2.3-3.5c-1.2-1-1.7-2-2.4-3.3-.8-1-1.3-2-2-3.1l-1-1.6c-.3-.6-.9-1.3-1.3-1.8l-2.4-2.1c-.2-.3-.4-.3-.7-.1l.8.7c.4.5-.3.5-.6.9 0 .2.2.2.1.4-.5.3-.7.6-.6.7l.8-.3c.2 0 .4.5.6.5.7 0 1 .6 1.5 1h.5l.3.8-1 .6.4.3c-.1.6-.8.5-.9.8l.4.3v.4l.4.2c.7.2.9.4.8.8.1.4 0 .8-.2 1l-1.3.3c.4.5.9.8 1 1.4-1-.6-2.3-.6-3-1.7.8-.6 1.4-1.1 1.7-1.7V28c-.7.3-1.3 1-2.1 1.5l-.6-.5c0-.4.8-.7.4-1.1l-.8.6c0 .2-.3.2-.5.1-.3 0-.2-.2 0-.3 0-.2.3-.2.3-.4.2-.1.3-.2.1-.4-.5.3-1.3.6-1.6 1.2-.4.5-.9.8-1.4 1l-.4-.3c-.2-.4-.7-.3-1 0-.3.8-1.1 1.3-1.5 2.2-.1.4-.4.7-1 1 .1-.3-.5-.6-1-.7l.1.6h-.4c-.3.1-.3.3-.6.3 0 .2-.5 0-.5.3l.4.2-.2 1.4s0 .2-.3.2h-.2c-.2-.1-.7-.4-.6-.8h1l-.6-.9c.1-.4.2-1 .5-1.5.3 0 .1-.4.4-.6V31c.2 0 .5 0 .5-.4 0-.2.4-.5.5-.9l.5-.1-.2-.4c.5 0 .9.2 1.3.6l-.2 1-.2.1h-.3c0 .3 0 .5.3.8.3 0 .6-.3.6-.5l1.2-2.4c0-.2 0-.6-.4-.9-.2 0-.1-.4-.3-.6h-.7l-.1-.7c0-.2-.2-.3-.2-.3-.2-.2-.3 0-.5 0 0 .2-.3.3-.6.5V26c0-.2 0-.4-.5-.3l-.5 1.7c-.3.2-.3.4-.3.4.2 1-.2 2-1 2.6l-.3-.7-.6.6h-.5c-.2 0-.2 0-.2-.2 0-.1 0-.3-.4-.4l-.4.7c.5.3 1.1.6 1 1.2l.8-.7c.2.2.5.3.4.6-.1.6-.3 1.4-.8 1.7 0 .2-.3.2-.5.3 0-.2-.2-.2-.2-.2.1-.8 0-1.2-.7-1.3h-.5l.3-.2.1-.8h-.7l-.8 1.8c-.5-.1-.7-.3-.6-.5l.7-1.1c.1-.8.4-1.3 0-2 .6-.1.6-.3.7-.7l-.8.1-.6-.3v.4c-.4.3-.4.5 0 .8l-.3.3.3-.1.2.2h-.5c-.2-.3-.4-.3-.6-.4l-.4.6.5-.1.2.2h-.2l-.5-.1-.8.9-.9-2s.5 0 .3-.3c-.1-.2-.4.1-.7 0a2 2 0 0 0-.9-.3l.4.7c-.5.3-1 .4-1.1.8l-1.3 3c-.4 1.3-1.2 2.6-1.6 4l-.9 2c-.6.7-1 1.5-1 2.2-.5.8-.6 1.4-1.1 1.9-.7.9-.9 2-1.6 3.1v.2c.2.4-.1.8-.4 1.1l-1.2 2.8v.2c-.4.6-.8 1.1-.9 1.7v.4c-.7.9-1.1 2-1.6 3.1l-.3.6-1.1 2.4-1.2 2.4a5 5 0 0 1-.8 1.7c-.3.3-.3.7-.4 1.1l-.7 1.1c-.5.3-.6.9-1.2 1.2-.3.6-.4 1.1-.5 1.7 0 .4-.2 1-.5 1.5l-1.6 2c-.2.2-.4.1-.5.3l-.3.4.7-.1-.9 1.2c-.5.2-.3.6-.7 1.1-.2 0 .1-.4-.4-.4l-.3.7.4.5c0 1-.8 1.4-1.7 1.5l-.4.7.3.7c0 .4 0 .6-.3.7-.7 1.1-1.3 2-2.4 2.8 0 .2-.1.4-.4.6 0 .2-.3.3-.6.7l.2.4c-.1.6-.4 1-.7 1.3-.6.3-.7.1-1.2 0l-.3.2c0 .4.7.1.6.5l-.3.7h-.5c-.5-.1-.5 0-.6.5l.2.2c0 .4-.3.7-.4 1h-.7l.4.7c-.3.3-.7.9-1 1a1 1 0 0 0-.4 1.3c0 .4-.2 1-.7 1.3 0 .2-.3.4-.4.6 0 .2-.2.1-.3.3-.2.2-.5.2-.7.1V94c-.6.5-.7 1.3-1.5 1.8l-.1-.4-.2-.3c-.2.1-.3.3-.3.4-.3.1 0 .6-.2.8-.2.1-.3.3 0 .5l-.2.6c-.6 1-1.2 1.6-1.8 2.3v.2h-.8l-.3.5c.2.4.4.6 0 1.2l-.6.7-1 .4c0 1-.5 1.7-1.1 2.4l-.4.8c-.6.5-1.1.8-1.2 1.4-.5 1.3-1.8 1.9-2.2 3l-3.4 4.3-.6.7a152 152 0 0 1-5.6-14.5c-.1 1-.5 2.1-.7 3.2l-.2 1.4c-.2 0-.4-.3-.2-.2 0-.4-.1-.7 0-.8l-.3-.5c.2-.7 0-1.4 0-2l-.4-2-.4-.7.2-2.3c0-.2.3-.4 0-.6l.2-1.4h-.5l.5-.1-1-3.6c-1.6-6-2.9-12-3.6-18.1l-.1-.4-.2-.5c0-1-.3-1.8-.9-2.7-.2-.2-.1-.6-.3-1 .1-.6 0-1.2-.3-1.9v-.4c0-.2.1-.4 0-.8-.4-.4-.6-1-.7-1.9l-.3-.6c-.1.6-.2 1.2 0 1.6.1.4.3.8.2 1.2l.4.5.2 1.6c.1.6 0 1.4.3 1.8l.4.7c-.2.8.2 1.6.3 2.4l-.1.4c-.4-.2-.6-.5-.6-.9.1-.5-.2-1.4-.5-2l-.2-.3c.3-.5-.1-.8-.5-1.2-.2 0-.4-.3-.4-.5 0-.4 0-.8-.3-1.2l-.2-.3.1.8-.5.6.4.2c0 .3-.3.6-.9.9l-.4-.5c0-1-.5-2-.8-3.1v-1c-.2-.4-.4-.7-.3-1-.2-.3-.4-.7-.3-1l-.2-.3c-.4-.5-.2-1.4-.6-2a2 2 0 0 1-.3-1.1c0-.2.1-.6-.3-.9-.2-.2-.1-.6-.3-1v-.6c-.3-.5-.2-.9-.1-1.2 0-.2.3-.4.6-.6l-1 .1-.4-.7.3-.3c-.6-.1-.8-.5-.7-1l-.2-.2c-.6-.6-.4-1.6-.8-2.3L446 49c-.4-.5-.3-1-.2-1.6 0-.2 0-.7-.3-.7l-.6-.7c-.2-.2-.4-.4-.4-.6.4-.6 0-1.2-.1-1.7-.4-.4-.3-1-.2-1.6-.2-.4-.3-.8-.7-1.3-.3 0-.5-.2-.4-.4-.1-.8-.7-1.5-1-2.4l-.3-1.2v-.6c-.4-.9-1-1.8-1-2.8l-.2-.2c-.4-.4-.5-1-.7-1.5-.3-.6-.4-1.4-.5-2l-1-2.2c-.2-.6-.6-1-.7-1.7l-.2-.4c-.2 0-.2-.3-.4-.3l-.5-1-.2-.5-.3-.6-.5-1.3v-.4c-.8-.1-1.2-.8-1.3-1.4l-.5-1c0-.3-.2-.3-.4-.5l-.6-.9s-.2-.2-.1-.4c0-.4-.2-.6-.6-.9v.6l-.7-.5.2-1.2h.7c.7 0 1.1.3 1.6.6.2.2.4.2.4.4.2 0 .4.3.3.5 0 .6.6 1 .6 1.9h1c0-.5-.8-.6-.3-1.1h-.4c.5-.6.2-1.3-.2-1.7l-.6-.7a1 1 0 0 0-.8-.5c-.7-.3-1-.8-1.5-1.2.5 0 1-.3 1.1.3 0 0 .3 0 .5.3 0-.6-.2-.6-.6-.9l-2.6-.2-.2.2c-.8 0-1.2.2-1.7.3l-.8.1c-.4 0-.6-.3-.8-.5-.3-.3-.6-.4-1-.2h-.4c-.2-.3-.7-.1-1-.6-.5-.5-1.1-.8-1.8-.9h-1l-1.4-.1c-.2.1-.2 0-.4 0a9 9 0 0 0-2.3-.6c-.5 0-1-.2-1.3-.4-.5-.3-1.2-.4-1.5-.9h-.5l-1.2-.2c-.4 0-.7.3-1 .6 0 .2-.3.4-.6.8-.3-.9-1-1.2-2-1.3-.1 0-.4.1-.4.3l1.1.2-.8.4c-.3.2-.5.4-.4.8l-.3.3h-.4c-.4.7-1 1.2-1 1.8.2 0 .1.2.1.2.3-.3.6-.3.8-.3l-.2-.4h.8v-.6c.2.4 0 .7 0 .7l-.6.3.1.7v.2l.7-.1v.5c-.1.2-.4.4-.4.6.7.1 1.3-.6 1.4-1.4.5 0 .8-.3.8-.6l1-.5c0 .4-.7.5-.6 1.1l1-.6c.5.2.4.4.2.6a3 3 0 0 0-1 1.6c0 .2-.3.4-.6.5-.5.4-.4 1-.5 1.4.5 0 1 .1 1-.3.3-.3.1-.6-.1-.6.3-.6.6-1 1.1-1.2l1-.5c-.2.4-.6 1-.6 1.3-.1.4-.6.7-.7 1.3-.1.4-.5 1-.8 1.3 0 .2 0 .4.2.6.2-.1.5-.1.5-.3l.4-.7c-.2-.7-.1-.9.6-1.1.5-.2.8-.5 1-.9 0-.6.2-.5 1-.4-1 1.4-2 3-2.6 5 .5-.2 1-.3 1.3-.8.4-.8.7-1.3 1.3-2 .3-.4.6-1 1-1.3l-.1.4-.3.4c-.3.3-.4.9-.5 1.3l-.2 1.1.7.2-.8 1.8c-.2-.2-.2-.4-.2-.6.3-.4.3-.7 0-1-.3.4-.3.6-.4 1 .2.2.1.4.1.4-.2.1-.3.3-.5.3-.5.1-.5.3-.6.7 0 .6-.4 1.1-1 1.4l-.3.4.4.4c-.2.2-.5.6-.8.5-.2.2-.7 0-.9-.1l-.4.7-1.1-.1.6.4c-.4 0-1 .1-1.4-.2-.2-.2-.4 0-.9-.1l.2.4-1 .7v.4l1.7-1c0 .2-.1.5-.7 1l.7-.2c0 .2 0 .4-.3.4-.3.3-.8.5-1 .6-.5.1-.5.3-.2.8l.3-.3.5-.2v.6l-.6.5c0 .2-.1.4-.5.1-.3 0-.5.2-.6.6l1 .1-.1.2h-1l.2.5-.8.2.7.5v.2l-1 .7v.4c.4.2.4.4-.1.7l.9.2-.1.8-.4-.7c-.6.5-.1.8 0 1.4l-.5.1.2 1.3c0 .1-.3.3-.3.7-.3.3-.4.5-.4 1-.6.4-.2 1-.1 1.7l.2.2.4.1.2.6c-.6.3-.7-.3-1-.3 0 .3 0 .5.2.6l-.6 1c.4 0 .7-.2 1-.3l.4.2s.2.3 0 .4c-.6.1-.6.3-.7.5 0 .2-.3.4-.5.5l-.2-.6c-.7.3-.1 1-.5 1.5.7.3 1 0 1.5-.1-.2-.5-.1-.7-.7-.3v-.2l.6-.4c.4.6.4 1.1 0 1.4l.2.3h-.5l.4.3-.3.6.4.3-.7.9c.5 0 .8-.1 1 .1a2 2 0 0 0-.6 1.9c0 .2-.5.3-.1.6-.3.3 0 .8-.3 1.3 0 .4 0 .6.3 1-.7.2-.8.4-.6 1v.2c-.1.2 0 .5 0 .8-.5.5-.6 1 0 2h-.6l-.5 4.2.3-.4h.2c0 .2 0 .4-.3.4-.5.5-.6.9-.3 1.5-.5.6-.4 1.4-.5 2l-.1.5c-.1.4-.2.6 0 1v.4l-.8 2.9-.5 3.7-.2 1.4c-.1.5 0 1.2-.3 1.7v.2c-.6.5-.3 1.4-.7 2.1.3.8 0 1.6-.2 2.4v2l-.3 1h.7v.2c-.2.8-.1 1.8 0 2.6l-1.6 8.9c-.1.4-.2 1 0 1.4 0 .6-.3 1.1-.1 1.6l-.4 2c0 .5 0 1-.5 1.4l-.2 3.6c0 .6-.4 1.3-.5 1.9 0 .2.1.4 0 .8 0 .4-.3.5-.4 1v2.5c0 .2 0 .4.2.6.2.3-.1.4-.6.4l-1 5.8c-.2-.2-.2-.3-.2-.5l.3-2.7c-.1-.6 0-1.4.1-2.2l.3-1.3c0-.4.2-1 0-1.4 0-.4.4-1 .3-1.6l.2-1.3c0-.7.3-1.2.3-1.6l.2-1c-.2-.2-.2-.4-.1-.6.4-.7.3-1.7.4-2.5v-.2c.5-.7.1-1.6.3-2.3 0-.4.2-1 .5-1.4l.2-1.3-.2-.3c-.3.2-.3.6-.4 1v.4c-.8 0-.4.7-.5 1.1 0 .2.1.4-.1.6v.2c-.2.5 0 1-.3 1.3-.6.7 0 1.6-.4 2.2-.3.1-.1.5-.1.7l-.5 2.6c.2.2.2.4-.1.7l-.1.6c.1.2.1.4-.2.6v.2c.1.8-.3 1.5-.4 2.3l-.2.8c-.3.7-.5 1.5-.3 2.1l-.4 2c-.5.3-.3.5-.2 1v.5c.1.2-.2.4-.4.6 0 0-.3 0-.2-.3-.3 0-.2-.4-.1-.6.2-.1.3-.3.3-.5.1-.8 0-1.4-.1-2v-.4c.4-.6.3-1.2.1-1.8l.5-2.7c.3-.4.2-.6.2-1-.2 0-.2-.2-.2-.2.4-.6 0-1.2.2-2v-.4c.4-.5.5-1.1.1-1.8l-.8.7v.8c-.5.5-.3 1-.4 1.5l.8.6c-.3.3-.7 0-1 0l-.2-1h-1v.2l.7.1-.8.1c-.5.1-.3.6 0 .8l-.2.6c0 .2 0 .4-.3.5-.3.4-.4.8.2 1-.5.4-.8.7-.4 1.4 0 0-.3.1-.3.3v.2c.3.7-.1 1.4-.2 2-.3.3-.4.7-.4 1.1l.1.4c-.3.4-.6 1-1 1.3v2c-.5.9-.2 2-.6 2.9v.4c-.2.5 0 1.4-.2 2.1-.3.2-.3.4-.3.6 0 .8-.3 1.3-.4 2.1l-.2 1.2c-.1.4-.2.8-.5 1l-.5 2.8c0 .6-.2 1.2-.5 1.7 0 .6-.4.8-.9.9l-.3.1c-.2.2-.5.4-.7 0l-.5.4c.5 0 .7 0 .6.3 0 .4-.3.4-.7.3l.3-.3-.5-.3c-.5.1-.3.6-.6 1v.1c-.6.5-.7 1.1-.8 1.7l-.3.1c-1 .5-.7 1.3-.8 2.1 0 .6.2 1 .7 1.3.7.1 1.4.2 2 .1.8-.3 1.6-.4 2.3-.4.6.3 1.3.7 2 .7.2 0 .4.2.4.4l.1.4c.3 0 .5.1.5.3.2.2.4.5.1.6-.3.4-.6.7-.4 1.1-.1.4-.4.8-.7 1 .2.4.4.6 0 1-.2 0-.2.1 0 .3.2.3.2.5-.1.8 0 .2-.3.4 0 .6v.2c-.3.4 0 .8-.2 1.4l-.1.8c-.4.5-.7.9-1.3.6h-.5c-.5.2-1 .1-1.4-.1-.2-.3-.4-.3-.6-.5l.1-.8-.8.5.2.4c-.3.2-.6.3-.6.7-.6.3-.4 1-1.2 1.2l-1 .7c-.1.3-.4.5-.7.7-.3.3.2.4.4.6.7-.3 1.7-.3 2.5-.6h.4c.5.1.9.6.6 1a6 6 0 0 0-.8 1.8l-.1.6c.4 0 .7 0 1-.3.3-.5 1-1 1.6-1.5l1.5-.4c.5 0 .8 0 1.2.2l.4.3.5-.1c.3-.4.6-.7.7-1.1.3-.8 1-1.3 1.5-1.8.8-.7 1.6-1.3 2.2-2l1.7-1.6c.9-.6 1.5-1.3 2.3-2 .4-.6.9-.9 1.2-1.2 1.2-1.3 2.3-2.5 3.3-4 0-.1.1-.7.9-.8l.2-.1 1.7-2.6c.4-1.1 1-2.2 2-3.3.3-.1.3-.3.5-.3.8-.3 1.2-1 1-1.8.1-.4 0-.7-.5-.9l.4-.5c-.5-.3-.7-.5-1.1-.6-.3 0-.5 0-.4-.5-.2-.2 0-.3.3-.5.2 0 .3 0 .3-.2-.7 0-.7-.3-.6-.8v-.2c-.2-.9-.2-1 0-2v-1c0-.4.2-.6.5-.8.4-.3.6-.7.5-1.3-.5.1-.1.8-.7 1.1 0-.8-.4-1.4.4-2.1l.2.2.3-.1v-.4l.1-.4c-.3-.9-.2-1.6 0-2.2v-.2c.4.2-.2.8.3 1l.3-2-.5.2v-1.4c.4-.5 0-1.4.1-2 .2-.7.3-1.3.2-2.1l.3-.6.4-1.9c0-.2 0-.4.3-.6l.2.5c.5-.4.3-.6.2-1l-.3.3c-.3 0-.2-.2-.2-.2v-1.2c.3-.5 0-1.4.1-2.2l.1-.5-.8.4c-.4-.2 0-.6-.3-1-.1-.4.4-.7.5-1a11 11 0 0 0-.5-1.6c.2-.6.5-1.1.4-1.7l-.6.5c-.1-.6 0-.8.4-1.1.3 0 .3-.2.6-.4l-.2-.2-.8.5.3-1.8c0-.3.3-.6.8-.6 0-.4-.8-1 .2-1.2-.6-.7 0-1-.2-1.6-.3.3.1 1-.6 1-.1-.5.2-1 .3-1.7l.5.1.4-1c-.3 0 0-.1 0-.3 0-.2.1-.4-.1-.4-.3.3 0 1-.7 1.3-.3 0-.2-.5-.2-.7.5-.9.1-1.7.3-2.7 0 0-.2-.2-.1-.4l-.7 1a3 3 0 0 0-.5 1.4c.2.2.4.4.1.8v1c.2.4-.1 1-.2 1.4v1.7c.5.5.2.9 0 1.2-.4.6-.5 1-.5 1.4l-.4.5h-1.2c0-.2-.2-.2-.1-.4 0-.4.3-.7.4-1.1 0-.4.2-1 0-1.6.1-.4.4-.6.7-1l.3.7c.3-.3.6-.5.2-1-.2-.2-.1-.4 0-.6l-.9.3.6-3.3c0-.2.1-.4-.3-.6-.5 0-.4-.5-.9-.3l.6-.8c0-.1-.2-.4-.1-.6l.7-.3.3-.1v-1h-.3s-.2.1-.4-.1c0-.4.3-.4.5-.3h.5l.1-.8-.6-.6.1-.6c-.2-.3-.4-.5-.3-.7v-1.4c0-.2.3-.1.6-.5a4 4 0 0 1-.3 2.6l.5.2c.2-1.3.4-2.5.4-3.9l-1.1-.1c-.2 0-.5.3-.3.5l-.2.8c-.3.5-.2 1.2 0 1.6l-.2 1.1c-.3.2-.2.6-.2 1l-.3 1.8c0 .8 0 1.5-.2 2.3l-.3 1.6c.1.6-.2.7-.5 1.1.4.8.5 1.7 0 2.6l.2.6c-.3.4-.4 1-.3 1.6l-.3 1.5-.6-.5v1l.5-.1-.3 1.7c-.5.2-.2-.4-.4-.4h-.2c.3.6-.2 1.1-.4 1.9.2.6-.2 1.3.1 2.2.2.4.3 1-.5 1.3-.1.8-.5 1.7-.2 2.5l-.4.8-.5 2.9s-.3.2-.5.1l-.2-.4.4-1.7c-.4-.5 0-1 .2-1.4v-.2c-.3-.6 0-1.4.2-2.2 0-.2-.1-.6 0-.8l.4-2.7c0-.8 0-1.6.2-2.3.3-.4.1-.8.2-1.2.3-.6 0-1.2.4-2l.1-2.1.2-.8V94l.1-.6c-.1-.6.3-1.3.1-2 0-.1.3-.3.4-.7-.1-.6.2-1.1.1-1.8.1-.5.4-1 .1-2l.5-1V84c.4-.6.3-1.4.2-2.2v-.2c.4-.5.3-1.4.4-2.1l.9-4.7v-1.4c.6-.5.4-1 .6-1.9l.1-.5c0-.4.4-.8.2-1.4.6-.5.5-1 .3-1.6v-1.3c.2-.8 0-1.4.9-2.1l.3-1.6c-.2-.2-.2-.4.3-.5.3-.2.3-.4.4-.6a1 1 0 0 1 .2-1.1l.2-1.6c0-.2.1-.4.4-.5.2 0 .1.4.1.6l-.2 1.4c.3.4 0 .8 0 1.2l-.3 2.7-.4 2.3c-.2.8-.3 1.8-.2 2.6l-.2 1c.1.1.2.3.1.4-.5.3-.4 1-.5 1.5-.2.2-.3.4 0 .6 0 .4 0 .8-.3 1.2v1.2c-.2.1-.5.5-.2 1.1.1.8 0 1.4-.6 2 .7.4.6.8.3 1.1l-.3 1.6 1.1.4.4-.6h-.5c-.2-.3-.2-.5.1-.6.3-.2.3-.4.4-.6 0-.2-.2-.6.1-.8h-.7v-.3c.2-.7 0-1.3 0-2v-.5c.3-.4.5-1 .5-1.4.1-.4.4-.7.2-1.1 0-.2.3-.4.8-.1v.8c.4-.4.4-.7.5-1v-1.1h-.3c-.4-.1-.4-.3-.4-.5s.1-.6 0-.8c0-.4.3-1 .4-1.4l.1-.5c.3-1.4 0-2.8.5-4l.1-.7c0-.8.1-1.6.5-2.4v-1.4c.4-.9.4-2 .8-3.2.2.4.1.8.3 1-.1.6-.5 1.3.1 1.8-.3.4-.6.7-.4 1.2-.3.5 0 1.2-.3 1.7-.1.6-.2 1 0 1.6l-.1.4c-.2.8-.6 1.7 0 2.6.1.4 0 .8-.2 1l-.2.7c-.2.2 0 .4-.3.4-.3.3-.1.8 0 1 .3.2.2.6.2.8l-.1.6c.1.4 0 .8-.2 1.1.2 1 .1 1.8-.3 2.8h-.2l-.2-.3c-.6.3.1.6-.2 1 .4.2.6.7.5 1-.1.6 0 1 0 1.6l-.3 1.4c-.3.3-.3.5-.6.5.4.5.3 1 0 1.4 0 .2.2.4.1.6.2.2.1.6.1.8-.3.2-.3.4-.3.6 0 .2 0 .4-.4.7v.4c.4.3.3.9.7 1.1l-.7 1c0 .1.4.4.1.7 0 .2.2.3.6.5l.4-1.7c.4 0 .6.5.9.1v-1.4c.3-.3.4-.7.5-1.3l-.7.1c-.4-.8.4-1.1.5-1.7-.2-.2-.4-.3-.4-.5v-1.4l.3-.1c.4.2-.4.7.3 1 .3-.5.2-1.3-.1-1.8-.5-.3-.4-.8.2-1.2v.9c.4-.4.4-.8.5-1.2 0-.4-.4-.4-.9-.5.1-.4.5-.1.8-.3l.2-1c.1-.7.3-1.5.2-2.3 0-.2 0-.6-.3-.9.5 0 .5-.3.6-.7-.2-.4.1-.7.2-1.1 0-.4-.1-.8-.3-1-.4-.5 0-1.3.5-1.6v-.4c.2-.6.3-1.1.2-1.8l-.5.2.4-1 .4.1c-.2 0-.1-.4-.1-.4-.7-.3-.4-.7-.3-1l.7-.1-.1-.7-.3.2c-.4-.5-.6-.7-.3-.9.5-.3.5.1.7.3l.3-.3c0-1.2.2-2.6.4-4 .3-1.3.3-2.7.5-4 .2-.8 0-1.4.6-2l.1-.3c.1-.6.2-1 .5-1.5l.1-.6a3 3 0 0 1 .4-2l-.2-.4.1-.5c0-.2.3-.4.5-.2.2.3.2.5 0 .6-.2.6 0 1-.1 1.4-.1.6-.2 1.2 0 1.6-.8.3-.5 1-.5 1.3-.2.6-.5 1-.3 1.6l.1.6c.3-.6.4-1.2.5-1.7l.4-2.2c.1-.4.2-.7.4-.9l.2-.8s.3-.1 0-.2c-.1-.6.2-.7.5-1l.3-.6v-1.4c.1-.4.4-.8.2-1 .1-.6.6-.9.7-1.5l.5-1-.2-.1c-.2-.5.1-.8.2-1.2l.3-3 .5-.3.8 1-.4.5.2.2.7-1c.2.5 0 1-.7 1.2l1 .6-.2.3.3.9.8-.3c-.2.6-1 .9-.3 1.4l.9-.9.1.4h.8c-.1.3-.3.5-.6.5-.5-.1-.7-.2-.8.2l.4.7-.7.9.5-.1.3-.4c.3 0 .5 0 .5.3.2 0 .2.2.1.4l-.6.7.7.1c.2 0 .4.3.4.3 0 .2.1.6-.3.7-.3.2-.1.4.1.4.7.1.9.6.8 1l-1.1 1c.4.2.5-.4.8-.5.7.1.3.8.7.9 0 .2-.2.2-.2.2 0 .3.1.4.4.4l.5-.1c.4.3.3.6-.2.8-.2-.3-.3-.7-.8-.6.2.3.1.5.1.5.5.2.4.4.6.7.2.2.2.4.1.6.2.4.4.4 1 .3.2-.2.4-.1.9 0-.3.1-1 0-1 .6h.1c-.3.6-.8.7-1.5.8.4.5 1.3.6.5 1.3.6.5.8.5 0 .8l.3 1 1.8-.3c0 .8-.5 1-1 1.4l1.2 1.2-.8.3v.4l.3.4-.5.2.8.9c1.1.3 1.3 1 1.1 1.7.2.5.1.8.5 1.1 0 .2 0 .4.2.4 0 .2.4.5.1.6-.2 1 .7 1.5.8 2.4.1.4.3 1 .2 1.4l.3 1c.2 1 .6 2 .6 3 .1.5.7 1.2.4 2l.1.4c.5 1 .8 2 .9 3.1v.4c.4 1 .2 2.2 1 3.3v.2c-.4.6 0 1 .1 1.5 0 1 .1 2 .5 2.8-.2.6.2 1.2.4 1.7-.1.4.1.4.3.6l-.1.8c.1.4 0 .8.2 1.2l.3 2.3c.1.6 0 1.2.2 1.8 0 .8 0 1.6.5 2.2l.2.5.3.8c-.3.4-.4.8-1 1l-.8 1.1c-.3.2-.3.4-.1.6v.6l.5.1c-.3.6.1 1 .5 1.5l-.5.3c0 .6.2 1 0 1.6.5.5.5.9-.1 1.4l.6.3c-.3.7-.4 1.1.2 1.8-.7 0-.6.5-.5 1.1h.5l-.3.6.8.7h.2v.3h-.7v.7s0 .2.3.2c-.4.6-.2 1 0 1.4.2.2 0 .6 0 .8l.4 1.9c.4.6.5 1.2.8 1.9-.5.5.1 1 .3 1.4-.2.6 0 1 .2 1.4 0 .3.3.5.6.5-.3.5-.1 1 .5 1.3l-.1.6c.4 0 .3-.6 1-.3l-.6.4.3 1h-.5l.1.7.7.1c-.8.5-.6.5-.2 1.4l.4 1.3.8-.1.6.5c.1-.6 0-1-.7-1.1l.3-.4.3-.3c-.2-.5-.1-.9-.3-1-.2-.5-.1-.9-.3-1.1l-.3-2.5c-.2-.2 0-.6-.3-.8 0-.8-.1-1.8-.4-2.8-.4-.7-.4-1.7-.6-2.3-.3-.7-.2-1.2 0-1.8l-.3-.4v-1.2c-.2-.3 0-.7-.3-.9.2-1-.3-2-.3-3.2v-2.4l-.2-.7c-.3-.8-.4-1.8-.4-2.8-.3-1-.3-2.2-.3-3.4-.2-.5 0-1-.3-1.5 0-1-.3-2-.4-2.8 0-.8-.2-1.5-.3-2.3l-.3-2V90c-.2-.4-.3-1-.3-1.4l-.3-3c-.2-.5 0-1-.5-1.5l-.1-.5v-.5c0-.7-.2-1-.3-1.7l-.3-1c0-.4 0-1-.2-1.7v-.2c-.6-.3-.3-.6-.5-1 0-.8-.2-1.5-.3-2l-.6-3.1-.3-1.3c0-.4 0-1-.2-1.6l-.4-1.5c-.2-.4 0-.8-.3-1.2.3 0 .5.3.4.5l.8 2 .9 3.2v.4c-.1.2 0 .4.3.5-.3.5-.4.7.3 1 .5-.2.7-.6.7-1l.6.4c-.3.3-.7.9 0 1.4 0 .2-.3.3-.4.5.4.5.3 1.3.7 1.7l-.2.6c.2.2.2.4.2.6l.4.1v.2c0 .2-.3.3 0 .4.3.6.1 1.4.3 2-.2.6 0 1.2.3 1.9v.2l.1.6c.2.4.1.6 0 1 0 0 .3.2.2.4l.5-.1v.2c-.5 0-.4.5-.4.9.2.2.1.4 0 .8 0 .2 0 .4.2.4.4.5.3 1 .2 1.5l.2.2c.2.4.4.6.3 1 .2.3.1.6.8 1h-.7l.1 1.7c.2 0 .3 0 .2.2-.2.1-.3.3-.1.8l.5 2.2c0 .2.5.3 1 .4-.9.2-1.2.6-1 1.2v1c.2 0 .2.2.2.4-.1.6.3 1 .4 1.5.2.2.2.4 0 .6l-.2.4.5 1.4h.2c-.4.8 0 1.5.1 2v1.5c0 .4 0 .8.2 1.2 0 .2.2.4.1.8-.2 0 0 .4 0 .6.1.2.3.6.2.8v1c.3 0 0 .2 0 .2.2.6.1 1 0 1.6.2.2.4.3.4.5-.2 1 .4 1.8.5 2.6v1l.3 2.5c-.1.5 0 1 .2 1.6.2.2 0 .6.2 1 0 .6 0 1 .2 1.6.2.3.2.5.1.9.2 0 .2 0 .2.2-.5.3.1.8 0 1.4l.5 1.2v.2c-.2.5 0 1 .3 1.6l-1 .3c-.9 0-1.4.6-1.6 1.3.4.5 1 .4 1.4.3.5 0 1-.3 1.4.2h.4l.3 1 .5 1.4c-.2.6.2 1 .7 1.3.2.2.4.2.6.5-.3.1-.4.5-.2.7l1 1.5h-.2c-.5.1-1 0-1.5.2-1 .2-2.2.6-3 1.1-.6.3-.6.5-.5 1l.1.8c.2.2 0 .5-.3.7-1 0-1.6.8-2.4 1.2.5.1.4.3.7.3a6 6 0 0 0 2.2-.4l2.3-.9h1c.3.2.8.1 1.3.2.5 0 .7 0 1.2.2.3.6.7 1 1.4 1.2.4.2.6.7.5 1-.3.4-.6 1-1 1.3-.8.8-.5 1.5 1 1.7l.4-.1 2.5-.4 1.8-.8.6.4.2.2.7.1c.4.3.6.3.9.1l1.6-.9c1.2-.6 1.9-1.5 2.7-2.3l1.2-.7.5-.3c.8-.5 1.6-1 2.6-1.4l2.8-.8 3.2-1c1.2-.1 2.2-.6 3-1.2.6-.5 1.4-.8 2.1-1 1.5-.5 2.8-1 2.9-2.7 0-.4.1-.7.7-1 .2-.2 0-.6.1-1l.8-.1c.7-.3 1.4-1.2 1-2-.1-.5 0-1.2-.4-1.7l.3-.2.4.3.8-.5c0-.2.4-.5.6-.7a14 14 0 0 1 2-1.9l.4-.5.3-.6c.6-.7 1.3-1.6 1.4-2.6l1.3-.2-.2.8c-1.5.6-1.7 1.5-1.9 2.7.2.2.4.3.5 0 .3-.3.3-.5.3-.7.1-.5.7-.9 1-1.2.7 0 1-.6 1.4-1.2 0-.4-.4-.6.2-1l.4.1h.2c.1-.3 0-.6-.5-.8-.2 0-.5.1-.4-.3.3-.5 1-.8 1.2-1.6 0 0 0-.2.3-.1h.2l.2.2c-.5.3-.8.7-1.1 1 0 .2 0 .4.3.7.1-.4.4-.6.7-.9 0-.4.7-.3 1-.6l.2-.8c.1-.6.8-.5.9-.9-.2-.2-.4-.6 0-1 .1.2-.2.6.3.7.8-.9 1.2-1.4 1.4-2.6 0-.2.3-.4.3-.4.5-.5.6-.9.2-1.3-.2-.2-.4-.5-.3-.7l.7-.2c.2.4-.1.7.3 1 0-.2.3-.4.5-.3.8-.5 1.2-1 1.5-1.6.1-.6.3-1.4 1-1.8.3 0 .3-.2.3-.4l.4-.5c.4-.8-.5-1-.2-1.8l.7.5c.2-.2.8-.5 1-.9.6 0 .6-.5.7-.9-.2-.4.1-.8.5-1.3l.6-.7c.5-.2 1-.4 1.3-.8l1.9-2.5 1-1.4 1.5-1.8c.5-.5.6-.9.7-1.5.3-.1.8-.3.8-.6.4-.8 1.2-1.5 1.6-2.2 0-.2.3-.3.3-.5l1-.9c.8-1 1.5-2.2 2.4-3.2 0-.2.3-.6.6-.7.4-.8 1-1.5 1.6-2.4l1-1.2c0-.4 0-.6.4-1 .5-.5.9-1 1.2-1.6l.8-1.6c.3-.6 1.1-1 1.2-1.6 1.1-1 1.4-2.4 2.5-3.2V74c.6-.7 1-1.7 1.4-2.4l1.8-2 .4.1-.1.8-.2 1-.6 3.5-.6 2.9c-.2 1.5-.3 3.1-.8 4.6-.3 1.6-.4 3.4-.9 4.9-.2 1.2-.2 2.4-.6 3.5-.1.4-.2.8 0 1.2-.1.6-.3 1.3-.1 2v2c0 .4.2.6.1 1 0 .5-.2 1.1 0 1.7 0 .9-.2 1.8 0 2.6 0 1.2-.5 2.4-.5 3.6v1.2l-.4 3.9c-.1.4-.2.7 0 1.4v4c-.2.5 0 1.1-.2 1.7.2.4.4.9.2 1.4 0 .6 0 1.2.4 1.9.4.5.6.9.7 1.5.2 1.6.3 3.4 1.7 4.8l.2.5c.2 0 .7 0 .8.3l1.3.8c.7.3 1.1.5 1.8.6l2 .4c.3 0 .5.2.7.3.5 0 .7-.1 1-.3l1.2.2c0 .6.2 1.2.6 1.7.1.6 1 1.1 1.7 1.2h1c.4-.1 1-.3 1.4-.6 1.1-.8 2.4-1.2 3.6-1.6a42.1 42.1 0 0 1 6.2-1.5l1.2.2 2.2-.3a5 5 0 0 0 4.1-2c.6-.6 1-1.2 1.3-1.7a42.7 42.7 0 0 1 5.9-7.9l2-2.9c0-.4.3-.7.6-.9l2.1-2.6c1-1.7 2.2-3 3.5-4.7l3.7-4.6c.3-.7.7-1.5 1.5-2l.3-.1c.3-.8 1-1.5 1.3-2 .3-.6.9-1 1.2-1.6.6-.7 1.4-1.4 1.8-2.1.1-.4.4-.6.7-1 .3-.7 1.1-1.2 1.2-1.7.4-.8 1.2-1.3 1.8-1.8V89l2-2.7.8-1 3.2-4.7.1-.4c.3-.5.7-1.3 1.3-2 .8-1.5 1.7-2.7 2.7-4.2.6-.9 1.2-1.8 1.7-2.9l.4-.7 2.2-3.3h.7l-.3 1.7c0 1-.3 1.7-.4 2.5 0 .8 0 1.4-.2 2-.3.5-.2 1.3-.5 1.7-.4.5-.5 1.1-.5 1.5-.1.6-.5 1.1-.6 1.7l-.1.8c-.1 1.8-.6 3.3-.7 4.9v.5c-.4 1.6-.9 3.1-1 4.9 0 .8-.5 1.7-.7 2.7-.4 1.1-.6 2.3-.9 3.6l-.8 3-.8 3.2-.7 3.6c0 .8-.5 1.6-.4 2.4 0 .5-.4 1.1-.6 1.9a4 4 0 0 1-.5 1.7c-.1.7 0 1.6-.2 2.3-.2 1.2-.6 2.1-.8 3.1a7 7 0 0 1-.8 3l-.9 5.1-1.5 8a62 62 0 0 0-.6 6.2c-.2 1-.1 2-.4 3.2a9.4 9.4 0 0 0-.1 3.5l.1.4c-.2 1.4 0 3 .1 4.6.2 1.9.3 3.9.2 5.6-.2 1-.1 1.8 0 2.8v.7l-.5 1h.8c-.2.2-.2.5-.2.7 0 0 0 .2-.2.2-.6 0-.5.5-1 .7l-.6-.4c-.2 0-.5-.3-.7.2l-.3.2-2 .7.2.4c0 .2-.5.3-.7.5H581l-2.8.3h-.8l-2.6.7.3.4c-.8.2-1.3.5-2 .3l-.4-1.1c-.5.2-1.3.2-1.8 0-.8 0-1.5 0-2.3.3h-.8c-.2 0-.5-.2-.8 0 .2.3.5.4.8.4h1.6c1 0 1.8.2 2.6-.3l.5.4-.2.5c.5.4 1.3.4 1.8 0 .5.2 1 .1 1.6.4h2l2.1-.1.3.2-2.8.7h-3c-1.5.3-3.3.3-5.2.1-.7 0-1.5.3-2.3.5-.5.2-1 .3-1.3 0-.5-.2-1-.2-1.3-.2-.7.5-1.5 0-2.3 0l-4.7.2h-.7l-1.4-.2a64.3 64.3 0 0 1-8.5.3h-2c-.8-.1-1.9.1-2.7-.5 0-.2.3-.5.8-.5h2.3c.3 0 .5 0 .8-.2l-.8-.5c-.6-.4-1.4-.6-2.2-.8-.2 0-.5 0-.5-.2-.3-.2 0-.7.2-.7.3-.2.3-.4.8-.6l-.8-.3h-2.3c-.8.1-1.8.3-2.9.1h-.3c-.2.3-.5 0-1 0h-.8c-.5 0-1.3.3-1.8.1h-.2c-.6.2-.8 0-1 0-.6-.4-1.4-.4-1.9-.2h-.5c-.3-.2-.8-.2-1-.2l-2.2-.1c-1-.2-2.3-.2-3.6-.2-1-.2-2.1-.6-3.2-1l1-.7c.2-.2.4-.2.5-.2.8 0 1-.5 1.3-1-.5-.2-1-.1-1.6-.1-.7.2-1.5.2-2.3.2-1.8-.2-3.4-.4-5.2-.3-.3 0-.5 0-.8-.2-.8-.2-11-1.1-11.7-1.3h-3c-.2-.2-.8-.2-1-.4l-1.3-.2c-.6-.4-1.6-.2-2.1-.6-.8.2-1.6 0-2.6 0h-.8l-1.6-.6a6 6 0 0 0-2.1-.4c-.5-.2-1.3-.2-1.8-.2-.8 0-1.3-.2-2 0h-.4c-1-.2-2-.4-3-.3-.6-.2-1.1 0-1.9-.2a10 10 0 0 0-3.6 0c-.2 0-.4 0-.6-.2-.5-.2-1.3-.2-1.8-.2h-6.1c-1.1 0-2.2-.3-3.2-.2l-5.2-.4c-1.3 0-2.6-.2-4-.1-.4 0-1-.2-1.5-.7-.6-.6-1.6-.4-2.1-.8-.3-.2-.3 0-.3 0h-.8l-3-.4h-7.4l-3.6.2-1 .3c-.8 0-1.3 0-2 .2-1.6.3-3.1.7-4.7.8-1 0-1.8.2-2.8.7-.2.2-.7.6-1.3.4-.2 0-.5 0-.5.3-.7.4-1.5 1-2.2 1.8-.7.8-1.5 1.7-2.2 2.8l-.7 1.2c-.5.4-.7.8-1 1.3-.7.7-1.2 1.5-1.6 2.6v1.1l.1 1-.7 1.3c0 .2 0 .4-.2.6-.3.5-.8 1-.7 1.3-.3.7-.5 1.4-.4 2v1.6l.1 1.5c.3.4.3.6.4 1 .3.7.3 1.4.6 1.8l.8 1.5c1.1.9 2.2 1.8 3 2.8 0 .3.3.5.3.7.6.2.8.6 1.1.8.8.7 1.6.9 2.2 1.8l4.7.1c.5 0 1-.2 1.5 0h.3c.5-.3 1-.3 1.5 0l.8.2h1.8l1.8-.1h1.5c.6-.3.9 0 1.1 0h1.8l1.1.1c.8 0 1.3-.2 2 .2h.3c.8 0 1.6 0 2.4.2.8 0 1.5.2 2.6.1.5-.2 1 0 1.5 0 .3.2.8.2 1 .2h.9l2.8.2h1l2.1.1h2.1c.5.2.8.2 1 0l1.1.2c.8 0 1.8.2 2.6.1.8 0 1.6.2 2-.2h.6c.5.2 1 .2 1.8.2h1.8l2 .1c.9-.2 1.6-.2 2.4 0h2.3l1.9.1c.7-.2 1.5 0 2.3-.4.5.2 1.3.4 2 .1.8 0 1.9 0 2.7.2 1 0 2 .2 2.5-.7.8.6 1.6.6 2.1.4.8 0 1.8.4 2.3 0 .6 0 1 .2 1.6 0h1.8c1 .1 2-.1 3.1-.2l2.3-.2c.6.2 10.2.5 10.7.9.2-.2.5-.2.8-.2.2-.3.7-.3 1 0 .8.1 1.5 0 2-.3h.6c.5.4 1 .2 1.3.2.5 0 .8 0 1-.3.3 0 .5.5 1 .2 0-.2.6 0 .8.2.3.2.8-.2 1 0 .6-.4 1.1-.2 1.9 0 .8 0 1.5 0 2-.5.6-.2.8 0 1.3 0 .6-.2 1.1.4 1.6-.3l.3.2c.5 0 1.3 0 2-.2.3 0 .8-.2 1 0 .6 0 1.1.2 1.6-.3.2 0 .8.2 1.3-.2l.2.2c.3.2.6 0 .8 0 .2-.2.4-.2.5 0 .3.2.6.2.8 0 .5.2.8 0 .8-.3.2.2.5.2.5.2h1.3c.5-.2 1.3-.4 1.8-.2.5 0 1 .2 1.5-.3h.3c.5.2.8 0 .8 0 .5 0 .8.2.8 0 .5 0 1-.2 1.3 0 .2.2.2 0 .2 0h2v-.3c.3.2.6.4.9.2h.2c1 .2 1.8.2 2.6 0 .5-.3 1-.3 1.6 0h1.5c1-.3 2.3-.3 3.4-.4.5 0 .8 0 1.3-.2 0 .2.2.2.5 0l1 .2.8-.2.2-.3c.3 0 .6.3.8.3 1.3.2 2.9-.3 4.2-.1.7-.2 1.5 0 2.3 0 .5 0 1.3 0 1.8-.3.3.2.5 0 .8 0h20.3c1.3.3 2.6 0 4 .2.7.2 1.7.2 2.5.2 1-.3 1.8 0 2.6.2h1c.8 0 1.3-.3 2.1-.1 0 .2.6.4.8.2 0-.2 0 0 .3 0 .5.2.7 0 1-.7 0-.4.2-.6.7-.9a2 2 0 0 1 1.5 0l.8-.4 1-2.3-.1-.4.2-1.5.2-.3c.5-.2.5-.8.4-1.3 0-.6.2-1 .7-1.5.5-.5.5-1 .7-1.1v-1.4l-.3-.8c0-.7.2-1.1 1-1.6.2-.2.4-.6.4-1v-1c0-.4-.1-1-.4-1.5 0-.2 0-.4.2-.7.5-.2.5-.6.5-1 .2-.5 0-1 .4-1.2.3 0 .3-.2.3-.4-.3-.4-.3-.9-.6-1.5l-.6-.7c.3 0 .5-.4.8-.8.2 0 .5 0 .7-.2.3-.2.6-.4.6-.8l.2-1.1c-.1-1.6.4-3.2.4-4.7l.8-4.5c.4-1.7.7-3.5.8-5.3.1-2.1-.2-4.4.5-6.5 0-.4-.4-.8-.3-1.2 0-.2.3-.5.2-1-.2-.4.2-1 .2-1.3l.2-1c.2-1 .4-2 .3-3l.3-1.7V127l.6-3.5c.3-1.1.5-2.5.5-3.7v-6.4c0-.1-.2-.6 0-1l.1-1.1c.1-.4.2-.8 0-1.2 0-.4.4-.8.2-1.2 0-1.4 0-2.8.5-4l.1-.5c0-1.2 0-2.4.2-3.5.2-1 .3-2 .2-2.8.2-2 .5-3.7.6-5.7.2-1.1.2-2.5.5-3.9 0-.4.2-1 0-1.4.6-.7.3-1.5.4-2.3.3-.3.2-1 .3-1.4l.3-1.9c.3-1.2.2-2.4.7-3.7.2-1 .2-2.1.6-3l.4-2.2.3-3v-.1c.5-1.6.8-3.1.9-4.7 0-1.2.4-2.1.3-3.1.7-2.5.4-5 .4-7.3l-.1-.1ZM413.2 9.6v-.2c.2-.1.4 0 .7.3l-.7-.1Zm2.6 5c-.2 0-.3.3-.7 0l.8-.6c0 .2.2.2.2.2l-.3.4Zm-28.6 134.6c0-.4.3-.5.5-.3 0 .2-.2.2-.5.3Zm4.8-39-.7-.4 1.3-.4c-.4.7-.6.7-.6.7Zm.2-1.2v-1l.4-.2c0 .6 0 1-.4 1.2Zm5.3-3.2h.7l-.6.8c-.4-.3 0-.6-.1-.8Zm.5 2.4h-.2c-.2-.4-.1-.8 0-1.2h.4l-.2 1.2Zm8 6.6-.3.2c0-.2-.2-.2-.1-.4l.2-1.4.3-.3c.2.6 0 1 0 1.4.2.2 0 .4-.1.5Zm.4-3.3-.2 1c-.3-.3-.2-.6.2-1Zm0-.2c-.4-.3-.4-.6 0-1 .4.3-.2.6 0 1Zm1.2-5.4c.4.5-.1.8-.4 1-.4-.3-.1-.7-.3-1 .5-.2.8-.2.7 0Zm-.6 1.1c0 .2.4.3.3.5 0 .2.4.6 0 .8l-.1.2c-.1.3.1.6 0 .8.2.2 0 .5-.3.5-.2 0-.4-.2-.3-.6 0-.4.1-.8-.2-1.5-.2-.2 0-.4.6-.7Zm0-5.3v.3c-.4-.1-.3-.3 0-.3Zm-.7 3.8h.2l-.2 1c-.4-.2-.3-.8 0-1Zm-1.8-1.6-.5 2.5c0 .4-.1.6.3.8l-.6.7h-.2l.7-5 .9.3c-.3.3-.6.3-.6.7Zm-.2-2.9c.2-.1-.2-.4.3-.5.4.5.6.9.3 1.2-.3.2-.1.4.1.4-.3.2-.3.6-.8.5 0-.2.1-.6 0-.8 0-.2-.2-.4 0-.8Zm-1 10.8c.1.3.4.3.1.5 0 .2-.3.1-.5 0s0-.3.3-.5Zm-4.2-9.7-.3.3v-.2c0-.6 0-1.4.2-2a7 7 0 0 1 .2-2.5h.5c0 .7-.5 1.4 0 2l-.6 1v1.4Zm2.1-11.7-.2 1.4c-.2 0 0 .2 0 .2-.2.6 0 1 0 1.6-.5.7-.6 1.5-.8 2.2l-.1 1c0 .2-.3.2-.6.3-.1-.4 0-1 .3-1.3l-.4-.3c.2-1.5.3-3.3 1.1-5-.5 0-.4-.5-.1-.6 0-.2.3-.4.3-.4l.2-1.3c0-.2.3-.2.6-.3l-.1.5c0 .8-.3 1.4-.2 2Zm4.3-53.1-.6.5c0-.3.3-.4.6-.5Zm-.6 1.9.8-.3c-.1.6-.6.5-.8.3Zm.6 4.5-.4-.5c.5-.1.5 0 .4.5Zm0 1.6.5-.6c0 .6-.3.6-.5.6Zm1.8-15.3c.2-.2.5-.3.8-.3l-.6.3h-.2Zm2.1-2.7h-.4l.6-.7-.2.7Zm2 25.8c-.1.4-.4.6-.4 1v1l-.4 2.3c-.5 0-.5-.3-.4-.7.3-.3.2-.7.2-1.1.1-.4 0-.6 0-.8.3-.6.4-1.2.5-1.6l.2-1.1h.2c.2.4.1.6 0 1Zm-.7 20.2-.3.6c0-.4 0-.6.3-.6Zm18.1-23.7c.2.2.4.3.1.6l.1.8-.5.2c-.1-.7-.5-1.3-.1-1.9l-.8.1c.1-.4.3-.3.8-.4v.3l.4.3Zm-.8 5.9v.1l-.6.4.1-.6h.5Zm-5-31.9c0 .4 0 .6-.3.6l-.2-.2.5-.4Zm-.7 6.7.9 1.5-.7-.3v-.2l-.6-.3.4-.7Zm-2.9 5.3-.3.4h-.2c.2-.2 0-.4.5-.4Zm-.7 1.5 1.4-.2v.2s0 .2-.3.2a1 1 0 0 0-.7.3l-.3.1-.1-.6Zm1.8 1.5-.6-.3h-1.2V38c.3-.1.6 0 .8 0l-.2-.3.5-.1h.2l-.5.3 1.1.4v.4Zm2 .5c0-.1-.1-.3 0-.4-.3-.2-.2-.4-.4-.7l-1-2.5c-.3-1-.4-1.8-1-2.5-.2-.3-.1-.5 0-.7 0-.3.3-.5.3-.9h.3l.6.5c.5 1 .3 2 .9 3v.4c.1 0 .1.2 0 .4.6.9.7 1.7 1 2.5 0 .2 0 .6-.4.8l-.2.1Zm.2.4.8-.2c.2.4.1.6-.1.7-.5 0-.7-.3-.7-.5Zm1 .8v.8l-.7-.5c.3-.2.3-.4.8-.3Zm-.7 1.5.8-.1.3.8c-.3 0-.7-.3-1-.7Zm1.5-2.6c-.1-.8-1-1.7-.7-2.7l-.4-.5c0-.1-.2-.4-.1-.6l.4.1v-.2h-.4l-.1-.9.3-.3c-.5 0-.7-.3-.8-.7 0-.2 0-.3-.2-.5s0-.6-.3-.8c0 0-.2-.2 0-.2l.3-.2c0 .2-.3.4.2.5l.7-.3.2.4c-.4.5-.2.8.2 1.2.3-.1.5 0 .7.3.2.3.3.7-.2 1l-.2-.2c.3-.4-.2-.5-.3-.7-.1.4.3.9.2 1l.7.2-.4.9.7.1-.4 1c.4.2.5.8.7 1.4-.1.4 0 1 .7 1.1.2 0 .2.3.2.3h-.7l.3.7s.3 0 .2.2c0 .6.3.9.5 1.3l.4.7-.3.3.2.2-.2.8 1 .2c0 .2-.1.4-.4.5-.3.2 0 .4 0 .8l1 1.2-.6.9c.4.2 1 .1 1.1.5l-.8.3v-.2c-.5-.2-.7-.6-.4-1 0 0 0-.2-.2-.3l-.6-.7c-.1-.6 0-1.6-.8-2v-1.5c-.7 0-.4-.4-.4-.6l-.6-.3c.3-.4 0-.8.2-1.2-.4-.4 0-.8 0-1.2l-.2-.2h-.5Zm-.1 5.6 1-.3-.1.6-1-.3Zm.6 2 .9.2c0 .4.5.9.2 1.4l-.3-.8c-.8-.1-1-.4-.8-.7Zm.8 3.4c0-.2.2-.3.5-.5 0 .5-.3.5-.5.5Zm0-1 .7-.5c.1.3-.1.4-.8.5Zm.6 2.9v-.6h1l.2.3-.7.1-.1.6-.4-.4Zm.6 5.6c.5-.3 1 0 1.4.2-.5.2-1 0-1.4-.2Zm2.2-4.2V52c-.2 0-.4-.3-.6-.5 1 .1 1.1.4 1.2 1.2l-.6.7Zm.5-.1.5-.4c0 .4-.3.4-.5.4Zm.7 1-.5.6c0-.2 0-.6.5-.5Zm.1 2.3c-.6-.5-.4-.7-.5-1.1 0 0 0-.2.3-.2-.1.4.5.7.2 1.3Zm9.5 68.5.2.3-1-.2h.8Zm-8-62.7c0-.2-.4-.5.1-.4v.4Zm7.6 20.7.8-.3c0 .2-.3.3-.8.3Zm47.3 16c.1.5-.1.5-.4.6v.6c-.3-.4-.2-.8.3-1.1Zm-3.5 4.5.3-.3 1.2-1.2v.3c-.4.4-.7 1-1.3 1.5h-.2v-.3Zm-1.6 2.6.2.2s-.2 0-.3.2l-.2-.3.3-.1Zm-.6.7.2.2h-.2v-.2Zm-2.4 1.4.4.6c.6.2.8-.6 1.3-1 0 .2.2.3.2.3-.4.7-1.2 1.2-1.5 2l-.7-1.6c-.2-.2 0-.3.3-.3Zm-.2 2.2.2.2c-.3.3-.6.7-.6 1-.3 0-.5 0-.5-.2.1-.6.4-.7 1-1Zm-2.2 3c.2.4 0 .6-.6.7.1-.4.4-.5.6-.7Zm-3.6 9.6-.2.1v-.1l.2-.2c0 .2.2.3 0 .2Zm-22.6 12.2c-.2 0-.4-.3-.7-.3h-.5l.2 1.3-.3.2-1-.6c.3-.4.2-.6 0-.8-.2-.6.6-.7.9-1.3l-1 .5v-1.2l-.4-.5 2.4-.4-.4-.5.1-.5-1.1-.2.4-.4 3.2.3 1.1.2h1l-.4.5h.7c.2 0 .5 0 .7.2l-.4.7.7.1v.9c.2.6.6.8.8 1.3l.2.5-1.1.7-.5.1-.1-.6c-.9.6-1.9.9-3 1v-.5l1.1-.8.9-.7-.3-1c-.6.5-1.4.8-1.9 1.1l-1.1.9-.2-.3Zm1.1-7.7h.8l.1.3a2 2 0 0 1-1.1.1l.2-.4Zm6 5 .4.6c-.8 0-.5-.3-.9-.5l.5-.1Zm-.3-.3-.2.2v-.3h.2Zm-.6.3-.7-.1c.3-.4.5-.1.7.1Zm.3.7-.3.5-.4-.5h.7Zm-4.2-6.7c0 .4-.4.8-.9.7l.6-.6h.3Zm-4.2-1.6v-.2l.5-.3.4.6h-1Zm-.6 5.6c0 .3-.3.2-.4 0h.4Zm-.3.6h.2c0 .3 0 .5-.5.2l.3-.2Zm6.6-54.5c.4.2.4.4.1.6v-.6Zm0-.8h-.3c-.2-.3-.2-.5.3-.6v.6Zm-1.8-6.3c.1-.4 1-.8 1.1-.6l-.3.3.2.3c0 .2.4.4.4.6l.3.7c-.1.6-.2 1 .3 1.2-.8.3-.9.7-1.2 1-.3-.8-.6-1.7-.2-2.4v-.2c-.5 0-.1-.6-.6-.7v-.2Zm-5.8 67-.4-.2c0-.2-.2-.2-.2-.2 0-.4 0-.6.5-.3v.3l.1.3v.2Zm33-4.3-.2-.2.7-1.1.2-.2.2.4c-.3.4-.4.8-1 1Zm3-7.3-.2-.3h.2v.3Zm1.1 1.5c-.1 0-.4 0-.6-.3 0-.3.3-.7.6-.9l.6-.5.2.3c.2 0 .2.2.2.2l-1 1.2Zm.2-3.5c0-.5.4-.9.9-1-.1.6-.4 1-1 1Zm1.1 1.6-.2-.3v-.2h.3v.5Zm.4-3.2h-.3v-.2h.3v.2Zm1-14.4v-.6l.2.3-.3.3Zm1.8-2.5c-.3.6-.7 1.1-1.4 1-.1-.2.1-.4.2-.6l.3-.5-.2-.2-.4-.3h-.3v.1c0 .2 0 .3.2.5h-.3c-.9-.2-1.2.1-1.5.7-.3.3-.7.9-1.2 1.2-.6.7-1 1.7-1.4 2.6h.2c.5 0 .6.7 1 .8.3 0 .8-.3 1.2.2-.6.9-1.3 1.8-2.5 2.2.2.2.1.4.1.6-.4.7-.9 1-1 1.8-.4.6-.8 1.3-1.5 1.6l-.3.1c-.7 1.1-1.5 2-2.4 2.9-.6.9-1.4 1.3-1.8 2.3-.4.5-1 .6-1.4 1-.2 0-.2-.3-.2-.5.3-.3.4-.7.3-1.1-.1-.8.5-1.5 1.3-2 .2 0 .2-.2.2-.2 0-.6.7-1 .6-1.7l.2.2.8-.8c.1-.6.6-.7 1-1 .2-.4.7-.4.9-.1.2.2.4.4.6.3l.2-1 .4-.5c-.5-.1-.8.2-.8.4s-.3.2-.3.2c-.2 0-.4-.3-.4-.3.3-.3.6-.7.6-.9l.1-.5c-.2.1-.5 0-.5.3a340.6 340.6 0 0 1-3 3.1v.6c0 .2-.3.2-.4.3 0 .4-.6.8-.9 1.1-.3.6-.8.7-1.5 1 .1 0 .2 0 .2.2-.1.4-.7.9-1.2 1l-.3.6-.6-1.3.7-.7c0-.2.4-.6.6-.7 0-.2 0-.4.4-.6 0-.2 0-.4.3-.5.5-.1.8-.7.9-1 0-.5.3-.6.6-.8l.8-.5.6-.7c-.1.8-.7 1.3-1.1 2.3l.8-.7c.4-.8 1-1.3 1.5-2 0-.2.4-.5.5-.9l-.8.5c0-.5.4-1 .9-1.3l-.1.8c.8-.9 1.5-1.8 2.1-2.9.4-.5.7-.9 1.2-1.2.5-.3.7-1 1-1.6.5-.3.9-.9 1.2-1.2v-.4c.4-.8 1-1.3 1.6-2l2.2-3c1-1 1.8-2.3 2.6-3.6l.5-.4v.4c-.5 1-1 1.7-1.5 2.4v.2c-.8.5-1 1.3-1.5 2-.3.1-.3.3-.4.5l-.4.8c.5.2.9.7.8 1l1-.2c.2.2.4.5.1.6Zm.7-1.3h-.4c.3-.6.6-.7.9-1 .2-.3.5-.2.6 0l.1-.4c-.2-.2-.1-.6 0-1l.4.1.2.2c-.3.4-.3.8-.6 1.1-.3 0-.3.4-.6.5-.3.2-.3.4-.6.5Zm.4 13.6h-.3v-.2l.3.2Zm-1.3 4.2.9-.6c0 .2-.2.5-.9.6Zm.9.6.2-1c.4.2.4.4-.2 1Zm3.4-27.8v-.2l.2.2h-.2Zm.8 3.5-.2-.2h.2v.2Zm.7-5.5c0 .4 0 .6-.4 1-.1-.5.2-.8.4-1l.1-.4c.2.3.2.5 0 .4Zm2.8-3.7.1-.4h.2l-.3.4-.3.7c-.1-.3 0-.5.3-.7Zm-2.2 3c.2-.8.4-.9 1.3-1.6l-.1.6c-.3.4-.9.7-1.2 1Zm.5 23.4c0 .4-.6.7-.9 1-.4-.4-.1-.6-.3-.8 0-.4.5-.5.2-1l1.2-.6c.2.7-.1 1-.2 1.4Zm.8-1.7c0 .2-.1.2-.3.2 0 0 0-.2-.2-.2.2 0 .3-.2.3-.2.2 0 .2.2.2.2Zm.7-2.5c-.1-.4 0-.7.4-.9l-.4 1Zm.3.7h-.2l.3-.2h.2l-.3.2Zm2.8-26.9-.2-.2.3-.2h.2l-.3.4Zm1.4 21v-.2l.2.2h-.2Zm22-72.4h.2l-.3.2v-.2Zm-3-.5-.3-.2h.3c.2.1.2.3.2.3h-.3Zm.3-.5s0-.2-.2-.2h.2v.2Zm1 .8h-.2l-.6-1 .3-.1h.7l-.2 1Zm.7 1.6-.2-.2h.2l.2.3h-.2Zm.4-2.3.3-.3.1.4-.2.1-.2-.2Zm.7 5.3c-.3.2-.6.3-.7 0h-.3l.3-.1c.3-.2.3-.4.7 0v.1Zm0-2.6c.5-.1.7.1.8.5-.5.2-.7 0-.8-.5Zm1-.4v.2l-.2-.3.2-.1v.2Zm1 2.5h-.3l-.2-.3.5.1v.2Zm.5-2.7h-.3v-.2h.3v.2Zm.4-1h.2l.2.3h-.2l-.2-.2Zm.4 2.7c-.4-.2-.3-.6-.2-1l.7 1h-.5Zm5.1-1.8c-.3-.3-.2-.6.1-.8.2.4.2.6-.1.8Zm2.7 1.8h-.2l.3-.2v.2Zm.7-2v-.3c0-.2.1-.6.4-.7h.2c.2.4-.1.8-.6 1Zm9.3 2c.3 1 .8 1.9 1 3l-.7.4c0-.4-.1-.7 0-.8 0-.8 0-1.4-.4-2l-.2-.5.3-.2ZM541 54c-.4.8-.3 1.6-.2 2.4l-.3 1.5-.3 1.8.1.8c-.1.6-.2 1.1 0 1.8l-.2.3c-.3.6-.7 1.3-.5 2v.1h-.5v-.2c.4-.8 0-1.6.2-2.4.1-.6.2-1.1 0-1.8 0-1 .2-2 .4-2.9v-1.2l.1-2.2c.2-1.1 0-2.4.2-3.3l-.5-.3-.2-.2.4-.6.2-1.3-.1-.5-.3.2s0 .2-.2 0c0-.2.2-.2.2-.2h.3l-.2-.4-.4-1.6.3-.2c.3-.3.1-.8 0-1-.5-.3-.4-.6-.1-1 0-.2 0-.4.3-.5-.2-.3-.4-.7 0-1 .1-.8.5-1.6 1-2.3l.5.3c0 1.4.2 2.8.4 4.2.1.8.4 1.9 0 2.6 0 .2.2.4.1.6 0 1.2.1 2.2-.3 3.4l-.1.4a4 4 0 0 1-.3 2.7Zm1.1-10-.3-.6c0-1.4-.2-2.8-.5-4.3 0-.2-.1-.4.4-.5.2.2.1.6.3.8v2.2c.4.7.3 1.6.1 2.4Zm.5-3.9-.3-2.2.1-.8c.4.3.4.5.6 1.9a121 121 0 0 1 .5 3.7 6 6 0 0 0 0 2c-.3-.3-.5-.6-.4-.7-.3-1.3-.3-2.7-.5-3.9Zm.8 11c-.1-1.9-.5-3.6-.2-5.3.4.5.5 1 .4 1.7 0 .3-.2 1 0 1.3v.4c-.1.4-.2.8 0 1.2l-.2.6Zm1.7-9.4-.6-1.9c.3-.1.6-.3.7.1v1.8Zm.2-3.4v-.2l-.3-.9c.5 0 .4.5.3.9l.2.2-.2.1Zm.1 4.4v.2l-.2-.4h.2v.2Zm1.1-3.4.2.2v.2l-.2-.2c-.3 0 0 0 0-.2Zm.2 1.8c-.2-.2-.4-.4-.1-.8.2.2.3.7 0 .8Zm19.5 44.6c-.3.4-.4.6-.6.5 0-.2 0-.4.6-.5Zm-.6.7c0 .3-.3.5-.6.5l.6-.5Zm-.6.7c.2.3.1.7-.2 1-.3.2-.3.6-.6 1h-.5c-.4.8-.5 1.4-1.3 1.6.1-.5.7-1 1.3-1.6.3-.3.6-.7.7-1.3 0-.3.3-.5.6-.7Zm-14.2 15.6 2-2.7 1.8-2.5.3-.3c.6-.5 1-1.3 1.3-1.8l1.9-2.7c.8-.9 1.5-1.8 2.1-2.9.3-.3.5-1 1-1l.2-.2c.2-1.2 1-1.8 1.7-2.7l.7-1.1.5-.4.3-.1-.1.4-1.6 2.3-1.6 2.2c-.4.7-.7 1.5-1.3 2.2l-.4.5c-.3.6-.6 1-1 1.3-.6.9-1 1.6-1.3 2.5l-1 1.5a79.6 79.6 0 0 1-4 5.5l-.5 1-.9.8c-.3-.6-.5-1.3-.1-1.8Zm10.7-10.5-.2.8c0 .4-.3.5-.8.4 0-.2.4-.6 1-1.2.3-.6.4-1 1-1.3-.1.2-.4.4-.4.6.1.4-.1.6-.6.7Zm-1 1.8-.3.2V94h.2Zm-10 15.8c0-.4.3-.7-.1-1-.2-.4-.3-1 0-1.6l3.5-4.6c.9-1 1.5-2 2.2-3l2.9-4c.3-.4.3-.6.6-.7.3.4.3.6 0 .8 0 .2-.2.1-.5.3.2.2.2.4.1.6 0 .2-.3.4-.5.5l-.3.4c-.2.8-.7 1.3-1.3 1.8l-.1.6.1.4s.3 0 .3-.2c.8-.5 1.3-1.8 1.4-2.5.8-.1 1-.5 1.4-1l1-2c.3-.2.6-.2.8-.2 0-.1-.2-.4-.1-.6.1-.6.6-.9 1-1.2l-.6 1.5-.3.3-.9 1.1a8.8 8.8 0 0 1-2 3.3l-.7 1c-.1.9-.7 1.4-1.2 1.9l-1.7 2.5c-.9.9-1.5 1.8-2.1 2.7-.6.3-.9.8-1.2 1.4l-1.5 1.4c0 .2 0 0-.2.1Zm.3 3.3c0 .2-.3.3-.3.1v-.2l.3-.1v.2Zm10.2 7.3c-.2.2-.3.6-.3.7-.1-.6 0-1 .5-1.3l-.2.6Zm.6-4.3c0 .2-.3.4-.6.5h-.2c.3-.2.3-.4.6-.5l.2-.2v.2Zm1.2-13.3c-.5.5-.9 1-1.2 1.8l-.3.3c-.8.3-1.1.8-1.2 1.4l-.7 1c0 .1 0 .3-.3.3-.4-.1-.4-.5-.3-.7l.1-.6.1-.5h-.5a44.5 44.5 0 0 0-3.5 5l.2.2h.3c.6-.7 1.6-1.2 2-1.9 0-.4 0-.6.3-.7l.6-.4c.2 0 .1.5.3.7-1 .4-1.6 1-1.5 1.8-1 .2-1.2 1.2-1.7 1.7h-.8l.2-.9c-.4-.3-.7-.1-1 .3l-.9 1c-.3.4-.6 1-1.1 1.2h-.3v-.2a4 4 0 0 0 1-1.2l1-1.1.2-.4-.2-.2c-.4 0-.5.1-.5.3 0 .4-.3.6-.8.7-.3 0-.5 0-.7-.3.1.4 0 .7-.4 1l.4-1c.3-.2.5-.1.5-.3.2-.6 1-1 1.3-1.8.4-.6 1-1 1.5-1.6 0-.2.3-.3.3-.5.2-.8.8-1.5 1.4-2.2l1.8-2.3c0-.2.3-.4.6-.7.3-.4.6-.7.7-1.3l.7-1c.9-1.2 2-2.4 2.8-3.9l2.4-3h.3c.2.3.1.7-.2.8l-2.5 3.6c-.4.6-.7 1.1-1 1.9-.3.1-.4.5-.7.9.5 0 .7-.1 1-.3l.3-.1c0-.4.1-.8.4-1.2l.5-.3v1l-1 .4c.2.5 0 .8-.4 1.2 0 .4-.1.8-.7 1-.2.3-.2.7-.2 1.2 1.1-.6 1.5-1.4 2.3-2-.1.6-.5 1.3-.8 1.8Zm1.8-3.4v.4c-.3 0-.2-.2-.2-.2l.2-.2Zm-1.8 15.3c.1-.8.2-1.2 1-1.6-.1.7-.2 1.3-1 1.6Zm1.4.2c-.2-.2-.2-.4 0-.6l.4-.5c.1.6-.2 1-.4 1.1Zm1.2-1.4h-.3l.1-.4h.2v.4Zm.5-20.8v-.6l1.3-1.8.6-.3c0 .8-.9 2-2 2.7Zm.4 21-.1.5c-.1-.3 0-.6.2-1 .2.3-.1.4-.1.4Zm.7-1.1c-.1-.9.1-.8.8-.9-.2.4-.5.7-.8.9Zm1.3-23c-.2 0-.5 0-.2-.2l1-1.6.7-.1-1.5 2Zm3.3-5c-.4 1-.8 1.6-1.4 2.5h-.5l-.2-.3.6-.7 1.6-2-.1.5Zm.4-.8c0-.3.2-.7.4-.9.1.4.1.6-.4 1Zm.6-1v-.2l.1-.2.2.2-.3.2Zm-1.3 24.2v-.2l.2.2-.2.1Zm2.2-25.3c0 .2-.2.1-.2.1v-.1l.3-.4v.4Zm.4-1v-.1h.3l-.3.2Zm.4-.5V80l.2.2h-.2ZM590.8 38l-.2-.2h.2v.2Zm7.2-13.8h-.2v-.5c.3 0 .5.1.5.3l-.3.2Zm2-4.1v-.4h.2l.2.4h-.5Zm.7 14.2.5-.3c.2.2.1.4.1.4-.2.2-.4 0-.6 0Zm1.5-12.5c.3 0 .4.3.4.5-.2 0-.6-.3-.4-.5Zm.7-1-.2-.3v-.2l.3-.3.2.4-.3.3ZM433.8 179.5l.4-.5c.2.3 0 .5-.4.5Zm6.5.3.8.4c-.6 0-.8-.1-.8-.4Zm1.7-.7v-.2l.3.2v.2l-.3-.2Zm8.4 1.2v-.5h.2v.5h-.2Zm2.1 1-1-.2c.2-.4.7-.4 1.2-.6.3.4-.2.6-.2.8Zm0-1.7.5.4c-.6 0-.6-.2-.6-.4Zm4.4 1-.6-.4.8-.2.6 1c-.3 0-.8.3-.8-.4Zm3.5-1.1v-.5h.3v.4h-.3Zm1 2h-.3l.2-.3h.3l-.3.2Zm1.5.3c0-.4-.3-.8 0-1l.5.4-.5.6Zm.5-1.3h.2v.4l-.2-.4Zm1.6 1c-.8.3-.8-.1-1-.3l.7-.5.5.2-.2.7Zm2.3-.6v.6c-.3-.2-.5-.2 0-.6Zm0-.5.4-.4c0 .2-.2.4-.5.4Zm2.2-.4-.4.4c0-.4 0-.6.4-.4Zm-1.7 1.3c.3-.2.5-.4.8-.2v.9l-.8-.7Zm1-.5.8.2c-.2.2-.4.1-.8-.2Zm5 .2c-.3.2-.8.2-1 0l.2.4-.8.5-.5-.5c0 .5-.2.5-.5.3-.2 0-.3-.2-.3-.5.3-.2.5 0 .8.3v-.5c.3.2.8.4 1 0l.8-.5.5.5h-.2Zm1.2-.7h-.8v-.6l.8.6Zm-.7 1.5c-.3-.4-.3-.6.2-.8 0-.3.3 0 .5 0v.2l-.7.7Zm2.4.2-1.1-.8.2-.3c.6.3 1 .5.9 1.1Zm2.2-.7h-.5v.5c-.5 0-.7.2-1-.2h-.5l.4-1.3c.3.2 0 .4 0 .6l1.1.4.2-.6c-.5-.2-.5-.5-.5-.7l1.4 1.1v.7l-.5-.5Zm.7-2.4v-.4h.2v.4h-.2Zm1.4 2.6-.8-.8 1 .2-.2.6Zm0-1.3c0-.2.2-.4.7-.5-.1.5-.4.6-.7.5Zm1.5-.5-.3-.4h.8c0 .2-.3.2-.5.4Zm4.9-.5-.3.4-.2-.2.5-.2Zm-2.5 1.8c0 .2-.3 0-.3 0l.3-.4c0 .2.2.2.2.2 0 .2-.2.2-.2.2Zm2.4.8v-.4l-1 .2-.3.5-.8-.5.7-1.3.3.4v-.4h.2l.3.6.5-.2c.3.4.6.7 0 1.1Zm4.5-2.2-.5.4-.6-.9 1.1.5Zm-.2 1-.2.3h-.3v-.2h.5Zm-1.4-1.2.1 1.3c-.3-.5-.6-.9 0-1.3Zm-1.3-.5c0 .3.3.5.3.5 0 .2-.2.4-.7.6-.6-.4.4-.6.4-1Zm2.5 3c-.3-.4-.5-.1-1-.1h-2.1v-.6l.7-1v.7l.8-.6v.4l1 .4c.3.2.6.2.8.2v.5l-.2.2Zm93.3-4.4v.2l-.2.2-.3-.2.5-.3Zm-1.5.2.3.4c-.3 0-.3.3-.3 0-.3 0-.3-.2 0-.4Zm-8-.5-.9-.2c.3 0 .5-.2.8.2Zm-9.2-1 .3.3-.3.2-.2-.2s0-.3.2-.3Zm-.2 1.8c-.7.2-.5 0-.7-.2l.7.2Zm-1-1-.5.6c-.3-.4 0-.4.4-.7Zm-4.7.9c.8 0 .3.4.3.6l.6.5c-.4-.2-.6-.3-.6-.5h-.5l.2-.4v-.2Zm-1.6-.9-.2.5c-.3-.4 0-.5.2-.5Zm-6.7-4.2c-.5.4-.5.2-.8-.2l.8.2Zm-2.6 5s0 .3-.2.3v-.5l.2.3Zm-2.2-8v.2h-.3l.3-.2Zm-3.7-1.3.5.7c-.5 0-.8-.2-.5-.7Zm-.5 9.7c-.5.2-.5 0-.8-.2l.8.2Zm-1.3-4 .3.3s0 .2-.3.2l-.2-.2s.2 0 .2-.2Zm-2-3.4v.2c-.5 0-.5-.2-.3-.2h.3Zm-.3-.2c-.7 0-.2-.2-.5-.7.5.2.3.5.5.7Zm-1 7.9h-.9c.2-.4.4-.4.8 0Zm-.8-8.3h.3l-.3.4h-.2l.2-.4Zm-2 7.2c-.4.3-1 .4-1.5 0h1.6Zm-2.4-7c0 .3 0 .5-.5.5l.5-.4Zm-2.2 7.3v.3l-.2-.3h.2Zm-5.6.8v.4h-.3l-.3-.6c.3 0 .3.2.5.2Zm-3.6 1c0 .4-.5.4-.8.4 0-.5 0-.7.8-.5Zm-2.9-.5.3.5c-.3.2-.5.4-1 0l.7-.5Zm-5.1.8c-.4 0-.6-.3-.6-.9l.6.9ZM499 179h.8c-.3.4.3.8-.2 1.3l-.6-.9-.2.4-.5-.4.7-.4Zm-1.3.4-.2-.4.2.4Zm0 .7-.5-.2c.2-.2.4-.1.6.2Zm-2.6-.6h.3v.2l-.2.7c-.3-.5-.3-.7 0-1Zm-2.4 2.4-.3-.6.5-.2-.3-1.1-.5-.2.2-.7.8.4v.7c0 .4 0 .9.3 1l-.7.7Zm1.2-.9c-.5-.2-.2-.4-.5-.8.8.2.8.4.5.8Zm17.3 2-10.2-1.4v.4l-.5-.4-1.3.2-.3-.8-.8.4c0 .4-.7.7-1.3.5-.2 0-.2-.3-.2-.3h-.3l-.5.5c-.5 0-.8-.2-1-.4l-.6-.5c.8 0 .8-.6 1.3-.6l.7-.3c0-.4 0-.8-.5-1l.5-.5.2.4.8-.2v.2l-.5.2.3 1h-.8v.6l-.7-.4v1c.8 0 1-.4 1.3-.8l.8.4 1.2-1c.3 0 .6 0 .3.5 0 .2.3.2.3.4l1-1.5c.1.3.2.6 0 .9.3.4 9.7 1.8 10.4 1.5l.3-.4c-.7-.2-8.4-1-10-1.7l-.3-.7 10.3 1.7c.5.3.5.7.8 1.1-.5.3-.8.3-.7 1Zm-10.3-3.4.1.2s-.2-.1-.1-.2Zm11 1.3-.4-1c.4 0 .5 0 .5.4l.3.6h-.5Zm1.8 1.5-.5-.2.3.7c-.5 0-.3-.5-.5-.5l-.3.3-.6-.9c.6 0 .8.2 1.1.4v-.9c0-.2 0-.4.2-.4.5.2-.2.7.5.6l-.2 1Zm.4-2.4c0-.4.7-.9.7-1.3l.8.6c.5 0 .8 0 1.8-.4l.3.6-.8-.2-.5.7-.7.2v-.4h.2l-.3-.5c-.2 0-.5 0-.5.3-.2.4-.5.6-.7.8 0-.2-.3-.2-.3-.4Zm.4 2c.2-.5.5-.2.7-.5v.3c0 .4-.5 0-.7.2Zm.8 1h-.5c-.3 0-.3-.1 0-.4 0-.1 0-.3.2-.4l.5.2-.2.7Zm32-1.6c.4 0 .6 0 .6.2l-.5-.2Zm4 .1c.2-.4.5-.2.7 0h-.7Zm2.3.7v-.2l.3-.3v.3l-.3.2Zm1.8-1v-.2h.2l-.2.3Zm5.6-1.1-1.8.2c0 .5-.5.5-1 .5 0-.2 0-.5-.5-.5v.5h-.8l-.2-.2-.5.7c-.3-.5.5-.7 0-1l-1 .3-.3.5-.6-.5-.2.7-.8-.4-.2.2-.3-.4h-.5v.4c.2.2 0 .2 0 .4l-.6-.6-1.2.2.2-.4c-.7.5-1.3.5-1.8.2 0 .3 0 .7-.5 1v-1c-.5 0-1 .3-1.3.3-.3 0-.5-.2-.5-.2l-.6-.4-.4.8c-.4 0-.5-.3-.3-.6-.8.2-1.3.7-2 1.1l.2-.9-.6-.2-.4.7-.8-.2.2.4c-.5 0-.5-.2-.8-.6l-.2.7c-.5 0-.8-.9-1.6-.7l.3.9-1-.4c0 .4-.5.6-1 .7l-.9-1.1-.7.6c-.3-.4-.8-.6-1.3-.2l-.3-.6-.7.9c-.6-.4-.8-.4-1.3 0l-.3-.2-.7.9c-.8-.2-.9-.9-1.4-1.3v.6c-.2 0-.7.3-1-.2l-.3.5-.7-.2-.8-.4c0-.3-.3-.3-.3-.3-.8.3-1.3 0-1.8.5-.5.2-.8 0-1-.2-.3.2 0 .7-.5.5l.2-.7v-.2l-.5.2c0 .9-1 1.1-1.8 1.6l.2-.9-1 .7-.5-.7c-.2.5-.5.6-1 .5v-.4l-.6.2-.3-.9c-.5.5-.7 1-1.5.7v.9l-1.3-.9c.3-.2.3-.4.3-.4 0-.4-.6-.4-1.1-.6l.5-1 .5 1 1-.3.3.4.8-.9-.8-.2.5-.4.2.2c.3.2.3.4.6.4.2 0 .7-.2.7-.4.3-.5.8-1 1.3-1.1v.8s0 .3-.2.3c-.6 0-.5.4-.8.8.5 0 .6 1 1.1.7l.5-.9c0-.2.2-.4.7-.7 0 .5-.2.7-.5 1 .5-.2.9-.6 1-1.2h.5l-.2-.2-.3-.4c.2-.5.5.2.8.2.2-.5.4-.7 1-.7l1 .8c.3.3.3.5 0 .7l-.7-.2-.2.9c0 .2.3.2 1 .2l-.2-.5c.2-.4 1.2-.4.7-1l1-.7.8.2.2-.3.6.5.2-.5.8.5c.3.2.5 0 .5-.3l.5-.2.3.2c.5 0 .7-.4 1.2-.2h.3l.3-.2c.5.4.5-.3 1 0l.8.1.5-.2v.7c.5-.3.5-.7 1.3-1l.5.7c.5 0 .8 0 1 .2.3.2.6.2.8 0 .6 0 .8-.2 1-.2l.6.4 1.5-.7c.3.2.8.2 1 .2.6-.2.8-.2 1.3-.5v.5l1-.3.4.7.5-.7.5.5v-.3h.5v-.6l.8.4 1.5-.5-.2.5c.2.2.5.2.5.2.5 0 .5-.3.8-.3.5-.3.8-.2 1 .2.3-.2.2-.6.7-.6h.8c.5 0 .6.4.6.6.2.2.5.4.5.9h.8l.5-.5-.5-.4h-.3l.3.2c-.5.2-.5 0-.6-.4l-1-.4c.7-.3.8.2 1 .4 0 0 .3 0 .3-.2 0-.5.5-.3.8-.3.2.3-.5.5.3.7l.4-.9.6.4.2-.4c.5.2.5.4.6.6l.4-.4c.6.2.3.4.3.6.6 0 .5-.4 1-.6l-.2.8c.8 0 .8-.6 1.3-.6v.8l.9.9.5-.2s0 .2.3.2l-.3.4Zm-40.6.5-.5.4c.2-.4.2-.6.5-.4Zm42.4-1.7c0 .3-.3.3-.5.5-.5 0-.9-.2-1-.7-.3-.2-.3-.4-.4-.6 0-.2.3-.2.5-.5h.3l.3.3c.3.6.8.8 1.5.6-.1.4-.4.6-.7.4Zm21.6 1.2s-.3 0-.3-.2l-.2.2-.3-.2-.5.4-.6-1-.2.8c0 .5-.5 0-.8.2-.2.5-.5 0-1-.2l-.2.5H579c.2-.2.7-.7.2-1.3v.4c-.3.2-.2.5-.2.5-.6.2-.8.4-1 .6l-.3-.4c-.5.2-1.3 0-1.8 0a3 3 0 0 0-1.6-.1c-.5 0-1 .2-1.6 0-.5-.2-1 0-1.5-.4h-.6c-.4.4-1 .2-1.5 0s-1-.2-1.3-.2c-.5 0-1 0-1.3-.2l-.3.2h-.5c-.5 0-1-.2-1.6-.1-.2 0-.2-.3-.5-.3l.5-.6c-.3 0-.3-.2 0-.5v.5l.7-.7.3.4c.7-.1 1-.6 1.2-1.5.3.2.5.2.6.6 0 .2-.3.5-.2 1l1.5-1 .5.2.5-.7.5 1c.8-.1.3-.5.5-.8l.8.7.5-.5v.7l.5-.7 1.1.4.2-1.3h.2c0 .4.1.9.4 1.1 0 .4.5.2 1 .4v-.4l.8.2-.2.4h.2l.2-.6c-.2-.5.5-.7.7-1.2l.3.7c-.2 0-.7.2-.7.4.3.5.8.2 1.3.5 0-.5-.5-.7.2-1 0 .5.3 1 .1 1.4h.3l.5.9c.5-.3.3-.5.2-.7 0-.2-.2-.4 0-.9.5.2.5.4.3.9h.3l.2-.9h.5v.6h1.3c.3.2-.2.5-.2 1l.3.3.7-.9c.3-.2 0-.6.2-1l.4 1c.2-.4.4-.4.7-.2l.5-.4c.3.4 0 .6-.2.6 0 .2-.3.2-.8.5l1.1.4v.2l.3-.2c.2.2.2.4 0 .4Zm.2-.9.7-.2v.4c-.3 0-.5 0-.7-.2Zm.8 1-.2-.1.2-.2.3.2-.3.2Zm.5-.6-.3-.4c.4 0 .5.1.3.4Zm31-125.4h.2l.4.3-.2 1.5c-.9-.7-.3-1.2-.4-1.8Zm2-17.7.2.3h-.2v-.2Zm-.7-1.5c.2.3.2.5.2.7v1.4c-.2.5 0 1.2.1 1.6l.5-.3.2.2.1 1-.1.6c-.3 1.3-.2 2.5-.3 4 0 1.1-.4 2.2-.4 3.6v.4c0 1.2-.5 2.1-.9 3 0 .5 0 .7-.2 1.2v-2.7c.4-.8.4-1.8.5-2.6l-.1-.4c-.3.4-.6.7-.5 1.3 0 .4-.4.8-.7 1.1l.3-3.1.2-1c.4-.5.5-1.1.3-1.5.2-1 .3-1.8.3-2.8 0-.6.1-1-.2-1.4a4 4 0 0 0 .4-2.3l-.2-.4-.1-.5c.7 0 .3-.7.6-1Zm-1.6 6.4v.4l-.3-.3.3-.1Zm-5.5 26.2.3-.1v.2h-.3Zm3.6-17-.2-.2.2-.1.2.2-.2.1Zm.8-10.8c0 1 .6 1.9.1 3l.2.4-.1.6c-.1.6-.5 1.2-.6 1.7-.3-1 .2-2 .1-3 0-.8 0-1.7.3-2.7Zm-.5 6.3c0-.2.3-.1.3 0 .2.3-.1.5-.3.4-.3 0-.2-.2 0-.4Zm-.2 1.2c.2.2.4.4.4.6v1.6s-.3 0-.3.2c-.3 0-.2-.2-.2-.2l-.2-.5.3-1.7Zm-1.3 7.2.2-1.2.4-.6c0-.3.5-.5.4-.9l-.4-.6c.3-.2.5-.2.7 0v.5c0 1.4-.1 2.7-.6 4-.3.4-.4 1-.2 1.4a5 5 0 0 1-.5 1.6l-.3 1.3c.2.4 0 1 0 1.6-.4.7-.3 1.6-.7 2.3l-.1.6c0 .2-.3.3-.3.5-.5-.2-.4-.6-.4-.8.4-.6.5-1.3.6-2 .3 0 0-.3.1-.5 0-.6 0-1 .5-1.3l-.6-.5c.3-.4.6-1 .5-1.3.3-.8 0-1.6.6-2.3l.1-.4c-.4-.5 0-1 0-1.4Zm.4-12.7v.4c0 1.2 0 2.4-.2 3.5l-.4 3.2v1.6c-.1.5 0 1 .2 1.6l-.6.7c.1.4 0 1-.3 1.3v.4c.3.5 0 1 0 1.4 0 .6-.3 1-.4 1.6L612 59c-.1.6-.3 1.4-.6 2 0 .1-.3.3-.1.5 0 .2.1.6-.2 1-.2 0 0 .2 0 .4 0 .4 0 .6-.5.9 0 .2-.3.3 0 .6 0 .6 0 1-.4 1.5-.2.2-.3.6-.3.8l-1.3.2c-.4-.3-.6-.5-.3-.9 0-.2.3-.3.4-.5l.4-2.5c.2-.8-.2-1.3-.4-1.9v-1c0-1.4.2-2.6.4-3.7l.3-5.2.2-1.1c-.1-.8.3-1.8.7-2.5l.9-2.3 2-3c0-.2.5-.4.7-.5Zm-.7-16.7c.2-.1.4.1.4.1l.8-.3c0 .4-.3.6-.4.8l-.2.1c-.5 0-.7-.3-.9-.5 0-.1.1-.2.3-.2Zm0-2.4a4 4 0 0 1-1.4 2.2c-.3.4-.5.3-1-.1 1.1-.5 1.3-1.4 2.3-2Zm-2.4 1 .5.1c-.2.2-.4.2-.5.2v-.2Zm-1.4.3c.4 0 .9.1 1.5.4l-.5.3c-.5 0-.7 0-1.1-.4 0 0-.2 0-.2-.2l.3-.1ZM482.7 129.9c0 .2-.3 0-.7-.1 1.1-1 2-1.7 2.4-2.9.2-.1.5-.5 1-.4 0 .4-.2 1-.5 1.3-.3.6-.9 1-1.2 1.6l-1 .5Zm42.6-101.3.1-.8c-.2-.4.2-1 .7-1h.4l-.1.8-.6.9c0 .2-.3.1-.5 0v.1Zm6.2 2.1c-.4-.2-.3-.8-.3-1.2.2 0 .3.2.2.4.2.3-.1.6.1.8Zm27.3 74.7.6-.7c.6.5.4.5-.6.7ZM608 18.1h-.2v-.2l.2.2ZM486.4 126c-.2.1-.5 0-.7.2l-.2-.4c0-.2.3-.3.6-.3.2 0 .4.3.3.5Zm73.7-23.7c0-.4.4-1.1 1.3-2.4l.2.4c-.6.5-.7 1.5-1.5 2Zm-82.6 14.5.4.1-.2.2h-.3l-.2-.1.3-.2Zm-4.3 1.6c-.1.4-.1.5-.4.9l-.2-.2v-.4l.6-.3Zm3-1-.2-.2h.2c.7.1.7.3.6.7l-.5.3-.1-.8Zm-2 .1h-.2c0 .2 0 0-.2 0l.3-.2s.2 0 .2.2Zm7.7-5.4c-.5.1-1 .7-1.2 1.2 0 .4-.3.6-.8.7-.3-1 .5-1.5 1.3-2l-.1-.8-.3.2-.9 1c0 .2-.3.4-.5.2-.2 0-.2-.3-.1-.5.3-.3.6-.9 1-1.2.4-.3 1-.7 1.3-1.4.4.5-.1.8-.1 1l1.2-.2c.2.2.1.4-.1.6-.8.2-.6.7-.7 1.2Zm73.9-9.6c-.6-1 .2-1.4.8-2.1l.4.6c-.4.6-.7 1.1-1.2 1.5Zm-3.2 4.3-.8.8c-.1.4-.4.6-.7 1v.1l-.2-.2c.1-.8 1-1.5 1.3-2.2h.5v.4Zm1-1.9s.1-.2 0-.4h.4l.2.1-.5.3Zm1.3-1.4c0-.2-.2-.4-.1-.6 0 0 .2-.2.7 0l-.6.6Zm5 .6s.3.2 0 .2c-.2-.2-.1-.4 0-.2Zm25-63-.2.2c0-.4.1-.8.4-1.1.3-.4.4-1 .5-1.5.3-.2.5 0 .4.2-.3.8-.5 1.5-1 2.3ZM586 38l.7-1c.1.6-.2 1-.7 1Zm1-1.2c0-.3.1-.6.4-1 .1.5 0 .9-.5 1Zm-3.2 6.7h-.2c.3-.6.4-1.2 1-1.7-.1.6-.2 1.2-.8 1.7Zm-1.5 3.3-.4.8c-.2-.2-.4-.5 0-.8l.2-.2c0 .2.2.2.2.2Zm-1.2 2.3s-.2-.3-.1-.5c0-.3.1-.5.4-.9l.5-.1-.7 1.5Zm1-3 .1-.3.3-.3.2.4c0 .2-.3.4-.5.1Zm.9-.5-.5-.1.7-1.3c.2.4 0 1-.2 1.4ZM404 28.9c0 1.8-.4 3.5-1 5.4.1-1.7.4-3.5.7-5.2l.3-.2Zm1.4-6.5c.4-.6.5-1.2.6-1.7.2-.2.3-.6.3-.8l1-2.4.1-.8c.3-.4.4-1 1.2-1.2l.3.6-.9 1-.8 1.7-1 3c0 .5-.3.4-.8.6Zm4.7 71.6c-.1.8-.5 1.3-.6 2 .1.7-.3 1.4-.4 2.2l-.6-.5c.3-.5.6-.9.2-1.3l.7-3.7c0-.4.1-.8.4-1.1V94h.3Zm4.5-37.8-.3 2a3 3 0 0 1-.4 2l-.3-1c.6-.8.7-1 .6-2V57l.4-.8Zm-2.7 19 .1.4-.2 1.1v2l-.6 2.9c-.8-.7.2-1.2-.4-1.9v-.1l.3-.2v-1c-.2-.2 0-.6.2-1l.6-3.7c.1-.3 0-.6.2-1v-.1c.2.2.2.6.1.8.1.6 0 1.2-.3 1.7Zm-3 26.2a1 1 0 0 0-.1 1.1v.2c-.4.4-.2.8-.2 1l-.2.8c0 .2-.3.3-.7.3l.4-2.2c.1-.7.2-1.5.6-2.4.4.4.4.8.3 1.2ZM380 136l-.1-.4-.5.1c-.3.2-.5.3-.8.3l-.2.1.9.4c.1.4.3.8-.2 1v.3h-.6c-.3 0-.5 0-.6-.3v-.4l1-.3c-.1-.4-.4-.2-.9-.1l.4-.6c-.3 0-.2-.2 0-.4.5 0 .6-.3.4-.7.3-.3.7.1 1 .3 0-.4 0-.5-.4-.6h-1l.3-1.5c-.5.1-.6.3-.6.5v1c0 .4 0 .6-.4 1l.2.3c0 .4-.2 1-.5 1.4l.1.8h-.7v.3l1.1.1-.1-.6.7.1c-.1.6-.4.7-1 .6-.3 0-.6.2-1 .1v-.4l-.9-.3c0 .4-.1.8-.6.9l-.3 1.5v.4c-.6.5-.5 1 0 1.4.2-.2.4-.1.7 0l1 .5c.6-.7 1-1.7 1.6-2.4l1-1.2c0-.4.4-1 .5-1.3 0-.6.7-1.3.5-2v.1Zm-1.8 3.5-.4-.2-.5.3-.1.6h-1c-.3.6.4.3.6.5l-.8.7c.4.2.6-.5 1-.5.2.3.2.6-.1.8a2 2 0 0 1-1.2.2h-.7l.5-.2c-.4-.3-.6-.5-.4-.7h.8v-.2l-.7-.3.6-.5-.1-.5 2.6-.4v.4Zm1-10.2-.1.4c0 .2.2.2.2.2l.8.5c.3-.3.4-.7.2-1 0-.3.1-.5.4-.9v-.3c-.2-.9.4-1.6 0-2.4.3-.4.2-.8.3-1.2l.2-1.2c.4-.9.1-2.1.3-3.1l.4-2.3v-1.2c-.3.1-.6.5-1 .2.3-.3.5-.1 1-.2v-.4c-.4-.3-.7 0-1.1.2v.2c-.1.4-.2.6 0 .8l.5-.3.4.8-.5.1.1.5-.9-.2c-.5 2.5-.6 4.9-.9 7.4l1.1.4c-.4.1-.4 1-1.3.8l-.2.2c-.2.5-.3 1.1.1 1.6v.4Zm2-10.2c0 .1-.2.3-.5.3 0 0 0-.2-.2-.3h.8Zm-1.2 4.3c.2-.2.5-.3 1-.2-.5.1-.6.5-1 .2Zm.4 4.1c-.3.3-.3.7-.8.7.2-.4.5-.6.8-.7Zm16.8-38.9c.4-.5.2-1.1.3-1.7l.1-.4c.4.6 0 1.6.3 2.4l.5-.3.2.4c-.4.8-.4 1-.6 1.7.2.4 0 .6-.4.8l.5-2.4-.6.4-.3-.9Zm44.9 45.9v.2l-.3-.3v-.2c.2 0 .3.2.3.3Zm9.8-72.2-.1-.4h.2l.2.4h-.3Zm-.9 1.2c-.2-.2 0-.2.3-.3 0 .2.2.4-.1.6l-.2-.3Zm-12.7-40.3.5-.2v.2h-.5Zm.7-5.5-.4-.5V17l.5.5v.2Zm-2.2-3.3.2.2c-.3.2-.5 0-.2-.2Zm-.7 4.8.1-.5v.5Zm-28.3 93v.5c-.3-.2-.2-.4 0-.6Zm1.2-6.7-.1-.4h.2v.5Zm-.2 1h-.2l.3-.4v.4Zm3.3-25.6-.1.6c-.2-.2-.2-.4.1-.6Zm-1.2 1.6.3-.3-.1.4h-.2Zm2-13.4h-.3v-.4h.3v.4Zm-4.2 21.5c.2.2.1.4-.1.5 0-.2-.2-.4 0-.5Zm-3.2-.5h.2c.2.2 0 .2-.3.3v-.3Zm5-66.2.6.1-.7-.1ZM410 25c-.2 0-.5 0-.4-.2l.2-.2.2.4Zm-12.8 70.4v.2l-.3-.3h.2Zm4-32.5-.2-.2v-.4h.3l-.1.6Zm2.3-20.3c0-.2 0-.4.3-.4l.2.2c0 .2-.3.2-.5.2ZM394 96.7l-.2-.2.3-.4-.1.6Zm.3-3.3c-.1-.3-.1-.4.2-.6l-.2.6Zm.2-3.4.3-.1v.1l-.1.2c-.2 0-.2-.2-.2-.2Zm1.3-7.2-.3.2v-.2l.1-.2.2.3ZM392 98.6h-.3l.3-.2v.2Zm12-77.3.2-.1.2.2-.3.2s-.2 0-.2-.3Zm-19 96.2-.3.1v-.4h.3v.3Zm-6.5 19.9v.2h-.3c-.2.1-.2 0-.2 0 0-.3.3-.3.5-.2Zm3.6-23.6h-.5.5Z" />
  <defs>
    <linearGradient id="a" x1="211.2" x2="799.5" y1="789.4" y2="201.1" gradientUnits="userSpaceOnUse">
      <stop stop-color="#2FB5C5" />
      <stop offset=".2" stop-color="#36ABCA" />
      <stop offset=".5" stop-color="#4C92DA" />
      <stop offset=".8" stop-color="#6E69F3" />
      <stop offset="1" stop-color="#7E57FF" />
    </linearGradient>
  </defs>
</svg>