<svg xmlns="http://www.w3.org/2000/svg" fill="none" viewBox="0 0 161 161">
  <g clip-path="url(#a)">
    <path fill="#E62D4F"
      d="M80.2 154.6c11 0 16-6.4 16-6.4v-4c42.8-43 32-91.5 32-91.5h-7v-11h-15.5L92.6 28.4H67.9L54.7 41.6H39.3v11.1h-7.1s-10.8 48.6 32.1 91.4v4.1s5 6.4 16 6.4Z" />
    <path fill="#fff"
      d="m117 81.2-6.4-12.7a2 2 0 0 0-.5-.6c-3.9-3.2-11.6-2.2-12.4-2a2 2 0 0 0-1.5 1.2l-.6 1.2-1.6 1.2a2 2 0 0 0-.7 2 2 2 0 0 0-.7 2.3l.3.9-.2.4c-.6 2.8 1 7.1 1.4 8 .3.5.8 1 1.4 1.1l3.3.8.4.7-10.4 10.8-2.3 1v-.3c0-4.7-2.4-7.2-2.7-7.5a2 2 0 0 0-.8-.5l-2.8-9a18.5 18.5 0 0 0-2.6-8.1l-.2-.2-.5-.8-.5-.7-.2-.2-.4-.5-.1-.2a18 18 0 0 0-.5-.6l-.2-.1-.5-.5-.1-.1-.6-.6h-.1v-.1a19 19 0 0 0-.6-.4l-.2-.2-.6-.4-.7-.5-.2-.1-.6-.4a17.3 17.3 0 0 0-1-.5l-.6-.3H69l-.1-.1a18.7 18.7 0 0 0-12.7-.7h-.1a12.3 12.3 0 0 0-.9.4H55l-.8.3-.1.1a14.7 14.7 0 0 0-2.2 1.2l-.3.1a20 20 0 0 0-1.6 1.2 15.8 15.8 0 0 0-1.2 1l-.2.2-.4.4-.2.2a18.2 18.2 0 0 0-.7.8 19 19 0 0 0-.6.7v.2l-.2.1v.1a18.7 18.7 0 0 0-3.3 13.8v.2a18.2 18.2 0 0 0 .4 1.6v.1l.2.8v.2c.2.2.2.4.3.7v.1l.4.8v.1l.3.7.1.1a17.7 17.7 0 0 0 .9 1.6l.6.8v.1a18.8 18.8 0 0 0 .7 1l.5.5a4 4 0 0 0 .2.2c1 1.2 2.2 2.2 3.6 3l1.7 1.8a2 2 0 0 0 .2 2l5.7 8.4a2 2 0 0 0-.4 2.7l2.7 3.7c.2.3.5.6 1 .7l-.4.6a2 2 0 0 0 1.7 3h4a2 2 0 0 0 2-1.7l.3-2.3 3.5 3.4a2 2 0 0 0 2.6.1h.1a23 23 0 0 0 2.7 1.6l.2.7a2 2 0 0 0 1.7 1.4l4.9.6a2 2 0 0 0 1.1-.2c.4-.2 2-1 3.2-1.9l4.1.1a3 3 0 0 0 2-.6l3.7-3.1.4-.4.2-.1c2.2-2 3.3-4 3.4-4.1v-.1l13.4-28.3c.6-1.3.5-2.8-.1-4Z" />
    <path fill="#E62D4F"
      d="M142.6 32a6.6 6.6 0 0 0-.7-2.5c.3-.3.4-.8.4-1.3v-4.5c0-.8-.4-1.5-1-1.9a103.4 103.4 0 0 0-6.8-3.3h-1c-.2-.5-.6-1-1-1.2a157 157 0 0 0-8.6-3.6h-1.5l-1-.8-1.5-.6c-2.5-.9-3.9-1.3-6.4-2a2 2 0 0 0-1.4.1l-.6-.3-1-.5-1.2-.4a103.9 103.9 0 0 0-4-.7 4 4 0 0 0-2.2.6 4.3 4.3 0 0 0-2.2-1.5l-1.4-.3-6.5-.9c-.5 0-1 .1-1.5.5-.3-.4-.8-.7-1.4-.7l-5.5-.4c-1.1 0-2 .8-2.2 1.9l-1 7.6h-2.5v-1l.7-2.8a2 2 0 0 0-.4-1.6l.4-1.5a2.1 2.1 0 0 0-2.1-2.6A103 103 0 0 0 60 7.4l-4.2.8c-.5 0-1 .4-1.3.8l-.5-.1h-1.2c-.3 0-.7 0-1.2.2a107.9 107.9 0 0 0-4 1.1 4 4 0 0 0-.9.6c-.4-.2-.9-.2-1.4 0a103.8 103.8 0 0 0-9.1 3c-.7.3-1.2.9-1.4 1.6-.5-.4-1.3-.5-2-.3L29 16.8c-.5.2-.9.7-1 1.2-.6-.2-1.2-.2-1.7 0l-5.1 2.7c-.6.3-1 1-1.1 1.6l-1.5 13-.9 3.7a2.1 2.1 0 0 0 3.2 2.3l3.1-1.8a1.8 1.8 0 0 0 3 1.5l3-1.7c.5-.2.9-.7 1-1.2.5.2 1 .2 1.5 0l3.1-1.5h.1l.2-.1L39 35a2 2 0 0 0 1.1-1.4c.5.3 1.2.5 1.8.2a90.7 90.7 0 0 1 7.5-2.5 2.1 2.1 0 0 0 1.3 0l.8-.2a1.8 1.8 0 0 0 2.1 1l1.8-.5c.9-.2 1.4-1 1.4-1.8v-.6a5.2 5.2 0 0 0 1.2-.7l.8-1 .4.4a3.4 3.4 0 0 0 1.9.5 3.8 3.8 0 0 0 .7 0l.4-.1a84.4 84.4 0 0 1 4.2-.9l.7-.4a1.8 1.8 0 0 0 1.3.4 88.8 88.8 0 0 1 4.9-.4 98 98 0 0 1 8-.2h3.8c.5.1 1 0 1.3-.4.4.3.8.6 1.3.6l3.4.3h.2a88.7 88.7 0 0 1 7.5.9 3.6 3.6 0 0 0 1.6-.7c.1.3.4.5.6.7a5 5 0 0 0 2 1l.7.1a86.2 86.2 0 0 1 3.6.7h.8c.2.3.6.6 1 .7l3.7 1.1h1.2l.8.6 1.1.5 2 .7h.1l.2.1a167 167 0 0 1 13 6l.5.1a3.8 3.8 0 0 0 1.6.5c.5 0 1-.1 1.5-.4l.9-.8a187.6 187.6 0 0 1 1.7.9 4.3 4.3 0 0 0 1.9.5 3.4 3.4 0 0 0 3.2-2.7l.1-1.2V32Z" />
    <path fill="#fff"
      d="m27.3 20 1.6 11.5.8 3-3.6 1.6-.4-3.6-1.9 1-.4 4a101 101 0 0 0-3.5 2l.8-3.8 1.6-13.2 5-2.5ZM24 30.7l1.5-.7-.7-6.2-.8 6.9ZM39.9 18v9l.8 3-3.8 1.4-3.4-7.7.1 9-3.6 1.6.8-3.6v-9l-.8-3 3.8-1.6 3.3 7.8v-9.1a99 99 0 0 1 3.6-1.3l-.8 3.5Zm6.1-5.2-.8 3.4v9.1l.8 3-4.9 1.6.8-3.5v-9.1l-.8-3 5-1.5Zm9.4 8.5a65.7 65.7 0 0 1-.2 3l-.4.9a2.7 2.7 0 0 1-1.2 1 33 33 0 0 1-1.4.4V29l-2 .5v-2.2a12.7 12.7 0 0 1-1.4.3l-.7-.1-.6-.4a2 2 0 0 1-.5-1.2v-9.1a55.7 55.7 0 0 1 .2-2.7l.3-.8c.3-.5.7-.8 1-1l1.3-.5a104.2 104.2 0 0 1 4-.7l.6.1.4.4c.2.2.3.3.3.5l.2.7a9.8 9.8 0 0 1 .1 2.2v6.4ZM50.2 15v9l2-.4v-9c-.8 0-1.2.2-2 .4Zm10.3-5.5v12.3l1.7-.3V9.2a98 98 0 0 1 4.2-.5l-.8 3.3v8.1a35.6 35.6 0 0 1-.2 2.5c0 .3-.2.6-.3.8a2.4 2.4 0 0 1-1.1 1l-.6.2-.7.1a105.6 105.6 0 0 0-4.2.5L58 25c-.2-.2-.4-.3-.5-.6-.2-.3-.3-.7-.3-1.2v-9.9l-.9-3 4.2-.8ZM72 8.2l-.9 3.3v9l.9 3.2-5 .5.7-3.4v-9L67 8.6l5-.4Zm5.5-.2-.8 3.2v9h1.5v-2.7h3.2v6c-3-.1-6 0-9 .2l1-3.3v-9l-1-3.3 5.1-.2Zm12.5.3 1.7 12.4.9 3.4-3.9-.4-.4-3.8-2.1-.1-.5 3.8-3.8-.2.9-3.2L84.5 8c2.2 0 3.3 0 5.5.3ZM86.4 17l1.6.1-.8-6.6-.8 6.5Zm12.7-7.6 1.2.2c.4.1.8.4 1.1.8l.5.8.2.9a8.4 8.4 0 0 1 .1 1.8v9l-.5 1.4-.5.5a2 2 0 0 1-.6.2h-1.4c-2.5-.5-3.8-.6-6.4-1l.8-3v-9.1l-.8-3.4 6.3.9Zm-2 2.9v9l1.7.3v-9l-1.8-.3ZM112 23a79.9 79.9 0 0 1 0 2.2l-.3 1-.6.6c-.3.2-.6.3-1 .3l-1.1-.2a110.5 110.5 0 0 0-3.7-1l-.7-.4-.6-.7c-.2-.5-.4-1-.4-1.4l-.1-1.5v-7.6a52.5 52.5 0 0 1 .2-2.5l.4-.7c.3-.4.7-.5 1-.5l1.3.1a98.2 98.2 0 0 1 4 1.2c.3.1.5.2.6.4l.4.6a4.1 4.1 0 0 1 .5 1.5 11 11 0 0 1 .1 2.2V23Zm-5.1-9v9.1l1.8.5v-9.1l-1.8-.4Zm12.3.3 1.2.5c.4.2.7.5 1 1a3.7 3.7 0 0 1 .6 1.5l.1.8a19.5 19.5 0 0 1-.2 3.3l-.5.7c-.3.2-.6.3-1 .3l.1.1.1.1.4.3.6.7.4 1.2v2.8l.8 3.5a105 105 0 0 0-3.1-1.2c-.3 0-.4-.3-.6-.5l-.2-.5v-5.5l-1.9-.6v6.3a103 103 0 0 0-4.1-1.2l.8-3v-9.1l-.8-3.5c2.5.8 3.8 1.1 6.3 2Zm-2.2 5.6 1.9.6v-3l-1.9-.7v3Zm14.5-.7v5.1l-2.7-3-1.7-.8v3l2.4 1v2.9c-1-.5-1.4-.7-2.4-1v3.2l1.7.7 2.9-.7V35c-2.8-1.3-5.6-2.5-8.5-3.6l.8-3v-9l-.8-3.6c2.8 1 5.6 2.2 8.3 3.5Zm8.7 9a181 181 0 0 0-2.7-2.8l-1.8-.9v2.8l2.1 1.1.3.2.3.2.3.2.5.4.6.7.4 1 .3 1.1v3.6a17.6 17.6 0 0 1 0 1.6l-.6 1c-.3 0-.5.1-.8 0-.3 0-.5 0-.7-.2l-.5-.2-5.2-2.7v-4.7l3 3 1.8.9v-3.1a96 96 0 0 0-3.6-2l-.4-.6a4.3 4.3 0 0 1-.8-2l-.1-1.3v-3.7c.1-.4.3-.7.5-.9.3-.3.6-.4 1-.3a102.1 102.1 0 0 1 6.1 3.1v4.5Zm-37.8 16.5-1.5 1.5-11-11H70.5l-11 11-1.5-1.5 11.7-11.6h20.9l11.7 11.6Z" />
    <path fill="#fff"
      d="m124.5 58.3-.1-1h-7.9V46.2h-10.2v2h8.2v11.2h8a99.3 99.3 0 0 1-9.4 49.8 110 110 0 0 1-21.7 30.2l-2 2v4a15.9 15.9 0 0 1-9.2 2.6 16 16 0 0 1-9.2-2.7v-4l-2-1.9a110 110 0 0 1-21.6-30.2A99.2 99.2 0 0 1 38 59.4h8V48.3h8.2v-2.1H43.9v11.1h-7.8l-.1 1a101.4 101.4 0 0 0 9.5 51.9 112 112 0 0 0 22 30.7l1.4 1.3v4.2l.4.3a18 18 0 0 0 11 3.3c5.6 0 9.2-2 10.9-3.3l.4-.3v-4.2l1.3-1.3a112 112 0 0 0 22-30.8 101.4 101.4 0 0 0 9.6-51.8Z" />
    <path fill="#FCDDAC"
      d="M79.5 134.3v1h-4.2v1h3.4v.8h-3.4v1.7H74v-4.5h5.5Zm7.1 2.7c0 .4-.2.8-.5 1-.2.3-.6.5-1 .7l-1.7.2-1.4-.1c-.5-.1-.8-.3-1.1-.5a2 2 0 0 1-1-1.8c0-.4.1-.8.3-1 .1-.4.4-.6.7-.8l1-.4a6.9 6.9 0 0 1 3.2 0c.4.2.8.4 1 .7.3.3.4.6.5 1h-1.3a1 1 0 0 0-.3-.4l-.6-.3-1-.1-1.2.1c-.3.1-.6.3-.7.5a1 1 0 0 0-.3.7c0 .3.1.6.3.8.1.2.4.3.7.4l1.2.2 1-.1.6-.3.3-.5h1.3ZM56.5 52.6a1 1 0 1 0 0-1.9 1 1 0 0 0 0 1.9Zm0 4.1a1 1 0 1 0 0-1.8 1 1 0 0 0 0 1.8ZM69 53.3a.8.8 0 1 0 0-1.7.8.8 0 0 0 0 1.7Zm22.5 0a.8.8 0 1 0 0-1.7.8.8 0 0 0 0 1.7ZM80.2 144a.8.8 0 1 0 0-1.7.8.8 0 0 0 0 1.7ZM52.4 56.7a1 1 0 1 0 0-1.8 1 1 0 0 0 0 1.8Z" />
    <path fill="#F8C6B5"
      d="m98.1 68.8 7.7-.2 3.1 1.8 5.7 13.3-14 29.6-7.1 5.4h-5.2l-2.6 2.5-4.3-.9-2.8-2.2s-3.4 1.1-10.7-8.1c-5.4-6.8-11.5-12.7-11.5-12.7l3.8-2.1s4.2 2.6 7.7 1c3.6-1.8 7.5-4.6 9.5-12.8l2.3 2.5s4 6.4 5.6 14.7l6.6-2.1 10.7-12.3-2.5-4-3.7-.9-1-4.5.6-1.7-.6-1.8 1.1-1.2v-1.3l1.3-.7.3-1.3Z" />
    <path fill="#FCE0D9"
      d="m98.1 68.8 7.7-.2 3.1 1.8 5.7 13.3-14 29.6-7.1 5.4h-5.2l-2.6 2.5-4.3-.9-2.8-2.2s-3.4 1.1-10.7-8.1c-5.4-6.8-11.5-12.7-11.5-12.7l3.8-2.1s4.2 2.6 7.7 1c3.6-1.8 7.5-4.6 9.5-12.8l2.3 2.5s4 6.4 5.6 14.7l6.6-2.1 10.7-12.3-2.5-4-3.7-.9-1-4.5.6-1.7-.6-1.8 1.1-1.2v-1.3l1.3-.7.3-1.3Z"
      style="mix-blend-mode:multiply" />
    <path fill="#CEDDE2" d="M50.7 78.4c0-2.3.5-4.5 1.4-6.6a13.7 13.7 0 0 0 16.5 21.8c-9.2 1.6-18-5.8-18-15.2Z"
      opacity=".9" />
    <path fill="url(#b)" d="M97.9 75.8s-1.4 2 .2 5.7h-1.4l-.9-5.5 2-.2Z" opacity=".8"
      style="mix-blend-mode:hard-light" />
    <path fill="#FCDDAC"
      d="M104 52.6a1 1 0 1 0 0-1.9 1 1 0 0 0 0 1.9Zm0 4.1a1 1 0 1 0 0-1.8 1 1 0 0 0 0 1.8Zm4 0a1 1 0 1 0 0-1.8 1 1 0 0 0 0 1.8Z" />
    <path fill="#fff"
      d="m77.6 102-8.3-7.4 2.5-2.4 5.8 9.8Zm4.6-55.5 3.6 2-3.6 2-2 7.3-2-7.3-3.6-2 3.6-2 2-4.8 2 4.8Z" />
    <path fill="url(#c)" d="M96.5 75.2s.2-2.2 1.3-2.4c1.2-.3-1.5-.6-1.5-.6l-1.2 2 1.4 1Z" opacity=".8"
      style="mix-blend-mode:hard-light" />
    <path fill="url(#d)" d="M97.6 70.4s-1 .8-.7 1.7h.4l.8-1.7h-.5Z" />
    <path fill="url(#e)" d="m98.3 73.9 6.5-.9-1-1.1-5.3.8-.2 1.2Z" opacity=".8" style="mix-blend-mode:hard-light" />
    <path fill="url(#f)" d="M98.4 71.5h5.2v-1.3l-5-.1-.2 1.4Z" opacity=".8" style="mix-blend-mode:hard-light" />
    <path fill="#E62D4F" d="m67.9 84.3-2.2-7-7.3-.1-2.4 7 6 4.3 5.9-4.2Z" />
    <path fill="#E62D4F"
      d="M60.2 98 59 96.3l2.6 1.8.5.4 1.3-.1h.5l.3-.1a8.8 8.8 0 0 0 .3 0h.1l.2-.1h.4l5.8 7 2 2.6 2.8 3.5-1.5-2.8a33 33 0 0 0 8.7-8l-2.2-4a28.2 28.2 0 0 1-3.8 4.4l.6 1-1-.7-1.5 1.4-1.8-1.4.9 2-2.2 1.5-4.2-7.4 2.8-1.4-1.6-1.5c-1 .5-1.9 1-2.9 1.2l-3.7-2.5-.2-3.7h-.5l.1 3.8-3.5 2.8c-2.8-.7-5.5-2.2-7.5-4.5l-.5-1.3 1-4.1-4.1-2.5c-.4-2.8 0-5.6 1.3-8l3-3h3.4l2.8 4 .4-.3-2.8-4 1.5-4.2c3.7-1.4 7.9-1 11.4.7l1 4.7 4.8.5c1.2 2 2 4.3 2.1 6.5L75 84l-3 2 1.2 4.6-.8 1-.6.6 5 8.4-3-7.3.5-.6 1-1.2.3-.6.1-.1.3-.5.1-.2.2-.4.2-.2.2-.4v-.3a14.8 14.8 0 0 0 .5-1l.1-.3.2-.4v-.3l.1-.3 6.6 13.3-.3-.8c.4-.4.6-1.8.6-1.8 0-4-2-6-2-6l-.3 2.3-4-13c-.1-2.3-.8-4.6-2-6.7v-.1L76 73l-.1-.2-.5-.7-.5-.6v-.2l-.5-.5-.6-.6-.1-.2-.4-.4-.2-.1-.5-.5h-.1a14.9 14.9 0 0 0-1.2-1l-.6-.4-.2-.1-.5-.3h-.1a14 14 0 0 0-.7-.4l-.1-.1-.6-.3h-.1a16.8 16.8 0 0 0-11.3-.8l-.3.1-.3.1-.5.2h-.2c-.2.2-.4.2-.7.3l-.2.1a23.6 23.6 0 0 0-1.2.6l-.2.2c-.2 0-.4.2-.5.3h-.2a17.7 17.7 0 0 0-1.3 1l-.2.2a18 18 0 0 0-1.6 1.4l-.2.2-.5.5-.1.2-.3.4-.2.3-.2.2a16.8 16.8 0 0 0-3 11.6v.2a18.3 18.3 0 0 0 .4 2.2v.1l.2.7v.2l.3.6v.1l.3.7v.1l.3.6v.1l.4.7.4.7.1.1.5.7v.1l.5.6.1.2.4.5.1.1c1 1.2 2.2 2.2 3.5 3L66 109.2l-5.7 1.7 2.7 3.8 3.7-4.8 1 1-4 7.2h4l1-6.2 6.1 6.2L60.2 98Z" />
    <path fill="#E62D4F"
      d="m115.2 82.1-6.4-12.7c-3.3-2.7-10.8-1.6-10.8-1.6l-.9 2H97L95.2 71l.5 1-1.3 1 .8 2.3-.5.1c-.6 2.3 1.3 6.8 1.3 6.8l4 1 1.8 2.5L90 98.2l-6.2 2.6-5.2 7.1.9.2 4.9-5.3 4-1.6-2.2 4.6c-.1.2.1.4.3.2l16.4-18.7.3.4-2.4 4.2 6.4-6.7-.9-1.3s0 .6-1.3 1.8c-1.4 1.3-2.4-.8-3.6-3.7-.3-.8-.3-1.4 0-2l1.7 1 .2-.2L102 79c.7-.9 1.8-1.2 1.8-1.2l.5-.5-6 1.1.6.6c1.6.2 1.1.9 1.3 1.5 0 .6 0 .9-1.4.6-1.6-.2-1.5 0-2-1.7-.7-3.2 0-3.6 0-3.6l1.3.9 2.7-1.7 2.8-.3-.1-.9-6.9 1.3c-1.3-1.7.4-2.4.4-2.4l1.3 1 1.6-.7 3.6-.2.3-1h-6.6c0-.6.3-1 .3-1l1 .6 2-.5 2.5-.1-.1-.7-4.5-.3c.1-.5.6-.8 1.7-.8 3.5 0 6 .5 7.5 1l-1.7.2.3.7 1-.2c1-.2 1.1.5 1.1.5l5.4 12.5s-10.7 24.3-15.2 30c-2 1 1.8-7.8 2.6-9.8 0-.2 0-.4-.2-.3-.9.6-1.6 1.3-2 2.2v.1l-.1.1-5.1 11c-2 1.6-4.8 1.2-7 .2-.9-.5-.7-1.7-.2-3 1.7-2.9 5.5-7.4 5.5-7.4l2.6-2.6 4-8.6c.2-.3-.2-.6-.5-.3L84.6 114s-2.7 3.5 1.8 5.3c-.8.4-2.2.8-4.2 0-3.4-2.7-3.5-9-3.5-9l-.6-1.2c-.7 2.5-.7 4.4-.4 6-1.1-.3-3.2-.9-6-2.8-.1-.1-.3 0-.2.2a25 25 0 0 0 9 7.3l.4 1.5 5 .7s2.3-1.2 3.3-2.1h4.9c.2 0 .5 0 .7-.2l3.6-3 .4-.4h.1c2-1.8 3-3.7 3-3.7l13.4-28.3a3 3 0 0 0 0-2.3Zm-47.3 24.5 3.2 3.8 1.8-1-3.5-3.4-1.5.6Z" />
    <path fill="#E62D4F"
      d="M108.1 77h.6c.1-1-.6-2.2-.6-2.2-.6-.3-2.5 0-2.5 0v.6l1.8.1c.4.2.7 1.6.7 1.6Zm-.8-4c.4.2 1 1.5 1 1.5h.5c.1-1.1-.7-2.3-.7-2.3-.6-.3-2.6.3-2.6.3v.5h1.8Zm2.3 7-.8.6 1.3 2.5.7-.5-1.2-2.6Zm-3.8 9.4-1.3.3-3.6 9.7 1.6-.6 3.3-9.4ZM65.7 76.9l.4.3 2.6-2.8-.4-.3-2.6 2.8Zm2.6 7.3-.2.4 3.2 1.3.2-.5-3.2-1.2Zm-13 0-3.4 1.4.2.4 3.4-1.4-.2-.4Zm26.1 33.3 2 .3c-.8-1.3-.2-2.5-.2-2.5l-1.8 2.2ZM61.9 108l-7-8 6.3 9.3.7-1.3ZM48.6 79.5c-.1 1.1-.2 2.2-.1 3.2l1.8 1.2a11 11 0 0 1-.9-7.1l-.8 2.7Zm11.1 13.6c-1 .3-3.3.6-6-.7a14 14 0 0 0 4.3 2l1.7-1.3Zm9.5-.5 2-1.7c-2.5 1.9-5.3 2-6.8 2l2 1.2c1-.4 1.9-.9 2.8-1.5ZM57.9 69.2l-.9 2.5a10 10 0 0 1 5.1-3h-.5c-1.3 0-2.5.1-3.7.5Zm11.3 13-.1-.3-1-1.7 1 3 1.3.6a8 8 0 0 1-1.2-1.5Z" />
  </g>
  <defs>
    <linearGradient id="b" x1="95.2" x2="98" y1="76.7" y2="79.4" gradientUnits="userSpaceOnUse">
      <stop stop-color="#fff" stop-opacity="0" />
      <stop offset=".2" stop-color="#fff" stop-opacity=".3" />
      <stop offset=".5" stop-color="#fff" stop-opacity=".6" />
      <stop offset=".7" stop-color="#fff" stop-opacity=".8" />
      <stop offset=".9" stop-color="#fff" stop-opacity=".9" />
      <stop offset="1" stop-color="#fff" />
    </linearGradient>
    <linearGradient id="c" x1="95.1" x2="98.1" y1="73.7" y2="73.7" gradientUnits="userSpaceOnUse">
      <stop stop-color="#fff" stop-opacity="0" />
      <stop offset=".2" stop-color="#fff" stop-opacity=".3" />
      <stop offset=".5" stop-color="#fff" stop-opacity=".6" />
      <stop offset=".7" stop-color="#fff" stop-opacity=".8" />
      <stop offset=".9" stop-color="#fff" stop-opacity=".9" />
      <stop offset="1" stop-color="#fff" />
    </linearGradient>
    <linearGradient id="d" x1="96.8" x2="98.1" y1="71.3" y2="71.3" gradientUnits="userSpaceOnUse">
      <stop stop-color="#fff" stop-opacity="0" />
      <stop offset=".2" stop-color="#fff" stop-opacity=".3" />
      <stop offset=".5" stop-color="#fff" stop-opacity=".6" />
      <stop offset=".7" stop-color="#fff" stop-opacity=".8" />
      <stop offset=".9" stop-color="#fff" stop-opacity=".9" />
      <stop offset="1" stop-color="#fff" />
    </linearGradient>
    <linearGradient id="e" x1="99.8" x2="103.3" y1="72.5" y2="73.5" gradientUnits="userSpaceOnUse">
      <stop stop-color="#fff" />
      <stop offset=".1" stop-color="#fff" stop-opacity=".9" />
      <stop offset=".3" stop-color="#fff" stop-opacity=".8" />
      <stop offset=".5" stop-color="#fff" stop-opacity=".6" />
      <stop offset=".8" stop-color="#fff" stop-opacity=".3" />
      <stop offset="1" stop-color="#fff" stop-opacity="0" />
    </linearGradient>
    <linearGradient id="f" x1="102.5" x2="100.2" y1="72.6" y2="69.9" gradientUnits="userSpaceOnUse">
      <stop stop-color="#fff" stop-opacity="0" />
      <stop offset=".2" stop-color="#fff" stop-opacity=".3" />
      <stop offset=".5" stop-color="#fff" stop-opacity=".6" />
      <stop offset=".7" stop-color="#fff" stop-opacity=".8" />
      <stop offset=".9" stop-color="#fff" stop-opacity=".9" />
      <stop offset="1" stop-color="#fff" />
    </linearGradient>
    <clipPath id="a">
      <path fill="#fff" d="M17.8 5.8h124.8v148.8H17.8z" />
    </clipPath>
  </defs>
</svg>