<svg xmlns="http://www.w3.org/2000/svg" fill="none" viewBox="0 0 1001 1000">
  <g clip-path="url(#a)">
    <path fill="#fff"
      d="M181.1 810.8v-507l196.8-88.3A130.3 130.3 0 0 1 473.6 88L604 53l9.9 36.6a129.1 129.1 0 0 1 89.3 15L820 172l-67.5 117 32.8 14.8v507l-302 135.5L181 810.8Z" />
    <path fill="#4BBAB4"
      d="m708.7 312.9-12.1-5.5 6.4-11.1 6.5-11.2 18.6-32.3 38-65.6-29.7-17.1-51.3-29.6a87.8 87.8 0 0 0-66.6-8.8l-2.8.9a82 82 0 0 0-24.8 12l-2.2 1.6-7.2-26.9-4.1-15.5L487 128a87.2 87.2 0 0 0-62.2 63 87.4 87.4 0 0 0 .2 44.5l1.1 4.3-12.2 5.4-12.2 5.5-62.6 28-59.6 26.8-55 24.7V669l11 4.8 250.3 112.3 244.3-109.5 17-7.6V330l-26.4-11.8-12.1-5.4ZM599.6 183.3a52.4 52.4 0 0 1 72.1-19.3l50.8 29.3-44.8 77.5-6.5 11.2-6.4 11.2-31.4 54.3-11-41.2 14.7-25.5 6.5-11.2 6.4-11.2 31.2-54-24.6-14.3a22.5 22.5 0 0 0-30.9 8.3l-22 38.2-11-41.2 6.9-12v-.1Zm-103.4-28.4 56.6-15.2 5.9 22 16.9 63.2v.1l4.3 16 4.3 16 2.4 9 18.7 69.8 11 41.2 19.2 71.3 17.1 9.7 24.8 14a55.6 55.6 0 0 1 27.4 55.6l1 .2-1.2 5L678.8 646l-192.9 86.1-194.6-87-2-122.3-.3-14-.2-14-2.7-156.7H426c9.7 0 18.7 2.7 26.5 7.2l10.1 5.7 37.2 20.9 30.5 17.1 6.3 3.6 38.7 21.7 23.5 13.3-14.2-53.1-11-41.2-8.2-30.4-11-41.2-5.6-20.7-4.3-16-4.2-16-8.7-32.4L504 184c-3.4 1-6.4 2.7-9 5a23.2 23.2 0 0 0-6.6 10l-.3.9c-1 3.7-1.2 7.8-.1 11.8l.7 2.5 29.5 110.2 3.7 14 4.9 18.2-6.3-3.7-30.6-17.7-29.7-110.7-1.4-5a52.6 52.6 0 0 1-1-22 52.9 52.9 0 0 1 38.4-42.6" />
    <path fill="#4BBAB4"
      d="m476.7 374.7-1-1.2.6 1.9.4-.7M420.1 534h28.5V391a22.5 22.5 0 0 0-22.7-22.6h-28.4v143a22.7 22.7 0 0 0 22.6 22.7m-82.4-47 1.2.1h28.4V368.4h-51v59.2l1 43.8a22.5 22.5 0 0 0 20.4 15.7" />
    <path fill="#4BBAB4"
      d="m566.4 442.7-5.7-3.3-13.9-8-6.3-3.7L510 410l-12.8-7.3a65.1 65.1 0 0 0-.8 36.5l.1.2a64.6 64.6 0 0 0 30.2 39.3l2 1 6.6 4 16 9.1 50.8 29.4 13.2 7.6-7.6 13-7.5 13.1-20 34.4a55.9 55.9 0 0 1-20 4.5h-1c-3.7 0-7.3-.4-10.7-1.2l-3.7-2.2 29.2-50.6-53.8-31-8.5-5a94.9 94.9 0 0 1-32.9-31.4v90.9h-58.6a52.9 52.9 0 0 1-52.4-46.9H339c-7.3 0-14.2-1.5-20.6-4.2l2.7 112.3 165 73.7L636.2 632l16.4-7.3 2-9 5.7-25 3.5-15.3 11.3-49.3h-.7a25.5 25.5 0 0 0-7-24 25.3 25.3 0 0 0-5.1-4L621 474l-9.1-5.1-28-16.1-17.5-10.2Z" />
    <path fill="#010101"
      d="m802 177.5-22.8-13.2-80.9-46.7a114.2 114.2 0 0 0-92.5-9.7l-3-11-6.8-25.4-25.5 6.8-90.2 24.2c-55 14.7-90 67.5-84 122.5L199 313.5v487.6l287 128.7L773 801V313.5L733.7 296l55.2-95.5 13.2-22.9Zm-73.9 75.2-18.6 32.4-6.5 11.1-6.4 11.2 12 5.5 12.2 5.4 26.4 11.8V669l-17 7.6L486 786.1 235.5 673.8l-10.9-4.9V330.1l55-24.6 59.6-26.7 62.6-28.1 12.2-5.5 12.2-5.5-1.1-4.2a89 89 0 0 1 4.4-58 94.9 94.9 0 0 1 11.5-19 91 91 0 0 1 37.6-27.8c2.8-1 5.6-2 8.5-2.7l90.3-24.2 4.1 15.5 7.2 26.8 2.2-1.4a88.1 88.1 0 0 1 94.2-4.3l51.3 29.6 29.6 17.1-37.9 65.6Z" />
    <path fill="#010101"
      d="M631.6 158.7a52.5 52.5 0 0 0-32 24.6l-7 12 11 41.3 22.1-38.2a22.5 22.5 0 0 1 31-8.3l24.5 14.2-31.2 54.1-6.4 11.2-6.5 11.2-14.7 25.5 11 41.2 31.4-54.3 6.4-11.2 6.5-11.2 44.8-77.5-50.8-29.3a51.9 51.9 0 0 0-40-5.3" />
    <path fill="#010101"
      d="m677.4 472-24.8-14-17.1-9.7-19.1-71.3-11-41.2-18.8-69.7-2.4-9-4.3-16-4.3-16v-.2l-17-63.2-5.8-22-56.6 15.2a52.8 52.8 0 0 0-37.4 64.7l1.4 5 29.6 110.7 30.7 17.6 6.3 3.7-4.9-18.1-3.7-14.1-29.6-110.2-.6-2.4c-1.1-4-1-8.1.1-12l.2-.9A22.5 22.5 0 0 1 504 184l27.4-7.3 8.8 32.5 4.2 16 4.3 16 5.6 20.6 11 41.3 8.1 30.3 11 41.2 14.3 53-23.5-13.2-38.7-21.7-6.3-3.6-30.5-17.1-37.2-21-10.2-5.7v.1a52.5 52.5 0 0 0-26.4-7.2H286.1l2.6 156.8.3 14 .2 14 2 122.3 194.7 87L678.7 646l25.9-113.3 1.1-5-.9-.2a56.2 56.2 0 0 0-27.4-55.7m-200.7-97.2-.3.6-.7-1.8 1 1.2ZM322.3 480c-2.2-2.4-4-5.3-5-8.5l-1-43.8v-59.2h51v118.8h-29.6c-6-.4-11.5-3-15.4-7.3m75.2-19.6v-91.9h28.4a22.6 22.6 0 0 1 22.6 22.6v143h-28.4a22.7 22.7 0 0 1-22.6-22.5v-51.2Zm186.5-7.5 27.8 16.1 9.1 5.2 41.4 24c2 1 3.6 2.4 5.1 4a25.7 25.7 0 0 1 7.1 24h.6L664 575.3l-3.5 15.4-5.7 25-2 9-16.4 7.3L486 699.2l-165-73.7-2.6-112.3a52.5 52.5 0 0 0 20.6 4.2h28.8a52.9 52.9 0 0 0 52.4 46.8h58.6v-90.9a94.7 94.7 0 0 0 32.8 31.5l8.6 5 53.8 31-29.3 50.6 3.8 2.2c3.4.7 7 1.2 10.7 1.2h1a56 56 0 0 0 20-4.5L600 556l7.6-13 7.6-13.1-13.2-7.6-50.8-29.4-16-9.2-6.7-3.8-1.9-1.1a64.6 64.6 0 0 1-30.2-39.3l-.1-.2a65.8 65.8 0 0 1 .8-36.5l12.7 7.3 30.7 17.7 6.3 3.7 13.9 8 5.7 3.3 17.5 10.1Z" />
    <path fill="#fff"
      d="M263.4 728.3c.8.4 1.3 1.3 1.3 2.6v3.8c0 1.2-.5 1.7-1.3 1.4l-32.9-14.5V744l28 12.3c.8.3 1.3 1.2 1.3 2.5v3.8c0 1.3-.5 1.8-1.3 1.4l-28-12.3v23l32.9 14.5c.8.4 1.3 1.3 1.3 2.6v3.8c0 1.2-.5 1.7-1.3 1.4L226 780.6c-.9-.4-1.3-1.3-1.3-2.6v-64.7c0-1.3.4-1.8 1.3-1.4l37.3 16.4Zm14.6 67.4 30.5 13.4c.8.3 1.3 1.3 1.3 2.5v3.9c0 1.2-.5 1.7-1.3 1.3l-34.9-15.3c-.8-.4-1.3-1.3-1.3-2.6v-64.7c0-1.3.5-1.8 1.3-1.4l3.1 1.4c1 .4 1.4 1.3 1.4 2.5v59Zm106.2 19.8A21.5 21.5 0 0 1 396 836v3.7c0 11-4.8 13.5-16.3 8.4l-54-23.7c-1.4-.7-2.2-1.8-2.2-3.2V757c0-1.4.8-1.8 2.2-1.2l53 23.3c11.5 5.1 16.4 12 16.4 23v3c0 9-3.4 12.3-11 10.5m-40.8-25.7 26.7 11.8c3.9 1.7 5.2 1 5.2-2.5v-1c0-3.5-1.3-5.4-5.2-7l-26.7-11.9v10.6Zm0 15.3v11.2l27.6 12.2c4 1.7 5.3 1 5.3-2.5v-1.6c0-3.5-1.3-5.4-5.3-7L343.3 805Zm110.5 63.9-33-14.6-3.8 8c-.5 1.2-1.5 1.4-3.1.7l-16.2-7.1c-1.3-.6-1.9-1.8-1.4-2.9l27-52.4c.5-1.2 1.5-1.5 3.2-.7L449 810c1.7.7 2.5 1.8 3.1 3.4l27 76.2c.5 1.5-.1 2.2-1.3 1.7l-17-7.5a5.1 5.1 0 0 1-3.2-3.5l-3.7-11.2Zm-27-27.3 21 9.2-10.6-31.7-10.5 22.5ZM557.6 807v13.7c0 11-4.8 18.8-16.4 23.8l-.3.2 18.8 12.2c.8.5.3 2-.7 2.5l-19.4 8.5c-1.8.8-2.6.8-3.7 0L519 855.3l-13.7 6v19.5c0 1.4-.9 2.6-2.3 3.2l-15.2 6.7c-1.5.7-2.3.2-2.3-1.2v-64.3c0-1.4.8-2.5 2.3-3.1l53.4-23.6c11.6-5 16.4-2.5 16.4 8.5m-52.3 38.5 26-11.4c5.6-2.5 6.5-3.7 6.5-8.5v-4.2c0-4.7-.9-5.2-6.6-2.7l-25.9 11.4v15.4Zm132.3-73.7v13.6c0 11-4.8 18.8-16.4 24h-.3l18.9 12.3c.7.5.2 2-.8 2.5l-19.3 8.5c-2 .8-2.7.7-3.8 0L599.1 820l-13.8 6v19.5c0 1.4-.9 2.6-2.3 3.2l-15.2 6.7c-1.5.7-2.3.2-2.3-1.2V790c0-1.4.8-2.5 2.3-3.1l53.4-23.6c11.6-5 16.4-2.5 16.4 8.5m-52.3 38.5 26-11.4c5.6-2.5 6.5-3.8 6.5-8.5v-4.2c0-4.7-.9-5.2-6.6-2.7L585.3 795v15.4Zm80 .1c0 1.4-.9 2.5-2.3 3.2l-15.2 6.7c-1.5.6-2.3.2-2.3-1.2v-64.3c0-1.4.8-2.5 2.3-3.2L663 745c1.4-.6 2.3-.2 2.3 1.1v64.4ZM747 761c0 11-5 17.8-16.4 22.8l-42 18.5c-11.3 5-16.4 2.5-16.4-8.5v-37.2c0-11 5.1-18 16.5-23l41.9-18.4c11.4-5 16.3-2.5 16.3 8.5V761Zm-20-22.3c0-5.3-1-5.8-7.5-3l-20 8.8c-6.4 2.8-7.6 4.3-7.6 9.6v24.5c0 5.3 1.2 5.8 7.6 3l20-8.8c6.5-2.9 7.5-4.3 7.5-9.6v-24.5Z" />
  </g>
  <defs>
    <clipPath id="a">
      <path fill="#fff" d="M181.1 53h638.8v893.3H181.1z" />
    </clipPath>
  </defs>
</svg>