<svg xmlns="http://www.w3.org/2000/svg" fill="none" viewBox="0 0 1001 1000">
  <path fill="#E2E3E2"
    d="M332.3 858A273.1 273.1 0 0 1 197 681.4l-2.1-8.8H166v-15a13 13 0 0 0-13-13h-15v-89h28.3L156 538.3a62 62 0 0 1-8.8-32v-192H189V191l110.1-24 2.6-4.5A226.8 226.8 0 0 1 500.3 47 227 227 0 0 1 698 162.6l2.6 4.5L811 191v126.8l6.3 3.2a62.9 62.9 0 0 1 30 31.9 61.6 61.6 0 0 1 5.3 25v128.4a61.9 61.9 0 0 1-8.8 32l-10.2 17.4h28.2v89h-15a13 13 0 0 0-13 12.9v15h-28.2l-2 8.9a278.6 278.6 0 0 1-132.8 177.4l-171 94.1-167.5-95Z" />
  <path fill="#22294D"
    d="M833.6 358.9a48 48 0 0 0-37.7-29V203l-105.4-22.8c-16.8-34-42.9-64-77.3-85.7a213 213 0 0 0-304 85.7L204 203v126.3h-41.6v176.9a46.9 46.9 0 0 0 14.3 34.1 49.7 49.7 0 0 0 27.3 13.8v61A262 262 0 0 0 339.8 845L500 935.8l163.4-90A262.5 262.5 0 0 0 796 618.2v-63.9a46 46 0 0 0 27.6-14 48 48 0 0 0 10-15 47 47 0 0 0 4-19V378a46 46 0 0 0-4-19" />
  <path fill="#fff"
    d="M507 162.9c19.4-10.8 55-22.1 66.6-25.7-1-7.8-3.8-25.9-9.3-35.7-7.7-2.9-44.2-16-70.7-16-4.4 1-39.4 9.1-61 25.1l4.8 34.4 69.6 17.9Zm-124.6 46.7 46-62.1-4.7-34.4c-9.3.1-34 1.5-56.1 13a193.7 193.7 0 0 0-43.7 57.3c.8 6 7.1 26.1 12.4 41.4l46.1-15.2Zm96.2 119.7h83.1l5-32-58.6-47.8-76 29.3a408.6 408.6 0 0 0-9 50.5h55.5Zm34.9-87.3 59.1 48.2 60.5-23c1.6-9.5 6.6-43.9 2-74a273 273 0 0 0-57-47.7c-9 2.7-46.1 14.4-65.8 25l1.2 71.5ZM666 324.1c6.4-2.5 16.4-6.7 21.3-9.7 10.5-45.5 4-93.2-17.3-134l-25.4 13.4a268 268 0 0 1-2.6 76.1l24 54.2Zm18.1 2.4-6.5 2.9h5.5l1-3Zm-282.2 2.8h11.9c1.9-15.4 5-37 9.5-53L383.5 219l-46.9 15.4c-12.3 24.3-11.3 64.2-11 69.8a124 124 0 0 0 12.2 25.1h64Zm-74.9.1a142 142 0 0 1-9.2-19.3l-10.1 1c1.3 6.2 3 12.3 4.8 18.3h14.6Z" />
  <path fill="#D2283D"
    d="M181 542.7h637.8a28 28 0 0 0 28 28v59a28 28 0 0 0-28 27.9H181.1a28 28 0 0 0-28-28v-58.9a28 28 0 0 0 28-28Z" />
  <path fill="#fff"
    d="M243.3 595.2h14.2v10h-14.2v29h-11V564h29.1v10h-18.1v21.3Zm49.1-31.2v54c0 5 2.2 6.9 5.7 6.9s5.7-1.8 5.7-6.9v-54h10.5v53.5c0 11.3-5.7 17.7-16.5 17.7s-16.5-6.4-16.5-17.7V564h11Zm41.2 0h34.2v10h-11.6v60.2h-11V574h-11.6v-10Zm87.1 16v2.6c0 7.2-2.2 11.8-7.1 14.2 5.9 2.3 8.2 7.6 8.2 15v5.8c0 10.8-5.7 16.6-16.8 16.6h-17.3V564h16.6c11.5 0 16.4 5.4 16.4 16.2m-22-6.1v18.5h4.3c4.1 0 6.7-1.8 6.7-7.4v-4c0-5-1.8-7.1-5.7-7.1h-5.3Zm0 28.6v21.6h6.3c3.7 0 5.8-1.7 5.8-7v-6c0-6.6-2.2-8.6-7.2-8.6h-4.9Zm43.9-21.9c0-11.3 5.9-17.7 16.8-17.7 10.8 0 16.7 6.4 16.7 17.7v36.5c0 11.3-5.9 17.7-16.7 17.7-10.9 0-16.8-6.4-16.8-17.7v-36.5Zm11 37.2c0 5 2.2 7 5.8 7 3.5 0 5.7-2 5.7-7v-38c0-5-2.2-6.8-5.7-6.8-3.6 0-5.8 1.9-5.8 6.9v38Zm44.7-54h11v60.2h18.2v10h-29.2V564ZM610 608v9.3c0 11.3-5.6 17.7-16.4 17.7-10.8 0-16.5-6.4-16.5-17.7v-36.5c0-11.3 5.7-17.7 16.5-17.7s16.5 6.4 16.5 17.7v6.8h-10.5v-7.5c0-5-2.2-7-5.7-7s-5.7 2-5.7 7v38c0 5 2.2 6.8 5.7 6.8s5.7-1.8 5.7-6.9v-10h10.5Zm21.9-44h11v60.2h18.2v10h-29.2V564Zm59.6 0v54c0 5 2.2 6.9 5.7 6.9s5.8-1.8 5.8-6.9v-54h10.4v53.5c0 11.3-5.6 17.7-16.5 17.7-10.8 0-16.4-6.4-16.4-17.7V564h11Zm77.5 16v2.6c0 7.2-2.2 11.8-7.1 14.2 6 2.3 8.2 7.6 8.2 15v5.8c0 10.8-5.7 16.6-16.7 16.6H736V564h16.7c11.4 0 16.3 5.4 16.3 16.2m-22-6.1v18.5h4.3c4.2 0 6.7-1.8 6.7-7.4v-4c0-5-1.7-7.1-5.6-7.1H747Zm0 28.6v21.6h6.4c3.7 0 5.7-1.7 5.7-7v-6c0-6.6-2.1-8.6-7.1-8.6h-5Z" />
  <path fill="#D2283D"
    d="M755.7 333.3a48 48 0 0 1 16-3.8V222.6l-19.2-4v116.3l3.2-1.6Zm-6.8 324.3c-6.6 35.8-22 69.2-44.6 97.3l-35.4-97.3h-49.2l48.4 133A216 216 0 0 1 642 808l-17.4 9.6-58.3-160.1h-49.1l66.4 182.6-44.5 24.5-75.4-207.1h-49.2L497 884.4l-67.4-38.3L361 657.6h-49.2l55.8 153.2-7-4a218.6 218.6 0 0 1-109.1-149.2H232a237.7 237.7 0 0 0 119.4 166L500 908l151.5-83.2a238.3 238.3 0 0 0 117-167.2H749ZM247.3 329.4V218.5l-19.1 4.1v106.8h19.1Z" />
  <path fill="#fff"
    d="M177.7 342.8h76.5v160.3a31.9 31.9 0 0 1-31 31h-14.5a32 32 0 0 1-28.5-19 29.2 29.2 0 0 1-2.5-12v-87.6h30.7V503c0 .2.1.3.3.3h14.5l.3-.3V373.5h-15v15.6h-30.8v-46.3Zm87.4 45.7h30.7v145.6h-30.7V388.5Zm0-46.4h30.7v36.4h-30.7V342Zm41.7.7h76.4v160.3c0 4.2-.8 8.2-2.4 12a31.9 31.9 0 0 1-28.5 19h-14.6a32 32 0 0 1-28.5-19 29.2 29.2 0 0 1-2.4-12v-87.6h30.7V503c0 .2 0 .3.2.3h14.6l.2-.3V373.5h-15v15.6h-30.7v-46.3Zm165.7 123.8V495H442v-28.4h-17V495h-30.7v-28.4l10.6-123.8h57l10.7 123.8Zm-33-24.4-6.3-73.6-6 73.6h12.3Zm90-99.4h30.7v191.3h-30.7v-23.3l-15-52.6V534h-30.7V342.8h30.7v25.5l15 52.9v-78.4Zm41.7 0h76.2v30.7h-22.8v160.6H594V373.5h-22.7v-30.7Zm163.8 0v30.7h-45.7v49.6h43.5v30.7h-43.5v49.6H735v30.7h-76.4V342.9H735Zm68.4 2.5a31.7 31.7 0 0 1 18.8 28.6v41.6h-30.7v-41.7l-.3-.3h-14.3c-.1 0-.2.1-.2.3v49.3h45.5v80a30.3 30.3 0 0 1-9.1 21.8 30.4 30.4 0 0 1-21.9 9.2h-14.3A29.9 29.9 0 0 1 755 525a30 30 0 0 1-6.5-9.8 29.4 29.4 0 0 1-2.5-12v-41.6h30.7v41.6c0 .2 0 .3.2.3h14.3c.2 0 .3 0 .3-.3v-49.3H746v-80c0-4.2.8-8.2 2.5-11.9a30.5 30.5 0 0 1 28.5-19h14.2c4.4 0 8.4.8 12.2 2.4ZM472.5 508.7h-78.3v25.4h78.3v-25.4Z" />
</svg>