<svg xmlns="http://www.w3.org/2000/svg" fill="none" viewBox="0 0 1001 1000">
  <g clip-path="url(#a)">
    <path fill="#101820"
      d="M936.59 499.75c0 241.2-195.54 436.75-436.75 436.75-241.22 0-436.74-195.55-436.74-436.75S258.63 63 499.85 63C741.06 63 936.6 258.54 936.6 499.75" />
    <path fill="#FB91A3"
      d="m555.97 399.46-79.84 75.66c-5.42 5.13-1.57 13.91 6.09 13.91h81.01c2.59 0 5.07-.99 6.94-2.76l91.6-86.8h-105.8ZM370.33 499.75l-91.15 86.38c-5.41 5.13-1.57 13.91 6.08 13.91h85.05L474.2 501.6c.7-.67.23-1.85-.74-1.85H370.33Zm0-100.29-91.15 86.38c-5.41 5.13-1.57 13.91 6.08 13.91h85.05l105.83-100.29h-105.8Zm185.64 200.58-79.84-75.66c-5.42-5.13-1.57-13.91 6.09-13.91h81.01c2.59 0 5.07 1 6.94 2.76l91.6 86.81h-105.8Zm141.05-200.58h-1.32a27.36 27.36 0 0 1-27.34 27.33v1.32a27.37 27.37 0 0 1 27.34 27.34h1.32a27.37 27.37 0 0 1 27.34-27.34v-1.32a27.37 27.37 0 0 1-27.34-27.33Z" />
    <path fill="#FB91A3"
      d="M794.16 205.43C715.54 126.8 611.02 83.5 499.85 83.5c-111.17 0-215.7 43.3-294.33 121.92C126.9 284.05 83.6 388.57 83.6 499.75s43.3 215.71 121.91 294.33c78.62 78.62 183.15 121.9 294.33 121.9 111.18 0 215.7-43.3 294.32-121.9 78.62-78.62 121.91-183.15 121.91-294.33 0-111.18-43.29-215.7-121.9-294.32Zm-584.92 3.72c77.62-77.62 180.83-120.37 290.6-120.37 109.78 0 212.98 42.75 290.6 120.38 77 77 119.67 179.17 120.35 287.96H813.3c-.68-82.75-33.2-160.45-91.8-219.04-59.2-59.2-137.92-91.82-221.66-91.82-83.74 0-162.46 32.6-221.67 91.82-58.6 58.6-91.11 136.3-91.8 219.04H88.92c.68-108.8 43.33-210.97 120.34-287.96m598.82 290.6c0 82.32-32.07 159.73-90.28 217.94-58.2 58.2-135.62 90.27-217.94 90.27-82.33 0-159.74-32.06-217.95-90.27-58.2-58.21-90.27-135.62-90.27-217.95 0-82.32 32.05-159.73 90.27-217.94 58.22-58.21 135.62-90.28 217.95-90.28 82.32 0 159.73 32.07 217.94 90.28 58.21 58.21 90.28 135.62 90.28 217.94Zm-17.62 290.6c-77.63 77.62-180.83 120.37-290.6 120.37-109.78 0-212.98-42.75-290.6-120.38-77-77-119.66-179.18-120.34-287.97h97.48c.68 82.74 33.2 160.44 91.79 219.03 59.21 59.22 137.93 91.82 221.67 91.82 83.74 0 162.45-32.6 221.67-91.82 58.59-58.59 91.1-136.29 91.79-219.03h97.48c-.68 108.8-43.33 210.96-120.34 287.96" />
    <path fill="#FB91A3"
      d="m251.24 264-6.32 8.03-23.02.33-14.76 18.74 14.07 11.08-5.27 6.7-33.48-26.36 5.26-6.7 13.4 10.54 14.5-18.41-4.18-22.26 6.32-8.03 5 26.7 28.48-.35Zm48.31-51.13s5.09 5.75-1 10.8l-34.13 28.27c-5.9 4.9-10.8-1-10.8-1l-22.3-26.9 6.56-5.44 22.3 26.9 32.81-27.19-22.3-26.9 6.56-5.43 22.3 26.9v-.01Zm7.25-44.97 48.9 11.38-14.74-28.83 7.58-3.88 19.4 37.93-7.58 3.9-48.88-11.4 14.73 28.84-7.58 3.88-19.4-37.93 7.58-3.9Zm73.07-31.97-8.08 2.73 13.63 40.37 8.08-2.73-13.63-40.37Zm86.33 6.1 1.75 10.07s1.32 7.55-7.06 9.02l-50.36 8.81-1.31-7.55 50.35-8.81-1.76-10.07-41.96 7.34c-8.4 1.47-9.71-6.08-9.71-6.08l-1.62-9.23s-1.33-7.56 7.06-9.03l49.53-8.67 1.32 7.55-49.52 8.66 1.62 9.24 41.96-7.34a7.8 7.8 0 0 1 9.71 6.08m81.13-15.38-.65 13.61s-.36 7.66-8.88 7.25l-42.55-2.03-.65 13.62-8.52-.4 2.04-42.56 51.06 2.44c8.52.4 8.15 8.07 8.15 8.07Zm-51.07-2.45-.65 13.62 42.56 2.03.65-13.61-42.56-2.04Zm131.1 22.08-7.28 26.27s-2.05 7.4-10.26 5.11l-41.07-11.39c-8.2-2.28-6.15-9.66-6.15-9.66l7.28-26.28s2.05-7.39 10.26-5.11l41.07 11.39c8.2 2.28 6.15 9.67 6.15 9.67ZM578.1 132.6l-7.28 26.27 41.06 11.4 7.28-26.28-41.06-11.39Zm101.16 78.32-2.51-16.85-29.25-15.8-6.48 12-7.5-4.06 20.26-37.48 44.99 24.3c7.5 4.06 3.85 10.8 3.85 10.8l-6.48 12s-3.64 6.75-11.15 2.7l2.52 16.85-8.25-4.45Zm15.87-31.14-37.5-20.26-6.48 12 37.5 20.26 6.48-12Zm68.23 52.79-19.55-16.48-22.52 26.72-6.52-5.5 22.52-26.7-19.54-16.5 4.93-5.86 45.62 38.45-4.94 5.87Zm35.94 70.79-8.06 6.28s-6.06 4.71-11.3-2l-31.4-40.36 6.05-4.71 31.4 40.34 8.08-6.28-26.18-33.62a7.8 7.8 0 0 1 .82-11.43l7.4-5.76s6.05-4.7 11.29 2.01l30.89 39.67-6.05 4.71-30.9-39.67-7.38 5.76 26.18 33.62c5.24 6.73-.82 11.44-.82 11.44M213.84 757.68l-6.2-8.12 5.44-22.37-14.47-18.98-14.23 10.86-5.17-6.77 33.88-25.85 5.16 6.77-13.55 10.34 14.22 18.64 22.59 1.5 6.21 8.14-27.12-1.82-6.76 27.66Zm63.66 46.69s-4.78 6-10.8.85L233 776.44c-5.83-4.98-.85-10.81-.85-10.81l22.7-26.57 6.48 5.53-22.7 26.57 32.4 27.68 22.7-26.57 6.49 5.53-22.7 26.57h-.01Zm44.3-13.29 18.71 46.58 15.17-28.61 7.53 3.99-19.96 37.65-7.53-4-18.7-46.58-15.18 28.61-7.52-4 19.96-37.63 7.52 4Zm58.78 27.7-14.25 40.16 8.04 2.85 14.24-40.16-8.03-2.85Zm78.97 44.9-1.91 10.05s-1.44 7.53-9.81 5.94l-50.23-9.57 1.44-7.54 50.22 9.57 1.92-10.04-41.86-7.98c-8.37-1.6-6.93-9.13-6.93-9.13l1.75-9.2s1.44-7.53 9.8-5.94l49.4 9.4-1.43 7.54-49.4-9.41-1.75 9.2 41.85 7.97c8.38 1.6 6.94 9.13 6.94 9.13m81.25-17.3.44 13.62s.25 7.67-8.27 7.94l-42.59 1.4.45 13.62-8.52.28-1.39-42.59 51.1-1.66a7.8 7.8 0 0 1 8.77 7.39Zm-51.1 1.66.44 13.63 42.58-1.39-.44-13.62-42.59 1.4v-.02Zm125.41-19.26 6.9 26.38s1.95 7.43-6.3 9.58l-41.23 10.78c-8.24 2.16-10.19-5.26-10.19-5.26l-6.9-26.39s-1.95-7.42 6.3-9.57l41.23-10.78a7.81 7.81 0 0 1 10.2 5.26Zm-49.47 12.93 6.9 26.38 41.23-10.77-6.9-26.38-41.23 10.78Zm128.9-12.62-15.37-7.37-29.47 15.37 6.3 12.09-7.57 3.94-19.68-37.8 45.34-23.62a7.8 7.8 0 0 1 11.1 2.86l6.3 12.1s3.55 6.8-4 10.73l15.37 7.37-8.3 4.33h-.02Zm-16.9-30.6-37.8 19.69 6.3 12.09 37.8-19.7-6.3-12.08Zm64.37-48.67L722.22 766l22.12 27.04-6.6 5.4-22.11-27.05-19.8 16.18-4.85-5.93 46.17-37.76 4.86 5.93Zm59.56-44.83 7.98 6.4s5.98 4.8.65 11.45l-32.02 39.86-5.98-4.8 32.01-39.86-7.97-6.4-26.68 33.23c-5.33 6.64-11.3 1.83-11.3 1.83l-7.32-5.86s-5.99-4.8-.65-11.44l31.47-39.21 5.97 4.8-31.47 39.21 7.32 5.87 26.67-33.22c5.34-6.64 11.31-1.85 11.31-1.85" />
  </g>
  <defs>
    <clipPath id="a">
      <path fill="#fff" d="M63.1 63h873.49v873.49H63.09z" />
    </clipPath>
  </defs>
</svg>