<svg xmlns="http://www.w3.org/2000/svg" fill="none" viewBox="0 0 1001 1000">
  <g clip-path="url(#a)">
    <path fill="#010101" d="M215.1 74v726l285 127 285-127V74h-570Z" />
    <path fill="#fff" d="M775.4 793.7 500 916.2 224.8 793.7v-710h550.6v710Z" />
    <path fill="#010101" d="M233.4 92.3v695.9L500 906.9l266.7-118.7v-696H233.4Z" />
    <path fill="#fff" d="M749.8 777.1 500.1 888.3 250.4 777V109.3h499.4v667.8Z" />
    <path fill="#010101"
      d="M279.8 294v464.3L328 780V611.8l98.3 43.9V293.9H279.8Zm98 271.3-49-21.9v-201h49v223ZM573.5 294v529.3L720 758V294H573.5Zm97.6 437-49 20.4v-409h49V731ZM524.5 337.2v508.4L500.1 856l-24.5-10.4V337.2a58.6 58.6 0 0 0 49 0Z" />
    <path fill="#FDCF1F" d="M445.8 269.1h-166v-72.6h165.8v67.9l.2 4.7Zm274.6-72.6V269h-166l.1-4.7v-68h165.9Z" />
    <path fill="#010101"
      d="M293 138.7v6.7h3.5v20.8h-3.4v6h14.3v-6H304V159h6.9v-6.4H304v-7h8v4.7h7.1v-11.5h-26Zm54.7 0v6.1h3.5v14c0 1.3-.1 2.4-.4 3.3-.2 1-.6 1.6-1.1 2.2-.5.5-1.2.9-1.9 1.1a8.1 8.1 0 0 1-4.7 0c-.7-.3-1.3-.7-1.8-1.3-.5-.5-1-1.3-1.2-2.1-.3-1-.5-2-.5-3.3v-14h3.1v-6h-13.5v6h3v13.6a16.4 16.4 0 0 0 3.9 10.6 12 12 0 0 0 4.1 2.8 13.2 13.2 0 0 0 10.2 0 12 12 0 0 0 4.2-2.9c1.2-1.3 2.2-2.8 2.8-4.6.7-1.9 1-4 1-6.3v-13.1h2.7v-6.1h-13.4Zm24.5 0v10.2h7.2v-4.3h4.1v21.6H380v6h14.4v-6h-3.6v-21.6h4.7v4.3h7.2v-10.2h-30.5ZM441 158c-.6-1-1.5-1.8-2.6-2.5 1-.7 1.9-1.5 2.5-2.6.5-1 .8-2.4.8-4a10.1 10.1 0 0 0-10.3-10.2H415v6h3.4v21.5H415v6h17a9.7 9.7 0 0 0 9.4-6.2c.5-1.2.7-2.6.7-4.1a7 7 0 0 0-1-3.8m-15.2-13.3h5.3c.4 0 .8 0 1.1.3.4.2.7.5 1 1a4.3 4.3 0 0 1 .7 3.9l-.7 1.2-1 .8a2 2 0 0 1-1.1.3h-5.3v-7.5Zm8.4 19-.7 1.2-1 .9a2 2 0 0 1-1.1.3h-5.6v-7.8h5.6c.4 0 .8 0 1.2.3a3.7 3.7 0 0 1 1.6 2c.2.5.2 1 .2 1.5 0 .6 0 1-.2 1.5m51.4-12.9a18.4 18.4 0 0 0-4.2-7.6A16 16 0 0 0 470 138a15.4 15.4 0 0 0-11.6 5 16.6 16.6 0 0 0-4.1 7.8 18.6 18.6 0 0 0 4.1 16.9 15.7 15.7 0 0 0 25.6-3.5 18.2 18.2 0 0 0 1.7-13.5Zm-7.7 8.7c-.4 1.3-1 2.4-1.8 3.3a7.5 7.5 0 0 1-6.3 3c-1.2.1-2.4-.2-3.5-.7-1-.6-2-1.3-2.7-2.3-.8-1-1.4-2-1.8-3.3a12.7 12.7 0 0 1 0-8 10 10 0 0 1 4.5-5.7c1.1-.5 2.3-.8 3.6-.8 1.2 0 2.4.3 3.4.8a9.6 9.6 0 0 1 4.6 5.6 12.5 12.5 0 0 1 0 8.1Zm41.4.5v4.4c0 .2 0 .4-.2.6a2.3 2.3 0 0 1-.8 1 1 1 0 0 1-.5.2h-7.4v-21.4h3.6v-6.1h-14.4v6.1h3.5v21.4h-3.5v6h26.9V160h-7.2Zm59.9.8a8.3 8.3 0 0 1-7.3 5.1 8.2 8.2 0 0 1-6.3-3.1 12.2 12.2 0 0 1 0-14.7 9 9 0 0 1 2.8-2.3c1-.5 2.2-.8 3.4-.8.9 0 1.7.1 2.5.3a7 7 0 0 1 2.1 1.1 11 11 0 0 1 2.2 2.5h6.9v-7.5h-5a13.4 13.4 0 0 0-4-2.6 13 13 0 0 0-4.7-.7 15.2 15.2 0 0 0-11.5 5 18 18 0 0 0-4.1 17 19 19 0 0 0 4.1 7.7 16.1 16.1 0 0 0 7.2 4.5 15.8 15.8 0 0 0 13.6-2.3 14 14 0 0 0 5.2-7.3l-7.1-2Zm40.6-.8v4.4l-.1.6a2.3 2.3 0 0 1-.9 1c-.2.2-.3.2-.5.2H611v-21.4h3.5v-6.1h-14.4v6.1h3.5v21.4h-3.5v6H627V160h-7.2Zm36.3-21.3v6.1h3.5v14c0 1.3-.1 2.4-.4 3.3-.3 1-.6 1.6-1.2 2.2a4 4 0 0 1-1.8 1.1 8 8 0 0 1-4.7 0c-.7-.3-1.3-.7-1.8-1.3-.5-.5-1-1.3-1.2-2.1-.3-1-.5-2-.5-3.3v-14h3.1v-6h-13.5v6h3v13.6a16.4 16.4 0 0 0 3.9 10.6c1.2 1.2 2.5 2.2 4.1 2.8a13.2 13.2 0 0 0 10.3 0 11 11 0 0 0 4.2-2.9c1.1-1.3 2-2.8 2.8-4.6.6-1.9 1-4 1-6.3v-13.1h2.7v-6.1h-13.5Zm52.6 19.3c-.6-1-1.5-1.8-2.6-2.5 1-.7 1.8-1.5 2.4-2.6a8 8 0 0 0 .8-4 10.3 10.3 0 0 0-2.9-7.2 10.3 10.3 0 0 0-7.4-3h-16.4v6h3.5v21.5h-3.5v6h17a9.8 9.8 0 0 0 9.4-6.2c.4-1.2.7-2.6.7-4.1 0-1.6-.4-2.8-1-3.8m-15.3-13.3h5.3c.4 0 .8 0 1.2.3.3.2.7.5 1 1a4.6 4.6 0 0 1 .8 2.5c0 .5 0 1-.2 1.4l-.7 1.2c-.2.3-.6.6-1 .8a2 2 0 0 1-1.1.3h-5.3v-7.5Zm8.4 19-.6 1.2-1 .9-1.2.3h-5.6v-7.8h5.6c.4 0 .8 0 1.2.3.4.2.7.4 1 .8.3.3.5.8.6 1.2l.3 1.5c0 .6 0 1-.3 1.5M333 228.2v-8.4h-19.6v4.9h2.6v15.2h-2.6v4.4H333v-8.8h-5.2v4.4h-6.3v-5.7h4.8v-4.7h-4.8v-4.8h6.3v3.5h5.2Zm23.7-.1v-4.8h-1.6a6 6 0 0 0-1-1.6 9.6 9.6 0 0 0-6.8-2.6 10.1 10.1 0 0 0-6.4 1.9c-.7.6-1.3 1.4-1.8 2.3-.4.9-.6 2-.6 3.1a6.5 6.5 0 0 0 3.4 6.2c.6.4 1.3.7 2 .9l3.7 1.2 1 .3 1 .5.6.7c.2.3.3.6.3 1 0 .8-.3 1.5-.8 2-.5.4-1.2.6-2.2.6a5 5 0 0 1-1.7-.3c-.4-.1-.8-.4-1.1-.7a3.1 3.1 0 0 1-1-2.4v-1H338v4.9h1.6a7.9 7.9 0 0 0 5.3 4.2l2.7.3c1.4 0 2.6-.2 3.7-.6a7.5 7.5 0 0 0 5.3-7.4 7.5 7.5 0 0 0-1.3-4.2 6 6 0 0 0-1.4-1.4 7 7 0 0 0-1.7-.9l-4.4-1.5a32.5 32.5 0 0 0-2.3-.8c-.3-.1-.6-.4-.8-.7-.2-.2-.3-.6-.3-1.1 0-.4 0-.7.2-1l.6-.7a3 3 0 0 1 1-.4l1.1-.1c.5 0 .9 0 1.3.2l1.1.5c.4.3.6.6.8 1 .2.2.4.6.4 1v1.4h5.9Zm4.3-8.3v7.5h5.3V224h3v15.8h-2.6v4.4h10.5V240h-2.6v-15.8h3.4v3.2h5.3v-7.5H361Zm28.8 20.7a3 3 0 0 0-1.7-1.7 3 3 0 0 0-1.2-.2 3 3 0 0 0-3 1.9 3 3 0 0 0-.2 1.2 3.1 3.1 0 0 0 6 1.3 3 3 0 0 0 0-2.5m227.3-8.7a10 10 0 0 0 1.6-2.3 6 6 0 0 0 .6-2.7c0-1.2-.3-2.2-.7-3.2-.4-.9-1-1.6-1.7-2.3a7.7 7.7 0 0 0-2.6-1.4 9.3 9.3 0 0 0-6.2 0c-1 .4-1.9 1-2.6 1.6-.8.7-1.4 1.6-1.8 2.6-.4 1-.6 2-.6 3.4h4.9c0-.5 0-.9.2-1.3.1-.4.3-.7.6-1a3 3 0 0 1 1-.7l1.4-.2c.4 0 .8 0 1.2.2.3.1.6.3.8.6a2.4 2.4 0 0 1 .8 1.7c0 .8-.2 1.5-.6 2.2-.4.7-1 1.4-1.7 2.1l-8.5 9v4.3h16v-5H610l7-7.6Zm26.4-4.6a12 12 0 0 0-1.7-4 8.2 8.2 0 0 0-7.4-3.7c-1.7 0-3.2.4-4.4 1a8.3 8.3 0 0 0-3 2.7c-.7 1.2-1.3 2.5-1.6 4a23 23 0 0 0 0 9.8c.3 1.5.9 2.9 1.7 4a8 8 0 0 0 3 2.6c1.1.6 2.6 1 4.3 1a9 9 0 0 0 4.4-1 8.2 8.2 0 0 0 3-2.7 12 12 0 0 0 1.7-4 21.8 21.8 0 0 0 0-9.7m-4.9 7.8c0 1-.3 1.8-.6 2.4-.3.7-.7 1.3-1.3 1.6a4 4 0 0 1-2.3.6 4 4 0 0 1-2.3-.6c-.5-.4-1-.9-1.3-1.6a8 8 0 0 1-.5-2.4 31.5 31.5 0 0 1 0-6c0-.9.3-1.7.6-2.4s.7-1.2 1.3-1.6a4 4 0 0 1 2.3-.6c1 0 1.7.2 2.2.6.6.4 1 1 1.3 1.6.3.7.5 1.5.6 2.4a30.7 30.7 0 0 1 0 6m25.1-3.2c.7-.7 1.2-1.5 1.6-2.3a6 6 0 0 0 .6-2.7c0-1.2-.2-2.2-.6-3.2a7.5 7.5 0 0 0-4.3-3.7c-1-.3-2-.5-3.1-.5s-2.2.2-3.2.6a7.4 7.4 0 0 0-5 7.5h5l.1-1.3.7-1c.2-.3.5-.5 1-.7l1.3-.2c.5 0 .9 0 1.2.2.4.1.6.3.9.6a2.6 2.6 0 0 1 .7 1.7c0 .8-.2 1.5-.6 2.2-.4.7-1 1.4-1.7 2.1l-8.4 9v4.3h16v-5h-9.2l7-7.6Zm22.4 0c.7-.7 1.2-1.5 1.6-2.3a6 6 0 0 0 .6-2.7c0-1.2-.2-2.2-.7-3.2-.4-.9-1-1.6-1.7-2.3a7.5 7.5 0 0 0-2.6-1.4 9.3 9.3 0 0 0-6.2 0 7.3 7.3 0 0 0-4.4 4.2c-.4 1-.6 2-.6 3.4h4.9c0-.5 0-.9.2-1.3a2.9 2.9 0 0 1 1.6-1.7l1.4-.2c.4 0 .8 0 1.2.2l.9.6a2.6 2.6 0 0 1 .7 1.7c0 .8-.2 1.5-.6 2.2-.4.7-1 1.4-1.7 2.1l-8.5 9v4.3h16v-5H679l7-7.6Z" />
    <path fill="#FFFCEF" d="M545.3 264.4a45.3 45.3 0 0 1-45.2 45.2 45.3 45.3 0 0 1-45.2-45.2v-58.7h90.4v58.7Z" />
    <path fill="#010101"
      d="M445.6 196.5v67.9l.2 4.7a54.4 54.4 0 0 0 108.7-4.7v-68H445.6Zm54.5 113a45.3 45.3 0 0 1-45.2-45.1v-58.7h90.4v58.7a45.3 45.3 0 0 1-45.2 45.2Z" />
    <path fill="#FFFCEF" d="M545.3 205.7v58.7a45.3 45.3 0 0 1-45.2 45.2 45.3 45.3 0 0 1-45.2-45.2v-58.7h90.4Z" />
    <path fill="#010101" d="M508.9 244.3a4 4 0 1 0 0-7.9 4 4 0 0 0 0 8Z" />
    <path fill="#010101"
      d="M523.8 235a15.5 15.5 0 0 0-7.1-8 9.3 9.3 0 0 0 2.5-6.4v-9.4h-4.7c-3.5 0-6.6 2-8.1 4.9l-1.2-.1h-9.4v4.6c0 2.3.8 4.4 2.3 6a13 13 0 0 0-6.9 11.5v.1a28 28 0 1 0 33.7 27.4v-14.8c.4.2.9.3 1.4.3a2.9 2.9 0 0 0 0-5.8h-1.4v-1.1h7c.4 0 .7-.4.7-.8a9.2 9.2 0 0 0-8.8-8.4m-19.6-.7h5.3c3.4 0 6.1 2.8 6.1 6.2v7.6h-5.1a10 10 0 0 1-10-10c0-2 1.7-3.8 3.7-3.8Zm-4.1 49.8a18.8 18.8 0 0 1-6.6-37 19.4 19.4 0 0 0 17 10.2h5.1v8.3c0 1.2 0 2.3-.3 3.5a18.8 18.8 0 0 1-15.2 15" />
    <path fill="#010101"
      d="M491 270.8a8.2 8.2 0 0 1 0-11.7l-4.3-4.4a14.3 14.3 0 0 0 0 20.4 14.4 14.4 0 0 0 20.4 0l-4.4-4.3a8.3 8.3 0 0 1-11.7 0" />
  </g>
  <defs>
    <clipPath id="a">
      <path fill="#fff" d="M215.1 74h570v852.9h-570z" />
    </clipPath>
  </defs>
</svg>