<svg xmlns="http://www.w3.org/2000/svg" fill="none" viewBox="0 0 1001 1000">
  <g clip-path="url(#a)">
    <path fill="#000" d="M500 934a434 434 0 1 0 0-868 434 434 0 0 0 0 868Z" />
    <path fill="#D50D4C" d="M500 916.2a416.2 416.2 0 1 0 0-832.5 416.2 416.2 0 0 0 0 832.5Z" />
    <path fill="#000" d="M500 788.4a288.4 288.4 0 1 0 0-576.9 288.4 288.4 0 0 0 0 576.9Z" />
    <path fill="#000" d="M500 757.9a258 258 0 1 0 0-515.9 258 258 0 0 0 0 515.9Z" />
    <path fill="#fff"
      d="m117.2 501.2 54-4 2.2 29.6c.6 8.7-3.4 13.4-12.2 14l-7.7.6c-8.7.7-13.4-3.4-14-12.1l-1.7-21.8-20 1.5-.6-7.8Zm28.3 5.7 1.6 21.4c.2 2 .7 3.5 1.7 4.3 1 .9 2.5 1.2 4.5 1l7-.4c2-.2 3.5-.8 4.3-1.7.8-1 1.2-2.5 1-4.6l-1.6-21.4-18.5 1.4Z" />
    <path fill="#fff"
      d="M151.8 545.9c-4.6 0-8.4-1.3-11.2-3.7-3.3-2.8-5.2-7-5.6-12.6l-1.3-17.4-20 1.5-1.2-16.5 62.7-4.7 2.6 34c.8 11-5.1 17.9-16.3 18.7l-7.7.6h-2Zm0-16.7h1.2l7-.5 1.2-.2v-1.3l-1.2-17-9.8.7 1.3 17c0 .7.1 1.1.2 1.3Zm11 128.1a7.5 7.5 0 0 1-6 0 7.7 7.7 0 0 1-4.2-4.2l-11.8-28.6a7.5 7.5 0 0 1 0-5.9 7.7 7.7 0 0 1 4.2-4.2l35.6-14.8a7.7 7.7 0 0 1 10.2 4.2l11.8 28.5c.4 1 .6 2 .6 3a8 8 0 0 1-2.2 5.4c-.7.7-1.6 1.3-2.5 1.7l-35.7 14.9Zm20.8-50.6L148 621.6l11.9 28.5 35.7-14.8-11.9-28.6Z" />
    <path fill="#fff"
      d="M159.8 662.3a12.2 12.2 0 0 1-11.2-7.5l-11.9-28.6a12 12 0 0 1 6.6-15.8l35.6-14.9a12 12 0 0 1 13.2 2.6c1.1 1 2 2.4 2.7 4l11.9 28.5a11.7 11.7 0 0 1-.1 9.3 12 12 0 0 1-6.5 6.6l-35.7 14.8c-1.5.6-3 1-4.6 1Zm-6.1-38.3 8.5 20.4 27.5-11.5-8.5-20.4-27.5 11.5Zm98 112.4c-5.7 5-11 5.3-16 1.2l-10 22-5.6-6.5 9.8-21.7-11.1-12.8-16.3 14.2-5.1-5.9 40.9-35.5 19.4 22.4c5.7 6.6 5.3 12.8-1.3 18.6l-4.7 4Zm-27-22.9 14 16.2c1.4 1.6 2.7 2.4 4 2.5 1.2.1 2.7-.5 4.2-1.9l4-3.5c1.6-1.4 2.5-2.7 2.6-4 0-1.2-.6-2.7-2-4.2l-14-16.2-12.9 11.1Z" />
    <path fill="#fff"
      d="M227 767.7 215 754l9.7-21.7-6.4-7.4L202 739l-10.8-12.5 47.5-41.3L261 711c7.3 8.4 6.6 17.4-1.8 24.7l-4.6 4c-6.8 6-12.7 5.8-17 4.2L227 767.7Zm3.8-53.7 11.2 12.9 1 .9 1-.8 4-3.5 1-1-.8-1-11.2-13-6.2 5.5Zm77.9 55.3a7.5 7.5 0 0 1 4.7-3.5c1-.2 2-.3 3-.2 1 .2 2 .5 2.9 1l25.2 15.2a7 7 0 0 1 2.2 2c.6.9 1 1.8 1.3 2.8a7.5 7.5 0 0 1-.9 5.8l-3.6 6-6.6-4 3.6-6-25.2-15.1-19.9 33.1 25.2 15.1 3.6-6 6.6 4-3.6 6c-.5 1-1.2 1.7-2 2.3a7.8 7.8 0 0 1-8.6.4L291.4 813a7.6 7.6 0 0 1-3.5-4.7 7.8 7.8 0 0 1 .9-5.9l19.9-33Z" />
    <path fill="#fff"
      d="M320.6 833.7a12.5 12.5 0 0 1-6.3-1.8l-25.2-15a12.2 12.2 0 0 1-5.7-12.2 12 12 0 0 1 1.6-4.5l19.9-33.2a12 12 0 0 1 7.5-5.5 12.4 12.4 0 0 1 9.2 1.4l25.1 15.1c1.5.9 2.7 2 3.6 3.3a12 12 0 0 1 .6 13.3l-5.9 9.8-14.2-8.5 3.6-6-17.6-10.5-15.4 25.5 17.7 10.6 3.5-6 14.2 8.6-5.8 9.7a12 12 0 0 1-10.4 5.9Zm94.8-24.2L401 861.7l-7.4-2.1 14.5-52.1 7.4 2Z" />
    <path fill="#fff"
      d="m405 802-17 60.6 16 4.4 16.8-60.6L405 802Zm80 72.9-7.7.1-.9-54 7.8-.2 33.2 41.4-.7-42h7.7l1 54-7.8.2-33.2-41.5.7 42Z" />
    <path fill="#fff"
      d="m473 879.5-1-63 14.3-.2 26.5 33.1-.6-33.5 16.6-.2 1 62.9-14.3.2-26.5-33 .5 33.4-16.5.3ZM644 839a7.5 7.5 0 0 1-.3 6 7.7 7.7 0 0 1-4.4 3.9l-29.3 10c-1 .4-2 .5-3 .4a8 8 0 0 1-5.2-2.5 7.6 7.6 0 0 1-1.6-2.7l-12.6-36.5a7.4 7.4 0 0 1 .4-5.9 8 8 0 0 1 4.4-4l29.2-10c1-.4 2-.5 3-.4 1.1 0 2 .3 3 .8a7.5 7.5 0 0 1 3.9 4.4L644 839Zm-49-24 12.5 36.6 29.2-10-12.5-36.6-29.3 10Z" />
    <path fill="#fff"
      d="M607.5 863.7h-.8a12.1 12.1 0 0 1-10.6-8.2L583.5 819a12 12 0 0 1 3.3-13c1.2-1 2.6-1.9 4.2-2.4l29.2-10c1.6-.6 3.2-.8 4.9-.7a12.6 12.6 0 0 1 8.1 4 13 13 0 0 1 2.4 4.1l12.6 36.6a12 12 0 0 1-3.4 13 12 12 0 0 1-4.1 2.4l-29.2 10a12 12 0 0 1-4 .7Zm-7-46 9.8 28.3 20.8-7.2-9.7-28.2-20.9 7.2Zm107.3-32.1a7 7 0 0 1-2.7 1.4c-1 .2-2 .3-3 .2a7.7 7.7 0 0 1-5.1-3l-9.4-12.3a7.6 7.6 0 0 1-.6-8.5c.5-1 1.2-1.7 2-2.3l20.9-16c.8-.6 1.7-1 2.7-1.3a7.7 7.7 0 0 1 8 2.8l2 2.5-6 4.7-2-2.6-20.9 16 9.4 12.3 20.9-16a7.6 7.6 0 0 1 5.7-1.5 7.7 7.7 0 0 1 5.1 3l9.4 12.2a7.6 7.6 0 0 1 1.6 5.7 7.7 7.7 0 0 1-3 5.2l-21.5 16.4a7.7 7.7 0 0 1-8.5.6 7.6 7.6 0 0 1-2.3-2l-2.3-3 6.1-4.7 2.3 3 21.5-16.5-9.4-12.2-20.9 16Z" />
    <path fill="#fff"
      d="M716.6 810.5a11.8 11.8 0 0 1-6-1.6 12 12 0 0 1-3.6-3.2l-5-6.4 13.1-10 2.3 2.9L732 781l-4-5.3-17.4 13.3a11.9 11.9 0 0 1-9 2.4 12 12 0 0 1-8-4.6l-9.4-12.3a12.1 12.1 0 0 1 2.3-17l20.8-16a12.7 12.7 0 0 1 9-2.4 12 12 0 0 1 8 4.7l4.7 6-13.2 10.1-2-2.6L700 768l4 5.3 17.4-13.3a12 12 0 0 1 9-2.4 12.2 12.2 0 0 1 8 4.7l9.4 12.2a12 12 0 0 1 1 13.4 12 12 0 0 1-3.2 3.7L724 808a12.1 12.1 0 0 1-7.4 2.5Zm58.9-102 6.8-9 9 6.9-6.8 9-9-6.9Z" />
    <path fill="#fff"
      d="m785.3 721.5-16-12.1 12.2-16 16 12.1-12.2 16Zm-3.7-13.8 2 1.5 1.5-2-2-1.5-1.5 2Zm15.4-74.1 15-36.5 7.2 3-12 29.3 14.3 5.9 10.3-25 7.1 2.9-10.3 25 21.5 8.8-3 7.2-50-20.6Z" />
    <path fill="#fff"
      d="m849.5 659.9-58.2-24 18.4-44.5 15.3 6.2-12 29.4 6 2.5 10.4-25 15.3 6.3-10.3 25 21.4 8.8-6.3 15.3Zm-16.1-119.1a7.6 7.6 0 0 1-5.3-2.7 8.2 8.2 0 0 1-1.4-2.6c-.4-1-.5-2-.4-3l2.3-29.3a8.2 8.2 0 0 1 2.7-5.3 7.6 7.6 0 0 1 5.6-1.8l7 .6-.6 7.7-7-.6-2.3 29.3 38.5 3 2.3-29.2-6.9-.6.6-7.7 7 .6a7.6 7.6 0 0 1 5.2 2.7 8 8 0 0 1 1.9 5.6l-2.4 29.3a7.6 7.6 0 0 1-2.7 5.3 7.8 7.8 0 0 1-5.6 1.8l-38.5-3Z" />
    <path fill="#fff"
      d="M872.5 548.3h-1l-38.5-3a12 12 0 0 1-10.5-8.3c-.5-1.6-.7-3.2-.6-4.8l2.3-29.3a11.8 11.8 0 0 1 4.2-8.3 12 12 0 0 1 8.9-2.8l11.3.9-1.3 16.4-7-.5-1.6 20.5 29.8 2.4L870 511l-7-.6 1.4-16.5 11.3 1a12 12 0 0 1 10.6 8.2c.5 1.5.7 3.1.5 4.8l-2.3 29.3a12 12 0 0 1-8.3 10.5 12 12 0 0 1-3.8.6Zm-26.8-97.5a352 352 0 0 0-224-278.1c-160.4-61.2-346.3 8.8-427.6 159.8-17.7 31.9-30 67-37 102.8l-2.6 15.5v.2a6.2 6.2 0 0 1-12.3-1.8l2.1-16.1c6-37.6 17.9-74.4 35.3-108.3 136-259 505-259 640.9 0a358.5 358.5 0 0 1 35.3 108.3l2.1 16.1c.7 8.2-11 9.7-12.2 1.6Z" />
    <path fill="#F078A8"
      d="M664.9 474.3s-22.6-95.7 18.7-114.8c41.4-19.1 85.7-12.6 114.8-26 29.1-13.4 46.7-30 46.7-30l-2 50.2 21.9 5.8s-28 19.5-48.2 62.7c-20.3 43.2-55.9 68.1-100.3 72-44.3 3.8-51.6-20-51.6-20Z" />
    <path fill="#000"
      d="M707.2 500.3c-39.9 0-47.5-23.3-47.8-24.4l-.1-.3c-1-4.1-23.2-100.5 22-121.4 23.3-10.8 47.5-13.7 69-16.3 17-2 33.3-4 45.7-9.7 27.8-12.8 45-28.7 45.1-28.9a5.8 5.8 0 0 1 9.7 4.5l-1.7 45.5 17.4 4.6a5.8 5.8 0 0 1 1.8 10.3c-.3.2-27 19.3-46.3 60.5-20.8 44.5-58.1 71.2-105 75.2-3.4.3-6.7.5-9.8.5Zm-36.7-27.7c.7 2 8.4 19 45.5 15.8 42.6-3.7 76.5-28 95.5-68.6 13.8-29.4 31-48.1 41.2-57.6l-11-2.9a5.8 5.8 0 0 1-4.3-5.8l1.4-37.4a210.4 210.4 0 0 1-38 22.6c-14 6.5-31.1 8.5-49.2 10.7-21.6 2.6-43.8 5.3-65.5 15.3-30.2 14-21.6 82.4-15.6 108Z" />
    <path fill="#F078A8"
      d="M339.3 474.5s22.6-95.6-18.7-114.8c-41.4-19-85.7-12.6-114.8-26-29.1-13.4-50.9-28.5-50.9-28.5L161 354l-21.8 5.7s28 19.5 48.2 62.8c20.3 43.2 55.9 68 100.3 71.9 44.3 3.8 51.6-19.9 51.6-19.9Z" />
    <path fill="#000"
      d="M297 500.6c-3 0-6.4-.1-9.8-.4-46.9-4-84.1-30.8-105-75.3-19.4-41.3-46-60.2-46.3-60.4a5.8 5.8 0 0 1 1.8-10.3l17-4.5-5.5-43.8a5.8 5.8 0 0 1 9-5.4c.2.1 21.8 15 50 28 12.4 5.7 28.6 7.6 45.8 9.7 21.4 2.6 45.7 5.5 69 16.3 45 20.9 22.9 117.2 22 121.3l-.2.4c-.3 1-8 24.4-47.8 24.4ZM151.5 362.5a186.4 186.4 0 0 1 41.2 57.5c19 40.6 53 65 95.5 68.7 37.2 3.2 45-14.3 45.5-15.8 6-25.5 14.7-93.9-15.6-107.9-21.6-10-44-12.7-65.5-15.3-18-2.2-35.2-4.2-49.2-10.7a395 395 0 0 1-41.2-22.2l4.6 36.5a5.8 5.8 0 0 1-4.3 6.3l-11 2.9Z" />
    <path fill="#F078A8"
      d="M696.4 439.6c-51.6-104.1-182-116-194-116.8h-.9c-12 .9-142.4 12.7-194 116.8C246.8 562.2 293 645.8 319 670.3s57 41.7 109 53.4c48 10.8 70.8-3.9 74-6.3 3.4 2.4 26.2 17.1 74 6.3 52-11.7 83-29 109-53.4 26-24.5 72.1-108 11.4-230.7Z" />
    <path fill="#000"
      d="M543.3 733.7c-21.6 0-35-5.7-41.3-9.2-9.2 5.1-33.2 14.6-75.4 5-49.3-11-82.7-27.5-111.8-54.8-14.7-13.8-32.9-42.5-40-81.9-9-48.8.3-101.2 27.3-156 52-104.7 180-118.5 198.2-120a6 6 0 0 1 1.5 0h1.9c18.4 1.5 146.2 15.4 198.1 120.1 27 54.7 36.3 107.2 27.4 156-7.2 39.3-25.4 68-40 81.8-29.1 27.4-62.6 43.8-111.9 54.9-13 3-24.3 4-34 4ZM502 711.4a6 6 0 0 1 3.5 1.1c2.3 1.6 23.3 15.6 69.2 5.3 47-10.6 78.8-26.1 106.2-52 13.2-12.4 29.7-38.7 36.4-75.1 8.4-46.2-.4-96.1-26.3-148.4-21-42.2-57.5-74-108.7-94.2a290 290 0 0 0-80.3-19.3 290 290 0 0 0-80.4 19.3c-51.2 20.3-87.7 52-108.6 94.2-26 52.3-34.8 102.2-26.4 148.4 6.7 36.4 23.2 62.7 36.4 75.2 27.4 25.8 59.2 41.3 106.3 52 45.8 10.3 66.9-3.8 69.1-5.4a6 6 0 0 1 3.6-1.1Z" />
    <path fill="#F078A8"
      d="M497.6 791.6c41.5 0 75.2-31.1 75.2-69.4 0-38.3-33.7-69.4-75.2-69.4-41.6 0-75.3 31-75.3 69.4 0 38.3 33.7 69.4 75.3 69.4Z" />
    <path fill="#000"
      d="M497.6 796.5c-44.2 0-80.2-33.4-80.2-74.3 0-41 36-74.3 80.2-74.3s80.1 33.3 80.1 74.3-36 74.3-80.1 74.3Zm0-138.8c-38.8 0-70.4 29-70.4 64.5s31.6 64.4 70.4 64.4c38.7 0 70.3-28.9 70.3-64.4 0-35.6-31.6-64.5-70.3-64.5Z" />
    <path fill="#000"
      d="M495.7 764.3c26.5 0 48-19.8 48-44.2 0-24.4-21.5-44.2-48-44.2-26.4 0-47.9 19.8-47.9 44.2 0 24.4 21.5 44.2 48 44.2Z" />
    <path fill="#F078A8"
      d="M578 609.4c-31.2-28.5-76.7-26.3-76.7-26.3s-45.6-2.2-76.8 26.3c-44 40.2-57.3 93.1-37.9 120.7 19.4 27.5 54.9 17.5 78.6 7.1 20-8.8 52.9-9.8 72.2 0 23 11.7 59.1 20.4 78.5-7.1 19.4-27.6 6.1-80.5-37.8-120.7Z" />
    <path fill="#000"
      d="M578.9 754.2h-1c-17.8-.3-34.7-7.5-43.1-11.8-16.9-8.6-47.7-8.5-67.3.1-50 22-74.1 7.2-85.6-9-22.3-31.8-5.3-88.1 38.7-128.3 31.7-29 76.4-28 80.7-28 4.3 0 49-1 80.7 28 44 40.2 61 96.5 38.7 128.2a48.8 48.8 0 0 1-41.8 20.8Zm-76.6-29.7a86 86 0 0 1 37.7 7.6c11.7 5.9 51.3 23 71.2-5.3 16.3-23.2 6.8-73-37-113-29-26.6-72.2-25-72.7-25h-.5c-.4 0-43.6-1.6-72.6 25-43.9 40-53.4 89.8-37 113 13 18.5 37 20.3 71.4 5.1 11.3-5 25.6-7.4 39.5-7.4Z" />
    <path fill="#000"
      d="M434 690.3c10.3 8.8 24.6-18.3 29.9-28.4a69.7 69.7 0 0 1 15.4-18.3s-22.6-.5-33.7 10c-11.2 10.7-22 28-11.7 36.7Z" />
    <path fill="#000"
      d="M438.3 695.6c-2.4 0-4.7-.8-6.7-2.5a15 15 0 0 1-5.5-11.4c-.3-10.4 8.6-22.6 17-30.6 12-11.6 35.3-11.1 36.3-11.1a3.6 3.6 0 0 1 2.2 6.4c-.1 0-9.6 7.9-14.5 17.2-7.7 14.7-17 30-26.7 31.8-.7.2-1.4.2-2 .2Zm31.4-47.7c-7 .9-16 3.1-21.6 8.4-7.5 7.1-15 17.7-14.7 25.2 0 2.5 1 4.5 2.9 6 .8.8 1.7 1 2.7.8 5.1-1 12.4-10.4 21.7-28 2.5-4.8 5.9-9.1 9-12.4Zm95.6 42.4c-10.4 8.8-24.7-18.3-30-28.4a71 71 0 0 0-15.4-18.3s22.6-.5 33.7 10c11.2 10.7 22 28 11.7 36.7Z" />
    <path fill="#000"
      d="M560.9 695.6c-.7 0-1.4 0-2-.2-9.9-1.9-19-17.1-26.8-31.8a66 66 0 0 0-14.5-17.2 3.6 3.6 0 0 1 2.2-6.4c1 0 24.2-.5 36.3 11 8.4 8 17.3 20.3 17 30.7a15 15 0 0 1-5.5 11.4c-2 1.7-4.3 2.5-6.7 2.5ZM529.5 648a61 61 0 0 1 9 12.3c9.3 17.7 16.6 27.1 21.7 28.1a3 3 0 0 0 2.8-.8 7.8 7.8 0 0 0 2.8-6c.3-7.5-7.2-18-14.7-25.2a39.9 39.9 0 0 0-21.6-8.4Zm-72.2-75.6c11.9-25.2 46.7-31.9 70.3-20a52 52 0 0 1 20.1 16.5c-15-6.9-30-11.6-46.1-11.4a75.7 75.7 0 0 0-44.3 14.9Zm19.7-33.9c8.8-20 39.9-19.4 51.1-2-17-7.3-35.2-8.8-51.2 2Z" />
    <path fill="#F078A8" d="m337.9 399 19 74.6-83.8-75.6 63-8.3 1.8 9.3Z" />
    <path fill="#000"
      d="M291.7 438.5c2-22.8-12.7-37.9-31.6-48.6a216 216 0 0 0-20.9-10.4c24.2 4 50.4 10 65.8 31.4a66 66 0 0 1 10.7 25.5l-24 2.1Z" />
    <path fill="#000"
      d="M297.2 449.8c-3.5-5.9-12-9-19-10.5a102.2 102.2 0 0 0-27.5-1.3 92 92 0 0 1 13-6.3c15.4-6 32.5-9.5 48.4-1l-15 19Z" />
    <path fill="#F078A8" d="m663.2 394.5-19 74.6 83.8-75.6-63-8.3-1.8 9.3Z" />
    <path fill="#000" d="M685.4 432c7.7-39.7 41-51.7 76.5-57a133 133 0 0 0-38.8 23.6 43 43 0 0 0-13.7 35.4l-24-2Z" />
    <path fill="#000"
      d="M689 426.3c19.8-10.8 43.6-2.7 61.5 7.2-9.2-.8-18.7-.6-27.6 1.3-7 1.6-15.5 4.7-19 10.5l-14.9-19Zm-129.4 56.4c-.7 11.4-1.3 23 5 32.7 6.7 9.8 19.5 15.6 30.3 21-15.2-2.4-31.8-4.4-43.3-16.4-9-9.5-13.1-23-16-35.2l24-2.1Z" />
    <path fill="#000"
      d="M560.2 487c-9.3 20.9-.4 39.9 14 56.3a196 196 0 0 0 16.3 16.6c-21.5-11.7-44.4-26-52-51.2-2.6-8.9-3-18.6-1.7-27.6l23.4 5.8Z" />
    <path fill="#000"
      d="M630.6 450c-.4 0-85 29.2-86 29.4-.3 3.6 2.6 17 3.8 20.3 6.6 17.7 32.2 28.5 58.5 19.1a43 43 0 0 0 30-49c-2.1-14.3-5.9-19-6.3-19.9Z" />
    <path fill="#fff" stroke="#000" stroke-miterlimit="10" stroke-width="4.5"
      d="M620.5 451.4c-.4 0-70.1 29-70.8 29.2-.3 3 .9 8.8 1.9 11.6 5.2 15.2 24.9 25.5 46.2 21.2 22-4.4 28.9-18.9 30.2-34.7 1-12-7.2-26.7-7.5-27.3Z" />
    <path fill="#000"
      d="M516.8 475.5s11.2 28.2 62.7 2.4c49.6-24.8 49.6-27.5 63-27.4 13.3.2 22.8 2.3 22.8 2.3L629 425.9s-31 13.9-53 30.2c-22 16.2-27.5 20.6-37.8 21.3-10.3.7-21.3-2-21.3-2Zm-72.3 8.9c.6 11.4 1.2 23-5 32.8-6.8 9.7-19.5 15.5-30.3 20.8 15.1-2.2 31.7-4.3 43.2-16.3 9-9.4 13.2-23 16.1-35.2l-24-2Z" />
    <path fill="#000"
      d="M443.8 488.7c9.3 20.9.4 40-14 56.3a211 211 0 0 1-16.2 16.6c21.5-11.6 44.3-26 51.9-51.2a66 66 0 0 0 1.7-27.6l-23.4 5.9Z" />
    <path fill="#000"
      d="M373.4 451.7c.5.1 85 29.3 86 29.4.3 3.6-2.5 17-3.8 20.4-6.6 17.7-32.1 28.4-58.5 19a43 43 0 0 1-29.9-49c2-14.2 5.8-19 6.2-19.8Z" />
    <path fill="#fff" stroke="#000" stroke-miterlimit="10" stroke-width="4.5"
      d="M383.6 453c.3.2 70 29.1 70.8 29.3.2 3-.9 8.8-2 11.7-5.2 15.1-24.8 25.4-46.1 21.1-22-4.4-28.9-18.9-30.2-34.7-1-12 7.1-26.6 7.5-27.3Z" />
    <path fill="#000"
      d="M487.3 477.2s-11.2 28.2-62.8 2.4c-49.6-24.8-49.5-27.5-62.9-27.3-13.3.1-22.9 2.2-22.9 2.2l36.4-26.9s31.1 14 53 30.2c22 16.3 27.6 20.6 37.8 21.3a82 82 0 0 0 21.4-1.9Z" />
    <path fill="#B92025"
      d="M503.3 369c89.2 0 161.6-37.4 161.6-83.6 0-46.1-72.4-83.6-161.6-83.6-89.3 0-161.6 37.5-161.6 83.6 0 46.2 72.3 83.7 161.6 83.7Z" />
    <path fill="#000"
      d="M503.3 375.8c-44.2 0-86-9-117.4-25.2-32.9-17-51-40.2-51-65.2s18.1-48 51-65C417.4 204 459.1 195 503.3 195s85.9 9 117.3 25.2c33 17 51 40.1 51 65.1 0 25-18 48.1-51 65.2-31.4 16.2-73.1 25.2-117.3 25.2Zm0-167.2c-42.1 0-81.6 8.4-111.2 23.7-28.1 14.6-43.7 33.5-43.7 53.1 0 19.7 15.6 38.6 43.7 53.2 29.6 15.3 69 23.7 111.2 23.7 42 0 81.6-8.4 111.1-23.7 28.2-14.6 43.7-33.5 43.7-53.2 0-19.6-15.5-38.5-43.7-53-29.5-15.4-69-23.8-111.1-23.8Z" />
    <path fill="#FFCF00"
      d="M599 265.7a37.6 37.6 0 0 1 18.4 33c0 20.6-15.2 37.2-34 37.2-18.7 0-33.9-16.6-33.9-37.1 0-14.7 7.8-27.3 19-33.4l-64.2-80.6-64.3 80.6c11.3 6 19 18.7 19 33.4 0 20.5-15.2 37-34 37-18.7 0-33.9-16.5-33.9-37 0-14.4 7.5-27 18.5-33L306.9 163.3 344 370.8s28.5 13.5 74.3 20.3c45 6.7 75.7 6 86 6 10.2 0 40.9.7 86-6a286.3 286.3 0 0 0 74.2-20.3l37-207.4L599 265.7Z" />
    <path fill="#000"
      d="M496.6 403.1c-14.5 0-42-.5-79.2-6-46-6.9-74.7-20.3-76-21a6 6 0 0 1-3.3-4.3L301 164.5a6 6 0 0 1 10.2-5.4l102.7 102.3a6 6 0 0 1-1.3 9.6 31.5 31.5 0 0 0-15.4 27.8c0 17.1 12.5 31 27.9 31 15.4 0 28-13.9 28-31 0-11.9-6.3-22.9-16-28a6 6 0 0 1-1.8-9.1l64.3-80.6a6 6 0 0 1 9.4 0l64.3 80.6a6 6 0 0 1-1.9 9 31.8 31.8 0 0 0-15.8 28c0 17.2 12.5 31.2 27.9 31.2 15.4 0 28-14 28-31.1 0-11.8-6-22.5-15.5-27.8a6 6 0 0 1-1.3-9.6l102.7-102.3a6 6 0 0 1 10.2 5.4l-37.1 207.3a6 6 0 0 1-3.4 4.4 290 290 0 0 1-76 20.9c-41.9 6.2-71.4 6-84 6h-10.5Zm-147.2-36.6c8.1 3.4 33.6 13.3 69.8 18.6 41 6.1 70 6 82.3 6h5.7c12.3 0 41.2.1 82.2-6a298.5 298.5 0 0 0 69.7-18.6l33.2-185.3-84 83.7a44.5 44.5 0 0 1 15.2 33.9c0 23.8-18 43.1-40 43.1s-40-19.3-40-43.1c0-14 6-26.7 16.2-34.8l-55.4-69.5-55.4 69.5a44 44 0 0 1 16.2 34.8c0 23.8-18 43.1-40 43.1s-40-19.3-40-43.1c0-13.4 5.7-25.8 15.2-33.9l-84-83.7 33.1 185.3Z" />
    <path fill="#B92025" d="m535 264.4-31.4 72.9-30-73 30-39.2 31.4 39.3Z" />
    <path fill="#000"
      d="M503.6 342.1a5 5 0 0 1-4.5-3l-30-72.9c-.7-1.6-.4-3.4.6-4.8l30-39.2a4.8 4.8 0 0 1 7.6 0l31.4 39.2a4.8 4.8 0 0 1 .7 4.9l-31.4 73a4.8 4.8 0 0 1-4.4 2.8Zm-24.5-77 24.6 59.8 25.7-59.8-25.7-32.2-24.6 32.2Z" />
    <path fill="#FFCF00"
      d="M665.8 399.7s-57.2 26.6-166.2 26.6c-109 0-158.1-26.6-158.1-26.6v-38.4s81.4 26 159.3 26c77.8 0 165-26 165-26v38.4Z" />
    <path fill="#000"
      d="M499.6 432.3c-109.3 0-159-26.2-161-27.3a6 6 0 0 1-3.1-5.3v-38.4a6 6 0 0 1 7.8-5.7c.8.2 81.5 25.7 157.5 25.7s162.4-25.5 163.3-25.8a6 6 0 0 1 7.7 5.8v38.4a6 6 0 0 1-3.5 5.5c-2.3 1-59.7 27.1-168.7 27.1Zm-152-36.4c12.3 5.5 61.2 24.4 152 24.4 90.7 0 146.3-19.1 160.2-24.6v-26.4c-23.3 6.3-94.7 24-159 24-64.4 0-130.8-17.5-153.3-24V396Z" />
  </g>
  <defs>
    <clipPath id="a">
      <path fill="#fff" d="M66.1 66H934v867.9H66.1z" />
    </clipPath>
  </defs>
</svg>