<svg xmlns="http://www.w3.org/2000/svg" fill="none" viewBox="0 0 161 161">
  <g clip-path="url(#a)">
    <path fill="#252E5B"
      d="M80.68 159.22a50.97 50.97 0 0 1-45.66-73.46L26 67.72l8.94 5.3.35-23.88 6.06 11.25c.63 1.3 1.22 2.42 1.77 3.36l-.59-4.66.2-.67C43 57.5 49.4 36.02 57.77 28l7.2-6.23-1.58 9.4c-.07.35-.13.76-.17 1.23a61.5 61.5 0 0 1 5.02-4.84c8.75-7.6 8.99-18.48 8.99-18.6l.31-6.68 5.27 4.16c6.2 5.4 8.99 10.83 10.2 14.96 1.22-.8 2.44-1.52 3.67-2.13l4.88-2.44v5.46c0 6.58 2.22 14.24 3.84 18.93.7-1.36 1.5-3.38 2.24-6.35l2.07-8.38 4.16 7.57c5.22 9.51 5.61 20.4 5.09 27.64l9.08-6.54-4.13 23.08 11.51.13-8.1 9.47a50.97 50.97 0 0 1-46.63 71.38" />
    <path fill="#fff" d="M130.2 108.3a49.41 49.41 0 1 1-98.82 0 49.41 49.41 0 0 1 98.83 0" />
    <path fill="#252E5B" d="M128.6 108.3a47.8 47.8 0 1 1-95.61 0 47.8 47.8 0 0 1 95.61 0" />
    <path fill="#fff"
      d="M54.7 141.24a.66.66 0 0 1 .14-.54l4.28-5.64c.13-.18.3-.27.48-.29.2-.01.38.05.57.2.18.13.3.3.34.49.04.19 0 .37-.14.55l-4.28 5.64a.65.65 0 0 1-.5.27.86.86 0 0 1-.56-.19.82.82 0 0 1-.34-.5Zm1.44-34.97-13.12-8.64L28.8 70.75l7.67 5.07v-22.1l3.55 7.33c2.25 4.64 4.07 7.04 5.34 8.28l-1.28-10.11.11-.38c.27-.9 6.56-22.02 14.64-29.75l4.45-4.27-1.33 6.02c-.34 1.5-.3 3.6-.12 5.62a47.97 47.97 0 0 1 7.42-7.77c9.34-8.12 9.5-19.6 9.5-19.71l.02-4.09 3.08 2.68C89 13.82 91.35 20.03 92.1 23.9a35.46 35.46 0 0 1 5.27-3.28l2.7-1.35v3.02c0 8.29 3.35 18.06 4.92 22.2 1.1-1.15 2.75-3.7 4.12-9.25l1.15-4.65 2.3 4.2c5.92 10.78 5.43 23.44 4.58 30.18l9.13-6.9-4.17 21.7 1.52-.02 9.17-.12-19.24 21.1-8.4 6.45-49.02-.9Z" />
    <path fill="#F6A018"
      d="m104.52 105.3 7.76-5.96 16.22-17.8-4.85.07-3.82.07 3.69-19.2-9.02 6.81s4.52-18.86-3.57-33.6c-2.76 11.14-6.85 11.54-6.85 11.54S98.2 33.59 98.2 22.29a34.78 34.78 0 0 0-7.66 5.32s.89-9.2-9.92-18.63c0 0 0 12.3-10.15 21.12-10.14 8.82-9.52 12.8-9.52 12.8s-1.83-7.98-.83-12.47C52.31 37.92 46 59.37 46 59.37l1.66 13.14S44 73.57 38.34 61.86v14.3l3.32 5.33-8.81-5.82L44.5 96.62l12.13 8.68h47.9Z" />
    <path fill="#F6EB64"
      d="M57.04 57.24a7.55 7.55 0 0 1-3.29-6.53c-2.62 7.86 0 15.86 0 15.86S50 63.6 50.11 60.58c-1.67 3.62-.02 12.62.04 12.92-.06-.22-2.11-7.93-2.11-14.04 0-5.03 9.96-23.75 9.96-23.75-5.8 13.57-3.38 19.47-.96 21.53m54.42-17.29s1.68 4.04 2.33 10.6c.69 6.82.1 13.89-2.87 20.07-1.2 2.5-2.54 3.65-2.54 3.65s.84-.73 2.43-6.15c.67-2.3 1.04-5.44 1.04-5.44l-3.6 3.94s4.29-6.36 3.95-13.89c-1.46 5.12-6.2 4.1-6.2 4.1s7.86 1.86 5.46-16.88m-19.33-8.71s.28-2.74 4.52-5.57c0 5.23-.32 10.34 5.23 22.76-2.31-3.35-4.44-9.4-5.64-13.18a41.28 41.28 0 0 1-1.13-4.63c-.23-1.18-.79-2.08-2.98.62ZM45.5 94.39l11.13 7.95-11.8-7.33-7.98-14.16L47.8 87.6 40.5 76l-1.24-9.65 2.18 9.04 10.78 16.18-9.92-4.12 3.2 6.95Zm68.93-22.22 6.73-5.83-3.47 14.36-.6 2.46 8.69-.39-15 15.47-6.82 4.32 6.32-4.65 12.22-13.57-7.45.11.72-2.7 2.76-11.81-13.56 13.63 9.46-11.4Zm-23.72-5.55S77.9 52.85 79.41 29.67C68.8 42.99 69.23 55.38 69.23 55.38s2.16-11.1 6.63-14.7c0 8.65 3.53 23.06 3.53 23.06s-1.21-9.51 0-13.83c0 6.2 11.31 16.71 11.31 16.71m1.43 12.31s5.64-4.94 4.49-10.61a89.08 89.08 0 0 1 2.78 5.43 8.71 8.71 0 0 1 .58 5.6l-.68 3.07.28-4.34a6.95 6.95 0 0 0-.57-3.3l-.3-.66-1.1 5.14.1-6.83s-.3 2-5.58 6.5M62.04 60.16s-.88 5.87-.88 11.11a12.1 12.1 0 0 0 4.48 9.41l-2.1-5 3.44.49s-4.11-1.52-3.8-5.83c1.4 2.15 5.67.25 5.67.25s-7.69 3.16-6.8-10.43" />
    <path fill="#fff"
      d="M80.8 82.07a26.23 26.23 0 1 1 0 52.47 26.23 26.23 0 0 1 0-52.47Zm0-1.5a27.77 27.77 0 0 0-27.74 27.74 27.77 27.77 0 0 0 27.73 27.73 27.77 27.77 0 0 0 27.74-27.73A27.77 27.77 0 0 0 80.8 80.57Z" />
    <path fill="#F4941D" d="M107.03 108.3a26.23 26.23 0 1 1-52.47 0 26.23 26.23 0 0 1 52.47 0Z" />
    <path fill="#fff"
      d="M41.84 124a5.1 5.1 0 0 1 .27-2.06.55.55 0 0 1 .3-.33.7.7 0 0 1 .54 0 .6.6 0 0 1 .34.3c.07.15.06.36 0 .63a4.39 4.39 0 0 0 .23 3.07c.22.48.46.8.75 1 .28.19.56.22.86.08.3-.14.49-.4.55-.77.06-.37 0-.93-.16-1.69a6.53 6.53 0 0 1-.14-2.78 2 2 0 0 1 1.15-1.42c.39-.17.8-.2 1.21-.09.43.12.83.38 1.2.76.38.38.71.87.98 1.47.3.66.47 1.3.49 1.92.01.62-.1 1.16-.38 1.6a.84.84 0 0 1-.32.33.7.7 0 0 1-.59-.06.59.59 0 0 1-.24-.28.75.75 0 0 1 0-.67c.16-.32.23-.68.22-1.1a3.23 3.23 0 0 0-.3-1.23c-.24-.5-.5-.87-.78-1.08-.28-.2-.56-.25-.83-.13-.27.13-.43.37-.48.72-.05.36 0 .91.15 1.66.17.83.24 1.53.23 2.1a2.8 2.8 0 0 1-.35 1.36 2.1 2.1 0 0 1-.96.82c-.4.19-.82.23-1.24.13-.42-.1-.82-.33-1.2-.7a6.12 6.12 0 0 1-1.51-3.56m4.57 8.8c0-.19.08-.35.25-.5l3.13-2.68a3.6 3.6 0 0 1 2.67-1 3.7 3.7 0 0 1 2.51 1.44c.5.58.82 1.17.96 1.79a3 3 0 0 1-.13 1.8 4.07 4.07 0 0 1-1.19 1.6l-3.13 2.68a.66.66 0 0 1-.53.18.83.83 0 0 1-.52-.31.83.83 0 0 1-.22-.56c0-.2.09-.36.25-.5l1.46-1.25-2.78-3.25-1.46 1.26a.65.65 0 0 1-.53.16.82.82 0 0 1-.52-.3.82.82 0 0 1-.23-.56m6.44 1.9.78-.67c.6-.51.93-1.03 1-1.56.07-.53-.13-1.07-.59-1.6-.92-1.09-1.99-1.11-3.19-.09l-.78.67 2.78 3.25Zm16.65 5.65c.08.17.07.36-.03.56l-.52 1.12a3.95 3.95 0 0 1-1.79 1.99c-.75.37-1.59.42-2.5.15l-.88 1.9a.65.65 0 0 1-.42.37.83.83 0 0 1-.6-.06.82.82 0 0 1-.43-.41.66.66 0 0 1 .02-.56l.88-1.9c-.8-.53-1.3-1.2-1.5-2.01-.21-.82-.1-1.7.35-2.66l.52-1.12a.7.7 0 0 1 .41-.39.83.83 0 0 1 .6.07c.21.1.36.24.44.42.07.18.07.36-.02.56l-.54 1.15c-.34.74-.43 1.4-.27 1.95.16.56.57.99 1.21 1.29.65.3 1.24.33 1.77.1.53-.24.97-.73 1.31-1.47l.54-1.16a.67.67 0 0 1 .42-.37.82.82 0 0 1 .6.07c.21.1.36.23.43.4m.85 8.65a.66.66 0 0 1-.13-.55l.65-4.08a3.59 3.59 0 0 1 1.39-2.49c.74-.53 1.69-.7 2.84-.53.75.12 1.38.37 1.89.75.5.37.86.85 1.06 1.44.21.6.25 1.26.14 2l-.65 4.07a.65.65 0 0 1-.3.48.82.82 0 0 1-.58.1.83.83 0 0 1-.54-.28.65.65 0 0 1-.13-.54l.3-1.9-4.22-.67-.3 1.9a.65.65 0 0 1-.3.47.83.83 0 0 1-.6.1.83.83 0 0 1-.52-.27Zm6.13-2.73.16-1.02c.13-.77.04-1.39-.25-1.83-.29-.45-.78-.73-1.48-.84-1.41-.23-2.24.44-2.48 2l-.17 1.02 4.22.67Zm5.59 3.92a.65.65 0 0 1-.28-.5l-.54-4.4c-.12-1.04.1-1.9.68-2.56a3.9 3.9 0 0 1 2.58-1.2 3.9 3.9 0 0 1 2.8.54c.72.5 1.15 1.28 1.28 2.32l.54 4.41a.7.7 0 0 1-.15.54.82.82 0 0 1-.54.26.83.83 0 0 1-.6-.12.65.65 0 0 1-.27-.49l-.55-4.45c-.08-.66-.32-1.15-.72-1.45-.4-.31-.95-.42-1.63-.34-.7.09-1.2.32-1.5.72-.32.4-.44.92-.36 1.59l.54 4.45a.66.66 0 0 1-.15.53.82.82 0 0 1-.55.27.81.81 0 0 1-.58-.12m13.03-2.94a5.1 5.1 0 0 1-2.05-.33.56.56 0 0 1-.32-.3.7.7 0 0 1 .02-.55.58.58 0 0 1 .3-.33c.15-.06.36-.05.63.03a4.56 4.56 0 0 0 3.08-.16c.48-.2.81-.44 1.01-.72.2-.28.24-.56.1-.86-.12-.31-.38-.5-.75-.57a5.05 5.05 0 0 0-1.7.11 6.64 6.64 0 0 1-2.78.08 2 2 0 0 1-1.38-1.2 1.68 1.68 0 0 1-.06-1.21c.13-.42.4-.81.79-1.18.39-.37.89-.68 1.49-.94a5 5 0 0 1 1.94-.43 3 3 0 0 1 1.6.41.9.9 0 0 1 .3.33c.07.19.04.38-.07.58a.62.62 0 0 1-.29.24.75.75 0 0 1-.66-.02 2.3 2.3 0 0 0-1.1-.24c-.41 0-.82.1-1.23.27-.52.22-.89.47-1.1.75-.22.27-.28.55-.16.82.12.28.36.44.71.5s.9.03 1.66-.1c.84-.15 1.54-.2 2.1-.18a2.8 2.8 0 0 1 1.36.38 2.12 2.12 0 0 1 .9 2.23c-.12.42-.36.8-.74 1.17a6.09 6.09 0 0 1-3.6 1.42m13.28-7.81a.66.66 0 0 1-.52-.2l-4.25-4.14c-.39-.39-.59-.8-.58-1.24 0-.44.2-.87.6-1.27l2.55-2.63a.81.81 0 0 1 .5-.28c.16-.02.31.04.45.18.14.13.2.28.19.45a.82.82 0 0 1-.27.5l-2.37 2.43a.47.47 0 0 0-.15.37c.01.14.08.27.21.4l1.26 1.22 2.1-2.15a.82.82 0 0 1 .5-.28c.16-.02.3.04.45.18.14.13.2.28.18.45a.83.83 0 0 1-.26.5l-2.1 2.15 2.08 2.03a.7.7 0 0 1 .22.51c-.01.2-.1.38-.26.55a.82.82 0 0 1-.53.27m4.06-4.63a.83.83 0 0 1-.66-.18.88.88 0 0 1-.34-.62.94.94 0 0 1 .22-.7.9.9 0 0 1 .64-.36.9.9 0 0 1 .67.2c.2.15.3.35.32.6a.93.93 0 0 1-.22.69.95.95 0 0 1-.63.37Zm3.11-4.45c-.61.4-1.28.6-2 .59a4.67 4.67 0 0 1-2.24-.66 4.7 4.7 0 0 1-1.72-1.57 3.54 3.54 0 0 1-.55-2.02c.02-.73.24-1.48.67-2.25a5.3 5.3 0 0 1 1.33-1.58 3.05 3.05 0 0 1 1.55-.72c.16-.02.3 0 .41.07.17.1.27.28.3.54a.58.58 0 0 1-.08.36.87.87 0 0 1-.57.42c-.4.08-.75.25-1.04.48-.3.25-.56.59-.82 1.03a2.57 2.57 0 0 0-.29 2.14 3.2 3.2 0 0 0 1.59 1.72c.82.47 1.58.61 2.28.45a2.6 2.6 0 0 0 1.68-1.37c.48-.87.62-1.7.4-2.5-.08-.32-.07-.57.03-.75a.6.6 0 0 1 .32-.27.68.68 0 0 1 .58.02c.13.07.22.18.29.33.2.51.27 1.1.17 1.76a5.9 5.9 0 0 1-.71 2.02 4.95 4.95 0 0 1-1.58 1.76m3.69-7.18a.84.84 0 0 1-.68.04.88.88 0 0 1-.52-.48.94.94 0 0 1-.02-.73.91.91 0 0 1 1.19-.57c.23.08.4.24.5.46.1.23.1.47 0 .73a.95.95 0 0 1-.47.55M44.7 110.74a2.66 2.66 0 0 1-.21-.4l-.02-.07a2.8 2.8 0 0 1 .58-2.91l1.36-1.46-1.67 1.55c-.17.15-.36.28-.57.37-.71.28-1.5.28-2.22-.01a1.9 1.9 0 0 1-.55-.36l-1.67-1.55 1.4 1.5c.48.52.75 1.21.73 1.93v.07a2.8 2.8 0 0 1-.72 1.68l-1.39 1.52 1.5-1.42c.5-.47 1.15-.74 1.82-.73h.07c.65.01 1.27.28 1.74.72l1.51 1.42-1.7-1.85Zm75.73 0a2.68 2.68 0 0 1-.2-.4l-.03-.07a2.8 2.8 0 0 1 .59-2.91l1.35-1.46-1.66 1.55a1.9 1.9 0 0 1-.57.37c-.71.28-1.51.28-2.22-.01a1.9 1.9 0 0 1-.56-.36l-1.66-1.55 1.4 1.5a2.72 2.72 0 0 1 .72 2 2.73 2.73 0 0 1-.71 1.68l-1.39 1.52 1.5-1.42a2.6 2.6 0 0 1 1.82-.73h.06c.66.01 1.27.28 1.75.72l1.5 1.42-1.69-1.85Z" />
    <path fill="#E36C24"
      d="M101.51 112.47v-1.37c-.01-2.74-.9-5.4-.8-8.16.05-1.36-.17-2.74-.27-4.2l4.64.43a17.01 17.01 0 0 0-5.62-5.32c-.49-.28-.8-.59-.9-1.18a12 12 0 0 0-.46-1.88c-.46-1.21-1.06-2.37-1.61-3.54h-.23l-.26.69c-.32.82-.64 1.65-.94 2.48-.2.53-.48.65-1.03.42-1.8-.77-3.7-1.2-5.65-1.35-.47-.04-.98-.01-1.4-.19-1.37-.57-2.71-1.23-4.07-1.85l-1.5-.62 4.89-4.08c-.65 0-1.19-.05-1.71 0a20.45 20.45 0 0 0-7.14 2.31 2.3 2.3 0 0 1-1.9.18 10.9 10.9 0 0 0-1.85-.47c-1.18-.17-2.37-.28-3.67-.42.08.4.1.63.17.84.35.93.69 1.87 1.09 2.78.15.36.13.54-.18.8a20.8 20.8 0 0 0-1.9 1.73c-.75.8-1.42 1.65-2.12 2.48.25.1.38.08.5.04 1.57-.52 3.14-1.02 4.7-1.56.5-.17.75 0 1.03.43.9 1.35 1.86 2.67 2.79 4 .06.1.12.23.13.36l.47-.13c.7-1.9 1.39-3.82 2.13-5.71.1-.24.48-.49.75-.5 2.3-.13 4.61-.23 6.92-.29.41 0 .92.15 1.22.41 1.64 1.43 3.22 2.91 4.84 4.37.34.3.28.54.04.86-1.04 1.34-2.07 2.7-3.1 4.05l-.46.64c1.17-.22 2.2-.44 3.24-.6 1.14-.17 2.28-.32 3.43-.43a.9.9 0 0 1 .7.34c1.3 1.94 2.54 3.9 3.83 5.85.27.4.3.75.1 1.2a735.61 735.61 0 0 0-3.04 6.73c-.16.35-.38.48-.79.46-2.13-.07-4.25-.1-6.38-.17-.26 0-.6-.07-.8-.22l-.16.24c.2.06.42.2.57.35 1.46 1.4 2.89 2.81 4.35 4.19.27.26.37.4.18.78a41.08 41.08 0 0 1-6.56 9.37c-.22.24-.63.4-.97.43-.74.07-1.5.02-2.24.02 0-.02 0 0 0 0v-.07h-.6a7.47 7.47 0 0 1-4.8-1.54c-.8-.57-1.67-1.02-2.52-1.5a.74.74 0 0 1-.37-.75c.32-2.14.6-4.29.91-6.43.02-.1.05-.2.1-.28l.04-.06-.47-.12c0 .22-.1.5-.24.6-1.56 1.27-3.16 2.5-4.76 3.71-.15.11-.53.1-.68-.01a278.57 278.57 0 0 1-5.2-4.04 1.8 1.8 0 0 1-.52-.76c-.52-1.42-1.02-2.85-1.48-4.3a1.2 1.2 0 0 1 .12-.9 22.44 22.44 0 0 1 4.53-4.65.9.9 0 0 1 .17-.1l-.2-.44c-.81.2-1.66.3-2.55.3-1.09 0-2.18.25-3.31.4-.1-.77-.16-1.49-.29-2.2a24.42 24.42 0 0 1-.07-7.77c.04-.25.13-.56.31-.72a229.6 229.6 0 0 1 3.72-3.17c.16-.14.33-.26.65-.5h-3.88l1.35-4.94c-3.7 1.63-9.68 12.08-8.71 14.7l3.54-3.4 2.4 2.98c-.82 1.83-1.59 3.5-2.3 5.22-.17.42-.33.65-.8.75a9.7 9.7 0 0 0-3.7 1.45c.18.23.31.47.5.64.65.53 1.3 1.06 1.99 1.54.3.21.46.58.4.95a93.82 93.82 0 0 0-.6 5.24c-.06.82.32 1.5.9 2.09l3.14-5.08c1.46.87 2.82 1.67 4.17 2.49.11.06.2.19.26.3.77 1.74 1.53 3.48 2.31 5.21.18.4.1.64-.3.8l-3.25 1.34a3 3 0 0 1-.37.12c-.67.18-1.07.3-1.84.53a19.22 19.22 0 0 0 7.83 2c.4.01.77.22 1 .55 1.2 1.63 2.44 3.23 3.72 4.8.28.33.8.47 1.33.78l-.31-5.68 5.15-.3c.12 0 .3.07.37.16.95 1.03 1.87 2.06 2.92 3.22l-3.3 2.68c4.33 1.13 15.4-3.24 17.53-7l-6.76 1.07c0-1.71-.02-3.27.02-4.83 0-.16.27-.4.47-.47 1.78-.66 3.58-1.26 5.34-1.96.4-.16.86-.15 1.25.06 1.12.59 2.28 1.11 3.42 1.66l.21-.14c-.12-1.58-.27-3.15-.36-4.72-.01-.27.11-.62.3-.8a17.48 17.48 0 0 0 3.63-4.89c.27-.54.46-1.12.71-1.75l-5.17 1.9v.01Z" />
    <path fill="#A61916"
      d="M79.6 107.2h11.53s-1.22 7.95-10.32 6.94c2.88-.61 4.9-3.72 4.9-3.72s-3.85.1-6.12-3.22Zm6.08-1.45h6.05s-1.42-9.98-11.4-9.98c-2.12 0-6.45.75-8.52 3.62 3.52-2.06 11.77-2.97 13.87 6.36Z" />
    <path fill="#A61916"
      d="M91.73 108.8s-2.33 6.22-9.26 6.22c-6.94 0-9-4.5-9-7.81 0-3.32 2.5-6.45 6.26-6.45a5.7 5.7 0 0 1 3.07.76 7.38 7.38 0 0 0-5.75-2.7c-3.07 0-8.72 1.45-8.72 8.86 0 7.4 6.6 11.56 11.7 11.56 6.3 0 11.7-4.5 11.7-10.44Z" />
  </g>
  <defs>
    <clipPath id="a">
      <path fill="#fff" d="M26 2.28h109.43v156.94H26z" />
    </clipPath>
  </defs>
</svg>