<svg xmlns="http://www.w3.org/2000/svg" fill="none" viewBox="0 0 1001 1000">
  <path fill="#73233E"
    d="M822.4 158.7A804.9 804.9 0 0 0 499.8 90 804.3 804.3 0 0 0 177 158.7c-22.6 89-34.7 173.4-35 227-.3 57.5 8 113.5 24.8 166.7A528.1 528.1 0 0 0 238.4 697 587 587 0 0 0 351 816.6c41.4 33.5 97.5 70.1 148.7 91.5 51.1-21.4 107.2-58 148.6-91.5 44-35.5 82-75.8 112.7-119.6a528.2 528.2 0 0 0 96.3-311.3c-.2-53.6-12.4-138-35-227Z" />
  <path fill="#C4914F"
    d="M770 143.1c-82.2-42.6-172.6-68.7-270.2-68.7-97.7 0-188 26.1-270.2 68.7-19 89-29.1 173.2-29.4 226.8A641.7 641.7 0 0 0 221 536.5a574.5 574.5 0 0 0 59.9 144.4c25.7 43.8 57.5 84 94.4 119.5 34.7 33.4 81.6 70 124.5 91.5 42.8-21.5 89.8-58 124.4-91.5 37-35.5 68.7-75.7 94.4-119.5a574.5 574.5 0 0 0 60-144.4c14-53.2 21-109.2 20.7-166.6-.3-53.6-10.4-137.8-29.4-226.8Z" />
  <path fill="#000"
    d="M761.6 142.1c-79.6-42-167.2-67.7-261.8-67.7-94.7 0-182.3 25.7-262 67.7-18.3 87.6-28.1 170.6-28.4 223.5a642.1 642.1 0 0 0 20.1 164A571.3 571.3 0 0 0 287.6 672c25 43.2 55.7 82.8 91.5 117.8 33.6 33 79.1 69 120.7 90.1 41.5-21.1 87-57.2 120.6-90.1 35.8-35 66.5-74.6 91.5-117.8 25.4-43.9 45-91.8 58-142.3a642.6 642.6 0 0 0 20.2-164c-.3-52.9-10.1-135.9-28.5-223.5Z" />
  <path fill="#C4914F"
    d="m499.8 925.5-6.2-2.6C446.2 903 389.2 867.9 341 829a602.5 602.5 0 0 1-115.8-122.9 543 543 0 0 1-73.7-148.9A561 561 0 0 1 126 385.7c.3-58.2 13.6-144.5 35.6-231l1.9-7.5 7.2-3.1a821.5 821.5 0 0 1 329-70.1c111.3 0 222 23.6 329 70l7.1 3.2 2 7.6c22 86.4 35.2 172.7 35.5 230.8.3 59.2-8.3 117-25.5 171.6a544 544 0 0 1-73.7 149A602.7 602.7 0 0 1 658.4 829c-48.1 39-105.1 74-152.4 94l-6.1 2.6Zm-309-755.2c-20 80.4-32.4 162.3-32.7 215.5a529.2 529.2 0 0 0 24 161.8 512 512 0 0 0 69.4 140.2 569.8 569.8 0 0 0 109.6 116.3 654.7 654.7 0 0 0 138.7 86.6 654.8 654.8 0 0 0 138.6-86.6A570.7 570.7 0 0 0 748 687.8a512 512 0 0 0 69.3-140.2 528.9 528.9 0 0 0 24-161.8c-.2-53.2-12.7-135.1-32.6-215.5a788.6 788.6 0 0 0-309-64.3 788.2 788.2 0 0 0-309 64.3Z" />
  <path fill="#C4914F"
    d="M734.3 528.3c3.8-5.7-5 24.6-17.3 51a395.6 395.6 0 0 1-29.5 51.3l-.5.2c-2.8-.7-23.6-6.8-8.4-41.4 13-29.2-14.8-45.4-27-50.9-.5-.2-.2-1 .3-.9 9.4 2 28.3 5.5 42.1 5 19-.8 32.6-2.9 40.3-14.3ZM511 344.7c-41.5 35.9-15.5 108.7 67.2 122.6 1.1.2 1.7 1.5 1 2.4-6.3 8.2-10 28.1.9 47.2 15.8 27.7 52.9 33.7 59.3 55 38.1 125.4-155 55.1-147.1 254.2 0 1.5-1.6 1.8-2.8 1-152.9-105.7-45.7-222.4 9.8-242.4 1.4-.5 1.3-2.5-.1-2.9a87.4 87.4 0 0 0-74.2 13.9c-35.3 27.2-45.9 62-44.8 113.8 0 1.3-1.7 1.9-2.7 1.1-8-6-61-41.2-52-113.8 4.9-40.2 31.5-90.4 114.2-105.7 1.4-.3 1.7-2.1.5-2.8-13.4-8.1-59.2-13.3-103.7 16.6-42.2 28.3-49.4 83.6-51 98.8 0 1.5-2 2-2.7.7C258 567.2 273.6 492 300.6 442c34-62.6 119.5-108.4 209.5-100 1.3.2 1.8 1.9.8 2.7Z" />
  <path fill="#C4914F"
    d="M741.4 439.8a406 406 0 0 1-32.4-27.4c-9.6-9.6-20.5-22.5-36.5-35.2-6.3-5-3.7-13.8-17.3-27.5-13.5-13.6-21.7-19.9-30.1-28.4-4.2-4.2-5.8-12-6.3-18.8-.6-8.2-37-29.3-117.5-29.3-80.7 0-130 16.6-145.9 30.9-.6.6 0 1.7.9 1.3a123.6 123.6 0 0 1 57.4-11.4c.6 0 .7 1 0 1.1-13 2.6-63.5 11.2-95.6 55-23.9 32.6-33 54.2-35.5 63.9-.3 1.2 1.3 2 2.1 1 16-19.6 94.5-98.9 196.2-96.2 37.8 1 61.3 7.2 86.2 21.4.4.2.3 1-.3 1-8.4 0-32.4 1.8-40.7 29.6-8.7 28.6 5 56.7 51 72.6a129 129 0 0 0 43 6.7 2 2 0 0 1 1.8 3c-4.9 8.4-15.9 30.3-9.2 41.4 8.7 14.3 39.2 33.1 96.7 21.6 34.8-7 43.4-19.8 42.2-39-.7-10.7-25.9 2.5-40-10.9-2.4-2.4-6.5-18.7-4-17.3 18.4 4.3 39.7 8.4 48.3 5 3.3-1.6-10.7-11.1-14.5-14Zm-90.2-41.2c-10.2-6.3-41.5-24.6-69-30.4-.5 0-.4-1 .2-1 24.1 0 48.4 1.3 54.2 1.6.2 0 .6 3.5 5 12.7 4.5 9.3 9.9 17.3 9.6 17.1Zm-38.9-209.4h-.4c-8.4 0-15.3-6.3-15.3-14.2 0-5.6 3.5-10.4 8.5-12.7.7-.3 1-1.1.7-1.8-1.6-3-4.3-5.3-7.6-6.6v-1c0-3-2.5-5.5-5.8-5.5-3.2 0-5.9 2.5-5.9 5.5v.2c0 .5-.2 1-.7 1.2a14.6 14.6 0 0 0-6.8 6.2c-.3.7 0 1.5.7 1.8 5 2.3 8.5 7.1 8.5 12.7 0 7.8-6.8 14.2-15.3 14.2h-.4l-.1 2c0 2.5 1.2 7.8 3.1 14.4.2.9-.5 1.7-1.5 1.7l-9.5-.5c-.9 0-1.6-1-1.3-1.7a112 112 0 0 0 5.3-21.9l-.1-2h-.4c-8.5 0-15.3-6.3-15.3-14.1a14 14 0 0 1 8.5-12.7c.7-.4 1-1.2.7-1.8-1.7-3-4.4-5.3-7.7-6.6l.2-1c0-3-2.7-5.5-6-5.5-3.2 0-5.8 2.4-5.8 5.4v.2c0 .6-.3 1-.8 1.3a14.6 14.6 0 0 0-6.7 6.2c-.4.6 0 1.4.7 1.8 5 2.3 8.5 7.1 8.5 12.7 0 7.8-6.9 14.2-15.3 14.2h-.4l-.1 2c0 3.2 2 11.2 4.9 20.5.2.9-.5 1.8-1.5 1.7l-13.7-.2c-1 0-1.7-.9-1.4-1.8a129 129 0 0 0 6-25.1V176h-.6c-9.7 0-17.6-7.3-17.6-16.4 0-6.4 4.1-12 10-14.7.7-.3 1-1.1.7-1.8a17 17 0 0 0-8.8-7.7c-.5-.2-.9-.7-.9-1.3 0-3-2.6-5.4-5.8-5.4-3.3 0-5.9 2.4-5.9 5.4 0 .6-.3 1-.9 1.3-3.8 1.5-7 4.3-8.8 7.7-.3.7 0 1.5.7 1.8 6 2.7 10 8.3 10 14.7 0 9-7.9 16.4-17.6 16.4h-.5l-.1 2.3c0 4 2.6 13.8 6 25.1.3.9-.3 1.7-1.3 1.8l-13.8.2c-1 0-1.7-.8-1.4-1.7 2.8-9.3 4.9-17.3 4.9-20.6l-.1-2h-.4c-8.5 0-15.3-6.3-15.3-14.1a14 14 0 0 1 8.5-12.7c.7-.4 1-1.2.7-1.8a14.6 14.6 0 0 0-6.8-6.2c-.5-.3-.8-.7-.8-1.3v-.2c0-3-2.6-5.4-5.8-5.4-3.3 0-6 2.4-6 5.4l.2 1.1c-3.3 1.3-6 3.6-7.6 6.6-.4.6 0 1.4.7 1.8 5 2.3 8.5 7.1 8.5 12.7 0 7.8-6.9 14.2-15.3 14.2h-.4l-.1 2c0 3.4 2.2 12 5.3 21.8.2.8-.4 1.6-1.4 1.7l-9.4.5c-1 0-1.8-.8-1.5-1.7 1.8-6.6 3-11.9 3-14.4v-2h-.5c-8.4 0-15.2-6.3-15.2-14.2a14 14 0 0 1 8.4-12.7c.8-.3 1-1.1.7-1.8a14.5 14.5 0 0 0-6.7-6.2c-.5-.2-.8-.7-.8-1.2v-.2c0-3-2.6-5.5-5.9-5.5a5.7 5.7 0 0 0-5.8 5.5v1c-3.2 1.3-6 3.7-7.5 6.6-.4.7 0 1.5.6 1.8 5 2.3 8.5 7.1 8.5 12.7 0 7.8-6.8 14.2-15.2 14.2h-.4l-.2 2v1.3c0 33.1 12.8 58 12.8 58 49.7-9.8 115.2-10.4 199.8 0 0 0 12.7-24.9 12.7-58v-3.3h-.1Zm-296.9 25.4c0-.5-.2-.9-.6-1.2-.3-.3-1.3-.5-3-.7v-1.2h25.9v1.2a8 8 0 0 0-3 .7c-.3.3-.5.7-.5 1.2V242c0 4.5-1 8.2-2.7 11.3-1.8 3-4.3 5.5-7.4 7.4a32 32 0 0 1-11 3.8 81 81 0 0 1-27 0 34 34 0 0 1-11-3.8 20.3 20.3 0 0 1-7.3-7.4 22 22 0 0 1-2.7-11.3v-27.4c0-.5-.2-.9-.5-1.2a8 8 0 0 0-3-.7v-1.2h25.8v1.2a8 8 0 0 0-3 .7c-.3.3-.5.7-.5 1.2V242c0 4 1.4 6.7 4.1 8.4 2.8 1.7 6.7 2.6 11.7 2.6 5 0 8.9-.9 11.6-2.6 2.8-1.7 4.1-4.5 4.1-8.4v-27.4ZM715.5 264c1.4-.1 2.3-.3 2.6-.6.4-.3.5-.7.5-1.2v-37.6l-.2-.2-20 39.6-19.7-40h-.2v38.2c0 .5.1.9.5 1.2.3.3 1.2.5 2.6.6v1.3h-19.7V264c1.4-.1 2.3-.3 2.6-.6.3-.3.5-.7.5-1.2v-47.6c0-.5-.2-.9-.5-1.2-.3-.3-1.2-.5-2.6-.7v-1.2H691v1.2c-1.8.1-2.6.7-2.6 1.9l.6 1.6a161.2 161.2 0 0 0 4.1 8.6l2.5 5a971 971 0 0 1 3.3 6.7 178.5 178.5 0 0 1 7.6-14.3 252.2 252.2 0 0 0 3.6-7.6c0-1.2-.9-1.8-2.7-1.9v-1.2H738v1.2c-1.5.2-2.3.4-2.7.7-.3.3-.5.7-.5 1.2v47.6c0 .5.2.9.5 1.2.3.3 1.2.5 2.7.6v1.3h-22.5V264Zm-15.6-74.3a89 89 0 0 1-7-6.7l-2-2.3c-.3-.4-.1-.8 0-1.2l-.3-3.7-.5-4.8a3067 3067 0 0 0-5.2-48.4 76 76 0 0 1 6.8-10.6c3.4 2.7 6.2 5.7 9.1 8.8 1.7 14 3.9 34.6 5.3 48.6l.4 5c.1.7.2 2.8.4 3.6.2.4.4.8.2 1.2l-1.6 2.6a64.4 64.4 0 0 1-5.6 7.9ZM307.8 112a70 70 0 0 1 5.5 8l1.4 2.7c.2.4 0 .8-.1 1.2-.3.7-.4 2.8-.5 3.6l-.6 4.8c-1.5 14-3.7 34.5-5 48.4a86.4 86.4 0 0 1-8.9 9c-2.7-3.4-5-6.9-7-10.5 1.2-14 3.4-34.7 5-48.7l.6-4.9c0-.7.4-2.8.3-3.6 0-.4-.2-.8.1-1.2l2-2.2a64 64 0 0 1 7.2-6.6Z" />
</svg>