<svg xmlns="http://www.w3.org/2000/svg" fill="none" viewBox="0 0 1001 1000">
  <mask id="a" width="958" height="640" x="5.1" y="180" fill="#000" maskUnits="userSpaceOnUse">
    <path fill="#fff" d="M5.1 180h958v640H5.1z" />
    <path
      d="M905.2 546.4a145 145 0 0 0-65.8-51.4c-5.1-2-10.3-4-15.7-5.7a143.5 143.5 0 0 0 53.7-46.8 133.5 133.5 0 0 0 22.4-77.2c0-44.2-18.4-79.7-55-106.7-36.8-27-91.5-40.4-164.4-40.4h-32.9L577 316.8h86.8c32.6 0 57.6 5.5 75 16.6a55 55 0 0 1 26 49.7c0 22-8.7 39.5-26 50.5-17.4 11-42.4 16.6-75 16.6H432.2L600 214H482L342.7 408.2l-58.6-79H156.3l123.5 166.6L72.1 785.4h122.1l147-206.9 44 59.5h127.7l-68.5-92.5H687c34.8 0 61.1 5.9 79 17.4 18 11.6 27 29.3 27 53s-9 41.9-27 53c-17.9 11-44.2 16.5-79 16.5H313.6L243 784h454c76.1 0 133.8-13.6 173-40.8 39.2-27.2 58.8-65.1 58.8-113.6 0-32.9-7.9-60.6-23.6-83.2" />
  </mask>
  <path fill="#010101"
    d="M905.2 546.4a145 145 0 0 0-65.8-51.4c-5.1-2-10.3-4-15.7-5.7a143.5 143.5 0 0 0 53.7-46.8 133.5 133.5 0 0 0 22.4-77.2c0-44.2-18.4-79.7-55-106.7-36.8-27-91.5-40.4-164.4-40.4h-32.9L577 316.8h86.8c32.6 0 57.6 5.5 75 16.6a55 55 0 0 1 26 49.7c0 22-8.7 39.5-26 50.5-17.4 11-42.4 16.6-75 16.6H432.2L600 214H482L342.7 408.2l-58.6-79H156.3l123.5 166.6L72.1 785.4h122.1l147-206.9 44 59.5h127.7l-68.5-92.5H687c34.8 0 61.1 5.9 79 17.4 18 11.6 27 29.3 27 53s-9 41.9-27 53c-17.9 11-44.2 16.5-79 16.5H313.6L243 784h454c76.1 0 133.8-13.6 173-40.8 39.2-27.2 58.8-65.1 58.8-113.6 0-32.9-7.9-60.6-23.6-83.2" />
  <path fill="#fff"
    d="m839.4 495 12.9-31.4-13 31.4Zm-15.7-5.7-15.6-30.2-72.9 37.7 78.2 25 10.3-32.5Zm53.7-46.8-28-19.2 28 19.2Zm-32.7-183.9 20.2-27.4-20.2 27.4Zm-197.2-40.4v-34H630l-10 14.2 27.6 19.8ZM577 316.8 549.4 297l-38.5 53.8H577v-34Zm161.8 16.6 18.2-28.7-18.2 28.7Zm0 100.2-18.3-28.7 18.3 28.7Zm-306.6 16.6-27.7-19.7-38.1 53.7h65.8v-34ZM600 214l27.7 19.7 38.1-53.7H600v34Zm-118 0v-34h-17.4l-10.2 14.2L482 214ZM342.7 408.2l-27.3 20.3 27.7 37.4 27.2-37.9-27.6-19.8Zm-58.6-79 27.3-20.3-10.2-13.8h-17.1v34Zm-127.8 0v-34H88.8l40.2 54.2 27.3-20.3Zm123.5 166.6 27.7 19.8 14.4-20.1-14.7-20-27.4 20.3ZM72.1 785.4l-27.6-19.9-38.6 53.9H72v-34Zm122.1 0v34h17.6L222 805l-27.8-19.7Zm147-206.9 27.2-20.2-27.9-37.7-27.1 38.2 27.7 19.7Zm44 59.5-27.3 20.2L368 672h17.2v-34Zm127.7 0v34h67.5l-40.2-54.3L513 638Zm-68.5-92.5v-34H377l40.2 54.3 27.3-20.3ZM766.1 563l18.4-28.5-18.4 28.5Zm0 106-17.8-29 17.8 29Zm-452.5 16.5v-34H296l-10.2 14.2 27.7 19.8ZM243 784l-27.7-19.8L177 818h66v-34Zm627-40.8-19.4-28 19.4 28Zm63-216.3a179 179 0 0 0-80.8-63.3l-25.9 62.9a111.1 111.1 0 0 1 50.9 39.3l55.8-38.9Zm-80.8-63.3c-6-2.5-12-4.7-18.3-6.7l-20.6 64.8c4.5 1.5 8.8 3 13 4.8l25.9-63Zm-13 56c27-14 49.4-33.3 66.2-58l-56.1-38.3a109.5 109.5 0 0 1-41.3 35.8l31.2 60.4Zm66.2-58a167.5 167.5 0 0 0 28.3-96.3h-68c0 23.7-5.9 42.5-16.4 58l56.1 38.4Zm28.3-96.3c0-55.4-23.8-101-69-134l-40 54.7c28.3 20.8 41.2 46.3 41.2 79.3h68Zm-69-134c-45-33.2-108.3-47-184.4-47v68c69.6 0 116 13 144.2 33.7l40.3-54.8Zm-184.4-47h-32.9v68h32.9v-68Zm-60.5 14.1L549.4 297l55.3 39.6 70.5-98.6-55.3-39.6ZM577 350.8h86.8v-68H577v68Zm86.8 0c29.6 0 47.1 5.2 56.7 11.3l36.5-57.4c-25.1-16-57.6-21.9-93.2-21.9v68Zm56.7 11.3c6.8 4.3 10.3 9.5 10.3 21h68a88.9 88.9 0 0 0-41.8-78.4L720.5 362Zm10.3 21c0 12-4 17.8-10.3 21.8l36.5 57.4c28.4-18 41.8-47 41.8-79.2h-68Zm-10.3 21.8c-9.6 6.1-27.1 11.3-56.7 11.3v68c35.6 0 68-6 93.2-21.9l-36.5-57.4Zm-56.7 11.3H432.2v68h231.6v-68ZM460 469.9l167.7-236.2-55.5-39.4-167.7 236.2 55.5 39.4ZM600 180H482v68h118v-68Zm-145.6 14.2L315.1 388.4l55.2 39.6 139.4-194.2-55.3-39.6ZM370 388l-58.6-79.1-54.6 40.5 58.6 79L370 388Zm-86-93H156.4v68h127.8v-68Zm-155 54.3L252.5 516l54.7-40.5-123.6-166.7-54.6 40.5ZM252.2 476 44.5 765.5l55.2 39.7 207.8-289.6-55.3-39.6ZM72.1 819.4h122.1v-68H72.1v68ZM222 805l146.8-206.9-55.4-39.4-146.9 206.9L222 805Zm91.8-206.3 44 59.4 54.7-40.5-44-59.4-54.7 40.5Zm71.4 73.2h127.7v-68H385.2v68Zm155-54.3-68.4-92.4-54.7 40.5 68.5 92.4 54.6-40.5Zm-95.8-38.2H687v-68H444.4v68Zm242.6 0c32 0 50.7 5.5 60.6 12l37-57.1c-26-16.7-60-22.8-97.6-22.8v68Zm60.6 12c7 4.5 11.4 10.7 11.4 24.4h68c0-33.8-13.6-62.9-42.5-81.5l-36.9 57Zm11.4 24.4c0 14.1-4.7 20.2-10.7 24l35.6 57.9c29.8-18.4 43.1-48.7 43.1-82h-68Zm-10.7 24c-10.2 6.2-29.1 11.5-61.3 11.5v68c37.4 0 71.2-5.8 97-21.6l-35.7-58ZM687 651.4H313.6v68H687v-68Zm-401 14.2-70.5 98.6 55.3 39.6 70.5-98.6-55.3-39.6ZM243.1 818H697v-68H243v68Zm453.9 0c79.3 0 145-14 192.4-47l-38.8-55.8C819.6 736.8 770 750 697 750v68Zm192.4-47c48.5-33.6 73.4-82 73.4-141.4h-68c0 37.6-14.4 65-44.2 85.6l38.8 55.9Zm73.4-141.4c0-38.4-9.3-73.3-29.7-102.6l-55.9 38.8c11.1 15.9 17.6 36.5 17.6 63.8h68Z"
    mask="url(#a)" />
</svg>