<svg xmlns="http://www.w3.org/2000/svg" fill="none" viewBox="0 0 113 50">
  <mask id="a" width="25" height="24" x="0" y="13" maskUnits="userSpaceOnUse" style="mask-type:luminance">
    <path fill="#fff" d="M12.92 13.4C6.3 13.4.93 18.56.93 24.9s5.37 11.5 12 11.5c6.61 0 11.98-5.14 11.98-11.5 0-6.35-5.37-11.5-11.99-11.5Z"/>
  </mask>
  <g mask="url(#a)">
    <path fill="#fff" d="M12.92 36.86h-.98l-.26.01h-.81v.01H8.46l.42.02h-.1a29.72 29.72 0 0 1-.61-.02h.29-.36l-.82-.04a9 9 0 0 1-2.3-.34l-.07-.02a6.5 6.5 0 0 1-.86-.3l-.01-.06.39.13a3.94 3.94 0 0 1-.4-.25 6.58 6.58 0 0 1-.61-.26l.23.18h-.08a4.5 4.5 0 0 1-.79-.55 5.03 5.03 0 0 1-.4-.52 4.1 4.1 0 0 1-.48-.5 5.52 5.52 0 0 1-.52-1.06l-.03-.06a7.32 7.32 0 0 1-.33-1.26 4.49 4.49 0 0 0 .16.52l-.13-.72a5.14 5.14 0 0 1-.08-.31l.06.41-.03-.03a11.82 11.82 0 0 1-.18-2.03l-.02-.88v-1.04l-.01.23v-.61.4l.01-.03v-1.27l.01-.09v-.05L.84 26v-.8.04-1.42.03-.93l-.01-.56v-.82l-.02-.18.01-.74.02-.7v-.03l-.02.4v-.15l.04-.7v.1c-.02.08-.02.18-.02.27a31.37 31.37 0 0 1 .07-1.17v-.07c.04-.35.08-.7.17-1.12.03-.14.08-.3.14-.44.05-.26.12-.52.2-.8.11-.28.24-.56.4-.82l.06-.01-.15.35c.09-.14.2-.27.31-.4.1-.2.2-.38.31-.55l-.22.22v-.08c.18-.24.38-.47.66-.7v-.01a4.78 4.78 0 0 1 1.03-.69c.22-.09.46-.17.71-.24.16-.08.32-.15.53-.23a9.11 9.11 0 0 1 .94-.17l-.18.04a14.42 14.42 0 0 1 .58-.1l.03-.02.85-.07h.09a33.61 33.61 0 0 1 1.96-.05h1.53l.05.01h.81-.06.47v.01h.59-.02.42-.02 1.14-.02.21l.56-.01h.67l.24-.01h.67l.22-.01c.25 0 .5 0 .78.02l.95.03h.07a14.65 14.65 0 0 1 .84.1l-.42-.04c.09.01.18.02.27.05.25.02.5.05.73.09l-.17-.04a5.36 5.36 0 0 0 .07 0c.3.04.58.1.92.19l.47.2c.25.08.5.16.77.27.33.17.64.37.97.66l.06.05c.23.2.43.42.61.67V15a4.07 4.07 0 0 0-.23-.22c.11.17.21.35.31.55.12.13.22.26.32.39l-.16-.35.07.02a4.92 4.92 0 0 1 .6 1.61 4.76 4.76 0 0 1 .3 1.63l.01.04.05.79.02.35-.01-.28-.01-.1.03.7v.15-.4.04a39.38 39.38 0 0 1 .02 1.44l-.01.25v.64a3 3 0 0 1 0 .1v.05l-.01.52v.27l-.01.38v.29-.04 1.41-.04 1.26l.01.02v.14a47.32 47.32 0 0 1 0 1.27l.02.03v-.41.63l-.02-.24v1.07a28.76 28.76 0 0 1-.09 2.04 12.06 12.06 0 0 1-.14.87l.06-.42-.08.32-.13.72a3.93 3.93 0 0 0 .16-.53l-.08.41c-.07.3-.15.58-.27.91l-.03.08c-.14.35-.3.69-.53 1.04-.13.15-.28.3-.45.44-.12.2-.26.37-.44.57a4.75 4.75 0 0 1-1.16.73 4.02 4.02 0 0 0 .56-.4l-.61.26c-.13.09-.26.17-.4.24l.4-.13-.03.06a6.27 6.27 0 0 1-.98.34 9.5 9.5 0 0 1-1.88.29l-.43.04a31.4 31.4 0 0 1-1.1.04h.28l.08-.01-.68.02h-.1l.41-.01h-2.39a63.72 63.72 0 0 1-.8-.02h-1.24m.48.02h.2l.05.01h.03l.06.02.04.01.07.01h1.25-.06l-.16-.02h-.08l-.08-.02h.02-.06.36l.04.01a11.49 11.49 0 0 0 .2.02h.4l1.04-.02h.18-.72.85l.97-.04.22-.01h-.18l.36-.01.39-.04.05-.01h.06a25.3 25.3 0 0 0 .2-.03l-.2.02.16-.03a4.4 4.4 0 0 0 .58-.15l.08-.01a13.45 13.45 0 0 0 1.24-.26 3.9 3.9 0 0 1-.68.26l.4-.1.06-.01.04-.02.06-.01.04-.01.31-.1-.08.02-.21.05.17-.07c.2-.1.4-.2.6-.35l.05-.03.06-.03c.3-.12.59-.25.85-.4l.17-.1-.13.14-.08.07c.12-.08.22-.16.31-.24.16-.16.3-.35.45-.56l.03-.04.04-.05c.19-.16.34-.32.44-.43.09-.13.17-.27.24-.4-.13.18-.28.36-.45.53l-.14.13a5.92 5.92 0 0 0 .52-1.06l.02-.06.04-.05a4.14 4.14 0 0 0 .44-.78l-.05.2c-.07.3-.16.58-.26.85.05-.1.1-.2.13-.3l.03-.08.01-.05.03-.05v-.02l.15-.41-.03.05-.07.17a9.28 9.28 0 0 0 .26-1.28l.02-.05c.06-.18.1-.36.13-.53 0-.06.02-.12.03-.17l-.02.2v.01l.01-.13a30.6 30.6 0 0 0 .07-.95l.02-.28.02-.39-.01.27-.01.15v-.2l.04-1v-.77l.01.27v.1-.17l.02-1.01v-.12a5 5 0 0 0-.01-.17v-.34.19-.14l.01-1.02v-.1a.5.5 0 0 0 0-.06l-.01-.01v-.3h.01v-.1.1-1.23.02l-.01.07v.01-1.74.08l-.01.2v-.68l-.02-1v-.2.53-.45l-.01-.34v-.11l-.06-1-.02-.2a3.87 3.87 0 0 1 0-.2l-.02-.09v-.08l-.03-.18.07.78.01.2-.02-.15a5.42 5.42 0 0 0-.09-.49v-.05a11.78 11.78 0 0 0-.17-1.12c0-.08-.02-.14-.04-.21l.06.16c.05.16.1.32.13.47a5.18 5.18 0 0 0-.22-.88l-.03-.05a6.28 6.28 0 0 0-.36-1.15l.03.08.07.2-.1-.16c-.12-.2-.27-.4-.44-.6-.02 0-.03-.02-.05-.04l-.02-.05c-.15-.29-.3-.54-.47-.76l-.12-.16.16.12.08.07-.26-.27-.15-.12c-.01-.02-.03-.03 0-.02l-.36-.27c.17.16.34.34.5.55l.12.15-.16-.11c-.24-.17-.5-.33-.8-.48l-.06-.04-.05-.04c-.2-.18-.4-.34-.6-.47l-.16-.1.2.07c.28.1.55.2.8.33l-.3-.18c-.25-.1-.5-.2-.78-.27l-.06-.02-.05-.03a6.07 6.07 0 0 0-.44-.2 7.27 7.27 0 0 0-.23-.04 16.5 16.5 0 0 0-1.24-.2h-.06l-.05-.01a5.1 5.1 0 0 0-.49-.08l-.17-.02.18.01h-.15l-.06-.01h-.05a.2.2 0 0 1 .03 0l-.41-.03.32.03c.05 0 .1 0 .16.02l-.2-.02-1.03-.05h-.11a6.1 6.1 0 0 0-.33-.02h-.67.1-.01.39-.19l-.98-.02h-.3l-.06.01h-.03l-.15.02h-.07.01-.24.08l.05-.01.11-.01h-.1.19l.18-.02h-.1.16-1.32a.6.6 0 0 0-.08 0h-.04l-.07.02h-.03l-.05.02h-.24.01-.02l.03-.01.02-.01h.02l.05-.02h.01-1.22.02l.04.01h.01l.03.02.02.01h-.23l-.05-.01h-.03l-.07-.02h-.05l-.08-.01h-1.32.06l.18.01h.09l.12.02h.04l.04.01h.03-.31l-.14-.02h-.09l-.2-.01h-.11l-.98.01h-.18.12l.27.01h-.01.1-.67c-.1 0-.21 0-.33.02H8.5l-1.02.05-.21.02a3.7 3.7 0 0 1 .49-.05l-.36.02-.08.01h-.1l-.1.01h.17l-.17.01-.49.08-.05.02h-.06L5.5 13l-.21.04.18-.05.04-.02-.4.1c-.16.06-.33.13-.5.22l-.05.02-.06.02c-.27.08-.53.18-.72.25l-.34.2a7.1 7.1 0 0 1 .98-.39l-.15.1c-.2.12-.41.28-.6.47l-.06.04-.06.03c-.3.15-.56.32-.8.48l-.15.12.11-.15c.16-.21.33-.4.5-.55a6.3 6.3 0 0 0-.44.36c-.02.01-.04.03-.02 0l-.3.3.08-.05.16-.13a5.57 5.57 0 0 0-.66 1.03c-.18.2-.33.4-.45.6l-.1.16a13.05 13.05 0 0 1 .1-.3l-.13.3c-.08.25-.15.52-.21.8l-.02.06-.02.05-.14.42-.08.45.12-.46.06-.16-.04.2c-.06.35-.11.7-.15 1.06v.07l-.02.05-.09.49-.02.15.02-.2c.01-.27.04-.53.06-.8l-.01.15-.01.07v.06l-.01.05v-.03a15.57 15.57 0 0 0-.02.26l-.01.21c-.03.33-.04.66-.06 1v.1l-.01.35v.37-.45.19c-.02.33-.02.67-.03 1v.12a5.86 5.86 0 0 0 0 .3v.29-.29.16L.75 23.3v.23l.01.03v.3l-.01-.08v-.03 2.88-.05l.01-.13v-.01.63a129.84 129.84 0 0 0 .01 1.18v-.36a464.47 464.47 0 0 1 0 .65v.04l.01.07a50.03 50.03 0 0 0 .04 1.2v-.15l-.02-.28.01.34.03.34v.11a26.18 26.18 0 0 0 .06.76l.03.17c.03.16.07.35.13.53l.01.05.01.07A11.76 11.76 0 0 0 1.35 33l-.08-.17-.02-.06.13.4.01.03.03.05.02.06c0 .03.02.06 0 .04l.15.33a8.76 8.76 0 0 1-.3-1.04 4.44 4.44 0 0 0 .44.78l.03.05.03.07c.12.32.26.61.41.88l.1.17a4.37 4.37 0 0 1-.58-.66c.06.13.13.24.2.35.14.17.3.33.47.49l.04.04.04.04c.14.21.29.4.4.53.11.1.23.18.35.27l-.07-.07-.14-.14.18.1c.26.15.54.29.85.4l.05.03.06.03a4.05 4.05 0 0 0 .77.43 5.98 5.98 0 0 1-.21-.05l-.1-.03.27.09.1.02a.7.7 0 0 1 .05.02l.05.01c.14.05.3.08.44.11a3.74 3.74 0 0 1-.66-.26l.2.06c.33.08.68.14 1.04.2l.06.01.06.02a4.72 4.72 0 0 0 .7.16c-.07 0-.14 0-.2-.02a18.9 18.9 0 0 1 .2.03h.06l.05.01.33.04a15.06 15.06 0 0 0 1.42.06h.86a4.14 4.14 0 0 1-.28 0h-.32.09-.2.17l1.05.03h.32l.08-.01h.03l.17-.01h.08l.1-.02h.22-.06.02l-.08.02h-.08l-.16.02h.1-.16 1.32l.02-.01h.01l.06-.02h.04l.04-.01h.21-.02v.01h-.02l-.01.01-.03.02h-.03l-.04.01h-.01 1.29-.06l-.01-.01h-.01a.46.46 0 0 1-.04-.02h-.01l-.02-.01-.02-.01v-.02Zm-2.12.02h.05-.05Zm3.3 0h.02-.01Zm-1.24 0Zm-3.5 0h.05-.06Zm3.08.01h.33-.68.34Zm2.43 0 .63-.01h.05-.68Zm-4.87 0H9.8l.05-.01h.63Zm1.34.01h-.77.76Zm2.2 0h.76H14m-.62.01Zm-.49 0h.42-.8.4m2.7 0 .75-.02h.13l-.78.01h-.1m-5.41 0h-.1l-.78-.01h.14l.74.01m-4.51-.3h-.02.08-.08.02Zm13.7.1.73-.1.36-.13-.77.14-.33.08Zm-12.96 0-.33-.1a9.5 9.5 0 0 1-.77-.13l.37.12.73.1ZM2 34.16c-.1-.2-.2-.42-.28-.65a3.2 3.2 0 0 1-.26-.42c.07.24.14.46.23.67l.31.4m21.82 0c.11-.13.22-.26.31-.4.08-.2.16-.43.23-.67-.08.14-.16.28-.26.42-.09.23-.18.45-.28.65m-22.15-.34v-.04l.04.03-.04-.03v.04Zm23.34-4.45v-.16l.02-.69v.13l-.02.72m-24.2 0-.02-.73v-.12l.02.68v.16Zm0-.14v.03-.03Zm24.21-.44v-.31.31M.8 28.77v.03-.31.28m24.25-.92v-.82l.01.07v.75m-24.28 0-.01-.75v-.07l.01.72v.1Zm24.27-.45-.01-.18v-.28.46M.8 27.22l-.02.18v-.33l.02-.12v.27m0-.4-.01.02v-.01Zm-.02.05Zm0-.08v-.64.63m24.26.01v-.64.64m-.02-.34v-.25.25m-24.22 0v-.24.24m24.27-.12v-.79.79Zm-24.3 0v-.79.79m.02-.43-.01.1v-.31l.01-.05v.27m24.27.1V26l-.02-.09v-.27l.01.05V26m0-1.12v.57-.65.08Zm-24.27.57v-.66.66m24.25-.23v-.25.25Zm-24.23 0v-.25.25Zm24.22-.35h.01ZM.76 24.78v-.77.77m24.31-.13v.13-.77.64m-.06.05v-.1.1Zm.04-.12h-.01v-.26l.01-.04v.3m-24.26 0H.77v-.3a.3.3 0 0 1 .02.04v.27Zm24.25-.49v-.64.64m-24.26 0v-.64.65M.8 24v-.26.25m24.22-.01v.01-.25.23m.04-.54v-.1.1Zm0-.15v-.81.81m-24.3 0v-.81l.01.08v.73Zm.03 0v-.09l-.01-.03v-.3.01a8.9 8.9 0 0 0 .01.17v.24m24.26-.08-.01.08v-.41h.01v.31M.8 23.1v-.04a.3.3 0 0 0 0 .05Zm24.2 0v-.04.04ZM.8 22.74v-.63.62Zm24.25 0v-.63.62Zm0-.86v.01-.01Zm0-.07-.01.1v-.44l.01.25v.1m-24.24.1v-.1l-.01-.1v-.26.46m-.01-.13v-.1l.01-.73v.13l-.01.7Zm24.27 0-.01-.7v-.14.84M.9 18.9l.06-.29.1-.77A4.92 4.92 0 0 0 .9 18.9Zm24.03 0-.08-.74a5.3 5.3 0 0 0-.08-.32l.1.77.06.29ZM2.98 14.28c.18-.12.37-.23.59-.33.13-.13.27-.24.4-.34-.21.09-.41.18-.6.28a4 4 0 0 0-.39.39m19.87 0a4.2 4.2 0 0 0-.4-.4c-.18-.1-.39-.19-.6-.27.14.1.28.21.41.34.2.1.4.2.59.33Zm-.36-.42-.02-.03.02.03Zm-4.43-1.15-.2-.01a41.08 41.08 0 0 0 .2 0Zm-10.3 0a69.78 69.78 0 0 1 .2-.01h-.2m7.15-.07h-.84.84m-4 0h.85-.84m5.33.02h-.77l.06-.01.71.01m-6.68 0h.78-.78m3.71-.02h-.73.73Zm2.92.03h-.01Zm-5.02-.01h.69-.69m3.47 0h-.69.69m-4.64.02h.13l.02.01-.15-.01m5.81 0h-.15.15ZM13.9 36.94a.8.8 0 0 0 .1 0h1.24l.15-.01h-.37l-1.02.01h-.13.03Zm.24 0h.92-.92m-2.32 0H10.5l-.05-.01h.14l1.13.01h.23-.12Zm-.14 0h-.92.94m-3.04-.04a36.31 36.31 0 0 1-1.03-.05h.04-.12l-.47-.06-.15-.03a105 105 0 0 0 1.28.1h.13l.37.04h.13-.19m-.24-.01-.21-.02a40.03 40.03 0 0 1 .2.02m8.72.01.37-.03h.05l.08-.01c.36-.02.72-.04 1.08-.08l.2-.01-.15.02a6.45 6.45 0 0 1-.51.07h-.07l-1 .04H17h.13m.3-.01.76-.04a7.97 7.97 0 0 0-.76.04m-5.05.06h-.12l-.06-.01h-.01 1.46-1.28m1.09 0Zm-.55 0h.48-.95.47Zm2.79-.01a3.98 3.98 0 0 0 .3-.03h.1l1.19-.05.18-.02-.1.02c-.14.03-.27.04-.39.05h-.12a59.57 59.57 0 0 1-1.24.03h.07m.28 0 .86-.03c.08 0 .15-.02.23-.03a69.25 69.25 0 0 1-1.09.05Zm-5.92 0a75.36 75.36 0 0 1-1.01-.03h-.1.02-.11c-.13 0-.25-.02-.4-.05-.03 0-.06 0-.1-.02l.18.02 1.2.05h.13l.27.03h.07-.15m-.2 0-.17-.02a70.92 70.92 0 0 1 .17.01Zm4.2.01a.57.57 0 0 0 .15-.04h.12c.43 0 .87-.01 1.3-.03h.15l-.05.01a2.36 2.36 0 0 1-.29.05h-.1a89.2 89.2 0 0 1-1.3.02h.03m.26-.01.95-.01.16-.03-1.02.02a.8.8 0 0 1-.1.02m-2.65 0h-1.27l-.03-.01-.26-.05-.05-.01h.15l1.31.03h.13c.05.03.09.04.13.04h.02-.13m-.15 0-.1-.03-1.02-.01.17.02.95.02Zm-3.48-.1a20.3 20.3 0 0 1-1.12-.09h-.07l-.05-.02c-.18-.04-.37-.1-.57-.17h.1-.1l-.13-.06.2.04c.38.06.79.12 1.2.16h.08l.05.02c.17.05.33.09.48.11l.1.02h-.17m-.25-.04-.32-.08-.9-.11.35.11.88.08m9.94.03.47-.11.05-.02h.1a20 20 0 0 0 1.2-.17l.18-.04a3.74 3.74 0 0 1-.69.23l-.05.01-.07.01a26.17 26.17 0 0 1-1.3.1l.11-.01Zm.31-.03.87-.08a5 5 0 0 0 .37-.11l-.92.11-.32.08m-5.76.12h-.12a.26.26 0 0 1-.09-.07v-.01h1.69v.01a.24.24 0 0 1-.09.06h-.12l-.64.01h-.63m.63-.01h.53a.16.16 0 0 0 .04-.05h-1.14l.05.05h.52Zm-3.32-.04a43.76 43.76 0 0 1-1.33-.06l-.05-.02a3.11 3.11 0 0 1-.48-.15l-.1-.04.18.02c.45.05.9.09 1.37.12h.1l.05.02c.12.05.24.08.35.1l.07.02h-.16m-.21-.04a2.14 2.14 0 0 1-.25-.07l-1.08-.08.33.1 1 .05Zm6.76.03.36-.1.04-.02.1-.01a29.7 29.7 0 0 0 1.55-.14l-.1.04c-.17.07-.33.12-.48.15l-.05.02h-.08c-.41.03-.83.05-1.24.06h-.16.06m.3-.03 1-.05.34-.1-1.08.08-.26.07Zm-10.6-.32c-.36-.07-.72-.15-1.05-.24l-.07-.02-.05-.03a4.3 4.3 0 0 1-.63-.42l.08.01-.08-.01-.13-.11.18.07c.33.14.69.26 1.06.37l.08.01.05.04c.21.13.42.23.61.31l.15.06-.2-.04m-.27-.1a4.48 4.48 0 0 1-.42-.22 7.52 7.52 0 0 1-.8-.26c.14.11.29.2.43.28.25.08.52.15.8.2Zm14.36.08c.2-.08.4-.18.61-.31l.05-.03.08-.02c.38-.11.73-.23 1.06-.37l.18-.07-.13.1a4.2 4.2 0 0 1-.63.43l-.05.03a11.28 11.28 0 0 1-1.12.26l-.2.04.15-.06Zm.32-.08c.27-.05.54-.12.8-.2.14-.07.28-.17.43-.28-.26.1-.52.18-.8.26-.15.09-.3.16-.43.22m-6 .44a.64.64 0 0 0 .17-.13c.01 0 .02 0 .02-.02h.13c.53-.01 1.04-.04 1.55-.07l.15-.01-.05.03c-.12.07-.23.12-.33.16l-.04.01h-.1a60.5 60.5 0 0 1-1.49.03m.29-.02 1.13-.03.23-.1-1.23.04-.13.1m-3.1.02a96.27 96.27 0 0 1-1.52-.05c-.1-.03-.21-.08-.33-.16-.02 0-.04-.02-.05-.03l.16.01a43.8 43.8 0 0 0 1.55.1l-.01-.03h.13l.02.03a.6.6 0 0 0 .18.13h-.14Zm-.17-.02a.62.62 0 0 1-.13-.1l-1.24-.05a1 1 0 0 0 .24.11c.37.02.75.03 1.13.03m7.22-.23a3.66 3.66 0 0 0 .62-.32l.1-.02a14.18 14.18 0 0 0 1.47-.35l-.11.08c-.22.16-.43.3-.64.4l-.05.02-.08.02c-.4.08-.82.14-1.24.19l-.18.02.11-.04m.21-.01Zm.11-.04c.33-.05.66-.1.98-.17.15-.08.3-.17.46-.28-.32.09-.66.16-1.02.23-.14.09-.28.16-.42.22m-11.57.07c-.42-.05-.84-.11-1.23-.19l-.04-.03.04.03-.08-.01-.06-.03a4.15 4.15 0 0 1-.75-.48l.18.05c.4.12.84.22 1.3.3l.09.02.05.04c.2.12.4.21.58.28l.1.05-.18-.03ZM7 36.57a3.77 3.77 0 0 1-.42-.22 16.3 16.3 0 0 1-1.02-.23c.16.11.32.2.47.28l.97.17m5.17.24h-.14v-.02a1.1 1.1 0 0 1-.13-.24h.16a38.03 38.03 0 0 0 1.71 0h.16l-.02.04-.1.2-.02.02h-1.62Zm.74-.03h.63l.07-.16a42.95 42.95 0 0 1-1.39 0l.06.16h.63m3.81-.1c.14-.08.3-.17.45-.3l.05-.04.11-.02a22.96 22.96 0 0 0 1.73-.27l-.08.07a3.6 3.6 0 0 1-.63.42h-.1c-.46.07-.94.11-1.42.15l-.17.01.06-.03m.33-.04 1.16-.13c.14-.08.28-.17.43-.28-.4.07-.82.13-1.25.18-.12.1-.23.17-.34.23M9 36.69a26.44 26.44 0 0 1-1.57-.18 3.8 3.8 0 0 1-.66-.46l.17.04c.5.09 1.02.17 1.56.24l.02.04-.02-.04.11.01a2.49 2.49 0 0 0 .56.36H9m-.23-.07a2.51 2.51 0 0 1-.35-.23c-.42-.06-.84-.11-1.24-.18.15.11.29.2.43.28.38.05.77.1 1.16.13m-5.02-.86c-.3-.14-.58-.29-.83-.45l-.05-.03-.04-.05a5.23 5.23 0 0 1-.5-.73l-.1-.16.13.12c.22.2.46.38.74.56l.06.03.04.06c.2.24.4.44.6.61l.14.12a3.81 3.81 0 0 1-.19-.08m-.24-.2a4.94 4.94 0 0 1-.42-.45c-.2-.13-.37-.25-.54-.39.12.19.25.36.38.5a6 6 0 0 0 .58.35Zm18.51.16c.2-.17.4-.37.6-.61l.04-.06.06-.03c.28-.18.52-.37.74-.56l.13-.13-.1.18c-.16.27-.33.51-.5.73l-.05.04a5.65 5.65 0 0 0-.92.44Zm.28-.15c.22-.1.41-.22.59-.34.13-.15.26-.32.38-.5a5.9 5.9 0 0 1-.55.38 3.7 3.7 0 0 1-.42.46Zm-17.45.4a8.66 8.66 0 0 1-1.05-.4.7.7 0 0 1-.03-.06l.03.05c-.03 0-.05-.02-.07-.03l-.05-.05a5.36 5.36 0 0 1-.7-.88l.15.1c.3.19.63.37 1 .54l.08.03.05.06a5 5 0 0 0 .65.6l.12.1a5.05 5.05 0 0 0-.18-.05m-.25-.17a4.53 4.53 0 0 1-.49-.47 7.97 7.97 0 0 1-.77-.4c.15.2.3.38.46.54.25.12.52.23.8.33Zm16.3.13c.22-.17.44-.37.66-.6l.05-.07c.03 0 .05-.02.08-.03.37-.16.7-.34 1-.53l.14-.1-.1.14a5.14 5.14 0 0 1-.65.79l-.06.03a9.4 9.4 0 0 1-1.06.4l-.18.06.12-.09m.31-.13c.29-.1.55-.2.8-.33.16-.15.32-.33.47-.53-.24.14-.5.27-.78.4-.16.17-.32.33-.49.46Zm-6.68.8c.06-.08.13-.2.2-.36.02-.01.02-.03.03-.05h.15c.62-.04 1.23-.09 1.82-.16l.18-.02-.05.07c-.15.19-.29.32-.42.42l-.04.04h-.12a41.55 41.55 0 0 1-1.78.1l.03-.04m.28 0h-.14.14Zm.03-.03 1.36-.08c.1-.1.2-.2.3-.33-.48.05-.98.09-1.48.12-.06.12-.12.21-.18.29Zm-3.69.06c-.54-.02-1.08-.05-1.61-.09h-.13a2.67 2.67 0 0 1-.46-.46l-.05-.07a78.05 78.05 0 0 0 2 .17h.15l.02.06c.08.16.15.28.22.36l.02.04-.16-.01Zm-.18-.06a2.19 2.19 0 0 1-.18-.3c-.5-.02-1-.06-1.49-.1l.31.32 1.36.08Zm8.44-.5c.21-.16.42-.37.64-.62l.06-.06.1-.04a11.35 11.35 0 0 0 1.49-.55l-.09.12c-.22.3-.44.55-.66.75l-.05.05-.09.03c-.41.14-.85.25-1.31.35l-.18.04.09-.07m.33-.1 1.05-.3c.17-.17.35-.36.52-.57-.34.13-.7.25-1.07.37a5.9 5.9 0 0 1-.5.5m-13.42.13c-.47-.1-.9-.22-1.32-.35-.03 0-.06-.02-.08-.03l-.06-.05a5.22 5.22 0 0 1-.75-.88l.16.08c.4.17.85.34 1.33.48l.1.03.06.07a4.53 4.53 0 0 0 .74.7 5.13 5.13 0 0 1-.18-.05m-.25-.14c-.17-.14-.33-.3-.5-.5-.38-.1-.74-.23-1.07-.36.17.21.34.4.52.56.33.11.68.21 1.05.3Zm5.93.45h-.15v-.04a3.83 3.83 0 0 1-.14-.57l-.02-.07h.18a34.77 34.77 0 0 0 2.07 0h.18l-.02.07a5.08 5.08 0 0 1-.14.6l-.15.01-.9.01h-.9m.9-.09h.76l.08-.45a37.3 37.3 0 0 1-1.69 0l.08.45h.77m10.03-1.67c.18-.28.36-.6.52-.95l.04-.07.05-.05c.22-.21.41-.43.57-.64l.09-.13-.06.18a8.13 8.13 0 0 1-.43 1.07l-.04.04c-.2.2-.43.4-.7.6l-.14.1.1-.15Zm.24-.21.5-.45.31-.74a4.8 4.8 0 0 1-.43.46c-.12.26-.25.5-.38.73Zm-20.35.25c-.26-.19-.5-.39-.7-.6l-.01-.07.06.03-.06-.03.02.08-.04-.05a4.73 4.73 0 0 0 .17-.48l.05.05.04.08c.16.35.34.67.52.95l.1.14-.15-.1m-.19-.26a7.26 7.26 0 0 1-.38-.72c-.16-.16-.3-.32-.43-.47.1.27.2.51.32.75.14.15.3.3.5.44m5.62 1.7a21.74 21.74 0 0 1-1.73-.31l-.05-.06c-.2-.21-.42-.48-.63-.8l-.08-.11.17.04c.54.15 1.11.29 1.72.4l.04.08-.04-.08.14.02.05.08a4.2 4.2 0 0 0 .58.76l-.18-.02m-.23-.14a4.18 4.18 0 0 1-.43-.56c-.5-.1-.96-.2-1.4-.31.17.24.34.45.5.62.43.1.87.18 1.33.25Zm9.41.1c.17-.19.34-.41.52-.7l.05-.08.13-.02a19.02 19.02 0 0 0 1.9-.45l-.08.12a5.2 5.2 0 0 1-.64.8l-.05.06-.12.02a21.42 21.42 0 0 1-1.77.3l.06-.06m.28-.02-.14.01.14-.01Zm.07-.07c.46-.07.9-.15 1.32-.25.17-.17.33-.38.5-.62-.44.11-.9.22-1.4.3-.14.23-.28.41-.42.57m4.13-1.14a7.27 7.27 0 0 0 .66-1.1l.07-.04c.34-.21.62-.43.86-.65l.12-.1-.07.16c-.15.4-.32.76-.5 1.1l-.05.06-.06.05c-.28.2-.6.4-.97.57l-.16.08.1-.14m.28-.18c.27-.15.52-.3.74-.46.15-.26.29-.54.41-.84-.2.17-.42.34-.68.5-.15.3-.3.56-.47.8m-18.37.24a6.84 6.84 0 0 1-.97-.58 1.68 1.68 0 0 1-.03-.08l.03.08-.06-.04a8.13 8.13 0 0 1-.54-1.15l-.07-.18.1.1c.25.22.53.44.87.66l.07.04.05.09c.2.38.4.72.61 1l.1.14a6.1 6.1 0 0 1-.16-.08m-.22-.24c-.16-.24-.32-.5-.47-.8a6.25 6.25 0 0 1-.68-.5c.13.3.27.58.41.84.22.16.47.31.74.46Zm11.26 1.23c.08-.22.16-.5.24-.87l.02-.1h.17a27.5 27.5 0 0 0 2.15-.26l.18-.03-.05.12a6.87 6.87 0 0 1-.5 1l-.15.03a29.04 29.04 0 0 1-2.09.18l.03-.07m.32-.01h-.16.17Zm.03-.07c.55-.04 1.1-.1 1.62-.16.12-.2.24-.45.36-.75-.56.08-1.15.15-1.76.2a6.5 6.5 0 0 1-.22.7m-4.43.15c-.64-.04-1.29-.1-1.9-.17l-.15-.02-.04-.07a8.03 8.03 0 0 1-.48-.94l-.04-.12c.06.02.12.02.19.03.68.1 1.4.2 2.14.25l.01.1-.01-.1.17.02.02.1c.08.36.17.64.24.87l.03.06h-.18m-.2-.15c-.07-.2-.15-.43-.22-.71-.6-.05-1.2-.12-1.76-.2.13.3.25.55.37.75a28 28 0 0 0 1.6.16m9.84-.86c.22-.32.43-.68.64-1.12l.05-.1.1-.04c.49-.2.92-.4 1.29-.61l.13-.08-.07.16a8.53 8.53 0 0 1-.64 1.28l-.09.04a11.53 11.53 0 0 1-1.5.59l.1-.12m.24-.05Zm.08-.12c.38-.14.74-.28 1.06-.44.17-.29.34-.6.49-.95a10 10 0 0 1-1.04.48 8.5 8.5 0 0 1-.51.91m-15.45.23c-.49-.16-.93-.34-1.32-.53l-.1-.04-.04-.08a8.86 8.86 0 0 1-.66-1.36l.13.08c.37.21.8.42 1.28.61l.03.12a3.89 3.89 0 0 1-.03-.12l.11.04.05.1c.2.44.42.8.63 1.12l.08.12-.16-.05m-.24-.24a8.34 8.34 0 0 1-.51-.9 9.92 9.92 0 0 1-1.04-.49c.16.35.32.67.49.95.32.16.67.3 1.06.44m-3.5-1.8a4.4 4.4 0 0 1-.33-.62c0-.02 0-.04-.02-.05l-.01-.07a15.8 15.8 0 0 1-.18-1.08l.02.04-.02-.04a10.46 10.46 0 0 1 .02-.06c.05.19.12.39.22.59l.03.05.01.08c.08.39.18.76.29 1.11l.06.2-.1-.15m-.1-.31-.2-.84a4.45 4.45 0 0 1-.16-.4c.04.28.1.56.15.82l.21.42Zm22.78.26c.1-.34.2-.72.28-1.1l.02-.08.03-.06a4.49 4.49 0 0 0 .26-.72c0 .07-.02.13-.03.2a14.84 14.84 0 0 1-.19 1.14l-.02.06c-.09.2-.19.4-.32.62l-.1.13.07-.18m.13-.27.21-.42c.06-.26.11-.54.15-.82-.04.13-.1.27-.16.4-.06.3-.12.58-.2.84Zm-.64.42a11.58 11.58 0 0 0 .4-1.34l.05-.06c.17-.21.3-.42.4-.62l.05-.1-.03.17c-.07.43-.16.84-.26 1.22l-.02.08-.03.05c-.14.22-.31.44-.52.66l-.11.11.07-.17Zm.18-.25c.14-.16.26-.32.37-.48.08-.3.15-.63.22-.96-.09.15-.18.3-.3.46-.09.34-.19.67-.3.98Zm-21.85.3a4.41 4.41 0 0 1-.55-.7l-.02-.08c-.1-.39-.18-.8-.26-1.22L1.2 31l.06.11c.1.2.23.4.4.62l.03.06.03.1a12.52 12.52 0 0 0 .45 1.41 1.81 1.81 0 0 1-.1-.11m-.15-.31c-.1-.3-.2-.64-.28-.98a3 3 0 0 1-.3-.46c.06.33.13.65.22.96.1.16.22.32.36.48Zm9.9 2.57-.17-.01-.01-.09c-.05-.32-.1-.72-.15-1.22l-.01-.14h.2a30.65 30.65 0 0 0 2.47.01h.2l-.01.12c-.05.5-.1.9-.15 1.23l-.01.1H14a34.76 34.76 0 0 1-2.19 0m1.1-.17h.92l.1-1.01a34.17 34.17 0 0 1-2.05 0l.1 1 .92.01Zm5.35-.39a9.37 9.37 0 0 0 .57-1.43l.15-.04c.67-.15 1.28-.31 1.83-.5l.16-.06-.06.17c-.18.52-.39.98-.6 1.37l-.05.1c-.04 0-.08.02-.11.03-.55.17-1.14.31-1.76.43l-.19.04.06-.11m.31-.04-.15.02.15-.02Zm.06-.12c.52-.1 1-.24 1.46-.37a11 11 0 0 0 .49-1.12 17 17 0 0 1-1.5.41 9.5 9.5 0 0 1-.45 1.08Zm-11.2.23a16.04 16.04 0 0 1-1.89-.47l-.04-.1a9.35 9.35 0 0 1-.6-1.37l-.07-.16.17.05c.55.2 1.16.36 1.83.5l.15.04.04.13A9.79 9.79 0 0 0 7.6 35l-.18-.04m-.24-.23c-.15-.31-.3-.67-.44-1.08-.55-.12-1.05-.26-1.51-.41.16.42.32.79.49 1.12.45.13.94.27 1.46.37m15.67-1.53c.18-.43.34-.9.48-1.42l.04-.11.07-.05c.28-.22.5-.43.68-.64l.08-.08-.04.17c-.1.5-.22.96-.35 1.4l-.03.1c-.02 0-.04.03-.06.04a5.5 5.5 0 0 1-.94.75l.07-.16m.24-.23c.23-.18.44-.35.62-.52.11-.35.21-.73.3-1.13a3.9 3.9 0 0 1-.55.5c-.11.4-.24.8-.37 1.15Zm-20.2.3a5.8 5.8 0 0 1-.86-.71l-.03-.1a14.56 14.56 0 0 1-.39-1.56l.08.08a4.8 4.8 0 0 0 .75.68l.03.12a12.85 12.85 0 0 0 .56 1.58l-.13-.09m-.18-.3c-.13-.36-.26-.75-.37-1.15-.22-.17-.4-.34-.55-.5.08.4.19.77.3 1.12.18.18.38.35.62.53ZM1 31.24a4.76 4.76 0 0 1-.1-.5v-.09.04-.04.08-.05l-.01-.06a32.1 32.1 0 0 1-.07-1.21v.13l.06.44.01.05v.07l.12 1.1c0 .07.02.13.03.2L1 31.25m23.82-.05.11-1.1v-.07l.01-.05a5.11 5.11 0 0 0 .07-.57v.2l-.07 1.01v.06l-.01.05a5.42 5.42 0 0 1-.14.67l.03-.2m.05-.28a5.06 5.06 0 0 0 .11-1.06l-.03.25-.07.82m-23.72.32a3.6 3.6 0 0 1-.18-.56v-.1.04-.03.09l-.02-.06v-.07l-.1-1.17v-.17l.01.1.12.46.02.04.01.1c.05.43.1.85.17 1.26l.03.19-.06-.12m-.06-.33-.1-.97-.09-.32.08.92.12.38m23.55.25c.07-.4.12-.82.17-1.25v-.1l.02-.05c.06-.16.1-.31.12-.45l.02-.11v.18l-.1 1.16v.08l-.02.05c-.04.18-.1.36-.19.56l-.05.12.03-.18m.09-.26.12-.38.08-.92-.09.32-.11.98ZM10.4 34.47a27.71 27.71 0 0 1-2.39-.29 16.44 16.44 0 0 1-.48-1.8l-.04-.17.2.04c.76.12 1.58.22 2.43.28l.01.17-.01-.17.2.01.01.17a25.44 25.44 0 0 0 .27 1.78l-.2-.02Zm-.23-.25c-.08-.4-.15-.86-.22-1.38-.7-.06-1.38-.14-2.02-.24.11.52.23.99.36 1.39.6.1 1.23.17 1.88.23Zm5.07.27.02-.13c.09-.46.17-1.01.25-1.65l.01-.17h.2c.85-.07 1.67-.17 2.42-.29l.2-.03c0 .06-.02.11-.03.17-.14.65-.3 1.21-.44 1.68l-.04.12-.17.02a27.85 27.85 0 0 1-2.42.28m.43-.27c.65-.06 1.28-.14 1.88-.23.13-.4.24-.86.36-1.39-.64.1-1.32.18-2.02.24-.07.52-.15.98-.23 1.38m5.75-1.13c.2-.5.37-1.07.53-1.68l.04-.14.11-.05a8 8 0 0 0 1.17-.57l.1-.07-.04.18c-.12.58-.27 1.14-.44 1.63l-.04.12-.08.04a9.8 9.8 0 0 1-1.25.63l-.16.06.06-.15m.25-.07-.12.04.12-.04Zm.06-.16c.38-.16.71-.33 1-.5.15-.43.27-.87.38-1.35-.27.16-.59.32-.95.47-.13.5-.28.96-.44 1.38m-17.38.32a9.7 9.7 0 0 1-1.25-.62l-.1-.06-.02-.1c-.17-.5-.32-1.05-.45-1.64l-.04-.18.1.07c.32.19.72.39 1.18.57l.02.16-.02-.16.1.05.04.14a14.93 14.93 0 0 0 .6 1.83l-.16-.06m-.21-.32c-.16-.42-.3-.88-.44-1.38a8.5 8.5 0 0 1-.95-.47c.11.47.24.92.38 1.34.3.17.63.34 1 .5m-2.6-1.67c-.15-.2-.26-.4-.35-.6l-.02-.04-.02-.1-.14-1.36v-.16L1 29c.06.15.14.3.26.47l.03.05a25.3 25.3 0 0 0 .29 1.76l-.07-.1m-.1-.33-.17-1.17a2.9 2.9 0 0 1-.2-.36l.13 1.1c.07.14.15.28.25.43m22.87.25a20.32 20.32 0 0 0 .25-1.58l.04-.04c.11-.17.2-.33.25-.48l.04-.07-.02.16c-.03.46-.08.91-.14 1.36l-.01.1-.02.05a3.9 3.9 0 0 1-.42.68l.03-.18m.1-.07-.05.04.04-.04Zm.03-.18c.1-.15.18-.3.25-.43.05-.36.09-.72.12-1.1a2.6 2.6 0 0 1-.2.37c-.05.4-.1.79-.17 1.16Zm-12.8 2.49h-.2v-.15c-.05-.61-.09-1.3-.13-2.1v-.2l.22.01a56.84 56.84 0 0 0 3.03 0v.19a90 90 0 0 1-.14 2.24h-.2a28.93 28.93 0 0 1-2.57 0Zm1.3-.28 1.1-.01.08-1.77a45.5 45.5 0 0 1-2.36 0l.08 1.76 1.1.02m6.16-.44c.15-.6.3-1.3.42-2.04l.04-.18.17-.03c.7-.12 1.32-.27 1.86-.42l.15-.04-.03.19c-.13.7-.28 1.37-.45 1.97l-.05.13-.12.04c-.55.2-1.17.36-1.85.5l-.19.05.05-.17m.33-.05-.16.02.16-.02Zm.05-.17a19.9 19.9 0 0 0 1.54-.41c.14-.51.26-1.06.37-1.65-.45.13-.97.25-1.54.36-.12.61-.24 1.19-.37 1.7Zm-12.85.34c-.68-.15-1.3-.3-1.85-.5l-.12-.04a21.07 21.07 0 0 1-.53-2.3l.15.05c.54.15 1.17.3 1.87.42l.16.03.03.17a21.85 21.85 0 0 0 .48 2.21 4.94 4.94 0 0 0-.19-.04m-.24-.34a23.2 23.2 0 0 1-.36-1.7 18.7 18.7 0 0 1-1.55-.36c.11.59.24 1.14.38 1.65.46.14.98.28 1.53.4M.85 29.53a4.63 4.63 0 0 1-.04-.4V29l-.03-1.04v-.16.09c0 .09 0 .18.02.29v.13l.05 1.14.02.19-.02-.12m-.02-.3a66 66 0 0 1-.03-.87l-.02-.18a43.41 43.41 0 0 0 .05 1.05m24.14.23c.03-.37.04-.75.05-1.14v-.08l.01-.05.02-.29v-.09.17L25.03 29v.12a4.2 4.2 0 0 1-.07.52l.01-.18m.03-.24.02-.23.03-.82-.02.18c0 .3-.02.58-.03.87M2.2 30.96a4.23 4.23 0 0 1-.68-.65l-.02-.11c-.09-.52-.15-1.06-.2-1.6l-.02-.17.05.05c.13.14.3.3.53.44l.01.16v-.16l.05.04.02.15a20.64 20.64 0 0 0 .36 1.92l-.1-.07m-.13-.35a20 20 0 0 1-.24-1.42 3.35 3.35 0 0 1-.43-.37c.05.45.1.9.18 1.33.13.15.3.3.5.46Zm21.5.24c.13-.55.23-1.14.32-1.74l.01-.15.07-.04a3 3 0 0 0 .53-.44l.05-.05-.02.16a27.87 27.87 0 0 1-.22 1.72l-.04.05c-.17.2-.38.4-.64.6l-.1.07.04-.18m.15-.06a.96.96 0 0 1-.07.03l.07-.03Zm.04-.18c.2-.16.35-.31.49-.46.07-.44.13-.88.18-1.33-.12.12-.26.24-.43.36-.07.5-.15.97-.24 1.43m1.11-1.43c.04-.44.06-.89.08-1.34v-.1l.02-.04.07-.29v-.05.15c0 .4-.02.8-.04 1.2v.14l-.1.41-.04.09.02-.17m.04-.23.07-.27c.01-.33.03-.65.03-.98 0 .07-.02.13-.04.2l-.06 1.05Zm-23.98.31a3 3 0 0 1-.1-.42v-.1.02-.02.1-.04l-.01-.09-.04-1.2v-.15.05a1.99 1.99 0 0 0 .08.32v.1l.08 1.34.02.17-.03-.08m-.03-.31L.85 27.9a2.3 2.3 0 0 1-.04-.2c0 .33.02.65.03.97l.07.28m9.1 2.73a34.1 34.1 0 0 1-2.5-.27l-.19-.03-.02-.17c-.11-.73-.22-1.54-.3-2.4l-.02-.23.2.02a52 52 0 0 0 2.63.2l.01.2v-.2h.21v.2l.17 2.5.03.19-.22-.02m-.24-.38c-.06-.64-.12-1.34-.16-2.09-.78-.05-1.51-.1-2.2-.17a39 39 0 0 0 .24 2.03c.67.1 1.38.17 2.12.23Zm5.83.4a24.35 24.35 0 0 0 .2-2.9h.2a50.75 50.75 0 0 0 2.83-.22l-.01.22a34.95 34.95 0 0 1-.33 2.58l-.18.03c-.78.11-1.63.2-2.5.27l-.22.01m.44-.2h-.21.21Zm.02-.2a33.3 33.3 0 0 0 2.12-.22c.09-.62.17-1.3.24-2.03-.7.07-1.44.12-2.21.17-.04.74-.1 1.45-.15 2.09Zm6.13-.98c.13-.67.24-1.39.32-2.14l.02-.17.11-.03c.44-.11.79-.22 1.07-.33l.08-.04-.01.18c-.07.67-.15 1.33-.26 1.94l-.02.14-.08.05c-.3.18-.68.36-1.13.53l-.14.05.04-.18m.24-.06-.12.03.12-.03Zm.03-.19c.36-.14.66-.28.92-.42.09-.52.16-1.07.22-1.63-.24.1-.53.2-.88.3-.07.6-.16 1.2-.26 1.75Zm-18.91.38a7.68 7.68 0 0 1-1.14-.53l-.08-.05-.02-.14a28.5 28.5 0 0 1-.27-2.12l.09.04c.28.1.63.22 1.06.33.04 0 .07.02.11.03l.02.17a26 26 0 0 0 .32 2.13l.04.2a.38.38 0 0 0-.13-.06Zm-.18-.38c-.1-.56-.2-1.15-.26-1.76-.34-.1-.63-.2-.88-.3.06.57.14 1.12.22 1.64.26.14.57.28.92.42m21.25-1.32a39 39 0 0 0 .12-1.58v-.14l.03-.02c.08-.09.14-.17.18-.24l.01-.04v.15a33 33 0 0 1-.06 1.42v.1l-.02.05c-.05.13-.13.26-.23.4l-.04.07.01-.17m.09-.22c.07-.1.12-.2.16-.3l.05-1.17a1.4 1.4 0 0 1-.13.2l-.08 1.27Zm-23.53.33c-.1-.15-.17-.28-.23-.41l-.02-.05v-.1a33 33 0 0 1-.06-1.42v-.15l.01.04.18.24.03.03v.13c.03.53.07 1.07.12 1.59l.01.16-.04-.06m-.05-.33c-.04-.42-.07-.84-.09-1.27a1.1 1.1 0 0 1-.13-.2l.05 1.18c.04.1.1.19.17.3Zm-.35-.78-.01-.25V26.2v.29l.02 1.16v.16-.07m-.01-.28a103.02 103.02 0 0 1-.02-.98l.01.84v.14m24.28.19.01-1.16v-.13l.01-.14v-.04 1.31l-.02.25-.01.06v-.15m.02-.2v-.13l.01-.85v.1l-.01.89m-10.7 2.4-1.45.02-1.45-.02h-.22v-.22l-.07-2.83v-.23c1.15.02 2.33.02 3.49 0v.23l-.07 2.83v.21h-.23Zm0-.2.01-.22v.21Zm-1.45-.2 1.24-.02.04-2.39h-2.55l.04 2.4h1.23Zm6.78-.24c.1-.82.17-1.69.2-2.6l.02-.21.17-.01a51 51 0 0 0 1.88-.13l.14-.02-.01.2c-.04.82-.11 1.62-.21 2.38l-.03.18-.13.02c-.53.14-1.16.27-1.87.37l-.19.03.03-.2m.35-.04-.18.02.18-.02Zm.02-.2c.59-.1 1.1-.2 1.57-.3.08-.65.14-1.33.18-2.02-.46.06-.98.1-1.57.14-.04.75-.1 1.48-.18 2.17Zm-14.08.4c-.71-.1-1.34-.23-1.88-.36L3.97 29l-.02-.17a30.72 30.72 0 0 1-.22-2.58 42.44 42.44 0 0 0 2.02.15v.22-.22h.17v.22c.05.91.12 1.78.22 2.6l.02.2-.18-.02m-.22-.42c-.07-.69-.13-1.42-.17-2.16l-1.57-.14c.04.68.1 1.36.18 2.01.46.1.98.2 1.57.29M24 28.05a31.74 31.74 0 0 0 .14-2.1h.06a4.3 4.3 0 0 0 .49-.16v.16a45.8 45.8 0 0 1-.08 1.7l-.01.13c-.02 0-.03.02-.04.03-.12.12-.28.24-.5.38l-.07.04.01-.18m.15-.22.39-.27.07-1.44c-.1.05-.21.08-.36.13a33.7 33.7 0 0 1-.1 1.58m-22.39.35a2.98 2.98 0 0 1-.54-.4v-.14c-.04-.55-.07-1.12-.08-1.7v-.16l.03.02c.1.05.25.1.45.14v.16-.16l.06.01v.16c.03.66.07 1.31.13 1.94l.02.18-.07-.05m-.09-.35a32.1 32.1 0 0 1-.1-1.58 4.45 4.45 0 0 1-.36-.13l.07 1.43c.1.1.23.18.39.28m23.3-.76c.02-.45.03-.9.03-1.36v-.12l.01-.02a.28.28 0 0 0 .05-.08v-.01.13l-.01 1.21v.13l-.06.23-.02.04v-.15m.03-.18.04-.14.01-1-.03.06c0 .36 0 .72-.02 1.08Zm-24.17.29a1.4 1.4 0 0 1-.06-.23v-.13l-.02-1.21v-.13.01l.05.08v.13-.13l.01.02v.12l.03 1.36v.15l-.01-.04m-.02-.29L.8 25.82c0-.03-.02-.05-.03-.07l.01 1 .04.14Zm15.02.77v-.23c.02-.78.03-1.57.03-2.37v-.61l.02-.23h.21l2.7.02h.2v.23c0 .95-.02 1.9-.07 2.82v.21l-.2.01c-.82.06-1.72.1-2.66.14v-.23h.22-.22v.23h-.23m.48-2.6c0 .72 0 1.44-.03 2.14l2.26-.1c.03-.78.05-1.58.05-2.4h-2.28v.37m-6.56 2.58c-.95-.03-1.85-.07-2.66-.13l-.2-.01v-.21a47.4 47.4 0 0 1-.07-2.82v-.22h.2l2.7-.03-.01.24v-.24h.23l-.01.24v.6c0 .8.02 1.59.04 2.37v.23l-.22-.02m-.24-.45a75.3 75.3 0 0 1-.03-2.14v-.36H7.22c0 .81.01 1.62.05 2.4l2.25.1m13.1-.3c.04-.66.07-1.33.07-2v-.56h.11l1.03.05h.08v.18c0 .7-.02 1.39-.05 2.07l-.01.16-.08.03c-.27.07-.61.16-1.04.23l-.12.02.01-.19m.23-.02-.11.01.1-.01Zm.06-1.97c0 .6-.02 1.19-.05 1.77.33-.05.61-.11.85-.17.03-.58.04-1.17.04-1.76-.23 0-.5 0-.84-.02v.18M3.1 27.05c-.43-.08-.77-.16-1.05-.23l-.07-.03-.01-.16a32.7 32.7 0 0 1-.05-1.9v-.35H2l1.03-.05v.2-.2h.12v.2c-.01.78.01 1.58.06 2.35l.02.2c-.04-.02-.09-.02-.13-.03m-.13-.4a40.8 40.8 0 0 1-.05-1.94l-.84.02c0 .59.01 1.18.04 1.76l.85.17m21.8-.42c.02-.45.03-.9.03-1.36v-.42h.02l.16.03h.01v1.58l-.01.12-.01.01a.85.85 0 0 1-.17.17l-.03.02v-.15m.08-1.36c0 .4 0 .79-.02 1.19.05-.05.1-.08.12-.12l.01-1.08v-.11h-.11v.12Zm-23.8 1.49a.9.9 0 0 1-.17-.17l-.01-.02v-.12l-.02-1.43v-.13h.02a.4.4 0 0 1 .15-.04h.03v.14c0 .55 0 1.1.02 1.64v.15l-.03-.02m-.03-.3A50.1 50.1 0 0 1 1 24.75H.87l.01 1.2.12.12Zm-.24-.14v-1.39.12a178.79 178.79 0 0 0 0 1.3v-.03m0-.24v-.91.91Zm24.3.14.01-.94v-.35 1.3a.58.58 0 0 1 0 .11v-.12m0-.94v.8-.92.1Zm-10.63.46H11.4v-.24h.23-.23v.24h-.24v-.24c0-1.01 0-2.02.02-3v-.23h.24a116.54 116.54 0 0 1 3.22 0v.23c.02.97.02 1.98.02 3v.24h-.22m-.24-.47-.01-2.55h-2.55l-.01 2.55h2.57Zm5.74.42v-.22a45.84 45.84 0 0 0-.08-2.95l.18.03c.72.06 1.34.14 1.88.21l.12.02.02.2a34.15 34.15 0 0 1 .08 2.66h-.15l-1.87.05v-.22h.17-.17v.22h-.18m.35-.43c.6 0 1.12 0 1.57-.02v-.24c0-.62-.02-1.25-.06-1.86l-1.56-.16c.04.75.05 1.51.05 2.28m-14.58.43-1.88-.05H3.7v-.2a34.23 34.23 0 0 1 .08-2.66l.14-.02a37.7 37.7 0 0 1 1.87-.21l.18-.03-.01.23a41.6 41.6 0 0 0-.07 2.94H5.7m-.18-.44c0-.76.03-1.52.07-2.27-.6.05-1.11.1-1.57.16-.04.7-.06 1.4-.06 2.1l1.56.01m18.63.3v-.46a38.14 38.14 0 0 0-.05-1.84l.07.02c.2.07.35.14.46.2l.03.02v.15c.02.47.03.95.03 1.43v.44h-.03l-.45.04v-.17h.06-.06v.17h-.06m.12-.47v.14l.35-.01v-.14c0-.44 0-.88-.02-1.32-.1-.05-.21-.09-.36-.14.02.48.03.98.03 1.47m-22.67.47-.45-.04h-.03v-.16c0-.57 0-1.15.02-1.72v-.14l.04-.02c.11-.06.26-.13.46-.2.02-.02.05-.02.07-.03v.18c-.04.54-.05 1.08-.05 1.63v.5H1.6m-.06-.33v-.17c0-.48.01-.97.03-1.44l-.36.14-.02 1.46h.35Zm-.74.22-.04-.02v-.11.11-1.47l.05-.12.01-.02v1.63H.8m0-.26v-1.08a.44.44 0 0 0-.03.08v1H.8m24.21.26v-.37a111.05 111.05 0 0 0 0-1.26v.02a.6.6 0 0 1 .05.12v1.47l-.04.02v-.12.12h-.01m.02-.36v.1h.03v-1a.59.59 0 0 0-.04-.08v.98m.06-.52v-.06l-.01-.02V24l-.01-1.17v-.14.04l.01.18v1.15-.11.24-.02m0-.24v-.95.96m-24.31.14v-1.34l.01-.05v1.4l-.01.02a.3.3 0 0 0 0 .07v.01-.12Zm0-.13v-.04a105.4 105.4 0 0 1 0 .04m24.21 0a.58.58 0 0 0-.19-.13v-.14c0-.54-.03-1.08-.06-1.61l-.01-.16.04.04c.08.1.14.2.18.3v.12-.13l.02.03v.12c.02.48.03.95.03 1.43v.14l-.01-.01m-.02-.28-.03-1.2a1.42 1.42 0 0 0-.13-.2l.04 1.3c.05.03.1.07.12.1m-24.1.16a59.07 59.07 0 0 1 .03-1.55l.02-.04c.04-.08.1-.18.19-.29 0-.02.02-.03.03-.05v.17c-.04.53-.06 1.08-.07 1.62v.14l-.03.01a.61.61 0 0 0-.17.13v-.14m.03-.16a.7.7 0 0 1 .12-.1c0-.44.02-.87.05-1.3l-.14.2-.03 1.2m22.93-.12-1.04-.16h-.11v-.2a39.93 39.93 0 0 0-.23-2.47l.12.04c.44.14.8.27 1.08.4l.02.17-.02-.16c.03 0 .05.02.08.03l.01.15a31.4 31.4 0 0 1 .16 2.22l-.07-.02m-.1-.36c-.02-.58-.07-1.16-.13-1.72a7.9 7.9 0 0 0-.88-.31c.07.6.13 1.24.17 1.88l.84.15m-21.77.37v-.17c.03-.7.08-1.37.16-2.04l.01-.15c.03 0 .05-.02.08-.03a8.7 8.7 0 0 1 1.08-.4l.13-.05-.03.2c-.1.73-.16 1.5-.2 2.28v.18l-.12.01-1.03.16-.08.01m.17-.37c.23-.05.5-.1.84-.15.04-.65.1-1.28.17-1.89-.35.1-.64.21-.88.32-.06.55-.1 1.13-.13 1.72m16.65-.1L16.08 23h-.22v-.23c-.03-.98-.06-1.93-.11-2.8l-.01-.21h.22c.92.06 1.8.14 2.6.23l.02.2-.02-.2.18.02.03.19c.08.84.15 1.74.18 2.67l.01.23-.2-.01Zm-.2-.44c-.04-.79-.1-1.55-.16-2.27-.69-.07-1.43-.13-2.2-.18l.1 2.36c.79.02 1.55.05 2.25.09m-11.7.45.01-.22c.04-.93.1-1.82.2-2.67 0-.06 0-.13.02-.19a82.29 82.29 0 0 1 3-.26v.22c-.06.87-.1 1.82-.12 2.8V23h-.23c-.95.02-1.86.06-2.68.1h-.2m.41-.45c.7-.04 1.46-.07 2.26-.09.02-.82.05-1.6.1-2.36-.77.05-1.51.1-2.2.18-.07.72-.12 1.48-.16 2.27m17.8.47a.92.92 0 0 0-.06-.18l-.01-.03v-.11l-.05-1.36.01.03-.01-.03v-.16l.01.06c.04.12.06.23.08.33v.14l.03 1.2v.14-.03m-.02-.27c0-.33 0-.67-.02-1a2.17 2.17 0 0 0-.04-.2L25 22.7l.03.14M.77 23l.03-1.22v-.13l.08-.32.02-.07-.01.17a51.6 51.6 0 0 0-.05 1.46l-.01.03a.92.92 0 0 0-.05.18v.03V23m0-.17.04-.13.03-1.07-.04.2-.02 1m23.81-.43c-.12-.1-.27-.2-.48-.3l-.06-.03-.01-.15a25.3 25.3 0 0 0-.22-1.86l-.03-.18.08.06c.24.17.43.34.57.5v.14-.14l.03.05.02.12c.06.54.1 1.1.13 1.67l.01.16-.04-.04m-.05-.33-.13-1.39a3.25 3.25 0 0 0-.43-.38c.07.49.13 1 .17 1.52.16.08.28.17.39.25Zm-23.35.2c.03-.56.07-1.12.13-1.66l.02-.12c0-.02.02-.03.04-.05.14-.16.32-.33.56-.5l.08-.06-.03.18c-.1.6-.16 1.22-.22 1.86l-.01.16-.06.02c-.2.1-.36.2-.48.3l-.04.04v-.16Zm.09-.2c.1-.08.22-.17.38-.25.05-.52.1-1.03.17-1.52-.17.13-.31.26-.43.38-.05.46-.1.92-.12 1.4Zm20.53-.67c-.54-.11-1.16-.21-1.88-.31l-.17-.02-.02-.2a28.37 28.37 0 0 0-.36-2.54l.18.03c.7.14 1.33.3 1.87.46l.13.04.03.16c.14.69.25 1.43.34 2.2l.02.2-.14-.02m-.18-.41c-.07-.66-.17-1.28-.28-1.87a19 19 0 0 0-1.56-.37c.11.6.2 1.27.28 1.96.58.09 1.1.18 1.56.28m-17.77.43.02-.2c.1-.77.2-1.51.35-2.2l.03-.16.13-.04a18.59 18.59 0 0 1 2.04-.49l-.03.19c-.13.72-.24 1.51-.33 2.35l-.02.2-.17.02a30.08 30.08 0 0 0-2.02.33m.32-.43c.46-.1.98-.2 1.56-.28.07-.69.17-1.35.28-1.96-.57.12-1.09.24-1.55.38-.11.58-.21 1.2-.29 1.86m10.2-.29a80.9 80.9 0 0 0-2.95 0h-.23v-.2l.11-2.52v-.18h.22a48.45 48.45 0 0 1 2.96 0l.01.18a105.03 105.03 0 0 1 .1 2.73l-.22-.01m-.24-.43-.06-2.12-1.18-.01-1.17.01c-.02.65-.05 1.36-.06 2.12a49.44 49.44 0 0 1 2.47 0Zm10.92 2.23-.01-.21v-.04l-.01-.1-.03-1.15v-.17.09a4 4 0 0 1 .03.32v.1a2.43 2.43 0 0 1 0-.05v.07l.01 1.05v.15-.06Zm0-.27-.02-.84-.01-.17.02.88v.13Zm-24.3.19.01-1.05v-.12l.03-.33.01-.1V21l-.04 1.16v.12l-.01.22v.06-.15Zm0-.19v-.13l.03-.89-.01.18-.02.84Zm24.13-.55a1.95 1.95 0 0 0-.2-.37l-.01-.14.03.03-.03-.03v.14c0-.02-.02-.03-.03-.04v-.12c-.05-.53-.1-1.04-.18-1.55l-.02-.17.05.08c.13.18.22.36.28.52l.03.04v.1c.05.47.08.93.1 1.4v.16a.83.83 0 0 0-.02-.05Zm-.03-.31-.08-1.15a3.1 3.1 0 0 0-.2-.38c.04.4.09.82.12 1.24.07.1.12.2.16.29Zm-23.96.2.1-1.39v-.1l.03-.05a3.03 3.03 0 0 1 .33-.6l-.02.18c-.07.5-.13 1.01-.17 1.54l-.01.12-.03.04a1.88 1.88 0 0 0-.24.42l.01-.16m.04-.04-.02.02.02-.02Zm0-.16c.05-.1.1-.2.17-.3.03-.4.07-.82.13-1.22-.09.13-.15.25-.2.37l-.1 1.15Zm22.57-1c-.3-.17-.67-.33-1.12-.48l-.02-.17.02.17a8.22 8.22 0 0 0-.1-.05l-.04-.15c-.12-.69-.26-1.34-.43-1.93l-.05-.17.15.06a8.4 8.4 0 0 1 1.27.65l.03.12c.14.58.26 1.18.36 1.82l.02.18a6.69 6.69 0 0 1-.1-.05M23.4 20l-.3-1.5c-.28-.17-.6-.33-.97-.49.13.5.25 1.03.35 1.58.35.14.66.28.92.41m-21.15.25c.1-.64.22-1.24.35-1.8l.04-.14.08-.05c.33-.2.73-.4 1.2-.6l.14-.06-.05.17a18.95 18.95 0 0 0-.47 2.1l-.1.03a7.63 7.63 0 0 0-1.21.53l.02-.18Zm.2-.24c.26-.14.56-.28.91-.41.1-.56.22-1.09.36-1.58-.37.15-.69.32-.97.48-.11.48-.21.98-.3 1.5m15.99-1a43.5 43.5 0 0 0-2.55-.25v-.18h.2-.2v.18l-.21-.01-.01-.18c-.07-.8-.14-1.5-.22-2.1 0-.05 0-.1-.02-.16l.2.02c.84.07 1.64.16 2.38.28l.18.03.03.15c.14.6.28 1.3.39 2.06l.03.2-.2-.04m-.24-.39c-.1-.63-.2-1.21-.31-1.73-.64-.1-1.31-.18-2.01-.24.07.52.14 1.1.2 1.75.74.06 1.45.13 2.12.22m-10.96.23a24.8 24.8 0 0 1 .42-2.2l.17-.04a31.8 31.8 0 0 1 2.38-.28l-.02.15.02-.15.2-.02-.02.16c-.08.6-.15 1.3-.21 2.1l-.01.18h-.21a43.46 43.46 0 0 0-2.75.3l.03-.2Zm.4-.23a33.3 33.3 0 0 1 2.13-.22c.06-.65.13-1.23.2-1.75-.7.06-1.37.14-2 .24-.12.52-.23 1.1-.32 1.73M25 21.2a2.96 2.96 0 0 0-.09-.38l-.01-.05-.01-.1c-.03-.44-.07-.87-.12-1.3l-.02-.18.04.1.14.5v.1-.1.05l.01.08.07 1.2v.16L25 21.2m-.02-.3c-.01-.32-.03-.64-.06-.95l-.08-.33.08 1.01.06.27m-24.17.21a44.9 44.9 0 0 1 .07-1.32 3.76 3.76 0 0 1 .18-.6l-.02.18c-.05.43-.09.86-.12 1.3v.1l-.02.05-.09.38v.07-.16m.02-.21.07-.27c.02-.34.04-.68.08-1.02l-.1.34-.05.95m23.5-1.1a3.93 3.93 0 0 0-.6-.55l-.07-.05-.02-.12c-.12-.57-.25-1.1-.4-1.6l-.06-.17.12.08c.29.21.52.43.72.65l.05.05.02.1c.11.48.2 1 .28 1.52l.02.17-.06-.07m-.09-.34c-.07-.43-.14-.84-.24-1.24a4.75 4.75 0 0 0-.55-.51c.11.4.22.85.31 1.3.2.15.35.3.48.45Zm-22.8.24c.07-.52.16-1.03.27-1.51l.02-.1.06-.06c.2-.22.43-.43.72-.65l.11-.08-.05.17c-.15.5-.29 1.03-.4 1.6l-.03.12-.06.05c-.26.2-.45.38-.61.56l-.06.07.02-.17m.1-.07c-.01.02-.03.02-.05.03.02 0 .04-.02.05-.03Zm.03-.17c.13-.15.3-.3.49-.45.09-.45.19-.9.3-1.3-.21.17-.4.34-.55.5-.1.4-.17.82-.24 1.25m23.46 1.38a4.31 4.31 0 0 0-.04-.41v-.09a31.2 31.2 0 0 0-.08-1.12l-.02-.2a4.02 4.02 0 0 1 .09.6v.12l.05 1.03v-.12.13a8 8 0 0 1 0 .07M.8 20.79a46.17 46.17 0 0 1 .04-1.1v-.05a5.03 5.03 0 0 1 .1-.6l-.02.2-.08 1.12v.08l-.01.05-.04.36v.11-.17m.02-.24c0-.06 0-.14.02-.21a36.16 36.16 0 0 1-.02.21Zm20.41-2.51a20.9 20.9 0 0 0-1.85-.5l-.03-.15.17.02-.17-.02.03.16-.16-.04-.04-.15a15.82 15.82 0 0 0-.54-1.81 17.34 17.34 0 0 1 2 .52l.12.04.05.12c.2.5.37 1.06.54 1.69l.04.18-.16-.06m-.2-.36c-.14-.51-.3-.98-.45-1.4a18.5 18.5 0 0 0-1.5-.4c.14.4.28.88.41 1.39.56.12 1.07.26 1.53.4m-16.52.25c.16-.63.34-1.2.53-1.69l.05-.12c.04 0 .08-.02.12-.04.55-.18 1.16-.34 1.82-.48l.18-.04-.05.14a16.15 16.15 0 0 0-.52 1.83c-.06 0-.11.02-.17.03-.69.15-1.3.31-1.85.5l-.16.05.05-.18m.32-.24c.47-.15.98-.29 1.54-.41.13-.52.27-.98.42-1.4-.55.13-1.05.27-1.51.42-.16.42-.31.88-.45 1.39m9.43-.72a41.7 41.7 0 0 0-2.66 0h-.2v-.16a53.08 53.08 0 0 1 .15-1.77h.2a33.16 33.16 0 0 1 2.38 0h.18l.01.12c.05.46.1 1 .14 1.65l.01.17-.21-.01m-.22-.33a32.2 32.2 0 0 0-.1-1.37 44.95 44.95 0 0 0-2.03 0l-.08 1.37a51.88 51.88 0 0 1 2.2 0m10.71 2.87a3.31 3.31 0 0 0-.31-.56l-.04-.05-.02-.1a16.04 16.04 0 0 0-.36-1.55l.08.1a4 4 0 0 1 .43.64l.03.06.02.08a25.28 25.28 0 0 1 .22 1.48l-.05-.1m-.05-.33c-.05-.35-.11-.7-.18-1.03a3.08 3.08 0 0 0-.3-.47c.09.34.16.7.23 1.08.1.15.18.29.24.42m-23.58.25c.06-.44.12-.88.2-1.3l.02-.08.02-.06c.12-.2.26-.42.43-.63l.1-.11-.06.18c-.12.43-.22.88-.3 1.37l-.03.1-.04.05c-.13.2-.24.39-.32.56 0 .04-.02.06-.04.1l.02-.18Zm.08-.24c.07-.13.15-.28.25-.43.07-.37.14-.73.23-1.08-.12.16-.22.32-.3.47-.07.34-.13.68-.18 1.04m21.75-1.57a8.94 8.94 0 0 0-1.23-.62c0-.05-.02-.09-.03-.13l.12.03-.12-.03.03.13a4.04 4.04 0 0 1-.11-.05 11.85 11.85 0 0 0-.64-1.52l-.07-.13.16.06c.49.18.92.39 1.3.6l.08.04.05.1c.19.42.37.9.53 1.42l.05.17-.12-.07m-.17-.34c-.14-.41-.3-.8-.45-1.15a9.3 9.3 0 0 0-1.04-.5c.17.35.33.73.48 1.15.37.16.71.33 1 .5Zm-19.9.24c.16-.52.34-1 .53-1.42l.05-.1.08-.05c.38-.2.81-.4 1.3-.59l.17-.06-.08.14a11.4 11.4 0 0 0-.64 1.52l-.1.04a8.9 8.9 0 0 0-1.36.7l.05-.17m.25-.24c.29-.18.62-.35 1-.5.15-.43.31-.8.48-1.15-.38.15-.73.32-1.04.49-.16.35-.3.74-.44 1.16m21.8 2.05c-.04-.16-.1-.34-.17-.53l-.02-.05-.01-.09c-.07-.4-.14-.81-.23-1.2l-.04-.18.07.13c.1.2.18.41.25.6v.1-.1l.02.06v.07a21.7 21.7 0 0 1 .15 1.32l-.02-.13m-.04-.31c-.04-.3-.07-.6-.12-.88-.04-.13-.1-.27-.16-.4l.15.9c.05.13.1.25.13.38m-23.92.25c.03-.39.08-.77.13-1.13l.01-.08.02-.05a4.32 4.32 0 0 1 .32-.73l-.05.19a15.05 15.05 0 0 0-.23 1.28l-.02.05a3.82 3.82 0 0 0-.2.65l.02-.18m.05-.25.12-.37c.04-.31.1-.62.15-.91l-.16.4-.11.87m16.82-3.07c-.72-.12-1.49-.21-2.28-.28l-.02-.13.2.01h-.2l.02.12c-.07 0-.13 0-.2-.02l-.01-.12c-.08-.5-.17-.9-.25-1.24l-.03-.1.19.02c.71.05 1.4.13 2.07.23l.15.02.04.09a10.32 10.32 0 0 1 .51 1.43l-.19-.03m-.24-.3c-.13-.4-.25-.75-.37-1.05-.56-.08-1.15-.14-1.75-.19l.23 1.02c.65.06 1.28.13 1.89.22m-9.7.18a10.24 10.24 0 0 1 .51-1.37l.15-.02c.67-.1 1.36-.17 2.08-.23h.18l-.02.09c-.09.33-.17.74-.26 1.24l-.01.12-.19.02c-.8.06-1.56.15-2.3.27l-.18.03.04-.14m.4-.18c.6-.1 1.24-.17 1.89-.23.07-.4.15-.73.23-1.02-.6.05-1.19.12-1.76.2-.12.3-.24.64-.37 1.05m15.6 1.83a5.59 5.59 0 0 0-.77-.66l-.08-.05-.03-.1a9.94 9.94 0 0 0-.56-1.22l-.09-.15.15.09c.34.2.64.41.9.63l.05.05.04.08c.16.39.3.8.44 1.26l.04.17-.09-.1m-.13-.32c-.11-.36-.24-.68-.37-1a6.1 6.1 0 0 0-.68-.5c.15.3.3.63.43.98.23.17.44.35.62.52Zm-21.8.25a11 11 0 0 1 .44-1.25l.03-.09.06-.05a6.41 6.41 0 0 1 1.04-.72l-.08.15c-.2.37-.38.77-.56 1.22l-.04.1-.07.05c-.3.23-.56.45-.78.67l-.09.09.05-.17m.18-.25c.18-.17.38-.34.62-.51a9 9 0 0 1 .43-.98c-.26.16-.49.33-.69.5-.13.3-.25.64-.36.99m18.25-1.63c-.54-.17-1.14-.32-1.78-.46l-.03-.1.16.02-.16-.03c0 .04.02.08.03.11l-.15-.03a6.54 6.54 0 0 0-.64-1.16l.18.03c.6.1 1.16.22 1.69.36.04 0 .07.02.11.03l.06.07a7.7 7.7 0 0 1 .7 1.22l-.17-.06m-.24-.27a7.09 7.09 0 0 0-.5-.86c-.45-.12-.92-.22-1.4-.31.14.22.3.49.44.8.51.1 1 .23 1.46.37Zm-14.75.2c.2-.43.42-.79.63-1.09l.06-.07.11-.03c.53-.14 1.1-.26 1.7-.36l.17-.03-.06.09a6 6 0 0 0-.54.97l-.04.1-.15.03c-.64.14-1.23.29-1.78.46l-.17.06.07-.14m.34-.19c.46-.14.94-.26 1.46-.37.15-.31.3-.58.45-.8-.49.1-.96.2-1.4.31-.17.25-.34.53-.5.86Zm18.67 2.24a4.19 4.19 0 0 0-.48-.65l-.05-.06-.03-.08c-.14-.4-.3-.77-.46-1.1l-.08-.16.12.1c.25.22.45.43.61.64l.04.05.03.08c.12.35.23.72.33 1.11l.04.19a6.32 6.32 0 0 0-.07-.12m-.1-.33-.27-.85a4.72 4.72 0 0 0-.44-.48c.12.27.24.56.34.86.14.15.26.32.37.47m-22.84.27c.09-.4.2-.77.33-1.12l.02-.07.04-.06c.17-.2.37-.42.6-.63l.13-.1-.08.15c-.16.33-.32.7-.46 1.1l-.03.1-.04.04c-.2.22-.36.44-.48.65l-.07.12.04-.18m.13-.26c.1-.16.23-.32.37-.48.1-.3.21-.59.33-.86-.16.16-.3.32-.43.48-.1.27-.19.56-.27.86m12.49-2.63a24.32 24.32 0 0 0-2.27 0h-.2l.02-.1a9.6 9.6 0 0 1 .16-.91h.16a36.87 36.87 0 0 1 2.15 0v.06c.06.22.1.5.15.85l.01.11h-.18m-.2-.21c-.04-.28-.06-.5-.1-.7a23.12 23.12 0 0 0-1.68 0l-.09.7a27.95 27.95 0 0 1 1.86 0m10.8 3.22a4.04 4.04 0 0 0-.31-.66l-.02-.07c-.1-.36-.23-.7-.36-1l-.08-.2.12.15c.16.2.3.41.4.61v.08-.08c0 .02.02.04.03.05l.01.06c.1.32.17.66.24 1.02l.03.2-.05-.16m-.08-.32c-.06-.26-.12-.5-.2-.74a4.31 4.31 0 0 0-.25-.43c.09.24.17.5.24.76.08.14.15.28.2.41m-23.4.28a12.4 12.4 0 0 1 .28-1.13c.1-.2.24-.4.4-.61l.11-.14-.08.18a9.72 9.72 0 0 0-.4 1.13 4.1 4.1 0 0 0-.35.77l.04-.2m.1-.28c.05-.13.12-.27.2-.41.07-.26.15-.51.24-.75-.1.14-.18.28-.26.42-.07.23-.13.48-.19.74m20.8-1.78c-.4-.2-.84-.39-1.32-.56l-.04-.1.12.03-.12-.02.04.1a3.1 3.1 0 0 1-.11-.05l-.05-.08a5.78 5.78 0 0 0-.65-.85l-.1-.1.18.05a11.83 11.83 0 0 1 1.42.48l.05.07c.22.27.43.6.64.97l.08.14-.15-.08m-.21-.26a7.47 7.47 0 0 0-.52-.76 13.1 13.1 0 0 0-1.06-.37 6 6 0 0 1 .51.69c.39.13.74.28 1.07.44m-18.12.2c.2-.38.42-.7.64-.97l.05-.06.09-.04c.4-.17.86-.32 1.33-.44l.17-.05-.08.1c-.22.22-.44.5-.66.84l-.05.08-.1.04a10.31 10.31 0 0 0-1.47.64l.08-.14m.2-.07-.1.04.1-.04Zm.09-.13c.32-.16.67-.3 1.06-.44.17-.26.34-.5.51-.69-.37.11-.73.24-1.06.37-.18.22-.35.47-.51.76Zm13.08-1.14a26.7 26.7 0 0 0-1.98-.2l-.01-.07.01.07-.16-.01-.02-.07a4.17 4.17 0 0 0-.23-.58l-.02-.05.16.01c.6.03 1.18.07 1.76.13l.13.01.04.05a3.98 3.98 0 0 1 .5.74 2.94 2.94 0 0 0-.17-.03m-.24-.18c-.12-.2-.23-.36-.34-.5-.49-.05-.98-.09-1.48-.12l.2.47c.55.04 1.1.1 1.62.15Zm-8.24.12a3.8 3.8 0 0 1 .49-.7l.13-.01c.58-.06 1.16-.1 1.76-.13h.16l-.02.04a4.18 4.18 0 0 0-.26.65l-.16.01c-.67.05-1.33.12-1.97.2l-.19.03.05-.1m.37-.1c.52-.07 1.07-.12 1.62-.16l.2-.47c-.5.03-1 .07-1.48.12-.1.13-.22.3-.34.5Zm14.16 1.7a6.85 6.85 0 0 0-.94-.6l-.08-.05-.05-.07c-.2-.31-.42-.58-.64-.8l.1.02-.1-.02a4.25 4.25 0 0 0-.11-.11l.17.07a8.05 8.05 0 0 1 1.08.53l.05.06a6.27 6.27 0 0 1 .65 1.07l-.13-.1m-.2-.28a6.08 6.08 0 0 0-.44-.68 6.8 6.8 0 0 0-.77-.4c.16.18.32.39.48.63.27.15.52.3.74.45m-20.3.22c.18-.34.37-.64.57-.9l.04-.07.07-.04c.3-.18.65-.34 1.02-.5.06-.01.11-.04.17-.06l-.1.11c-.23.23-.44.5-.65.8l-.04.07-.09.04c-.35.2-.66.4-.93.6l-.13.1.08-.15m.15-.06c-.03 0-.05.02-.08.03l.08-.04Zm.08-.16c.22-.15.47-.3.74-.45.16-.24.32-.45.48-.63-.27.12-.54.26-.77.4-.16.2-.3.43-.45.68Zm20.93.48c-.18-.21-.4-.42-.65-.61l-.06-.05-.04-.07a5.6 5.6 0 0 0-.69-.9 4.86 4.86 0 0 1 .94.61l.04.05.04.05c.16.26.32.55.46.87a.67.67 0 0 0-.05-.03l-.02-.08c0 .02 0 .05.02.08a.5.5 0 0 1 .05.03l.08.18-.12-.13m-.15-.3a6.52 6.52 0 0 0-.36-.62 5.62 5.62 0 0 0-.54-.4c.14.19.27.38.4.6.18.13.35.28.5.43m-21.68.24c.13-.31.3-.61.46-.87 0-.02.02-.03.03-.05l.05-.04a5.79 5.79 0 0 1 .93-.62l-.12.13c-.2.23-.39.49-.57.78l-.04.06-.05.05c-.25.2-.47.4-.66.61l-.11.13.08-.18m.19-.24c.15-.15.3-.3.5-.43.12-.22.26-.41.4-.59a6 6 0 0 0-.55.4c-.12.19-.24.4-.35.62m17.2-1.54c-.52-.13-1.07-.23-1.64-.32l-.03-.06.14.01h-.14l.03.05-.14-.02a2.95 2.95 0 0 0-.53-.52l-.06-.04.17.02a25.5 25.5 0 0 1 1.62.22c.02 0 .03.02.05.04.2.14.4.33.62.57l.08.09-.17-.04m-.25-.18a3.86 3.86 0 0 0-.47-.43c-.4-.07-.83-.13-1.25-.18.12.1.26.22.4.37.45.07.9.15 1.32.24Zm-12.76.13c.2-.24.41-.43.62-.57l.05-.04.1-.02a24.66 24.66 0 0 1 1.69-.22 3.1 3.1 0 0 0-.55.51l-.05.05-.13.02c-.57.09-1.12.2-1.64.32l-.17.04.08-.1m.34-.11a19 19 0 0 1 1.32-.25c.14-.15.27-.27.4-.37-.43.05-.85.11-1.25.18-.15.12-.3.26-.47.44Zm7.15-.47a33.08 33.08 0 0 0-1.88 0h-.17l.02-.05a2.4 2.4 0 0 1 .13-.38h.14a35.27 35.27 0 0 1 1.64 0h.14l.01.03a2.69 2.69 0 0 1 .13.4h-.16Zm-.18-.1-.07-.28a31.66 31.66 0 0 0-1.39 0l-.07.27h1.53m7.36.84a12.44 12.44 0 0 0-1.43-.42l-.05-.05a3.67 3.67 0 0 0-.71-.49l.18.03c.44.07.87.16 1.28.26l.04.05-.04-.05.08.03.06.04a6 6 0 0 1 .66.55l.1.11a4.57 4.57 0 0 0-.17-.06m-.25-.19a3.02 3.02 0 0 0-.5-.4 9.96 9.96 0 0 0-1.01-.23c.15.1.3.2.47.34a13 13 0 0 1 1.04.3Zm-16.05.15a4.54 4.54 0 0 1 .71-.6l.09-.02c.4-.1.83-.2 1.28-.27l.17-.02-.1.05c-.19.11-.4.25-.6.43l-.06.05-.1.03a11 11 0 0 0-1.33.4l-.17.05.1-.1m.32-.15c.33-.1.68-.2 1.05-.29.16-.13.32-.25.46-.34-.35.07-.69.14-1.02.23l-.49.4m11.37-.72c-.55-.04-1.11-.08-1.68-.1l-.01-.03h.15-.15l.01.03h-.14a1.25 1.25 0 0 0-.2-.25l-.03-.03h.15a50.78 50.78 0 0 1 1.63.09c.12.06.25.14.39.26l.05.05-.17-.02m-.22-.09-.27-.2-1.24-.04.16.16 1.35.08m-6.9.06c.14-.12.26-.2.38-.26l.04-.02.12-.01a43.74 43.74 0 0 1 1.6-.04c-.05.05-.12.12-.19.22 0 0 0 .02-.02.03h-.13c-.57.03-1.13.06-1.68.11l-.17.02a.43.43 0 0 1 .05-.05m.28-.01h-.13.13Zm.06-.04c.44-.04.9-.06 1.35-.08.06-.08.1-.13.16-.17l-1.24.05c-.09.05-.18.11-.27.2m12.59 1.19a8.94 8.94 0 0 0-1.04-.45c-.03 0-.05-.02-.08-.03l-.05-.04a4.3 4.3 0 0 0-.78-.52l.2.05c.37.09.72.2 1.05.32l.04.04-.04-.04.07.02.05.04c.21.16.42.35.63.57l.12.13a4.03 4.03 0 0 0-.17-.1Zm-.23-.2a4.6 4.6 0 0 0-.46-.4c-.26-.1-.52-.19-.8-.27.15.1.3.21.45.34.29.1.56.2.8.32Zm-18.44.16c.2-.22.41-.41.63-.57l.05-.04.06-.02a10.6 10.6 0 0 1 1.26-.37l-.14.07a4.27 4.27 0 0 0-.7.5l-.07.02a8.85 8.85 0 0 0-1.2.53l.11-.12m.28-.17c.25-.11.52-.22.8-.32.16-.13.31-.24.47-.34-.29.08-.55.17-.8.27-.16.11-.31.24-.47.4m14.6-.9c-.47-.07-.96-.13-1.46-.17l-.03-.03h.13-.13l.03.03-.12-.01-.04-.03a2.2 2.2 0 0 0-.46-.2h.16l1.32.1h.1l.05.03a3.54 3.54 0 0 1 .62.3l-.17-.02Zm-.24-.1a3.17 3.17 0 0 0-.38-.17c-.36-.04-.72-.07-1.09-.09.1.04.2.08.3.14.4.03.79.07 1.17.12Zm-10.89.07c.19-.11.37-.19.53-.25l.05-.02h.1c.44-.05.88-.08 1.33-.1h.16a2.1 2.1 0 0 0-.5.22h-.12c-.5.05-.99.1-1.46.18l-.18.02.1-.05m.32-.07c.38-.05.77-.09 1.17-.12.1-.06.2-.1.3-.14l-1.1.08c-.12.05-.24.1-.38.18Zm6.06-.23h-1.71l.01-.02a.7.7 0 0 1 .1-.12v-.01h1.63l.01.01a.55.55 0 0 1 .1.14h-.14m-.16-.04a.56.56 0 0 0-.05-.09h-1.15l-.05.09a50.17 50.17 0 0 1 1.25 0Zm6.48.47c-.4-.09-.82-.16-1.25-.23l-.1-.01-.05-.02a4.05 4.05 0 0 0-.52-.19l-.1-.02.17.01 1.18.13.03.03a.86.86 0 0 1-.03-.03l.07.02a3.91 3.91 0 0 1 .79.36l-.19-.05m-.26-.11a4.2 4.2 0 0 0-.41-.18l-.93-.12c.12.04.25.08.37.14l.97.16Zm-14 .09c.2-.12.4-.2.6-.27l.05-.02.08-.01a20.96 20.96 0 0 1 1.36-.15c-.04 0-.08.02-.11.03-.16.04-.34.1-.52.18l-.05.02-.1.01c-.43.07-.85.14-1.25.23l-.2.05.14-.07Zm.32-.1.97-.15c.13-.05.25-.1.37-.13l-.92.11-.42.18m15.17.28c-.33-.1-.68-.2-1.05-.27l-.08-.02c-.02 0-.03-.02-.05-.03-.2-.08-.4-.15-.58-.2l-.15-.05.2.03c.36.05.7.1 1.04.18l.03.02-.03-.02.06.01.05.02a4.25 4.25 0 0 1 .76.4l-.2-.07m-.26-.13a4.48 4.48 0 0 0-.4-.2c-.25-.05-.5-.1-.78-.14l.39.15c.27.05.54.12.79.19Zm-16.44.1c.2-.12.41-.22.61-.3l.05-.02.06-.01a14.95 14.95 0 0 1 1.24-.2c-.05 0-.1.02-.15.04a5 5 0 0 0-.58.2l-.06.03a11.5 11.5 0 0 0-1.13.3l-.2.06.16-.1m.31-.1.8-.2.38-.14c-.27.04-.53.1-.78.15-.13.05-.26.11-.4.19Zm11-.52c-.47-.02-.94-.04-1.41-.04h-.13l-.02-.02a.45.45 0 0 0-.16-.07h.13c.42 0 .85 0 1.26.02h.14c.1.03.19.05.3.1h-.13c0-.02-.01-.02-.02-.02l.02.01h.13l.05.03-.16-.01m-.2-.04a1.74 1.74 0 0 0-.2-.06l-1.03-.02.11.05c.38 0 .75.02 1.13.03Zm-5.78.02c.1-.04.2-.06.3-.08h.03l.1-.01 1.26-.02h.13-.02a.65.65 0 0 0-.14.07l-.02.01h-.12l-1.42.05h-.16l.05-.01m.3-.03 1.13-.03a.8.8 0 0 1 .11-.05 93 93 0 0 0-1.04.02l-.2.06m7.47.07a38.08 38.08 0 0 0-1.42-.1 3.07 3.07 0 0 0-.37-.06h.15l1.16.04.08.01h.05c.14.03.28.05.43.1l-.1-.01h.1a2 2 0 0 0 .1.03l-.17-.01m-.24-.05-.28-.05-.93-.04.22.04.99.05m-9.3.03.44-.08.05-.01h.08l1.16-.05H10h-.07l-.31.06-.04.01h-.1c-.43.03-.86.05-1.28.09l-.18.01.1-.03m.31-.03 1-.05.21-.04-.93.03-.27.06m5.14-.1h-1.46.02a.2.2 0 0 1 .07-.03h1.42l.07.03h.01-.13Zm-.14-.01a.1.1 0 0 0-.03-.02h-.97l-.04.02h1.04m-6.76.22c.18-.05.35-.08.51-.1l.06-.02h.06a29.02 29.02 0 0 1 1.12-.06l-.42.06-.05.01h-.08l-1.14.12-.2.03.14-.04Zm.32-.05a25.86 25.86 0 0 1 1.13-.11l-.82.05-.3.06m12.1.06c-.37-.05-.75-.08-1.14-.11l-.09-.01h-.05a4.36 4.36 0 0 0-.53-.08h.18a39.77 39.77 0 0 1 1.12.07l.05.01.51.1h-.09l-.03-.01.03.01h.1l.13.05-.19-.03m-.27-.06a5.4 5.4 0 0 0-1.12-.11l.26.04.86.07Zm-3.41-.16-1.22-.02h-.13a.58.58 0 0 0-.11-.02h-.02.12a103.56 103.56 0 0 1 1.1.01h.12c.06 0 .14 0 .22.02h.06-.15m-.18 0-.13-.02a99.96 99.96 0 0 0 .13.01Zm-4.93 0 .23-.02h1.33-.02a.5.5 0 0 0-.13 0h-.1l-1.22.03h-.14.05m.28-.02a116.9 116.9 0 0 1 1.01-.02l-.88.01-.13.01m6.4.04a64 64 0 0 0-1.11-.03h-.13l-.24-.02h-.07.15a88.51 88.51 0 0 1 1.08.02h.05a7 7 0 0 1 .34.03h-.1a1.18 1.18 0 0 1 .21 0 8 8 0 0 0-.18 0m-.23-.02h-.18a54.93 54.93 0 0 0 .18 0Zm-8 .02.35-.03h.11l1.02-.01h.15-.44l-1.11.04h-.18.1m.3-.02.85-.02h.13a77.9 77.9 0 0 0-.98.02Zm4.42-.04h-1.25.01a.35.35 0 0 1 .06 0h1.23a.2.2 0 0 1 .06 0h.01-.12Zm-.13 0h-.87.87Z"/>
  </g>
  <mask id="b" width="111" height="24" x="0" y="13" maskUnits="userSpaceOnUse" style="mask-type:luminance">
    <path fill="#fff" d="M110.9 13.4H.93v23H110.9v-23Z"/>
  </mask>
  <g fill="#fff" mask="url(#b)">
    <path d="M40 27.07c0-.77-.28-1.38-.82-1.85a3.3 3.3 0 0 0-2.22-.69h-7.5v9.29h7.4c2.35 0 3.52-.81 3.52-2.44 0-1.2-.53-1.99-1.6-2.35.81-.46 1.21-1.11 1.21-1.96Zm-9 1.35v-2.5h6.06c.44 0 .79.1 1.05.33.25.23.38.53.38.9 0 .36-.14.65-.43.9-.28.25-.64.37-1.07.37H31Zm0 4.01V29.8h6.12c1.12 0 1.68.46 1.68 1.36 0 .85-.64 1.27-1.92 1.27H31Zm18.14-7.9h-1.93l-4.92 9.29h1.69l1.07-2.08h6.25l1.07 2.08h1.69l-4.92-9.29Zm-3.34 5.83 2.4-4.5 2.36 4.5H45.8ZM65 24.53l-4.16 7.74-4.17-7.74h-1.72l5 9.29h1.77l5-9.29H65Zm5.51 0h-1.54v9.29h1.54v-9.29Zm13.47 7.9h-8.19V29.7h5.44v-1.4H75.8v-2.38h7.83v-1.39h-9.37v9.29h9.73v-1.39Zm11-2.23c.73-.12 1.3-.4 1.73-.85.45-.47.68-1.1.68-1.9 0-.9-.28-1.6-.84-2.13a3.2 3.2 0 0 0-2.3-.79h-7.32v9.29h1.54v-3.54h4.69l2.51 3.54h1.8l-2.5-3.62Zm-6.5-1.3v-2.98h5.4c1.29 0 1.93.5 1.93 1.53 0 .96-.6 1.44-1.78 1.44h-5.56Zm17.5-4.37h-1.93l-4.91 9.29h1.68l1.07-2.08h6.25l1.08 2.08h1.68l-4.91-9.29Zm-3.34 5.82 2.4-4.5 2.36 4.5h-4.76ZM33.53 14.5c-1.12 0-2.07.3-2.82.93a3.3 3.3 0 0 0-1.26 2.66 3.39 3.39 0 0 0 1.84 3.07c.68.36 1.46.54 2.33.54 1.57 0 2.7-.46 3.4-1.38l-.51-.33c-.65.75-1.64 1.13-2.98 1.13a3.62 3.62 0 0 1-2.49-.84 2.77 2.77 0 0 1-.94-2.18c0-.9.36-1.69 1.1-2.27.63-.5 1.4-.75 2.33-.75 1.25 0 2.25.38 2.98 1.15l.54-.22c-.78-1-1.95-1.51-3.52-1.51m12.9 6.43h-5.25V14.7h-.6v6.8h5.85v-.58Zm3.25-6.22h-.61v6.8h.61v-6.8Zm11.09 0h-.61v6.21l-5.72-6.2h-.88v6.8h.6V15.3l5.74 6.2h.87v-6.79Zm4.49 0h-.61v6.8h.6v-6.8Zm7.65-.21c-1.13 0-2.07.3-2.83.93a3.3 3.3 0 0 0-1.26 2.66c0 .68.16 1.28.48 1.81.32.53.78.95 1.36 1.27.69.35 1.46.53 2.33.53 1.57 0 2.7-.46 3.4-1.38l-.5-.33c-.66.75-1.65 1.13-2.98 1.13a3.62 3.62 0 0 1-2.49-.84 2.77 2.77 0 0 1-.95-2.18c0-.9.37-1.69 1.1-2.27.63-.5 1.41-.75 2.34-.75a3.9 3.9 0 0 1 2.97 1.15l.55-.22c-.78-1-1.96-1.51-3.52-1.51m10.18.22h-.9l-3.6 6.8h.7l.95-1.77h4.8l.93 1.76h.7l-3.58-6.8Zm-2.54 4.45 2.05-3.86h.1l2.04 3.86h-4.19Z"/>
  </g>
</svg>
