<svg xmlns="http://www.w3.org/2000/svg" fill="none" viewBox="0 0 113 51">
  <path fill="#fff" d="m73.352 29.467-.417.298v2.974l.417.416h1.044l.461-.461v-2.797l-.43-.43H73.35Zm1.512-5.316c-.913 1.27-2.03 1.87-2.03 1.87l.394.29h-33.73s-.58.344.373-.29c-.754-.456-2.045-1.914-2.045-1.914l-13.898 6.977 32.415 16.704 32.413-16.704s-11.429-5.744-13.89-6.934l-.002.001Zm-8.615 3.963h4.914v1.815h-1.325v-.506h-.432v3.793h.357v1.104h-2.1v-1.14h.478v-3.756h-.64v.462h-1.252v-1.772Zm-2.71 5.042h.49v-3.719h-.49v-1.26h2.218v1.26h-.462v3.733h.462v1.148h-2.219v-1.163Zm-5.355.029h.469v-3.748h-.469V28.18l3.958-.004.83.83v1.918l-.153.06.014.252.14.07v2.28l-.85.732h-3.938v-1.134Zm-5.369-4.997h2.026v1.19h-.447v3.301l.402.402h.74l.33-.33v-3.254h-.33v-1.31h2.075v1.25h-.477v3.956l-.894.893h-2.084l-.849-.848v-4h-.492v-1.25Zm-5.51 4.981h.507v-3.762h-.507V28.18h3.85l.931.93v1.814l-.774.774h-.551l.73 1.487h.7v1.133h-2.145v-1.133h.328l-.894-1.487h-.447v1.458h.447v1.163h-2.174v-1.15Zm-5.33-4.981h2.024v1.19h-.446v3.301l.402.402h.74l.33-.33v-3.254h-.33v-1.31h2.075v1.25h-.477v3.956l-.894.893h-2.085l-.848-.848v-4h-.492v-1.25Zm-5.035.862.864-.862h2.71l.865.862v1.279h-1.34l-.01-.407-.437-.437h-.964l-.399.397v2.878l.38.38h1.057l.432-.432v-.536h1.237v1.294l-.849.847h-2.74l-.804-.802v-4.462l-.002.001Zm-4.716 2.892c-1.167-.06-1.088-1.65 0-1.705 1.131.059 1.159 1.645 0 1.705Zm35.684 8.654-23.142.056s-2.404-1.354-8.173-4.64H76.12c-6.002 3.41-8.212 4.584-8.212 4.584Zm8.212-7.144-.975.858h-2.613l-.86-.743-.004-4.546.861-.861h2.683l.907.907v4.386l.001-.001Zm4.745-1.51c-1.132-.059-1.088-1.65 0-1.705 1.132.059 1.088 1.65 0 1.705Zm-20.976-.23v1.466h1.406l.455-.455v-.58l-.432-.43h-1.43.001Zm0-2.245v.996h1.43l.473-.472-.514-.513-1.388-.011Zm-8.924.524-.514-.513-1.388-.016v1h1.43l.473-.471h-.001Z"/>
  <mask id="a" width="26" height="22" x="43" y="4" maskUnits="userSpaceOnUse" style="mask-type:luminance">
    <path fill="#fff" d="M67.051 4.897h-21.63c-.946 0-1.714.767-1.714 1.714v17.034c0 .947.768 1.715 1.714 1.715h21.63c.947 0 1.715-.768 1.715-1.715V6.611c0-.947-.768-1.714-1.715-1.714Z"/>
  </mask>
  <g mask="url(#a)">
    <path fill="#fff" d="M56.377 5.55c-6.442 0-11.665 5.216-11.665 11.65 0 6.433 5.223 11.648 11.665 11.648 6.443 0 11.666-5.215 11.666-11.648 0-6.434-5.223-11.65-11.666-11.65Zm.593 3.436s1.626-1.271 2.982-2.241c3.963 1.564 5.169 3.759 5.169 3.759s-.41 1.698-.758 2.951c-.347 1.254-1.041 1.187-2.177 1.594-2.294.88-2.235.3-3.918-.909-1.47-1.029-1.707-1.67-1.66-2.004-.155-3.109.36-3.149.36-3.149h.002Zm-4.235-2.2s1.482.929 2.561 1.657c1.08.728.795 1.363.82 2.568.105 2.452-.428 2.212-2.11 3.42-1.445 1.065-2.13 1.084-2.43.934-3.002-.842-2.876-1.344-2.876-1.344s-.69-1.944-1.178-3.537c3.386-3.574 5.213-3.697 5.213-3.697Zm-1.84 16.83s-2.066.04-3.733 0c-2.264-3.59-1.867-6.108-1.867-6.108s1.35-1.11 2.383-1.903c1.032-.793 1.546-.323 2.698.034 2.363.675 1.966 1.103 2.584 3.079.556 1.705.358 2.36.12 2.598-1.749 2.577-2.185 2.3-2.185 2.3Zm9.847.873s-.64 1.96-1.224 3.521c-4.622 1.022-6.39-.241-6.39-.241s-.608-1.638-1.02-2.872c-.41-1.234.154-1.5.869-2.47 1.116-1.652 1.554-1.406 3.4-1.41 2.331-.004 2.654.331 2.905.657 1.867 2.493 1.46 2.815 1.46 2.815Zm4.856-.985s-1.745.132-3.046.186c-1.3.055-1.45-.625-2.186-1.579-1.543-1.91-.972-2.033-.337-4.003.528-1.715 1.068-2.135 1.4-2.192 2.915-1.103 3.113-.625 3.113-.625s1.71 1.155 3.052 2.146c-.292 4.718-1.996 6.066-1.996 6.066v.001Z"/>
  </g>
  <path fill="#fff" d="m37.56 21.781.456.932-16.403 8.371 34.73 17.982 34.775-17.982-16.401-8.135.531-.937 18.138 9.072-37.03 19.091-37.058-19.09L37.56 21.78ZM56.32 0l.664 1.344 1.485.216-1.075 1.047.254 1.477-1.328-.697-1.33.697.254-1.477L54.17 1.56l1.486-.216L56.32 0Zm-5.741 2.342.405.82.905.13-.655.638.154.9-.81-.425-.809.425.155-.9-.655-.637.905-.132.405-.819Zm11.551 0 .405.82.905.13-.655.638.155.9-.81-.425-.81.425.155-.9-.655-.637.906-.132.404-.819Z"/>
  <path fill="#fff" d="M44.194 21.27c-.158 1.649-1.433 2.625-2.86 2.625-1.107 0-1.993-.735-2.577-1.6-.312-.463-.685-1.298-.685-1.298s1.574-.188 2.426.43c.776.564 1.433 1.751 1.433 1.751s-.274-1.128.503-2.523c.493-.885 1.813-1.237 1.813-1.237s-.01 1.41-.053 1.851Z"/>
  <path fill="#fff" d="M43.273 18.81c-.34 1.466-1.602 2.191-2.886 2.021-.994-.131-1.705-.897-2.126-1.745-.225-.453-.461-1.248-.461-1.248s1.438.017 2.13.675c.63.598 1.079 1.745 1.079 1.745s-.113-1.048.754-2.209c.55-.738 1.778-.897 1.778-.897s-.178 1.267-.269 1.658Z"/>
  <path fill="#fff" d="M42.873 16.568c-.595 1.381-1.967 1.87-3.2 1.474-.955-.307-1.517-1.186-1.78-2.095-.142-.486-.23-1.31-.23-1.31s1.411.274 1.975 1.044c.513.701.75 1.909.75 1.909s.077-1.051 1.136-2.04c.672-.626 1.91-.565 1.91-.565s-.4 1.215-.56 1.583Z"/>
  <path fill="#fff" d="M42.936 14.16c-.653 1.236-1.966 1.587-3.087 1.127-.869-.356-1.33-1.214-1.51-2.077-.098-.461-.122-1.232-.122-1.232s1.296.36 1.766 1.116c.428.69.564 1.827.564 1.827s.146-.968 1.204-1.805c.67-.532 1.82-.381 1.82-.381s-.46 1.096-.636 1.426h.001Z"/>
  <path fill="#fff" d="M43.166 11.991c-.77.881-1.909.915-2.733.325-.64-.457-.85-1.245-.831-1.983.01-.394.138-1.027.138-1.027s.987.542 1.225 1.25c.216.643.108 1.596.108 1.596s.305-.761 1.328-1.24c.65-.304 1.557.039 1.557.039s-.586.805-.792 1.04Z"/>
  <path fill="#fff" d="M43.807 10.145c-.787.681-1.794.57-2.447-.051-.506-.482-.593-1.201-.486-1.848.058-.346.25-.888.25-.888s.801.6.923 1.251c.111.594-.103 1.42-.103 1.42s.363-.633 1.324-.928c.61-.188 1.366.227 1.366.227s-.616.636-.826.818h-.001Z"/>
  <path fill="#fff" d="M44.837 8.517c-.758.596-1.684.45-2.263-.154-.447-.468-.497-1.137-.37-1.732.069-.317.27-.81.27-.81s.715.589.8 1.197c.076.555-.158 1.31-.158 1.31s.364-.57 1.266-.802c.572-.147 1.254.27 1.254.27s-.598.563-.8.722l.001-.001Z"/>
  <path fill="#fff" d="M43.723 7.155s.201-2.455 2.579-2.314c-.06.382-.554 2.244-2.58 2.314Zm24.851 14.153c.158 1.648 1.43 2.622 2.856 2.622 1.104 0 1.99-.733 2.574-1.597.312-.462.684-1.296.684-1.296s-1.573-.188-2.423.43c-.775.562-1.43 1.748-1.43 1.748s.274-1.127-.503-2.52c-.493-.884-1.81-1.236-1.81-1.236s.01 1.41.053 1.85h-.001Z"/>
  <path fill="#fff" d="M69.493 18.853c.34 1.463 1.6 2.188 2.882 2.018.993-.131 1.702-.896 2.124-1.742.225-.453.46-1.247.46-1.247s-1.436.017-2.127.674c-.63.598-1.078 1.743-1.078 1.743s.112-1.046-.752-2.207c-.549-.736-1.776-.896-1.776-.896s.177 1.265.267 1.657Z"/>
  <path fill="#fff" d="M69.892 16.614c.595 1.379 1.965 1.868 3.196 1.473.954-.307 1.515-1.186 1.778-2.094.14-.486.23-1.309.23-1.309s-1.41.274-1.972 1.043c-.513.7-.75 1.907-.75 1.907s-.077-1.05-1.134-2.037c-.672-.626-1.908-.565-1.908-.565s.4 1.214.56 1.582Z"/>
  <path fill="#fff" d="M69.83 14.21c.652 1.233 1.964 1.583 3.083 1.124.867-.356 1.328-1.212 1.508-2.074.096-.46.122-1.23.122-1.23s-1.295.36-1.764 1.114c-.428.688-.563 1.825-.563 1.825s-.146-.967-1.202-1.804c-.67-.53-1.818-.38-1.818-.38s.46 1.094.635 1.424h-.001Z"/>
  <path fill="#fff" d="M69.6 12.043c.77.88 1.907.913 2.73.325.638-.457.848-1.244.83-1.98-.01-.395-.139-1.027-.139-1.027s-.985.542-1.223 1.247c-.216.643-.107 1.595-.107 1.595s-.305-.76-1.327-1.238c-.648-.303-1.555.04-1.555.04s.586.803.791 1.038Z"/>
  <path fill="#fff" d="M68.96 10.2c.787.68 1.791.57 2.444-.051.505-.481.592-1.2.485-1.846-.057-.345-.248-.887-.248-.887s-.801.599-.923 1.25c-.11.592.103 1.417.103 1.417s-.362-.631-1.322-.927c-.608-.187-1.364.227-1.364.227s.615.635.826.816v.001Z"/>
  <path fill="#fff" d="M67.931 8.573c.758.596 1.683.45 2.26-.153.447-.467.496-1.136.369-1.73a6.405 6.405 0 0 0-.269-.81s-.715.589-.8 1.197c-.076.554.157 1.308.157 1.308s-.363-.57-1.264-.8c-.571-.148-1.252.268-1.252.268s.597.562.8.72Z"/>
  <path fill="#fff" d="M69.044 7.214s-.2-2.452-2.575-2.31c.06.38.553 2.24 2.575 2.31Zm-25.236 29.71a.72.72 0 0 0-.07.35v1.601a.86.86 0 0 0 .023.218c.014.054.03.097.047.129a.17.17 0 0 0 .07.075h-.868a.207.207 0 0 0 .055-.062.437.437 0 0 0 .045-.1.82.82 0 0 0 .029-.168V37.18a.861.861 0 0 0-.03-.17.378.378 0 0 0-.044-.101.188.188 0 0 0-.055-.062h.867a.18.18 0 0 0-.07.075v.002Zm2.37-.004a.504.504 0 0 0-.045.114.898.898 0 0 0-.025.192v1.697c.004.08.012.143.025.192a.438.438 0 0 0 .045.113.15.15 0 0 0 .064.069h-.718l-.664-1.307v.978a.843.843 0 0 0 .03.168.39.39 0 0 0 .044.1.175.175 0 0 0 .06.062h-.867a.175.175 0 0 0 .06-.063.444.444 0 0 0 .044-.1.818.818 0 0 0 .03-.167v-1.79a.856.856 0 0 0-.03-.167.385.385 0 0 0-.045-.101.145.145 0 0 0-.06-.058l.714-.004.67 1.307v-1.001a.637.637 0 0 0-.032-.155.402.402 0 0 0-.047-.092.16.16 0 0 0-.055-.054h.867a.156.156 0 0 0-.064.068h-.001Zm2.215-.072v.487a.372.372 0 0 0-.114-.045 1.887 1.887 0 0 0-.189-.032 2.523 2.523 0 0 0-.317-.016h-.035v1.69a.87.87 0 0 0 .027.19c.015.047.03.084.048.109a.165.165 0 0 0 .06.065h-.868a.176.176 0 0 0 .06-.062.443.443 0 0 0 .045-.1.82.82 0 0 0 .029-.168v-1.725h-.034a2.413 2.413 0 0 0-.506.048.312.312 0 0 0-.11.045v-.486h1.904Zm1.83.395v.092a.302.302 0 0 0-.11-.045 1.891 1.891 0 0 0-.188-.032 2.518 2.518 0 0 0-.317-.016h-.238v.559h.69l-.12.47a.244.244 0 0 0-.089-.038.874.874 0 0 0-.16-.028 4.215 4.215 0 0 0-.286-.014h-.034v.713h.312c.116-.003.208-.008.278-.019.069-.01.124-.021.163-.032a.266.266 0 0 0 .099-.041v.483h-1.581a.207.207 0 0 0 .054-.062.435.435 0 0 0 .045-.101.861.861 0 0 0 .03-.17v-1.78a.893.893 0 0 0-.03-.171.381.381 0 0 0-.045-.103.188.188 0 0 0-.054-.062l1.58.003v.394Zm2.127 1.755c.04.064.075.115.106.154.031.04.06.069.087.09a.308.308 0 0 0 .074.054h-.867c.013-.011.021-.03.025-.055a.373.373 0 0 0-.003-.094.66.66 0 0 0-.047-.159l-.306-.635h-.16v.56a.97.97 0 0 0 .026.198c.013.051.029.09.046.117a.16.16 0 0 0 .067.069h-.872a.202.202 0 0 0 .064-.069.493.493 0 0 0 .045-.117.978.978 0 0 0 .025-.199v-1.68a.949.949 0 0 0-.025-.195.432.432 0 0 0-.045-.117.203.203 0 0 0-.064-.068h1.14c.096 0 .186.012.27.037.084.026.158.06.22.103a.51.51 0 0 1 .15.153c.035.058.054.12.054.187v.538a.37.37 0 0 1-.107.259.651.651 0 0 1-.28.173l.377.696Zm-.59-1.667c0-.018-.01-.033-.028-.047a.12.12 0 0 0-.068-.018h-.406v.669h.406a.12.12 0 0 0 .068-.02c.018-.011.028-.027.028-.046v-.538Zm3.058-.411a.469.469 0 0 0-.045.114.904.904 0 0 0-.024.192v1.697c.003.08.011.143.024.192a.438.438 0 0 0 .045.113.151.151 0 0 0 .065.069h-.72L53.5 37.99v.978a.829.829 0 0 0 .03.168.39.39 0 0 0 .044.1.167.167 0 0 0 .06.062h-.867a.174.174 0 0 0 .06-.063.44.44 0 0 0 .044-.1.818.818 0 0 0 .03-.167v-1.79a.856.856 0 0 0-.03-.167.379.379 0 0 0-.045-.101.144.144 0 0 0-.06-.058l.714-.004.67 1.307v-1.001a.633.633 0 0 0-.033-.155.373.373 0 0 0-.047-.092.158.158 0 0 0-.055-.054h.868a.155.155 0 0 0-.065.068Zm2.345 2.034c.023.073.046.132.07.176a.67.67 0 0 0 .064.105.346.346 0 0 0 .064.062h-.867a.267.267 0 0 0 .04-.062.415.415 0 0 0 .022-.1.695.695 0 0 0-.007-.168l-.025-.103h-.65l-.024.103a.827.827 0 0 0-.01.168.4.4 0 0 0 .02.1.173.173 0 0 0 .045.062h-.872a.346.346 0 0 0 .064-.062.67.67 0 0 0 .065-.105c.023-.045.048-.104.074-.176l.486-1.804a.683.683 0 0 0 .01-.155.3.3 0 0 0-.02-.092.17.17 0 0 0-.04-.055h1.051a.106.106 0 0 0-.04.052.256.256 0 0 0-.02.084.712.712 0 0 0 .006.139l.495 1.83h-.001Zm-.724-.48-.242-1.084-.238 1.084h.481Zm2.499-1.609c.086.026.16.06.222.103a.519.519 0 0 1 .149.153.35.35 0 0 1 .055.187v.326h-.737a.17.17 0 0 0 .06-.062.41.41 0 0 0 .046-.103.841.841 0 0 0 .03-.175.088.088 0 0 0-.034-.036.107.107 0 0 0-.06-.015h-.416a.118.118 0 0 0-.067.019c-.018.012-.027.027-.027.046v1.533c0 .018.009.034.027.048.018.014.04.02.067.02h.416c.05 0 .081-.017.094-.054a1.187 1.187 0 0 0-.03-.184.603.603 0 0 0-.106-.221h.736v.391a.35.35 0 0 1-.054.189.504.504 0 0 1-.149.154.772.772 0 0 1-.222.103.956.956 0 0 1-.272.038h-.416a.93.93 0 0 1-.27-.038.77.77 0 0 1-.219-.103.512.512 0 0 1-.148-.154.36.36 0 0 1-.055-.189v-1.533c0-.066.018-.128.055-.187a.517.517 0 0 1 .148-.153.785.785 0 0 1 .22-.103.93.93 0 0 1 .27-.037h.415c.096 0 .186.012.272.037Zm1.526.059a.72.72 0 0 0-.07.35v1.601a.86.86 0 0 0 .022.218c.015.054.03.097.048.129a.17.17 0 0 0 .07.075h-.868a.208.208 0 0 0 .055-.062.445.445 0 0 0 .044-.1.82.82 0 0 0 .03-.168V37.18a.861.861 0 0 0-.03-.17.384.384 0 0 0-.044-.101.188.188 0 0 0-.055-.062h.867a.179.179 0 0 0-.07.075v.002Zm1.477-.096c.095 0 .186.012.27.037a.79.79 0 0 1 .22.103.507.507 0 0 1 .15.153.35.35 0 0 1 .054.187v1.533c0 .066-.018.13-.055.189a.512.512 0 0 1-.148.154.785.785 0 0 1-.22.103.933.933 0 0 1-.271.038h-.416a.936.936 0 0 1-.27-.038.785.785 0 0 1-.221-.103.504.504 0 0 1-.149-.154.354.354 0 0 1-.055-.189v-1.533c0-.066.018-.128.055-.187a.518.518 0 0 1 .149-.153.79.79 0 0 1 .22-.103.932.932 0 0 1 .27-.037h.417Zm.094.48c0-.018-.01-.033-.027-.046a.118.118 0 0 0-.067-.02h-.416a.118.118 0 0 0-.067.02c-.018.012-.027.027-.027.046v1.533c0 .018.009.034.027.048.017.014.04.02.067.02h.416a.107.107 0 0 0 .067-.02c.018-.014.027-.03.027-.048v-1.533Zm2.949-.388a.504.504 0 0 0-.044.114.904.904 0 0 0-.025.192v1.697c.003.08.012.143.025.192a.438.438 0 0 0 .044.113.151.151 0 0 0 .065.069h-.719l-.663-1.307v.978a.829.829 0 0 0 .029.168c.013.04.028.074.045.1a.174.174 0 0 0 .06.062h-.868a.174.174 0 0 0 .06-.063.435.435 0 0 0 .045-.1.818.818 0 0 0 .029-.167v-1.79a.856.856 0 0 0-.03-.167.379.379 0 0 0-.044-.101.144.144 0 0 0-.06-.058l.714-.004.67 1.307v-1.001a.633.633 0 0 0-.032-.155.402.402 0 0 0-.048-.092.158.158 0 0 0-.054-.054h.867a.155.155 0 0 0-.065.068Zm2.346 2.034c.022.073.046.132.069.176a.67.67 0 0 0 .064.105.346.346 0 0 0 .065.062h-.868a.267.267 0 0 0 .04-.062.415.415 0 0 0 .022-.1.695.695 0 0 0-.007-.168l-.024-.103h-.65l-.024.103c-.01.07-.013.126-.01.168a.36.36 0 0 0 .02.1.172.172 0 0 0 .045.062h-.873a.346.346 0 0 0 .065-.062.67.67 0 0 0 .065-.105c.022-.045.048-.104.074-.176l.486-1.804a.683.683 0 0 0 .01-.155.3.3 0 0 0-.02-.092.17.17 0 0 0-.04-.055h1.05a.119.119 0 0 0-.04.052.256.256 0 0 0-.019.084.712.712 0 0 0 .005.139l.496 1.83h-.002Zm-.724-.48-.243-1.084-.237 1.084h.48Zm2.662.823h-1.591a.174.174 0 0 0 .06-.062.437.437 0 0 0 .044-.102.861.861 0 0 0 .03-.17v-1.779a.893.893 0 0 0-.03-.171.379.379 0 0 0-.045-.103.174.174 0 0 0-.06-.062h.868a.166.166 0 0 0-.06.065.398.398 0 0 0-.045.104.952.952 0 0 0-.03.177v1.71h.318c.116-.002.208-.007.277-.018.07-.01.124-.021.164-.033a.266.266 0 0 0 .098-.04v.483h.002ZM54.92 22.653h.696v.228h.704V21.9h-2.363v.754h.269v1.894h-.269v.694h2.363v-.931h-.685v.227h-.714v-.674h.932v-.783h-.932v-.427Zm1.621-.753H57.8v.734h-.3v1.918h.686v-.238h.707v.96H56.54v-.715h.239v-1.944h-.239V21.9Z"/>
</svg>
