<svg xmlns="http://www.w3.org/2000/svg" fill="none" viewBox="0 0 113 50">
  <path fill="#F8F8F8" d="m18.14 20.42-3.26 1.6 1.99.76c.41.16.9.36 1.08.84.18.5-.1.94-.33 1.32l-1.09 1.7-3.86 6.04v-1.86a268.88 268.88 0 0 0 1.83-6.01c.07-.27.02-.43-.23-.56l-1.98-.97-1.97.97c-.26.13-.31.3-.24.56a176.47 176.47 0 0 0 1.84 6v1.87c-1.3-2.01-2.59-4.03-3.87-6.04l-1.09-1.7c-.24-.38-.5-.82-.32-1.32.18-.48.66-.68 1.07-.84l1.99-.76-3.26-1.6 1.01 1.7-1.68.65-3.53-5.53c3.35 1.19 6.69 2.38 10.05 3.53 3.36-1.15 6.7-2.34 10.05-3.53l-3.53 5.53-1.68-.65 1.02-1.7"/>
  <path fill="#F8F8F8" fill-rule="evenodd" d="M82.04 22.87v1.74h9.4c.2 0 .36-.15.36-.33V23.2c0-.18-.16-.33-.36-.33h-9.4Zm-2.37 5.8v-7.43h12.18c1.13 0 2.05.69 2.05 1.74v1.54c0 1.07-.72 1.8-1.44 1.8l1.62 2.36h-2.65l-1.4-2.27h-7.99v2.27h-2.37Z" clip-rule="evenodd"/>
  <path fill="#F8F8F8" d="M45.44 28.68H33.25c-1.13 0-2.05-.85-2.05-1.9v-3.65c0-1.04.92-1.9 2.05-1.9h12.19v2.04H33.66c-.2 0-.36.15-.36.34v2.7c0 .18.16.33.36.33h11.78v2.04Zm16.16-7.44v5.54c0 1.05-.92 1.9-2.05 1.9H49.4c-1.13 0-2.05-.85-2.05-1.9v-5.54h2.45v5.07c0 .18.16.33.36.33h8.63c.2 0 .36-.15.36-.33v-5.07h2.45Zm46.18 3.37v-1.74h-9.3c-.2 0-.36.15-.36.33v1.4c0-.02 6.34 0 9.66 0Zm2.3 4.07h-2.3v-2.27h-9.64v2.27h-2.3l-.02-5.55c0-1.05.92-1.9 2.05-1.9h12.18c.02.02.04.01.04 0v7.45ZM65.8 24.61h9.5c.2 0 .36-.15.36-.33V23.2c0-.18-.16-.33-.36-.33h-9.5v1.74Zm9.91-3.37c1.5 0 2.05.69 2.05 1.74v1.54c0 1.04-.46 1.9-2.05 1.9H65.8v2.26h-2.3v-7.44h12.2Z"/>
</svg>
