<svg xmlns="http://www.w3.org/2000/svg" id="Capa_2" viewBox="0 0 514.3 386.9">
  <defs>
    <clipPath id="clippath">
      <path d="M166.1 4.9 90.8 209.8h51.7L217.8 4.9h-51.7z" class="cls-11"/>
    </clipPath>
    <clipPath id="clippath-1">
      <path d="m225 4.9-75.4 204.9h178L402.9 4.9H225z" class="cls-7"/>
    </clipPath>
    <clipPath id="clippath-3">
      <path fill="none" d="M95.1 61.4c-34.5 0-63 26-63 58.7s28.5 58.7 63 58.7h293.4c34.5 0 63-26 63-58.7s-28.5-58.7-63-58.7H95Z"/>
    </clipPath>
    <filter id="drop-shadow-1" filterUnits="userSpaceOnUse">
      <feOffset dx="5.7" dy="2.8"/>
      <feGaussianBlur result="blur" stdDeviation="11.3"/>
      <feFlood flood-color="#000" flood-opacity=".6"/>
      <feComposite in2="blur" operator="in"/>
      <feComposite in="SourceGraphic"/>
    </filter>
    <style>
      .cls-5{fill:#fff}.cls-7{fill:#c49822}.cls-8{fill:#221f20}.cls-10,.cls-9{fill:#9d2931}.cls-11{fill:#572d2d}.cls-10{fill-rule:evenodd}
    </style>
  </defs>
  <g id="Capa_1-2" filter="url(#drop-shadow-1)">
    <path d="M320.4 335.2c-2-26-4.4-52.4-5.2-53.5-.7-1 1-20.4 3.3-41.4l-7-2.3v13.8l21-54.2-32.2-5.8-21.9 17.8-13.5-22.3-14 22.3-20.3-18.8-8.9 3.4-21.5 11.9-.4 26.4-20.4-2.4 3.7 21c-4.7-1.3-23.6-5-39.8 4.4l-.8-4.6a24.1 24.1 0 0 0-23.5-32.2c-1 0-2.1 0-3.2.2a28.9 28.9 0 0 0-22 14.6l-36 4.1-5.4 10.1v-37.2l-52.4 6v165.4l205.9-25.4L198 377l12.2 5.3a69.4 69.4 0 0 0 26.5 4.5c3.8 0 7.7-.2 11.5-.7 28.6-3.2 46.9-21.7 48.9-48.7l14.3-9.9v13.8l9-6.2Z" class="cls-5"/>
    <path fill="#572d2d" fill-rule="evenodd" d="M166.1 4.9h51.7l-75.3 204.9H90.8L166.1 4.9z"/>
    <path d="M94.7 185c-37.3-.4-68.7-28.7-68.7-65 0-36.5 31.7-64.8 69.1-64.8h47.3L162.7 0H410l-20.4 55.3c37 .6 68 28.7 68 64.8 0 36.5-31.7 64.8-69.2 64.8H342l-11 29.8H83.7l11-29.8Z" class="cls-5"/>
    <path d="M166.1 4.9 90.8 209.8h51.7L217.8 4.9h-51.7z" class="cls-11"/>
    <g clip-path="url(#clippath)">
      <path d="M90.8 4.9h127.1v204.9H90.8z" class="cls-11"/>
    </g>
    <path d="m225 4.9-75.4 204.9h178L402.9 4.9H225z" class="cls-7"/>
    <g clip-path="url(#clippath-1)">
      <path d="M149.6 4.9h253.3v204.9H149.6z" class="cls-7"/>
    </g>
    <g clip-path="url(#clippath-3)">
      <path d="M32.1 61.4h419.4v117.4H32.1z" class="cls-11"/>
    </g>
    <path d="M388.5 171.6H95c-31 0-55.8-23.3-55.8-51.5S64 68.7 95 68.7h293.4c31 0 55.7 23.2 55.7 51.4s-24.7 51.5-55.7 51.5" class="cls-5"/>
    <path d="M127.4 83.8c4.6 0 8.6 3.2 8.7 9.8v46h24v8.4c0 5-5.2 9.2-11.2 9.2h-22.4c-6.8 0-10.3-4.2-10.3-9.2V83.8h11.2Z" class="cls-9"/>
    <path d="M262.6 82.7a37 37 0 0 1 37 37.6c0 20.7-17 37.5-37.7 37.3a37 37 0 0 1-36.9-37.3 37.1 37.1 0 0 1 37.6-37.6m-.7 58.2c10.3.2 16.4-9.5 16.4-20.6 0-12.8-6-21-16.4-20.9-10.1.2-15.7 7.7-15.7 20.9 0 11 5.7 20.5 15.8 20.6" class="cls-10"/>
    <path d="M337.5 100.6h-38.6v-5.3c0-10.4 6.7-11.5 18.5-11.5h30c7.8 0 14.2 7.1 12.5 14.7-1.4 5.8-5 10.2-10.2 15.7l-17.8 18.3c-2.9 3-5 5.4-6.8 7.4H357v8c0 5.1-4.4 9.2-10.6 9.2h-50s.1-6.8 0-9.3c0-3.6 3.4-8.9 6.4-11.8 3-3 33.4-33.6 34.8-35.4" class="cls-10"/>
    <path d="M111 126v16.2c0 4.5-7.8 15.4-27 15.4-17 0-33.3-12-33.3-36.4 0-23 15.6-38.6 35.2-38.6 11.8 0 24.3 4.6 24.9 20 .4 11.2-7.5 20.6-26.1 28.8l-10 4c.4.4 8.2 11.1 24 2a33 33 0 0 0 11.5-11.5s.2-.5.5-.5.3.6.3.6" class="cls-9"/>
    <path fill="#fff" fill-rule="evenodd" d="M89.4 105.7c.2-5-5.5-7.6-11.6-4-7.1 4.3-7.5 16.7-7.5 16.7 2.5-.6 7-1.6 10.4-3.2 5-2.3 8.6-6 8.7-9.5"/>
    <path d="M164.9 83.8h33c14.6-.6 24 11.9 23.7 26.3-.5 15.4-8.2 24.2-22.2 25l-16.2.2V148c0 5-2.3 9.2-9.6 9.2h-8.7V83.8Zm31.4 16.6h-13v18h13c5-.2 7-3.5 7-9 0-6-3.8-9-7-9m199.9-17.7a37 37 0 0 1 37 37.6c0 20.7-17 37.5-37.6 37.3a37 37 0 0 1-36.9-37.3 37.1 37.1 0 0 1 37.5-37.6m-.6 58.2c10.2.2 16.4-9.5 16.4-20.6 0-12.8-6-21.1-16.4-21-10.2.3-15.7 7.8-15.7 21 0 11 5.6 20.4 15.7 20.6" class="cls-10"/>
    <path fill="#ebb450" stroke="#ebb450" stroke-miterlimit="10" stroke-width=".4" d="M209.9 272c9.6-12.8 20.4-22.8 47.4-26.3a67 67 0 0 1 26.4 1.3l3.6-23.2-12.7 9.6-9.9-16.3-12.2 19.5-13.4-16-7.7 22-16.7-11.2-3.4 19.5-15-1.3L209 270l1 2Z"/>
    <path d="m66.7 361.1-27.3-49.3H39v52.5L14.4 367V233.5l24.7-2.8V306h.3l27.8-50.9 25.8-3-31.5 52.4L95 358l-28.3 3Zm47.1-101.2c-7 .8-12.8-3.6-12.8-10s5.7-11.8 12.8-12.6c7-.8 12.7 3.4 12.7 9.7s-5.6 12-12.7 12.9Zm-14 96.7v-82.9l24-2.7v82.9l-24 2.7Zm80.9-10.2v-56.1c0-9.1-3.8-13.1-13.3-12a29 29 0 0 0-9.6 2.7v68l-24 2.7v-78.4c9.4-5 20.8-8.4 33.6-9.8 26.1-3 37.3 6.3 37.3 24.2v56l-24 2.7Zm66 26a67.2 67.2 0 0 1-31-2.7l6.2-16.3c5.2 2.2 13 3.5 20.4 2.6 12.6-1.4 17.3-8.7 17.3-18.4v-3.7a36 36 0 0 1-14.5 4.3c-20.4 2.3-34.1-11.7-34.1-36.4 0-28.2 15.5-46.3 43.3-49.5a63.8 63.8 0 0 1 29.1 2.7v77.5c0 23.6-14.2 37.3-36.8 40Zm12.9-105.3c-2-.7-4.6-.8-7.6-.5-11.8 1.4-17.3 12.3-17.3 31s5.2 27.2 16.9 25.8a18 18 0 0 0 8-2.7V267Z" class="cls-8"/>
    <path d="M322.6 362.8c-21.7 0-38.7-15.6-38.7-35.4v-74c0-20.5 18.4-39.3 41.1-41.9L435 199c5-.5 9.6-1 14.3-1 16.5 0 28.1 7.2 36.6 23l26.6 41.4c2.2 3.5 2.4 7.9.4 11.5l-26.4 49.7-.4.7c-13.9 22.4-29 23.8-43.6 25.2l-5.1.5-109.5 12.5a47 47 0 0 1-5.3.3Z" class="cls-5"/>
    <path fill="#ebb450" d="m428.2 336.2-101 11.9c-15.3 1.8-27.8-8.3-27.8-22.5v-71.2c0-14.2 12.5-27.2 27.9-29l101-12c15.3-1.8 33.4-5 43 13.7l25.8 41.4-29.6 52c-11.1 18.6-24 13.8-39.3 15.7Z"/>
    <path d="M342.4 322.4c-16.6 2-25-3-25-17.3v-45.2l16.6-2v46c0 5.5 3 8 8.6 7.3 2.4-.2 5-1 6.6-2V252l16.8-2v65a66.4 66.4 0 0 1-23.6 7.3Zm54.8-16.6a27 27 0 0 1-8.3 0v23.3l-16.7 2v-77.8a57.3 57.3 0 0 1 21.8-6.8c18-2.2 28.6 6.7 28.6 26.1s-10.3 31.4-25.4 33.2Zm-3.3-49.4c-2 .2-3.6.7-5 1.5v38.3c1 .2 2.6.3 4.4.1 8.9-1 12.8-8.5 12.8-21.5s-3.2-19.5-12.2-18.4Zm58.6 43.9a27 27 0 0 1-8.4 0v23.3l-16.7 2V248a57.3 57.3 0 0 1 21.9-6.9c18-2.1 28.6 6.7 28.6 26.1s-10.3 31.4-25.4 33.2Zm-3.3-49.4c-2 .2-3.7.8-5 1.5v38.3c1 .2 2.5.4 4.3.2 9-1.1 12.9-8.6 12.9-21.5s-3.2-19.6-12.2-18.5Z" class="cls-5"/>
    <path d="M338.6 318.8c-16.6 2-25-3-25-17.3v-45.2l16.6-2v45.9c0 5.5 3 8 8.6 7.4 2.4-.3 5-1.1 6.6-2v-57.2l16.8-2v65.1a66.4 66.4 0 0 1-23.6 7.3Zm54.8-16.7a27 27 0 0 1-8.3.1v23.3l-16.7 2v-77.8a57.3 57.3 0 0 1 21.8-6.8c18-2.2 28.6 6.7 28.6 26s-10.3 31.4-25.4 33.2Zm-3.3-49.4c-2 .3-3.6.8-5 1.5v38.4c1 .1 2.5.3 4.4 0 8.9-1 12.8-8.5 12.8-21.4s-3.2-19.6-12.2-18.5Zm58.6 44a27 27 0 0 1-8.4 0V320l-16.7 2v-77.8a57.3 57.3 0 0 1 21.9-6.8c18-2.2 28.6 6.7 28.6 26.1s-10.3 31.4-25.4 33.2Zm-3.3-49.4c-2 .2-3.7.7-5 1.4v38.4c1 .2 2.5.3 4.3.1 9-1 12.9-8.5 12.9-21.5s-3.2-19.5-12.2-18.4Z" class="cls-8"/>
  </g>
</svg>
