<svg xmlns="http://www.w3.org/2000/svg" fill="none" viewBox="0 0 114 50">
  <path fill="#fff" d="M14.15 17.8v4.26s4.37.09 6.66.34v-4.2l-1.63-.14 1.63-2.18v-3.5l-3.11 3.86-3.55-6.14v4.65l1.82 3.1h-.02l-1.8-.05ZM8.4 26.42l1.2 2.28.76.29 1.54-2.4v-.68l-1.72.4-1.36-.96-.43 1.07Z"/>
  <path fill="#fff" d="m9.63 23.23-.42 1.09 2.09-.06 1.95.97.12 3.54c.62 0 .75-.31.77-.4v-.02s.83.36 1.17.28c.34-.08.5-.6.5-.6l.98 1.14v1.95l-1.77-1.72-1.46.7-1.45-.7-1.76 1.72v2.13l.94-1.07 2.28-.95 2.28.95.94 1.07 1.47-1.86.63-3.08-1.35.38 1.2-2.26v-.01l-.42-1.07-1.36.95-1.73-.4v.67l-.4.4-.94-1.73v-.02l1.95-.96 2.08.06h.02l-.42-1.1s-1.99-.24-3.95-.24c-1.97 0-3.94.24-3.94.24Z"/>
  <path fill="#fff" d="M15.6 25.18v.14l.86.23.52-.44H17l-.13-.15-1.27.2v.02ZM6.36 18.2v4.2c2.26-.25 6.55-.34 6.66-.34v-4.27l-1.8.05h-.01l1.81-3.08V10.1l-3.55 6.14-3.1-3.87v3.5L8 18.07h-.02l-1.62.14Zm-.67 9-.82 3.9 8.7 8.7 8.75-8.75v-.01l-.84-3.85v.04l.06 3.38-4.98 4.98v-.88l-1.1-1.55-1.9-.77-1.88.77-1.1 1.55v.88l-5-5 .11-3.42v.02Zm5.85-1.87v-.17l-1.26-.2-.13.14v.01l.53.44.86-.22ZM19.5 12.7l.02-.03-2.23 1.04v.01l.58 1 1.63-2.03Z"/>
  <path fill="#fff" d="M9.88 13.73v-.02l-2.23-1.04.03.03 1.62 2.02.58-1Z"/>
  <path fill="#fff" fill-rule="evenodd" d="m82.4 32.63-1.2-3.36v2.75h.43v1.7h-2.67v-1.7h.43v-4.39h-.43v-1.7h2.54l.93 2.64.94-2.64h2.5v1.7h-.43v4.39h.42v1.7H83.2v-1.7h.43v-2.74l-1.24 3.35Zm7.8-6.7 1 6.09h.3v1.7h-2.45v-1.7h.32v-.64h-1.14v.64h.31v1.7H86.1v-1.7h.31l1-6.1h2.8Zm-1.02 4.42-.39-2.41-.38 2.4h.77Zm10.5-2.71v1.52h1.77v-2.4l-.83-.83h-2.6l-.82.83v6.14l.83.82h2.6l.82-.82v-2.4h-1.78v1.52h-.58v-4.38h.58Zm-5.04 6.08v-3.09h-.57v1.39h.31v1.7h-2.65v-1.7h.42v-4.39h-.43v-1.7h4.01l.83.82v2.46l-.67.66.66.66v1.49h.43v1.7h-2.34Zm-.57-6.09v1.8h.58v-1.8h-.58Zm11.71-1.7 1 6.09h.3v1.7h-2.45v-1.7h.32v-.64h-1.14v.64h.31v1.7h-2.45v-1.7h.31l1-6.1h2.8Zm-1.02 4.42-.39-2.41-.38 2.4h.77Z" clip-rule="evenodd"/>
  <path fill="#fff" d="M33.37 23.21v-7.08h2.27v3.03l2.52-3.03h2.82l-2.54 2.92 2.59 4.16h-2.69l-1.5-2.64-1.2 1.16v1.48h-2.27Zm8.26 0v-7.08h2.27v7.08h-2.27Zm3.49 0v-7.08h1.93l2.2 2.54.25.3.31.4c.1.13.19.24.24.33l.06-.03-.01-.57v-2.96h2.07v7.08h-1.93l-2.48-2.83a6.8 6.8 0 0 1-.3-.38l-.23-.32-.06.02.01.39v3.12h-2.07Zm11.49.13c-1.18 0-2.06-.31-2.65-.93-.58-.61-.88-1.53-.88-2.74 0-.8.15-1.48.45-2.02.3-.55.74-.95 1.32-1.23a5.55 5.55 0 0 1 3.48-.24c.44.11.82.28 1.16.5a2.38 2.38 0 0 1 1.05 2.02h-2.17a.8.8 0 0 0-.1-.41.97.97 0 0 0-.3-.32 1.4 1.4 0 0 0-.43-.2 2.15 2.15 0 0 0-1.22.04 1.37 1.37 0 0 0-.81.85c-.07.2-.1.43-.1.69V20c0 .35.06.64.17.88.12.25.3.43.55.57.24.13.54.2.9.2.24 0 .46-.04.67-.12.2-.07.36-.17.48-.3.13-.14.19-.3.19-.48v-.04h-1.6v-1.44h3.77v3.95h-1.17l-.23-.7a3.31 3.31 0 0 1-1.54.73c-.3.06-.63.09-1 .09h.01Zm8.21 0c-.49 0-.94-.04-1.36-.11-.42-.07-.8-.2-1.11-.37a1.92 1.92 0 0 1-.75-.73c-.19-.32-.28-.7-.28-1.18v-.06a.3.3 0 0 1 .01-.08h2.15a.3.3 0 0 0 0 .08v.07c0 .2.04.36.14.47.1.11.23.19.4.22.18.04.38.06.6.06h.26c.09 0 .18-.02.26-.03.1-.02.17-.05.24-.08a.43.43 0 0 0 .17-.14.38.38 0 0 0 .06-.22.35.35 0 0 0-.17-.31 1.7 1.7 0 0 0-.47-.2 9.8 9.8 0 0 0-.67-.15l-.78-.17a5.2 5.2 0 0 1-.77-.25c-.25-.1-.47-.24-.67-.4-.2-.16-.35-.36-.47-.6a2.01 2.01 0 0 1-.18-.89c0-.4.09-.76.26-1.05.17-.28.4-.52.7-.7.3-.18.65-.3 1.03-.39a5.71 5.71 0 0 1 2.4 0c.36.1.7.22.98.4a1.93 1.93 0 0 1 .94 1.66v.12h-2.13v-.04a.7.7 0 0 0-.1-.35.69.69 0 0 0-.29-.26c-.13-.07-.3-.1-.53-.1-.2 0-.38.01-.52.06a.68.68 0 0 0-.3.17.33.33 0 0 0-.11.23c0 .13.06.23.17.32.12.08.28.15.48.2.2.06.42.1.67.16l.77.16a4.02 4.02 0 0 1 1.44.6 1.73 1.73 0 0 1 .65 1.41c0 .58-.14 1.06-.4 1.42a2.3 2.3 0 0 1-1.12.8c-.47.16-1 .25-1.6.25Zm4.06-.13v-7.06h.98v6.2h3.51v.86h-4.49Zm5.21 0v-7.06h5.43V17h-4.45v2.18h4v.84h-4v2.35h4.51v.84H74.1Zm5.85 0 2.78-7.06h1.3l2.79 7.06h-1.06l-.69-1.75h-3.44l-.67 1.75h-1.01Zm2-2.58h2.8l-.86-2.21-.1-.26-.13-.37a26.68 26.68 0 0 1-.28-.8h-.06l-.16.48-.19.52-.15.43-.87 2.21Zm8.56 2.71c-1.14 0-2-.3-2.6-.9-.59-.6-.89-1.51-.89-2.75 0-.81.14-1.49.42-2.03.27-.54.67-.95 1.21-1.22a5.12 5.12 0 0 1 3.26-.25c.4.1.73.26 1.02.47.28.2.5.47.65.78.16.32.23.7.23 1.12h-1c0-.3-.05-.56-.16-.77a1.4 1.4 0 0 0-.47-.53c-.2-.14-.43-.24-.7-.3a4.07 4.07 0 0 0-1.95.07 1.97 1.97 0 0 0-1.32 1.33 3.8 3.8 0 0 0-.18 1.22v.22c0 .63.1 1.15.3 1.55.2.4.48.69.85.87a3 3 0 0 0 1.33.27c.52 0 .97-.07 1.3-.22.35-.15.6-.37.78-.67.16-.3.25-.68.25-1.15v-.12h-2.5v-.84h3.48v3.72h-.74l-.1-.9c-.18.24-.4.44-.66.59-.25.15-.53.26-.84.33-.3.07-.63.1-.97.1Zm7.57 0c-.6 0-1.12-.1-1.55-.29-.43-.2-.76-.5-.99-.91a3.29 3.29 0 0 1-.34-1.6v-4.38h.97v4.48c0 .62.17 1.08.5 1.4.34.3.8.46 1.4.46.61 0 1.1-.16 1.44-.47.34-.3.51-.77.51-1.39v-4.48h.97v4.38c0 .65-.12 1.19-.35 1.6-.23.42-.57.72-1 .91-.44.2-.96.29-1.56.29Zm4.35-.13v-7.06h5.43V17h-4.45v2.18h4v.84h-4v2.35h4.51v.84h-5.5ZM33.45 33.74v-7.97h5v1.07H34.7v2.42h3.36v1.08H34.7v3.4h-1.25Zm4.5 0 2.71-7.97h1.6l2.7 7.97h-1.33l-.62-1.9h-3.16l-.63 1.9h-1.27Zm2.24-2.96h2.48l-.78-2.42a7.08 7.08 0 0 1-.08-.27l-.12-.37-.12-.4-.1-.38h-.08l-.14.48a85.03 85.03 0 0 0-.29.95l-.77 2.41Zm5.34 2.96v-7.97h1.2l3.08 4.87a9.39 9.39 0 0 0 .26.46l.11.22h.05v-5.55h1.2v7.97h-1.16l-3.12-4.94c-.04-.08-.1-.2-.19-.34l-.2-.38h-.04v5.66h-1.2Zm8.96 0v-6.89h-2.35v-1.08h5.96v1.08h-2.36v6.89H54.5Zm2.61 0 2.7-7.97h1.6l2.71 7.97h-1.33l-.63-1.9H59l-.62 1.9H57.1Zm2.23-2.96h2.49l-.78-2.42a7.08 7.08 0 0 1-.09-.27l-.11-.37-.13-.4-.1-.38h-.07l-.14.48a85.03 85.03 0 0 0-.3.95l-.77 2.41Zm7.93 3.1c-.4 0-.77-.05-1.13-.13a2.76 2.76 0 0 1-.95-.41 1.99 1.99 0 0 1-.64-.74 2.6 2.6 0 0 1-.23-1.14v-.12l.01-.1h1.25v.1l-.01.12c0 .3.07.56.2.76.14.2.33.35.59.45a3.16 3.16 0 0 0 1.45.1 1.71 1.71 0 0 0 .84-.36 1.02 1.02 0 0 0 .31-.79.96.96 0 0 0-.19-.6c-.12-.17-.29-.3-.5-.41a4.7 4.7 0 0 0-.72-.29l-.83-.26a8.74 8.74 0 0 1-.81-.3c-.27-.11-.5-.25-.72-.42a1.88 1.88 0 0 1-.51-.62c-.13-.25-.2-.55-.2-.9a1.9 1.9 0 0 1 .79-1.64c.25-.18.55-.32.9-.4a4.58 4.58 0 0 1 2.21-.01c.33.08.62.21.87.4.25.17.44.4.58.68.14.28.2.63.2 1.03v.16H68.8v-.16c0-.25-.06-.46-.18-.63a1.1 1.1 0 0 0-.52-.4 2.8 2.8 0 0 0-1.64-.03 1.1 1.1 0 0 0-.53.33.86.86 0 0 0-.19.57c0 .22.07.4.2.56.12.15.3.28.5.38.22.1.46.2.72.28l.82.26a5.73 5.73 0 0 1 1.54.72 1.96 1.96 0 0 1 .7 1.53 2.4 2.4 0 0 1-.38 1.4c-.26.37-.6.62-1.04.79-.45.16-.96.24-1.54.24Zm5.55-.14v-3.26l-2.74-4.7h1.4l1.97 3.49h.05l1.98-3.5h1.32l-2.73 4.7v3.27h-1.25Z"/>
</svg>
