<svg xmlns:xodm="http://www.corel.com/coreldraw/odm/2003" xmlns="http://www.w3.org/2000/svg" xmlns:xlink="http://www.w3.org/1999/xlink" version="1.1" id="Layer_1" x="0px" y="0px" viewBox="0 0 2500 915" style="enable-background:new 0 0 2500 915;" xml:space="preserve">
<style type="text/css">
	.st0{fill:#F4A427;}
	.st1{fill:#FFFFFF;}
	.st2{fill:#929497;}
	.st3{fill:#5A595C;}
	.st4{fill:#F79422;}
</style>
<g id="Layer_x0020_1">
	<g id="_2098838931024">
		<path class="st0" d="M805.1,521.1c-5.3,2.1-12.6,6.3-18.9,7.4c-85.1-38.9-198.5-51.5-293.1-51.5l0,0c-1.1,0-1.1,0-2.1,0h-2.1l0,0    c-92.4,0-208,13.7-293.1,51.5c-6.3-1.1-13.7-5.3-18.9-7.4c-16.8,18.9-42,94.5-50.4,139.7v1.1c109.3-20,126.1,44.1,172.3,45.2    c30.5,1.1,77.7-84,191.2-85.1C602.4,623,649.6,708,681.1,707c46.2-1.1,63-64.1,172.3-45.2v-1.1c-8.4-46.2-33.6-121.9-50.4-139.7    H805.1z"/>
		<path class="st1" d="M853.4,649.2c-105.1-21-137.6,46.2-172.3,45.2c-33.6,0-75.6-83-188-85.1l0,0c-1.1,0-1.1,0-2.1,0    c-1.1,0-1.1,0-2.1,0l0,0c-112.4,2.1-154.4,84-188,85.1c-33.6,0-67.2-67.2-172.3-45.2c-2.1,12.6-20,87.2,54.6,158.6    c100.8,95.6,284.7,98.7,306.8,98.7c22.1,0,205.9-3.2,306.8-98.7c74.6-70.4,56.7-146,54.6-158.6H853.4z"/>
		<path class="st2" d="M819.8,461.2c-94.5-69.3-221.7-79.8-323.6-84v-1.1c-104,4.2-236.4,13.7-334.1,84c-1.1,7.4,0,47.3,0,47.3    s25.2,11.6,35.7,16.8C314.5,478,461.6,475.9,491,475.9c0,1.1,0,1.1,0,1.1s166-2.1,294.1,48.3c9.5-4.2,34.7-16.8,34.7-16.8    S820.9,468.5,819.8,461.2z"/>
		<polygon class="st2" points="556.1,376.1 429,376.1 444.8,182.8 492.1,170.2 541.4,182.8   "/>
		<path class="st3" d="M814.6,454.9l-137.6-54.6l-119.8-23.1l-12.6-159.7c0,0,112.4,11.6,143.9,62c-8.4,66.2,42,138.7,127.1,149.2    c0,13.7-1.1,27.3-1.1,27.3V454.9z"/>
		<path class="st3" d="M168.5,454.9l137.6-54.6l119.8-23.1l12.6-159.7c0,0-112.4,11.6-143.9,62c8.4,66.2-42,138.7-127.1,149.2    c0,13.7,1.1,27.3,1.1,27.3V454.9z"/>
		<path class="st4" d="M934.3,323.6c-27.3,36.8-42,49.4-63,66.2c-5.3,4.2-23.1,16.8-38.9,24.2c-2.1,1.1-5.3,2.1-6.3,3.2    c-1.1,0-3.2,1.1-4.2,1.1c-9.5,2.1-13.7,0-31.5-3.2c-1.1,0-6.3-1.1-7.4-1.1c-10.5-2.1-32.6-9.5-51.5-28.4    c-30.5-29.4-45.2-63-34.7-114.5c42,1.1,112.4-44.1,146-90.3C881.8,126.1,874.4,62,865,22.1C861.8,9.5,876.5,0,887,8.4    c120.8,94.5,101.9,243.7,48.3,315.2H934.3z"/>
		<path class="st4" d="M61.3,323.6c27.3,36.8,42,49.4,63,66.2c5.3,4.2,23.1,16.8,38.9,24.2c2.1,1.1,5.3,2.1,6.3,3.2    c1.1,0,3.2,1.1,4.2,1.1c9.5,2.1,13.7,0,31.5-3.2c1.1,0,6.3-1.1,7.4-1.1c10.5-2.1,32.6-9.5,51.5-28.4c30.5-29.4,45.2-63,34.7-114.5    c-42,1.1-112.4-44.1-146-90.3C113.9,126.1,121.2,62,130.7,22.1C133.8,9.5,119.1,0,108.6,8.4C-12.2,103,6.7,252.1,60.3,323.6H61.3z    "/>
		<path d="M172.7,512.7c-34.7,67.2-66.2,149.2-42,224.8c9.5,29.4,27.3,55.7,49.4,76.7c20,17.9,42,32.6,66.2,45.2    c55.7,30.5,117.7,45.2,180.7,51.5c22.1,2.1,44.1,3.2,65.1,3.2c9.5,0,9.5-13.7,0-13.7c-73.5,0-150.2-10.5-216.4-42    c-46.2-22.1-93.5-51.5-119.8-97.7c-35.7-63-15.8-139.7,10.5-202.7c5.3-12.6,11.6-25.2,17.9-37.8c4.2-8.4-8.4-15.8-12.6-7.4l0,0    H172.7z"/>
		<path d="M154.8,517.9c12.6,6.3,26.3,12.6,38.9,17.9c6.3,2.1,12.6-2.1,14.7-8.4s-2.1-11.6-8.4-14.7c-1.1,0-1.1,0,1.1,0    c-1.1,0-1.1,0-2.1-1.1c-1.1,0-2.1-1.1-4.2-2.1c-3.2-1.1-6.3-3.2-9.5-4.2c-6.3-3.2-12.6-6.3-18.9-9.5c-5.3-3.2-12.6-2.1-15.8,4.2    c-3.2,5.3-1.1,13.7,4.2,15.8l0,0V517.9z"/>
		<path d="M201.1,535.8c36.8-14.7,74.6-24.2,113.5-31.5c47.3-8.4,94.5-13.7,142.9-14.7c11.6,0,24.2-1.1,35.7-1.1    c6.3,0,11.6-5.3,11.6-11.6s-5.3-11.6-11.6-11.6c-51.5,1.1-101.9,4.2-152.3,11.6c-41,6.3-81.9,14.7-120.8,28.4    c-8.4,3.2-15.8,5.3-24.2,9.5c-6.3,2.1-10.5,7.4-8.4,14.7c2.1,5.3,8.4,10.5,14.7,8.4l0,0L201.1,535.8z"/>
		<path d="M172.7,507.4c0-15.8-1.1-30.5,0-46.2c0-6.3-5.3-11.6-11.6-11.6s-11.6,5.3-11.6,11.6c0,15.8,0,30.5,0,46.2    c0,6.3,5.3,11.6,11.6,11.6S172.7,513.7,172.7,507.4L172.7,507.4z"/>
		<path d="M166.4,471.7c10.5-6.3,21-12.6,32.6-18.9c6.3-3.2,12.6-6.3,18.9-9.5c3.2-1.1,6.3-3.2,9.5-4.2c2.1-1.1,3.2-1.1,5.3-2.1    c1.1,0,2.1-1.1,2.1-1.1c1.1,0,1.1,0,0,0c1.1,0,1.1,0,2.1-1.1c33.6-14.7,69.3-25.2,106.1-32.6c23.1-5.3,45.2-8.4,68.3-10.5    c26.3-3.2,53.6-4.2,80.9-4.2c6.3,0,11.6-5.3,11.6-11.6s-5.3-11.6-11.6-11.6c-86.1,0-173.3,12.6-253.2,45.2    c-29.4,11.6-56.7,25.2-83,42c-5.3,3.2-7.4,10.5-4.2,15.8c3.2,5.3,10.5,7.4,15.8,4.2l0,0H166.4z"/>
		<path d="M81.3,16.8C64.5,34.7,48.7,53.6,36.1,74.6c-10.5,17.9-20,36.8-26.3,56.7c-7.4,21-9.5,44.1-9.5,66.2    c0,87.2,51.5,167,121.9,216.4c20,13.7,44.1,23.1,68.3,21c13.7-1.1,25.2-6.3,36.8-11.6c9.5-4.2,17.9-9.5,27.3-14.7    c16.8-11.6,31.5-26.3,41-45.2c9.5-17.9,13.7-37.8,13.7-57.8c0-9.5-1.1-18.9-2.1-27.3c-1.1-4.2-4.2-7.4-8.4-8.4    c-13.7-4.2-27.3-7.4-39.9-11.6c-2.1-1.1-4.2-1.1-6.3-2.1c-2.1-1.1,3.2,1.1,1.1,0c0,0-1.1,0-2.1-1.1c-1.1-1.1-2.1-1.1-4.2-2.1    c-5.3-2.1-10.5-5.3-14.7-7.4c-5.3-3.2-11.6-6.3-16.8-9.5c-3.2-2.1-5.3-3.2-8.4-5.3c-1.1-1.1-3.2-2.1-4.2-3.2    c-1.1,0-1.1-1.1-2.1-1.1l-1.1-1.1c1.1,1.1,1.1,1.1,0,0c-12.6-9.5-23.1-20-32.6-32.6c-1.1-1.1-1.1-1.1-2.1-2.1    c-2.1-2.1,1.1,2.1-1.1-1.1c-1.1-2.1-2.1-3.2-3.2-5.3c-2.1-3.2-5.3-7.4-7.4-10.5c-2.1-3.2-4.2-7.4-6.3-10.5    c-1.1-2.1-2.1-4.2-3.2-5.3c0-1.1-1.1-2.1-1.1-3.2s-1.1-1.1,0,0c0-1.1,0-1.1-1.1-2.1c-3.2-8.4-6.3-17.9-8.4-26.3    c0-2.1-1.1-4.2-1.1-7.4c0-1.1,0-2.1-1.1-3.2c0,0-1.1-4.2,0-2.1c-1.1-5.3-1.1-10.5-1.1-15.8c-1.1-22.1,1.1-44.1,5.3-64.1    C138,22.1,137,9.5,124.4,3.2s-26.3,0-36.8,7.4c-2.1,2.1-5.3,4.2-7.4,6.3c-10.5,10.5,6.3,27.3,16.8,16.8c4.2-4.2,6.3-6.3,10.5-8.4    c2.1-1.1,2.1-1.1,5.3-2.1c-2.1,0,1.1,0,1.1,0c-1.1,0-1.1,0,0,0c-1.1,0-1.1,0,0,0c-1.1,0-2.1-2.1-1.1-1.1c-1.1-2.1,0,1.1,0-1.1    c0,1.1,0,2.1,0,3.2c0,3.2,0-2.1,0,1.1c-1.1,5.3-2.1,11.6-3.2,16.8c-3.2,22.1-4.2,45.2-2.1,67.2c4.2,37.8,18.9,72.5,44.1,101.9    c18.9,22.1,43.1,41,68.3,54.6c9.5,5.3,20,9.5,29.4,13.7c12.6,5.3,27.3,7.4,39.9,11.6c-3.2-3.2-5.3-5.3-8.4-8.4    c3.2,21,2.1,41-5.3,59.9c0,1.1-1.1,2.1-1.1,3.2c-1.1,3.2,1.1-2.1,0,1.1c-1.1,2.1-1.1,3.2-2.1,4.2c-2.1,4.2-4.2,8.4-7.4,12.6    c-2.1,2.1-2.1,2.1-3.2,4.2c-1.1,2.1-3.2,3.2-4.2,5.3c-2.1,2.1-3.2,3.2-5.3,5.3c-1.1,1.1-2.1,1.1-2.1,2.1c-1.1,0-1.1,1.1-2.1,1.1    c1.1-1.1,1.1-1.1,0,0c-8.4,6.3-16.8,10.5-25.2,15.8c-9.5,5.3-20,9.5-30.5,11.6c-3.2,1.1-9.5,1.1-14.7,1.1s-9.5-1.1-15.8-3.2    c-10.5-3.2-20-8.4-29.4-15.8c-8.4-5.3-14.7-11.6-23.1-18.9c-7.4-7.4-14.7-13.7-22.1-22.1c-13.7-14.7-25.2-30.5-34.7-48.3    c-20-35.7-30.5-76.7-28.4-118.7c1.1-20,4.2-37.8,11.6-56.7c3.2-8.4,6.3-15.8,10.5-24.2c4.2-7.4,8.4-15.8,12.6-23.1    c4.2-6.3,8.4-12.6,13.7-18.9c1.1-1.1,2.1-2.1,3.2-4.2c2.1-2.1-1.1,2.1,0,0c0-1.1,1.1-1.1,2.1-2.1c2.1-2.1,4.2-5.3,6.3-7.4    c4.2-5.3,9.5-10.5,14.7-15.8C109.7,20,92.9,3.2,82.4,13.7L81.3,16.8z"/>
		<path d="M159,420.2c-5.3,13.7-3.2,30.5,8.4,39.9c5.3,4.2,11.6,5.3,16.8,0c4.2-4.2,5.3-12.6,0-16.8c-1.1-1.1-2.1-1.1-3.2-2.1    c-1.1-1.1-1.1-1.1,0,0c0-1.1-1.1-1.1-1.1-2.1c1.1,2.1,0-1.1,0-1.1c0-1.1,0-1.1,0,0c0-1.1,0-1.1,0-2.1c0-1.1,0-2.1,0-3.2    c0-1.1,0-1.1,0,0c0-1.1,0-1.1,0-2.1c0-2.1,1.1-3.2,2.1-5.3c2.1-6.3-2.1-12.6-8.4-14.7c-6.3-2.1-12.6,2.1-14.7,8.4l0,0V420.2z"/>
		<path d="M303,288.9c35.7-36.8,89.3-63,140.8-60.9c6.3,0,11.6-5.3,11.6-11.6s-5.3-11.6-11.6-11.6c-29.4-1.1-57.8,6.3-84,17.9    c-27.3,11.6-52.5,28.4-72.5,50.4c-10.5,10.5,6.3,27.3,16.8,16.8l0,0L303,288.9z"/>
		<path d="M438.5,379.2c7.4-65.1,13.7-131.3,20-196.4c1.1-6.3-6.3-11.6-11.6-11.6c-7.4,0-11.6,5.3-11.6,11.6    c-7.4,65.1-13.7,131.3-20,196.4c-1.1,6.3,6.3,11.6,11.6,11.6C434.3,390.8,438.5,385.5,438.5,379.2L438.5,379.2z"/>
		<path d="M453.2,192.2c11.6-7.4,25.2-10.5,38.9-10.5c6.3,0,11.6-5.3,11.6-11.6s-5.3-11.6-11.6-11.6c-17.9,1.1-35.7,4.2-50.4,13.7    c-5.3,3.2-7.4,10.5-4.2,15.8C440.6,193.3,447.9,195.4,453.2,192.2L453.2,192.2z"/>
		<path d="M798.8,520c33.6,65.1,65.1,146,38.9,219.6c-18.9,52.5-66.2,86.1-113.5,111.4c-57.8,30.5-124,44.1-189.1,48.3    c-14.7,1.1-28.4,1.1-43.1,1.1c-9.5,0-9.5,13.7,0,13.7c75.6,0,152.3-11.6,220.6-43.1c48.3-22.1,95.6-52.5,122.9-97.7    c37.8-62,26.3-137.6,1.1-201.7c-7.4-20-16.8-39.9-26.3-58.8c-4.2-8.4-16.8-1.1-12.6,7.4l0,0H798.8z"/>
		<path d="M816.7,497.9c-6.3,3.2-11.6,5.3-17.9,8.4c-3.2,1.1-6.3,3.2-9.5,4.2c-1.1,1.1-2.1,1.1-4.2,2.1c-1.1,0-1.1,0-2.1,1.1    c-3.2,1.1,2.1-1.1,0,0c-6.3,2.1-10.5,7.4-8.4,14.7c1.1,5.3,8.4,10.5,14.7,8.4c13.7-5.3,26.3-11.6,38.9-17.9    c5.3-3.2,7.4-10.5,4.2-15.8c-3.2-6.3-10.5-7.4-15.8-4.2l0,0V497.9z"/>
		<path d="M789.3,513.7c-36.8-14.7-74.6-24.2-112.4-31.5c-48.3-9.5-96.6-13.7-146-15.8c-12.6,0-26.3-1.1-38.9-1.1    c-6.3,0-11.6,5.3-11.6,11.6s5.3,11.6,11.6,11.6c91.4,1.1,182.8,9.5,268.9,38.9c7.4,2.1,14.7,5.3,22.1,8.4    c6.3,2.1,12.6-2.1,14.7-8.4s-2.1-11.6-8.4-14.7l0,0V513.7z"/>
		<path d="M834.5,507.4c0-15.8,1.1-30.5,0-46.2c0-6.3-5.3-11.6-11.6-11.6s-11.6,5.3-11.6,11.6c0,15.8,0,30.5,0,46.2    c0,6.3,5.3,11.6,11.6,11.6S834.5,513.7,834.5,507.4L834.5,507.4z"/>
		<path d="M829.3,451.7c-54.6-34.7-116.6-57.8-179.6-71.4c-51.5-11.6-105.1-15.8-157.6-15.8c-6.3,0-11.6,5.3-11.6,11.6    s5.3,11.6,11.6,11.6c85.1,0,169.1,12.6,249,45.2c2.1,1.1,3.2,1.1,5.3,2.1c3.2,1.1-2.1-1.1,1.1,0c1.1,0,2.1,1.1,3.2,1.1    c3.2,2.1,7.4,3.2,10.5,5.3c7.4,3.2,13.7,6.3,21,10.5c11.6,6.3,23.1,12.6,34.7,20c5.3,3.2,12.6,1.1,15.8-4.2s1.1-12.6-4.2-15.8l0,0    H829.3z"/>
		<path d="M886,33.6c5.3,5.3,10.5,11.6,15.8,17.9c2.1,2.1,4.2,5.3,6.3,7.4c2.1,2.1-1.1-2.1,0,0c1.1,1.1,1.1,1.1,2.1,2.1    c1.1,2.1,2.1,3.2,4.2,5.3c5.3,7.4,9.5,14.7,14.7,22.1c10.5,17.9,17.9,34.7,24.2,53.6c6.3,21,8.4,41,7.4,63    c-2.1,41-15.8,79.8-38.9,114.5c-11.6,16.8-23.1,31.5-38.9,46.2c-15.8,15.8-30.5,28.4-50.4,37.8c-7.4,4.2-18.9,7.4-26.3,7.4    c-10.5,1.1-20-1.1-29.4-5.3c-8.4-3.2-16.8-8.4-25.2-12.6c-4.2-2.1-7.4-4.2-11.6-7.4c-2.1-1.1-4.2-2.1-5.3-4.2    c2.1,1.1-1.1-1.1-1.1-1.1c-1.1-1.1-2.1-1.1-2.1-2.1c-7.4-6.3-11.6-11.6-16.8-20c-2.1-3.2-3.2-6.3-5.3-9.5c0-1.1-1.1-2.1-1.1-2.1    c-1.1-3.2,1.1,2.1,0-1.1c-1.1-2.1-1.1-4.2-2.1-5.3c-6.3-18.9-7.4-36.8-4.2-57.8c-3.2,3.2-5.3,5.3-8.4,8.4    c13.7-4.2,27.3-7.4,39.9-11.6c10.5-4.2,20-8.4,29.4-13.7c26.3-13.7,49.4-31.5,68.3-54.6c25.2-29.4,39.9-64.1,44.1-101.9    c2.1-22.1,1.1-45.2-2.1-67.2c-1.1-5.3-2.1-10.5-3.2-15.8c0,0-1.1-4.2,0-2.1c0-1.1,0-2.1,0-3.2c0-3.2-1.1,2.1,0-1.1    c-1.1,1.1-1.1,1.1,0,0c0,1.1-1.1,1.1-1.1,1.1c2.1-2.1-1.1,0,1.1-1.1c-2.1,1.1,1.1,0,1.1,0c-2.1,0,1.1,0,1.1,0    c3.2,1.1-1.1-1.1,2.1,1.1c1.1,1.1,2.1,1.1,3.2,2.1c0,0,3.2,2.1,2.1,1.1c2.1,2.1,4.2,3.2,6.3,5.3c10.5,10.5,27.3-5.3,16.8-16.8    c-8.4-8.4-18.9-15.8-31.5-16.8c-6.3-1.1-13.7,2.1-17.9,6.3c-5.3,4.2-7.4,10.5-7.4,16.8c0,5.3,1.1,10.5,2.1,15.8    c1.1,2.1,1.1,5.3,1.1,7.4s0,3.2,1.1,7.4c1.1,11.6,2.1,23.1,2.1,34.7c0,5.3,0,10.5,0,14.7c0,2.1,0,5.3-1.1,7.4c0,4.2,0,3.2-1.1,6.3    c-1.1,9.5-4.2,18.9-7.4,27.3c-1.1,2.1-1.1,4.2-2.1,6.3c0,1.1-1.1,2.1-1.1,3.2c-1.1,3.2,1.1-2.1,0,1.1c-2.1,4.2-4.2,8.4-6.3,12.6    c-4.2,7.4-8.4,14.7-13.7,21c-1.1,1.1-1.1,2.1-2.1,2.1c2.1-2.1,0,0-1.1,1.1c-1.1,1.1-2.1,3.2-4.2,4.2c-3.2,3.2-5.3,6.3-8.4,9.5    c-5.3,5.3-10.5,10.5-16.8,15.8c-1.1,1.1-3.2,2.1-4.2,3.2c-1.1,1.1-1.1,1.1-2.1,2.1c2.1-2.1,0,0,0,0c-3.2,2.1-6.3,4.2-9.5,6.3    c-5.3,4.2-11.6,7.4-16.8,10.5c-5.3,3.2-10.5,5.3-15.8,8.4c-2.1,1.1-4.2,2.1-7.4,3.2c-1.1,0-2.1,1.1-3.2,1.1    c-2.1,1.1,3.2-1.1,1.1,0c-1.1,0-1.1,1.1-2.1,1.1c-12.6,5.3-26.3,8.4-39.9,11.6c-1.1,0-3.2,1.1-4.2,1.1c-3.2,1.1-7.4,4.2-8.4,8.4    c-7.4,42,2.1,87.2,34.7,117.7c15.8,14.7,35.7,25.2,55.7,32.6c24.2,10.5,49.4,7.4,72.5-2.1c21-8.4,38.9-24.2,54.6-38.9    c15.8-14.7,29.4-30.5,42-47.3c25.2-34.7,41-75.6,45.2-118.7c2.1-22.1,1.1-45.2-3.2-67.2c-4.2-21-12.6-41-22.1-59.9    c-13.7-26.3-31.5-50.4-51.5-71.4c-1.1-1.1-2.1-2.1-3.2-3.2c-10.5-10.5-27.3,5.3-16.8,16.8L886,33.6z"/>
		<path d="M802,426.5c1.1,1.1,1.1,3.2,1.1,4.2c0,1.1,0,2.1,0,2.1c-1.1-3.2,0,1.1,0,1.1c0,1.1,0,2.1,0,3.2c0-3.2,0,1.1-1.1,2.1    c1.1-3.2-2.1,2.1,0,0c-1.1,1.1-2.1,2.1-3.2,3.2c-5.3,4.2-4.2,12.6,0,16.8c5.3,5.3,11.6,4.2,16.8,0c11.6-9.5,13.7-26.3,8.4-39.9    c-2.1-6.3-7.4-9.5-14.7-8.4c-5.3,2.1-10.5,8.4-8.4,14.7l0,0L802,426.5z"/>
		<path d="M698,272.1c-21-21-46.2-37.8-72.5-50.4c-26.3-11.6-54.6-18.9-84-17.9c-6.3,0-11.6,5.3-11.6,11.6c0,6.3,5.3,11.6,11.6,11.6    c51.5-1.1,105.1,24.2,140.8,60.9c10.5,10.5,27.3-5.3,16.8-16.8l0,0L698,272.1z"/>
		<path d="M568.7,379.2c-7.4-65.1-13.7-131.3-20-196.4c-1.1-6.3-5.3-11.6-11.6-11.6s-12.6,5.3-11.6,11.6    c6.3,65.1,13.7,131.3,20,196.4c1.1,6.3,5.3,11.6,11.6,11.6S569.8,385.5,568.7,379.2L568.7,379.2z"/>
		<path d="M542.5,172.3c-14.7-9.5-33.6-12.6-50.4-13.7c-6.3,0-11.6,5.3-11.6,11.6s5.3,11.6,11.6,11.6c13.7,0,27.3,3.2,38.9,10.5    c5.3,3.2,12.6,1.1,15.8-4.2C549.8,182.8,547.7,175.4,542.5,172.3L542.5,172.3z"/>
		<path d="M532,742.7c-8.4,0-15.8-2.1-21-5.3l0,0c-6.3-3.2-13.7-7.4-18.9-14.7c-5.3,7.4-12.6,11.6-18.9,14.7l0,0    c-8.4,4.2-20,6.3-31.5,4.2c-3.2-1.1-6.3-4.2-5.3-7.4s4.2-6.3,7.4-5.3c9.5,2.1,17.9,1.1,23.1-2.1l0,0c11.6-6.3,18.9-10.5,18.9-28.4    c0-3.2,3.2-6.3,6.3-6.3s6.3,3.2,6.3,6.3c0,18.9,7.4,22.1,18.9,28.4l0,0c6.3,3.2,14.7,4.2,23.1,3.2c3.2-1.1,7.4,2.1,7.4,5.3    c1.1,3.2-2.1,7.4-5.3,7.4s-7.4,1.1-10.5,1.1V742.7z"/>
		<path d="M541.4,654.5c0,14.7-23.1,35.7-52.5,35.7c-29.4,0-52.5-20-52.5-34.7s23.1-20,52.5-20C518.3,635.6,541.4,639.8,541.4,654.5    z"/>
		<path class="st1" d="M512,648.2c0,3.2-9.5,8.4-22.1,8.4s-22.1-4.2-22.1-8.4c0-3.2,9.5-3.2,22.1-3.2S512,644,512,648.2z"/>
		<path d="M441.6,741.7h-1.1c-1.1,0-2.1,0-4.2-1.1c-22.1-5.3-33.6-21-33.6-43.1c0-3.2,3.2-6.3,6.3-6.3s6.3,3.2,6.3,6.3    c0,16.8,7.4,26.3,24.2,30.5c1.1,0,2.1,0,3.2,1.1c3.2,1.1,6.3,4.2,5.3,7.4C446.9,739.6,444.8,741.7,441.6,741.7z"/>
		<path d="M492.1,703.8c-3.2,0-6.3-3.2-6.3-6.3c0-2.1,0-5.3,0-7.4c0-3.2,0-6.3,0-10.5c0-3.2,3.2-6.3,6.3-6.3s6.3,3.2,6.3,6.3    c0,4.2,0,7.4,0,10.5c0,2.1,0,4.2,0,6.3c0,3.2-3.2,6.3-6.3,6.3l0,0V703.8z"/>
		<path d="M541.4,741.7c-3.2,0-6.3-2.1-6.3-5.3c-1.1-3.2,2.1-6.3,5.3-7.4c1.1,0,2.1,0,3.2-1.1c15.8-4.2,24.2-13.7,24.2-30.5    c0-3.2,3.2-6.3,6.3-6.3s6.3,3.2,6.3,6.3c0,23.1-11.6,37.8-33.6,43.1c-1.1,0-2.1,1.1-4.2,1.1H541.4z"/>
		<path d="M395.4,571.5c0,27.3-16.8,50.4-36.8,50.4s-36.8-22.1-36.8-50.4c0-24.2,12.6-44.1,29.4-49.4c11.6,8.4,25.2,17.9,42,30.5    c2.1,6.3,3.2,12.6,3.2,18.9H395.4z"/>
		<path class="st1" d="M381.7,564.1c0,9.5-6.3,17.9-13.7,17.9s-13.7-8.4-13.7-17.9s6.3-17.9,13.7-17.9S381.7,554.7,381.7,564.1z"/>
		<path d="M350.2,609.3c-13.7,11.6-27.3,24.2-38.9,38.9c-5.3,7.4-10.5,14.7-13.7,22.1c-4.2,8.4-6.3,15.8-8.4,25.2    c-1.1,4.2-1.1,9.5-2.1,13.7l-1.1,7.4c0,2.1,0,4.2,0,7.4c0,9.5,0,18.9,0,27.3c1.1,9.5,2.1,18.9,4.2,27.3c1.1,4.2,2.1,9.5,3.2,13.7    c1.1,4.2,2.1,9.5,4.2,13.7c-2.1-4.2-4.2-8.4-6.3-12.6s-3.2-8.4-5.3-13.7c-3.2-9.5-5.3-17.9-7.4-27.3s-3.2-18.9-4.2-28.4    c0-2.1,0-5.3,0-7.4v-7.4c0-5.3,0-9.5,1.1-14.7c1.1-9.5,3.2-20,6.3-29.4s8.4-18.9,13.7-27.3c10.5-16.8,24.2-31.5,37.8-45.2    c4.2-4.2,11.6-4.2,16.8,0C354.4,596.7,355.5,604,350.2,609.3c0,0,0,0-1.1,1.1l0,0L350.2,609.3z"/>
		<path d="M341.8,605.1c-2.1,0-2.1,0-3.2,0h-2.1l-3.2-1.1c-2.1,0-4.2-1.1-6.3-1.1c-4.2-1.1-8.4-1.1-11.6-1.1c-8.4,0-15.8,0-24.2,2.1    c-4.2,1.1-8.4,2.1-11.6,4.2c-4.2,2.1-7.4,4.2-10.5,6.3c-7.4,5.3-12.6,11.6-17.9,18.9c3.2-8.4,7.4-15.8,13.7-23.1    c3.2-3.2,6.3-6.3,10.5-9.5s7.4-5.3,11.6-7.4c8.4-4.2,17.9-7.4,27.3-8.4c4.2-1.1,9.5-1.1,14.7-1.1c2.1,0,5.3,0,7.4,0h3.2h2.1    c0,0,1.1,0,0,0c6.3,0,11.6,5.3,11.6,11.6s-5.3,11.6-12.6,11.6L341.8,605.1z"/>
		<path d="M586.6,571.5c0,27.3,16.8,50.4,36.8,50.4c20,0,36.8-22.1,36.8-50.4c0-24.2-12.6-44.1-29.4-49.4c-10.5,7.4-21,15.8-42,30.5    c-2.1,6.3-3.2,12.6-3.2,18.9H586.6z"/>
		<path class="st1" d="M600.3,564.1c0,9.5,6.3,17.9,13.7,17.9c7.4,0,13.7-8.4,13.7-17.9s-6.3-17.9-13.7-17.9    C606.6,546.3,600.3,554.7,600.3,564.1z"/>
		<path d="M631.8,609.3c13.7,11.6,27.3,24.2,38.9,38.9c5.3,7.4,10.5,14.7,13.7,22.1c4.2,8.4,6.3,15.8,8.4,25.2    c1.1,4.2,1.1,9.5,2.1,13.7l1.1,7.4c0,2.1,0,4.2,0,7.4c0,9.5,0,18.9,0,27.3c-1.1,9.5-2.1,18.9-4.2,27.3c-1.1,4.2-2.1,9.5-3.2,13.7    c-1.1,4.2-2.1,9.5-4.2,13.7c2.1-4.2,4.2-8.4,6.3-12.6c2.1-4.2,3.2-8.4,5.3-13.7c3.2-9.5,5.3-17.9,7.4-27.3    c2.1-9.5,3.2-18.9,4.2-28.4c0-2.1,0-5.3,0-7.4v-7.4c0-5.3,0-9.5-1.1-14.7c-1.1-9.5-3.2-20-6.3-29.4s-8.4-18.9-13.7-27.3    c-10.5-16.8-24.2-31.5-37.8-45.2c-4.2-4.2-11.6-4.2-16.8,0C627.6,596.7,626.5,604,631.8,609.3c0,0,0,0,1.1,1.1l0,0L631.8,609.3z"/>
		<path d="M640.2,605.1c2.1,0,2.1,0,3.2,0h2.1l3.2-1.1c2.1,0,4.2-1.1,6.3-1.1c4.2-1.1,8.4-1.1,11.6-1.1c8.4,0,15.8,0,24.2,2.1    c4.2,1.1,8.4,2.1,11.6,4.2c4.2,2.1,7.4,4.2,10.5,6.3c7.4,5.3,12.6,11.6,17.9,18.9c-3.2-8.4-7.4-15.8-13.7-23.1    c-3.2-3.2-6.3-6.3-10.5-9.5c-4.2-3.2-7.4-5.3-11.6-7.4c-8.4-4.2-17.9-7.4-27.3-8.4c-4.2-1.1-9.5-1.1-14.7-1.1c-2.1,0-5.3,0-7.4,0    h-3.2h-2.1c0,0-1.1,0,0,0c-6.3,0-11.6,5.3-11.6,11.6s5.3,11.6,12.6,10.5L640.2,605.1z"/>
		<g>
			<polygon class="st0" points="1029.9,690.2 1029.9,337.2 1298.8,337.2 1298.8,413.9 1135,413.9 1135,474.8 1277.8,474.8      1277.8,552.6 1135,552.6 1135,690.2    "/>
			<path d="M1141.3,696.5h-117.7V332h281.5v89.3h-164.9v48.3h143.9v90.3h-143.9v137.6L1141.3,696.5z M1036.2,683.9h91.4V546.3h143.9     v-65.1h-143.9v-73.5h164.9v-64.1h-256.3v339.3V683.9z"/>
		</g>
		<g>
			<polygon class="st0" points="1327.2,690.2 1327.2,337.2 1431.2,337.2 1431.2,611.4 1593,611.4 1593,690.2    "/>
			<path d="M1599.3,696.5h-278.4V332h117.7v273.1h160.7V696.5L1599.3,696.5z M1333.5,683.9h253.2v-66.2H1426V344.6h-91.4v339.3l0,0     H1333.5z"/>
		</g>
		<g>
			<path class="st0" d="M1786.3,695.4c-58.8,0-105.1-14.7-135.5-43.1c-31.5-28.4-47.3-74.6-47.3-137.6c0-44.1,7.4-78.8,21-106.1     c13.7-27.3,34.7-46.2,62-58.8c27.3-12.6,60.9-17.9,99.8-17.9c38.9,0,72.5,6.3,99.8,17.9c27.3,12.6,48.3,31.5,62,58.8     c13.7,27.3,21,62,21,106.1c0,63-15.8,109.3-47.3,137.6S1845.1,695.4,1786.3,695.4z M1786.3,608.2c26.3,0,46.2-7.4,57.8-22.1     s17.9-38.9,17.9-70.4c0-34.7-6.3-58.8-17.9-73.5c-11.6-14.7-31.5-22.1-57.8-22.1c-26.3,0-46.2,7.4-57.8,22.1     c-11.6,14.7-17.9,38.9-17.9,73.5c0,32.6,6.3,55.7,17.9,70.4S1760,608.2,1786.3,608.2z"/>
			<path d="M1786.3,701.7c-60.9,0-108.2-14.7-139.7-44.1c-32.6-29.4-49.4-77.7-49.4-142.9c0-44.1,7.4-80.9,22.1-109.3     c14.7-28.4,36.8-48.3,65.1-60.9c28.4-12.6,62-18.9,103-18.9c39.9,0,74.6,6.3,103,18.9c28.4,12.6,50.4,33.6,65.1,60.9     c14.7,27.3,22.1,64.1,22.1,109.3c0,65.1-16.8,113.5-49.4,142.9c-32.6,29.4-79.8,44.1-139.7,44.1H1786.3z M1786.3,338.3     c-37.8,0-70.4,6.3-97.7,17.9c-26.3,11.6-45.2,30.5-58.8,55.7c-13.7,25.2-20,59.9-20,103c0,60.9,14.7,106.1,45.2,133.4     c29.4,27.3,74.6,41,131.3,41c56.7,0,100.8-13.7,131.3-41c29.4-27.3,45.2-71.4,45.2-133.4c0-42-7.4-76.7-20-103     c-13.7-25.2-33.6-44.1-58.8-55.7c-26.3-11.6-58.8-17.9-96.6-17.9H1786.3z M1786.3,613.5c-28.4,0-49.4-8.4-63-24.2     c-13.7-15.8-20-41-20-74.6c0-36.8,6.3-62,20-77.7c13.7-15.8,34.7-24.2,63-24.2c28.4,0,49.4,8.4,63,24.2c13.7,15.8,20,41,20,77.7     c0,33.6-6.3,58.8-20,74.6C1835.7,605.1,1814.7,613.5,1786.3,613.5z M1786.3,425.5c-24.2,0-42,6.3-53.6,18.9     c-11.6,13.7-16.8,36.8-16.8,69.3c0,30.5,5.3,53.6,16.8,67.2c10.5,13.7,28.4,20,53.6,20c24.2,0,42-6.3,53.6-20     c11.6-13.7,16.8-35.7,16.8-67.2c0-32.6-5.3-56.7-16.8-69.3c-10.5-12.6-28.4-18.9-52.5-18.9H1786.3z"/>
		</g>
		<g>
			<polygon class="st0" points="2009,690.2 2009,337.2 2113,337.2 2113,461.2 2221.2,337.2 2341,337.2 2213.8,482.2 2349.4,690.2      2238,690.2 2149.8,547.3 2113,588.3 2113,690.2    "/>
			<path d="M2360.9,696.5h-126.1l-86.1-137.6l-29.4,32.6v106.1h-117.7V333h117.7v113.5l98.7-113.5h135.5l-132.4,151.3l138.7,213.3     L2360.9,696.5z M2241.2,683.9h95.6l-131.3-201.7l119.8-137.6h-101.9L2105.6,479V344.6h-91.4v339.3h91.4v-97.7l44.1-48.3     L2241.2,683.9z"/>
		</g>
		<g>
			<polygon class="st0" points="2388.2,690.2 2388.2,337.2 2493.3,337.2 2493.3,690.2    "/>
			<path d="M2499.6,696.5h-117.7V332h117.7V696.5z M2394.5,683.9h91.4V344.6h-91.4V683.9L2394.5,683.9z"/>
		</g>
	</g>
</g>
</svg>