<svg xmlns="http://www.w3.org/2000/svg" fill="none" viewBox="0 0 113 50">
  <g clip-path="url(#a)">
    <path fill="#E30613" d="M97.37 8.12a5.1 5.1 0 0 0-5.11-5.1H20.44a5.1 5.1 0 0 0-5.1 5.1v27c0 .75.03 1.5.1 2.26.57 6.34 4.2 9.97 9.94 9.97a14.75 14.75 0 0 0 5.97-1.26c1.6-.7 2.85-1.5 3.82-2.42l.87-.84.03-.6c.2 0 .4 0 .6-.02a7.01 7.01 0 0 0 3.13-1l1.31-.84.07-1.2a7.51 7.51 0 0 0 6.6 2.53c1.28-.1 2.56-.45 3.72-.98l-.05.84s.94.7 1.38.92a7.22 7.22 0 0 0 3.71.58 8.47 8.47 0 0 0 3.52-1c.32-.22.95-.84.95-.84l.12-1.99a5.65 5.65 0 0 0 4.11 1.11 7.18 7.18 0 0 0 3-.98 5.72 5.72 0 0 0 1.98.15 6.6 6.6 0 0 0 2.64-.8 11.18 11.18 0 0 0 4.78.65 9.2 9.2 0 0 0 5.55-2.24 6.3 6.3 0 0 0 4.39 1.11 7.5 7.5 0 0 0 3.2-1.03 5.89 5.89 0 0 0 2.98.5c.6-.05 1.17-.27 1.64-.63a5.15 5.15 0 0 0 1.97-4.09V8.12Z"/>
    <path fill="#fff" d="M94.2 32.84c-.02-.17-.05-.3-.12-.44a.6.6 0 0 1-.39-.21c-.14-.17-.2-.44-.15-.78l.47-7.8a10.12 10.12 0 0 0-4.76-.91 5.79 5.79 0 0 0-4.46 2.57 8.55 8.55 0 0 0-1.34 5.81c.23 2.6 1.45 4.02 3.45 4.02.13 0 .26 0 .4-.02 1.44-.13 2.77-1 3.55-2.32l.16-.27.03.32c.1 1.09.92 1.74 2.2 1.74l.26-.01c.47-.39.76-1.07.7-1.7m-3.52-2.15-.01.02c-.57 1.04-1.28 1.58-2.18 1.66h-.17c-.62 0-1.4-.33-1.53-1.93a8.18 8.18 0 0 1 .45-3.87c.44-1.01 1.13-1.59 2-1.66.1-.02.22-.02.34-.02.43 0 .86.07 1.33.2l.07.03-.3 5.57ZM27.05 34.3c.02.3.08.55.16.74l2.48-.21-.3 5.29-.14.09a5.57 5.57 0 0 1-2.93.8c-2.14 0-3.36-1.52-3.62-4.53a17.5 17.5 0 0 1 .2-4.73 8.8 8.8 0 0 1 1.7-3.87 4.72 4.72 0 0 1 3.87-1.87c1.14 0 2.18.4 3.1 1.19 1.09-.42 1.71-1.37 1.75-2.69a7.23 7.23 0 0 0-5.3-1.57l-.1.01a9.4 9.4 0 0 0-6.72 3.67c-2.08 2.66-3.03 6.47-2.6 10.46.4 4.65 2.75 7.1 6.78 7.1a11.5 11.5 0 0 0 4.7-1 9.78 9.78 0 0 0 2.87-1.77l.52-9.6-6.07.54c-.3.57-.42 1.2-.35 1.95m25.78-5.38c-.16-1.83-1.7-3-3.94-3-.19 0-.38 0-.58.02a5.98 5.98 0 0 0-4.57 2.49c-1.08 1.5-1.53 3.42-1.33 5.7a4.78 4.78 0 0 0 1.6 3.39 4.44 4.44 0 0 0 3.5 1.03 7.91 7.91 0 0 0 4.24-1.68c.17-.62.15-1.1-.05-1.4-.16-.23-.45-.38-.85-.43a5.47 5.47 0 0 1-2.9.95c-1.21 0-1.97-.6-2.27-1.78l-.02-.12h.11c4.8-.52 7.31-2.35 7.06-5.17m-7.21 3.25-.12.02v-.12c.1-2.24 1.08-3.66 2.63-3.8h.2c.81 0 1.36.47 1.43 1.23.12 1.45-1.27 2.35-4.14 2.67Zm-3.04-4.79c-.05-.51-.18-.73-.28-.83a1.4 1.4 0 0 0-.55-.1l-.2.01c-1.2.1-2.15.89-2.82 2.32l-.14.3-.25-1.63c-.27-.14-.6-.2-.99-.2a3.96 3.96 0 0 0-1.83.46l-.67 11.16c.3.14.67.2 1.12.2l.43-.01a3.79 3.79 0 0 0 1.65-.49l.4-6.52v-.02c.47-1.3 1.39-2.1 2.54-2.2l.25-.02c.14 0 .27.02.39.04.66-.37 1.04-1.36.95-2.47m36.12 1.18a8.09 8.09 0 0 1-1.56-.56c-.25-.16-.38-.4-.42-.75-.03-.33.12-.62.43-.84.28-.2.7-.34 1.2-.38.16-.02.32-.02.47-.02.78 0 1.47.19 2.06.56.8-.41 1.21-1.1 1.24-2.1a6.7 6.7 0 0 0-3.85-.89 5.87 5.87 0 0 0-3.61 1.43c-.88.8-1.27 1.8-1.16 2.98.13 1.57 1 2.37 3.2 2.97 1.64.45 2.16.71 2.23 1.45a1 1 0 0 1-.44.95 2.9 2.9 0 0 1-1.43.42l-.44.02c-.92 0-1.74-.25-2.51-.76-.79.43-1.2 1.11-1.25 2.1.48.39 1.11.66 1.97.87a7.95 7.95 0 0 0 2.53.2 6.1 6.1 0 0 0 3.73-1.46 3.52 3.52 0 0 0 1.18-3.06c-.13-1.4-.73-2.3-3.58-3.13m-16.29-7.2a1.95 1.95 0 0 0-.2-.68 4.78 4.78 0 0 0-2.27-.24c-1.22.1-2.23.55-3 1.3a4.2 4.2 0 0 0-1.3 2.88l-.05.74c0 .2-.12.36-.28.4l-1.3.11a3.3 3.3 0 0 0-.31 1.65c.02.27.08.51.18.73l1.54-.14-.69 11.6c.3.15.67.22 1.12.22.14 0 .28 0 .43-.02a3.86 3.86 0 0 0 1.67-.49l.7-11.55 2.09-.18c.27-.56.39-1.12.34-1.65-.03-.3-.09-.54-.18-.7l-2.36.16.06-.83c.09-1.05.64-1.63 1.63-1.71a3.9 3.9 0 0 1 1.33.1c.63-.44.9-1 .84-1.7m8.18 3.2a3.8 3.8 0 0 0-1.66.46l-.5 7.99v.02c-.59.94-1.2 1.43-1.9 1.49h-.17a1 1 0 0 1-.76-.28c-.24-.26-.33-.7-.29-1.28l.47-7.67c-.3-.13-.67-.2-1.1-.2a4.83 4.83 0 0 0-2.12.5l-.49 8.24c-.07 1.14.18 2.06.74 2.65.44.48 1.08.73 1.85.73.1 0 .22 0 .33-.02a4.75 4.75 0 0 0 3.24-2l.14-.18.25 1.13a2.34 2.34 0 0 0 1.34.22 3.38 3.38 0 0 0 1.48-.47l.69-11.16c-.3-.13-.67-.19-1.1-.19-.14 0-.29 0-.44.02"/>
    <path fill="#E30613" d="M39.1 22.5c-.02 0-.04.02-.05.03v.05c.12.38.11.54.1.72 0 .03-.01.07-.04.1l-.07.02c-.04 0-.06-.02-.07-.03-.02-.03-.02-.06-.02-.07.07-.9-.8-1.58-1.05-1.71-.12-.07-.24-.08-.33-.04a.29.29 0 0 0-.16.19c-.05.17-.17 1-.18 1.03-.14 1.02.57 1.55 1 1.78a1.12 1.12 0 0 0 1.08-.05s.32-.2.57-.42c.32-.27.38-.4.38-.4v-.04c-.2-1.15-1.16-1.15-1.17-1.15"/>
    <path fill="#FDEB1A" d="m45.32 18.89-.17-.13c-.3-.23-.89-.68-1.47-1.1a14.3 14.3 0 0 0-1.48-.94l-.02-.01c.05-.3.08-.72.11-1.2.1-1.32.2-2.95.82-3.37a.6.6 0 0 1 .53-.07.47.47 0 0 1 .22.14l.02.03c.02.02.05.02.08 0a.06.06 0 0 0 .01-.07 20.25 20.25 0 0 0-.7-1.27.3.3 0 0 0-.34.1c-.02.04-.15.2-.2.32-.01.04-.04.07-.06.07-.04-.01-.07-.03-.09-.1a.72.72 0 0 1 .42-.75c.02 0 .03-.02.03-.03v-.05c-1.53-2.38-3.57-3.75-5.6-3.75a5.2 5.2 0 0 0-3.27 1.24c-1.26.9-1.54 3.11-1.55 3.13l-.24 1.35c-.07.29-.2.59-.37.89-.01.02 0 .06.02.07.24.2.57.37 1.04.56a3.6 3.6 0 0 1-1.08-.47h-.01l-.02-.02a1.96 1.96 0 0 1-.17-.12l-.1-.06-.17-.14-.02-.03-.02-.01-.01-.01a4.37 4.37 0 0 1-1.3-2.05c0-.03-.03-.04-.06-.04a.06.06 0 0 0-.05.06l.02.1c.06.3.01.54-.15.7-.27.27-.83.33-1.37.28.8-.09 1.28-.41 1.3-.74.02-.39-.54-.65-1.5-.7-1.15-.04-1.5.24-1.6.48-.1.23.03.5.33.77.54.47 1.73.88 2.79.42-.23.46-.12 1.35.12 1.8a4.42 4.42 0 0 0 .56.83c.18.22.35.4.48.52a3.1 3.1 0 0 1-.58-.42.06.06 0 0 0-.09 0c-2.5 2.45-2.09 4.71-1.29 6.2 2.05.07 3.99.8 5.37 2.03l.53.47a3.64 3.64 0 0 1 .57.73l-.01-.1a8.88 8.88 0 0 1-.04-.63c.09.7.38 2.15 1.35 2.33.18.04.36.05.53.05 1.14 0 1.94-.7 2.2-.95l-.15.21-.05.08.1-.05a4.51 4.51 0 0 1 2.6-.63 5.62 5.62 0 0 0 1.4-1.14 7.3 7.3 0 0 0 1.45-2.5v-.03c.3-.98.4-1.8.42-2.1v-.13c0-.02 0-.04-.02-.05m-2.81-1.25c.08.12.2.4.16.5l-.04.03c-.04 0-.06-.01-.12-.13a1.2 1.2 0 0 0-.35-.45c-.4-.3-.65-.36-1.32-.38-.04 0-.08-.01-.1-.04l-.02-.07c.01-.08.1-.12.17-.14a.8.8 0 0 1 .22-.02c.42 0 1.05.22 1.4.7m-4.99-9.65a.7.7 0 0 1 .5-.58c.01 0 .17-.05.36-.05.15 0 .33.03.48.12.12.07.35.21.4.27.05.04.08.09.08.13 0 .03-.01.05-.03.06-.05.06-.13.01-.15 0-.31-.14-.6-.2-.81-.13-.35.1-.63.28-.68.32-.07.05-.12.03-.15 0 0 0-.02-.05 0-.14Zm6.4 12.36c-.25.22-.54.47-.8.75l-1 1.03-.92.95-.06.06c-.43.45-1.02 1.06-1.85 1.6l-.04.02c-.36.23-.9.58-1.66.28-.04 0-.83-.3-.64-1.4 0-.01.15-1.13.34-2.03 0-.02.54-2.37-.05-3.97l-.13-.28a.06.06 0 0 0-.04-.03c-.02 0-.04 0-.05.02a3 3 0 0 1-1.81.82c-.01 0-.84.08-1.56-.21.43.06 1.18.1 1.96-.11.04-.01 1.06-.25 1.52-1.09.01-.04.39-.91-.06-1.74-.32-.6-.98-1.02-1.96-1.24.26 0 .62.02.97.1l.05-.01a.06.06 0 0 0 .02-.06s-.06-.33-.04-.8c.04-.94.18-2.31.91-3.34.29-.4.9-1.02 1.82-.79.3.07 1.32.44 2.06 2.25 0 .02 1.03 2.3.7 5.3a16 16 0 0 0-4-1.2c-.02-.01-.03 0-.05.01a.06.06 0 0 0-.01.05c0 .01.2 1-.24 1.74a.06.06 0 0 0 .01.07c.43.45 1.25 1.15 2.73 1.98.01.01 1.3.8 2.9.93.73.06 1.1-.16 1.33-.3.15-.09.2-.11.27-.07.02.01.02.02.02.03 0 .12-.3.39-.63.68M27.03 9.14h.03l.19-.06a4.8 4.8 0 0 1 2.17.01c.32-.16.47-.34.45-.53-.03-.26-.39-.5-.95-.65-.77-.2-1.76-.2-2.07.24-.18.23-.13.56.13.97l.05.02"/>
    <path fill="#FDEB1A" d="M27.08 10.67h.03l.17-.08c.88-.3 2.15.05 2.2.07l.06-.01c.4-.3.55-.57.48-.82-.12-.41-.83-.6-1.45-.64-.76-.05-1.68.1-1.88.56-.12.26 0 .56.35.9l.04.02m1.68-3a3.44 3.44 0 0 1 1.09.4h.01c.02 0 .04-.01.04-.03.25-.56.47-.88.64-1.14.1-.14.18-.27.25-.4a.13.13 0 0 0-.02-.14c-.45-.54-.88-.48-1.16-.34-.6.3-1 1.23-.9 1.6.01.03.03.04.05.05M48 16.24c0 .02 0 .04.02.05h.05c.12-.03.38-.08.86.02.03 0 .05 0 .06-.03.02-.03.47-.88-.26-1.43-.2-.15-.45-.18-.75-.1-.03 0-.1.02-.15.1a.25.25 0 0 0-.01.19s.14.64.18 1.2m2.21 1.01c-.08-.39-.74-.7-1.35-.8-.48-.08-.84-.01-.94.17-.08.13-.03.3.14.52l.03.02c.04 0 .88.16 1.54.61l.12.1.04.01h.04c.3-.2.43-.41.38-.63m-2.91 1.2c-.22.07-.27.18-.27.26-.02.21.25.48.78.78-.36-.11-.78-.29-.9-.57-.06-.15-.03-.33.1-.52a.9.9 0 0 0 .04-.07.06.06 0 0 0-.02-.08.06.06 0 0 0-.08.01c-.36.45-.83.8-1.35 1a.07.07 0 0 0-.03.05 8.88 8.88 0 0 1-.37 1.73c0 .02 0 .04.02.06l.04.01h.02a2.8 2.8 0 0 0 1.46-1.48.98.98 0 0 0 .05-.31 2.6 2.6 0 0 0 1.94.54c.39-.08.6-.31.62-.68l-.01-.03a2.24 2.24 0 0 0-2.05-.7"/>
    <path fill="#FDEB1A" d="M48.68 17.45c-.47-.16-1.06-.25-1.27.01-.13.16-.09.4.11.73l.04.03c.02 0 1.15.16 1.6.6l.1.1.04.01h.02c.36-.13.54-.3.53-.52 0-.38-.59-.75-1.17-.96"/>
    <path fill="#050100" d="M37.7 8.18c.06-.05.33-.22.67-.32.2-.05.47 0 .77.14.06.03.16.05.22-.02a.13.13 0 0 0 .04-.1.24.24 0 0 0-.1-.17c-.07-.08-.4-.27-.41-.28-.35-.22-.86-.09-.88-.08a.77.77 0 0 0-.54.63c-.01.05-.03.15.01.2a.18.18 0 0 0 .23 0Zm2.97 8.92c-.01.1.07.16.17.16.64.02.9.07 1.28.37s.34.62.52.6c.23-.05 0-.5-.09-.63-.56-.77-1.84-.9-1.88-.5Z"/>
    <path fill="#050100" d="M44.58 19.6c-.26-.18-.45.44-1.64.35a7.06 7.06 0 0 1-2.87-.92 11.71 11.71 0 0 1-2.72-1.97c.45-.77.24-1.78.24-1.78 2.09.3 4.06 1.24 4.06 1.24.36-3.1-.7-5.42-.7-5.42-.7-1.7-1.66-2.17-2.1-2.28-.96-.24-1.6.43-1.88.82a6.32 6.32 0 0 0-.88 4.18 4.02 4.02 0 0 0-1.33-.08c-.02 0-.02.02 0 .03 3.37.57 2.31 2.96 2.31 2.96-.44.82-1.47 1.06-1.47 1.06a4.97 4.97 0 0 1-2.25.08c.79.46 1.86.36 1.86.36a3.1 3.1 0 0 0 1.85-.84l.13.27c.58 1.6.05 3.94.05 3.94-.2.9-.35 2.03-.35 2.03-.2 1.17.68 1.47.68 1.47.81.32 1.39-.08 1.76-.32a9.81 9.81 0 0 0 1.9-1.66l1.93-1.98c.74-.78 1.67-1.37 1.42-1.55m-4.74 4.46a6.1 6.1 0 0 1-.56.42c-.13.1-.6.27-1.02.05-.51-.27-1.1-.81-.97-1.72 0 0 .13-.86.17-1.03.05-.16.21-.22.42-.11.2.1 1.09.77 1.01 1.66 0 0-.02.14.14.15.15.01.18-.12.18-.17 0-.2.01-.37-.12-.74 0 0 .91-.01 1.12 1.1 0 0-.05.12-.37.4"/>
    <path fill="#050100" d="M39.6 25.1a3.09 3.09 0 0 1-2.75.97c-1.24-.23-1.33-2.63-1.33-2.65a.04.04 0 0 0-.04-.04c-.02 0-.03.02-.03.04 0 0-.03.46.02 1.02l.04.28a3.73 3.73 0 0 0 .27 1.09c.09.2.2.37.32.51.23.26.53.4.94.39a3.58 3.58 0 0 0 1.37-.33 3.66 3.66 0 0 0 .92-.73l.02-.02a2.49 2.49 0 0 0 .32-.48c.01-.02 0-.04-.01-.05a.05.05 0 0 0-.06 0m10.37-8.5a2.75 2.75 0 0 0-.58-.22c.1-.26.3-.92-.22-1.45a1.34 1.34 0 0 0-1.38-.38c-.1.03-.31.09-.24.46 0 0 .18.91.21 1.36a.48.48 0 0 0-.22.35c0 .07 0 .18.08.3-.14.02-.46.12-.56.46a.83.83 0 0 0-.02.47c-.09.1-.62.72-1.37 1.04l.02-.4a13.13 13.13 0 0 0-1.54-6.71l-.24-.5c.04 0 .09-.02.12-.06.07-.08.08-.18 0-.3a1.4 1.4 0 0 0-.6-.52 9.74 9.74 0 0 0-2.5-2.93c.64-.17.96-1.05.95-1.5 0-.1-.04-.25-.2-.22-.09.02-.13.13-.14.22-.07.43-.23.69-.45.88a.73.73 0 0 1-.18.13c-.17.07-.35.12-.5.15a5 5 0 0 0-.31-.18c1-.47.92-1.64.84-1.87-.04-.1-.11-.21-.22-.18-.13.03-.14.14-.13.25.1.85-.39 1.41-1.06 1.54a6.74 6.74 0 0 0-.35-.13c.38-.2.68-.64.77-1.01.08-.31 0-.65-.04-.7-.04-.07-.09-.1-.17-.08-.07.03-.06.13-.06.13.05.54-.3.98-.3.98-.24.3-.56.45-.79.52a6.19 6.19 0 0 0-.66-.1l-.37-.02a5.19 5.19 0 0 0-5.53 4.47 7.6 7.6 0 0 1-.5 2.05c-1.03-.95-1.32-2.3-1.33-2.33.5-.56-.02-1.3-.3-1.4.38-.16.36-.69.22-.87.46-1.02.9-1.48 1-1.82.01-.05 0-.1-.02-.15-.3-.44-.66-.64-1.04-.66-.9-.05-1.94.96-1.82 1.87-.21-.03-.4-.05-.58-.05-1.36 0-1.8 1.06-1.22 1.8v.01c-.71.46-.2 1.43.02 1.57-.91 1.3 1.09 1.95 2.26 1.93a1.95 1.95 0 0 0 .63-.08c.03.92.35 1.58.72 2.04l-.42.38c-1.34 1.2-2.6 3.66-1.4 6.15a10.5 10.5 0 0 1 .9 0c-1-1.83-.92-4.01 1.26-6.15.42.38.8.53.8.53l.04-.03a5.82 5.82 0 0 1-1.21-1.5c-.27-.51-.35-1.63.02-1.93-2.14 1.2-5.17-1.57-1.7-1.46 2.34.14 1.56 1.44-.43 1.35.67.15 2.47.35 2.2-.95l-.02-.1c.22.79.7 1.52 1.32 2.08l.05.05.18.14.05.04.22.15.02.02c.35.22.73.39 1.13.48l.09-.08a4.39 4.39 0 0 1-1.1-.58c.15-.27.29-.58.36-.9l.25-1.37S32.94 8.9 34.2 8a5.14 5.14 0 0 1 3.24-1.22c2.03 0 4.03 1.34 5.55 3.72a.77.77 0 0 0-.45.81c.01.1.06.13.13.14.07 0 .1-.07.12-.1.05-.13.19-.3.2-.3.1-.13.22-.11.27-.1.18.3.42.74.67 1.25l-.05-.05a.53.53 0 0 0-.22-.13.65.65 0 0 0-.58.07c-.63.44-.75 2.1-.84 3.42-.03.5-.06.92-.11 1.2v.03l.05.04c.03.01.72.39 1.47.93l1.48 1.1.16.13v.11c-.03.3-.11 1.12-.4 2.1l-.06.15c-.3.84-.75 1.62-1.39 2.36-.42.48-.94.87-1.47 1.17.18 0 .36.04.53.08a6.2 6.2 0 0 0 2.4-2.92c.12-.26.22-.51.3-.75.5-.13 1.35-.5 1.85-1.54l.26.14c1.26.6 2.44.44 2.31-.64.58-.27.82-.64.5-1.13.63-.36.63-1.1-.15-1.47M30.73 6.4c.02.02.02.05.01.07-.2.37-.5.69-.89 1.54-.4-.22-.71-.32-1.07-.4-.15-.57.92-2.46 1.95-1.22M29.4 9.04c-.02 0-1.14-.3-2.17-.02l-.19.06c-1.42-2.18 4.33-1.05 2.36-.04m.1 1.56a4.56 4.56 0 0 0-2.24-.06l-.17.07c-2-1.96 4.7-1.7 2.42 0M48 14.8c.33-.1.55-.02.7.09.68.52.26 1.32.24 1.36a1.7 1.7 0 0 0-.89-.02 8.1 8.1 0 0 0-.18-1.21c-.04-.17.06-.21.12-.23m-1.31 4.29s-.01 0 0 0c.29.49-.55 1.62-1.42 1.97.1-.31.28-.97.37-1.74.53-.22 1-.58 1.36-1.02l-.04.07c-.57.9.86 1.19 1.31 1.3-2.8-1.34.12-1.64 1.03-.48-.06 1.16-2.29.54-2.62-.1m2.63-.2-.1-.11c-.47-.45-1.6-.6-1.64-.61-1.13-1.86 3.76-.03 1.74.71m.49-1.05-.13-.1a4.48 4.48 0 0 0-1.56-.62c-1.05-1.31 3.32-.33 1.69.72"/>
    <path fill="#FFF8BC" fill-rule="evenodd" d="M48.38 16.57c-.1 0-.22.02-.28.1-.02.01-.04.04-.02.07.02.03.07.02.1 0 .27-.07.56-.12.85-.08h.07a2.5 2.5 0 0 0-.72-.1m-.78.94c-.03.01-.04.04-.03.07.02.03.06.03.1.02.28-.06.57-.08.86-.01h.07a2.22 2.22 0 0 0-.71-.15c-.1 0-.22 0-.3.07Zm-11.62-3.06-.25.28c.4.11.73.43.86.82.11-.2.06-.47-.07-.66-.13-.2-.33-.33-.54-.44ZM29.6 8.6c.04-.03.03-.07.02-.1-.04-.13-.17-.2-.29-.26a2.72 2.72 0 0 0-.89-.25c.3.12.64.28 1.04.57.04.03.09.06.12.04m-.17.92c-.29-.1-.6-.16-.9-.17.33.1.69.25 1.09.47.03.03.09.06.12.03s.02-.07.01-.1c-.05-.12-.19-.19-.32-.24M29.24 11a2.4 2.4 0 0 0-.92-.11l.08.02c.37.04.72.2 1.04.38.04.03.1.05.13.02a.1.1 0 0 0 0-.1c-.07-.12-.2-.18-.33-.21Zm18.04 7.6c-.02.02-.04.05-.03.08.02.03.06.03.1.02.28-.05.65-.06.93.01a2.1 2.1 0 0 0-.7-.16c-.1-.01-.22 0-.3.06" clip-rule="evenodd"/>
    <path fill="#fff" d="M45.3 18.56s-.39-.4-1.25-.98c.2-1.67-.29-4.97-1.37-3.66.58-3.74 2.63-.25 2.63 4.64Z"/>
    <path fill="#fff" d="M43.08 15.45a.54.54 0 1 1-.15 1.07.53.53 0 0 1-.45-.61c.04-.3.31-.5.6-.46m-.18-.58c.13.01.22.13.2.26a.23.23 0 0 1-.26.2.23.23 0 0 1-.2-.26.24.24 0 0 1 .26-.2Zm-.27 5.3-.06.07s-.3.34-.77 1.36c0 0-2.76-.1-4.03-1.45 0 0 .1-1.65-.23-2.5 0 0 1.31 1.28 2.92 1.96 0 0 1.19.57 1.95.57l.22-.01Zm-1.15-5.24c0 .64-.05.88-.08 1.2 0 0-1.22-.6-2.51-.9 0 0 .46-2.78-.92-4.27 0 0-.61-.75-1.15.06l.02-.12c.14-.59.58-1.75 1.5-1.85.51-.05 1 .08 1.53.7 0 0 .84.95 1.24 2.51.18.74.37 1.8.37 2.67Z"/>
    <path fill="#fff" d="M37.47 13a.6.6 0 0 1-.17 1.2.6.6 0 1 1 .17-1.2m-.17-.85c.15.02.25.16.23.32a.28.28 0 1 1-.55-.08.28.28 0 0 1 .31-.24"/>
  </g>
  <defs>
    <clipPath id="a">
      <path fill="#fff" d="M15.33 3.01h82.04v44.34H15.33z"/>
    </clipPath>
  </defs>
</svg>
