<svg xmlns="http://www.w3.org/2000/svg" fill="none" viewBox="0 0 113 50">
  <g clip-path="url(#a)">
    <path fill="url(#b)" d="M72.024 13.954a14.548 14.548 0 0 0-8.871-7.627 14.52 14.52 0 0 0-4.221-.625c-5.554 0-10.691 3.238-13.09 8.249a.984.984 0 1 0 1.777.852c2.074-4.332 6.512-7.129 11.31-7.129 1.243 0 2.468.181 3.645.54a12.563 12.563 0 0 1 7.664 6.592.985.985 0 0 0 1.317.462.985.985 0 0 0 .462-1.314h.007Z"/>
    <path fill="url(#c)" d="M70.63 27.058a.988.988 0 0 0-1.372.252c-.169.242-.346.484-.53.71a12.483 12.483 0 0 1-9.796 4.718H46.4V27.87a.986.986 0 1 0-1.973 0v4.868H40.62a5.787 5.787 0 0 0-5.78 5.78c0 1.544.6 2.996 1.693 4.086a5.744 5.744 0 0 0 4.087 1.694 5.787 5.787 0 0 0 5.78-5.78V34.71h12.532a14.44 14.44 0 0 0 11.337-5.458c.21-.264.416-.542.61-.821a.988.988 0 0 0-.252-1.373h.003Zm-26.2 11.46a3.813 3.813 0 0 1-3.807 3.807 3.781 3.781 0 0 1-2.693-1.114 3.781 3.781 0 0 1-1.115-2.693 3.813 3.813 0 0 1 3.808-3.808h3.807v3.808Z"/>
    <path fill="#fff" d="M58.858 17.278a.821.821 0 0 0-.812.698 3.853 3.853 0 0 0-6.071 3.149 3.853 3.853 0 0 0 3.853 3.854c.828 0 1.59-.264 2.215-.705a.822.822 0 0 0 1.636-.113V18.1a.822.822 0 0 0-.824-.823h.003Zm-3.03 6.05a2.208 2.208 0 0 1-2.205-2.206c0-1.216.99-2.206 2.206-2.206s2.205.99 2.205 2.206-.99 2.206-2.206 2.206Zm-17.935-5.232v6.059a.822.822 0 0 1-.824.824.822.822 0 0 1-.824-.824v-6.06c0-.456.368-.823.824-.823.457 0 .824.367.824.824Zm27.042-.825a3.857 3.857 0 0 0-3.853 3.854 3.857 3.857 0 0 0 3.853 3.854 3.83 3.83 0 0 0 2.2-.693 2.207 2.207 0 0 1-2.2 2.074 2.2 2.2 0 0 1-1.73-.84.823.823 0 1 0-1.293 1.024 3.83 3.83 0 0 0 3.023 1.464 3.857 3.857 0 0 0 3.854-3.853v-3.03a3.857 3.857 0 0 0-3.854-3.854Zm2.206 3.854c0 1.216-.99 2.206-2.206 2.206a2.208 2.208 0 0 1-2.205-2.206c0-1.216.99-2.206 2.205-2.206 1.216 0 2.206.99 2.206 2.206Zm11.54-1.381v4.407a.824.824 0 0 1-1.649 0v-4.407a.826.826 0 0 0-.824-.825.826.826 0 0 0-.824.825v4.407a.824.824 0 0 1-1.648 0v-4.407a2.475 2.475 0 0 1 2.472-2.473 2.475 2.475 0 0 1 2.472 2.473Zm-6.596-1.648v6.059a.822.822 0 0 1-.824.824.822.822 0 0 1-.824-.824v-6.06c0-.456.368-.823.824-.823.456 0 .824.367.824.824Zm-21.544 1.608v4.441a.821.821 0 0 1-1.641 0v-4.441a.799.799 0 0 0-.797-.797.799.799 0 0 0-.796.797v3.002a2.264 2.264 0 0 1-4.527 0v-3.002a.799.799 0 0 0-.797-.797.799.799 0 0 0-.797.797v4.441a.821.821 0 0 1-1.642 0v-4.441a2.442 2.442 0 0 1 4.883 0v3.002a.619.619 0 0 0 1.238 0v-3.002a2.442 2.442 0 0 1 4.883 0h-.007Z"/>
  </g>
  <defs>
    <linearGradient id="b" x1="35.02" x2="71.138" y1="37.755" y2="1.634" gradientUnits="userSpaceOnUse">
      <stop stop-color="#19FFDD"/>
      <stop offset=".25" stop-color="#00E9C5"/>
      <stop offset=".5" stop-color="#00FC60"/>
      <stop offset=".75" stop-color="#00E9C5"/>
      <stop offset="1" stop-color="#19FFDD"/>
    </linearGradient>
    <linearGradient id="c" x1="41.287" x2="77.409" y1="44.026" y2="7.904" gradientUnits="userSpaceOnUse">
      <stop stop-color="#19FFDD"/>
      <stop offset=".25" stop-color="#00E9C5"/>
      <stop offset=".5" stop-color="#00FC60"/>
      <stop offset=".75" stop-color="#00E9C5"/>
      <stop offset="1" stop-color="#19FFDD"/>
    </linearGradient>
    <clipPath id="a">
      <path fill="#fff" d="M34.842 5.702h43.835v38.596H34.842z"/>
    </clipPath>
  </defs>
</svg>
