<svg xmlns="http://www.w3.org/2000/svg" fill="none" viewBox="0 0 114 50">
  <g fill="#F8F8F8" clip-path="url(#a)">
    <path d="M.56 32.8c0 .24.25.4.5.4h4.07c.25 0 .5-.16.58-.49l2.53-21.26v-.08c0-.24-.16-.4-.33-.4h-4.4c-.25 0-.33.16-.33.4L.56 32.8Zm24.18-12.3c0 .65-.08 1.3-.16 1.95l-1.31 10.26c0 .25-.25.5-.5.5h-3.75c-.24 0-.49-.17-.49-.42v-.08l1.23-9.94c.08-.4.08-.9.08-1.22 0-.48-.08-.9-.33-1.14-.32-.32-.81-.48-1.55-.48-1.47 0-3.18.4-3.18.4L13.22 32.8c0 .24-.24.48-.57.48H8.9c-.25 0-.5-.16-.5-.4v-.09l1.64-13.35c.4-1.23 1.14-1.55 3.02-1.96a34.1 34.1 0 0 1 5.96-.73c2.21 0 3.84.32 4.82 1.22.5.57.9 1.38.9 2.52Zm38.8-9.13c0-.24-.08-.32-.33-.32H58.8c-.24 0-.4.16-.4.4l-2.7 22.32c-.41 2.28-1.4 2.28-2.95 2.37-.65 0-1.22 0-1.63.08-.49 0-.65.16-.73.65l-.25 1.8v.15c0 .41.25.5.57.5.57.07.82.15 2.94.15 3.6 0 6.54-1.06 7.1-5.86l2.79-22.24Z"/>
    <path d="M52.92 28.8c-.98 2.77-3.1 4.65-8 4.65-2.78 0-4.5-.57-5.56-1.63-1.06-1.06-1.39-2.61-1.39-4.32 0-1.95.4-4.89 1.14-6.6 1.07-2.6 3.19-4.31 7.84-4.31 2.78 0 4.58.65 5.56 1.63 1.06 1.05 1.39 2.44 1.39 4.23 0 1.96-.33 4.64-.98 6.35m-4.33-8.39c-.41-.4-.98-.65-2.04-.65-2.2 0-2.94.98-3.35 3.18a29.9 29.9 0 0 0-.5 4.72c0 .98.17 1.63.58 2.04.4.4.98.57 1.96.57 2.29 0 2.94-1.06 3.35-3.34.24-1.47.49-3.01.49-4.48 0-.98-.08-1.63-.5-2.04M79.3 28.8c-.98 2.77-3.1 4.65-8 4.65-2.78 0-4.5-.57-5.56-1.63-1.06-1.06-1.39-2.61-1.39-4.32 0-1.95.41-4.89 1.15-6.6 1.06-2.6 3.18-4.31 7.92-4.31 2.78 0 4.57.65 5.55 1.63 1.07 1.05 1.4 2.44 1.4 4.23-.09 1.96-.42 4.64-1.07 6.35m-4.33-8.39c-.4-.4-.98-.65-2.04-.65-2.2 0-2.94.98-3.35 3.18a29.9 29.9 0 0 0-.49 4.72c0 .98.08 1.63.57 2.04.41.4.98.57 1.96.57 2.29 0 2.94-1.06 3.35-3.34.25-1.47.5-3.01.5-4.48.07-.98-.1-1.63-.5-2.04m22.3 7.91c-1.06 3.42-3.18 5.13-8.09 5.13-2.36 0-4.49-.33-5.63-.74-1.23-.4-1.47-.9-1.47-1.7 0-.41.08-.9.16-1.47l2.13-17.84c0-.4.24-.65.65-.74h3.76c.24 0 .49.17.49.41v.08l-.5 3.91-.24 1.8s1.88-.57 3.84-.57 3.51.4 4.41 1.3c.9.9 1.39 2.28 1.39 4.4 0 1.95-.33 4.15-.9 6.03Zm-4.33-7.82c-.4-.5-1.06-.66-2.04-.66-1.22 0-2.86.41-2.86.41l-1.22 9.78s1.06.24 2.37.24c2.2 0 3.1-.65 3.67-3.83.25-1.3.4-2.69.4-4.07.1-.9-.07-1.55-.32-1.87Zm19.69-.57c-.08.24-.25.32-.5.32h-.16c-.32 0-2.04-.4-3.67-.4-.74 0-1.72.08-2.29.56-.4.33-.57.82-.57 1.3 0 1.31 1.39 1.31 2.86 1.64 1.23.16 2.45.48 3.27 1.3.65.57.98 1.47.98 2.85 0 1.47-.5 3.01-1.55 4.15-1.4 1.39-3.52 1.96-5.89 1.96-2.61 0-5.06-.65-5.55-.9-.08-.08-.25-.08-.25-.32v-.25l.66-1.95c.08-.25.24-.4.4-.4h.17c.4.07 2.53.72 4.41.72.9 0 1.63-.16 2.2-.65.5-.4.66-.9.66-1.38 0-.65-.25-.98-.65-1.22a4.3 4.3 0 0 0-1.72-.41c-1.14-.25-2.7-.4-3.67-1.39a3.83 3.83 0 0 1-.99-2.69 5.8 5.8 0 0 1 1.23-3.82c1.55-1.88 4.16-2.12 6.13-2.12 2.45 0 4.32.49 4.9.73.24.08.24.25.24.41v.16l-.65 1.8Zm-74.17-8.4c-.49-.16-1.88-.48-4.08-.48-3.6 0-5.48 1.63-5.88 4.88l-.17 1.96-.4 3.34-1.48 10.75v.25l-.08.57c0 .24.25.32.5.32h3.59c.24 0 .57-.08.65-.4v-.25l1.63-11.24h3.76c.25 0 .49-.16.49-.49l.33-2.44c0-.25-.17-.41-.41-.41h-3.92l.24-1.96c.16-1.3.74-1.62 2.2-1.62.82 0 1.8.16 2.13.24h.16c.25 0 .33-.16.41-.4l.57-2.13v-.16c0-.16-.08-.32-.24-.32Z"/>
  </g>
  <defs>
    <clipPath id="a">
      <path fill="#fff" d="M.56 10.96h112.72v28.51H.56z"/>
    </clipPath>
  </defs>
</svg>
