<svg xmlns="http://www.w3.org/2000/svg" fill="none" viewBox="0 0 113 50">
  <path fill="#fff" d="M.26 0h112.28v50H.26z"/>
  <g clip-path="url(#a)">
    <path fill="#F70" d="M18.89 37a12.04 12.04 0 1 0 0-24.09 12.04 12.04 0 0 0 0 24.09Z"/>
    <path fill="#fff" d="M18.5 20.25c.83 0 1.5.68 1.5 1.5v8.28c0 .82-.67 1.5-1.5 1.5a1.5 1.5 0 0 1-1.5-1.5v-8.28c0-.82.68-1.5 1.5-1.5Zm-4.88 2.82c.82 0 1.5.68 1.5 1.5v5.46c0 .82-.68 1.5-1.5 1.5a1.5 1.5 0 0 1-1.5-1.5v-5.45c0-.83.65-1.5 1.5-1.5Zm9.78-5.45c.82 0 1.5.68 1.5 1.5v10.92c0 .83-.68 1.5-1.5 1.5a1.5 1.5 0 0 1-1.5-1.5V19.12c0-.82.67-1.5 1.5-1.5Z"/>
    <path fill="#000" d="M37.24 19.87c-.21 0-.45-.05-.64-.13a1.5 1.5 0 0 1-.53-.37 2 2 0 0 1-.37-.53 1.68 1.68 0 0 1 0-1.32c.09-.2.2-.38.37-.53a1.68 1.68 0 0 1 1.17-.5 1.67 1.67 0 0 1 1.68 1.66c0 .46-.16.86-.5 1.17a1.5 1.5 0 0 1-1.18.55Zm-1.29 11.12v-9.72h2.6V31h-2.6ZM47 31.2v-1.39c-.23.42-.61.76-1.11 1.06-.5.3-1.12.43-1.87.43a4.3 4.3 0 0 1-1.76-.38 5.03 5.03 0 0 1-2.9-4.8c0-.75.14-1.44.38-2.07a5.03 5.03 0 0 1 2.51-2.7c.57-.28 1.16-.4 1.77-.4.75 0 1.36.16 1.87.44.5.3.88.64 1.1 1.05v-1.17h2.6v14h-2.6V31.2Zm-2.45-2.3a2.57 2.57 0 0 0 2.38-1.6c.15-.34.22-.72.22-1.17 0-.45-.07-.83-.22-1.17a2.57 2.57 0 0 0-2.38-1.6c-.35 0-.68.06-.97.2-.32.12-.6.3-.83.55a2.79 2.79 0 0 0-.8 2.04 2.89 2.89 0 0 0 .8 2.03c.23.23.51.43.83.56.31.1.64.16.97.16Zm14.3-7.94c.77 0 1.45.13 2.07.38a4.79 4.79 0 0 1 2.7 2.7c.26.64.38 1.33.38 2.09a5.02 5.02 0 0 1-1.45 3.72 4.95 4.95 0 0 1-3.7 1.45 5.6 5.6 0 0 1-2.06-.38 4.78 4.78 0 0 1-2.69-2.7 5.3 5.3 0 0 1-.38-2.1 5.03 5.03 0 0 1 1.45-3.72 4.95 4.95 0 0 1 3.69-1.44Zm0 7.94a2.57 2.57 0 0 0 1.78-.73c.24-.22.44-.52.57-.87a3.23 3.23 0 0 0 0-2.34 2.66 2.66 0 0 0-.56-.88 2.57 2.57 0 0 0-2.76-.54 2.5 2.5 0 0 0-1.37 1.42 3.23 3.23 0 0 0 0 2.34c.13.35.33.63.56.88.24.23.52.41.81.54.32.12.65.18.98.18Zm5.74-7.63h2.6v1.18c.23-.42.6-.76 1.1-1.06a3.6 3.6 0 0 1 1.87-.43c.63 0 1.2.13 1.77.38a5.03 5.03 0 0 1 2.89 4.79c0 .76-.13 1.45-.38 2.08a5.03 5.03 0 0 1-2.51 2.7c-.57.27-1.16.4-1.77.39a3.8 3.8 0 0 1-1.87-.43c-.5-.3-.87-.64-1.1-1.06v5.45h-2.6V21.27Zm5.04 7.63c.35 0 .68-.06.97-.2.32-.13.6-.3.83-.56a2.79 2.79 0 0 0 .8-2.03 2.89 2.89 0 0 0-.8-2.03 2.62 2.62 0 0 0-1.8-.76 2.57 2.57 0 0 0-2.38 1.6c-.15.35-.21.73-.21 1.18 0 .44.06.82.21 1.17a2.55 2.55 0 0 0 1.41 1.42c.3.15.62.21.97.21Zm6.6-5.41h-1.7v-2.22h1.7V18.3h2.6v2.97h2.38v2.22h-2.38v3.76c0 .23.02.43.07.63s.13.35.26.48c.18.21.45.31.8.31a1.45 1.45 0 0 0 .9-.24l.73 2.28a4.83 4.83 0 0 1-3.45.21c-.4-.15-.71-.36-.98-.63-.62-.6-.92-1.43-.92-2.54v-4.26Zm7.53-3.62a1.8 1.8 0 0 1-.65-.13 1.5 1.5 0 0 1-.53-.37 2 2 0 0 1-.36-.53 1.68 1.68 0 0 1 0-1.32c.08-.2.2-.38.36-.53a1.68 1.68 0 0 1 1.18-.5 1.67 1.67 0 0 1 1.68 1.66c0 .46-.17.86-.5 1.17a1.7 1.7 0 0 1-1.19.55Zm-1.3 11.12v-9.72h2.6V31h-2.6Zm8.56-10.03c.76 0 1.44.13 2.07.38a4.78 4.78 0 0 1 2.7 2.7c.26.64.37 1.33.37 2.09a5.03 5.03 0 0 1-1.45 3.72A4.95 4.95 0 0 1 91 31.3a5.6 5.6 0 0 1-2.06-.38 4.78 4.78 0 0 1-2.7-2.7 5.3 5.3 0 0 1-.37-2.1 5.02 5.02 0 0 1 1.45-3.72A4.95 4.95 0 0 1 91 20.96Zm0 7.94a2.57 2.57 0 0 0 1.78-.73c.24-.22.44-.52.57-.87a3.23 3.23 0 0 0 0-2.34 2.66 2.66 0 0 0-.56-.88 2.57 2.57 0 0 0-2.76-.54 2.5 2.5 0 0 0-1.37 1.42 3.23 3.23 0 0 0 0 2.34c.13.35.33.63.56.88.23.23.51.41.8.54.32.12.64.18.98.18Zm8.15-6.36h.16c.3-.5.71-.87 1.23-1.15.5-.28 1.1-.43 1.76-.43.61 0 1.14.1 1.6.3.47.2.85.47 1.15.84.3.36.52.8.67 1.3.15.52.23 1.08.23 1.7V31h-2.59v-5.57c0-.7-.15-1.22-.46-1.55a1.78 1.78 0 0 0-1.36-.52c-.36 0-.67.09-.94.23-.26.15-.51.37-.7.62-.19.26-.32.56-.42.9-.1.35-.15.73-.15 1.13V31h-2.6v-9.72h2.45l-.03 1.27Z"/>
  </g>
  <defs>
    <clipPath id="a">
      <path fill="#fff" d="M6.84 12.91h99.12v24.1H6.84z"/>
    </clipPath>
  </defs>
</svg>
