<svg xmlns="http://www.w3.org/2000/svg" fill="none" viewBox="0 0 113 50">
  <path fill="#D0152E" d="M0 0h112.28v50H0z"/>
  <g clip-path="url(#a)">
    <path fill="#D0152E" d="M108.64 3.5H3.5v43.27h105.13V3.51Z"/>
    <path fill="#fff" d="m36.92 39.42-2.27-1.66-2.28 1.66.87-2.68-2.27-1.65h2.8l.88-2.67.87 2.67h2.8l-2.27 1.65.87 2.68Zm42.85 0-2.27-1.66-2.28 1.66.87-2.68-2.27-1.65h2.8l.88-2.67.86 2.67h2.82l-2.28 1.65.87 2.68Zm-32.14 0-2.27-1.66-2.27 1.66.87-2.68-2.28-1.65h2.81l.87-2.67.87 2.67h2.81l-2.28 1.65.87 2.68Zm10.72 0-2.28-1.66-2.27 1.66.87-2.68-2.28-1.65h2.81l.87-2.67.87 2.67h2.81l-2.27 1.65.87 2.68Zm10.71 0-2.28-1.66-2.27 1.66.87-2.68-2.27-1.65h2.8l.88-2.67.87 2.67h2.8l-2.27 1.65.87 2.68Zm3.76-13.07c2.32-2.85 2.29-5.71 1.09-8.16-2.6 2.67-1.87 6.94-1.09 8.16Zm-24.41-1.77V18.7c-.98 0-2.34 1.39-2.34 2.94 0 1.56 1.14 2.93 2.34 2.93m-6.5.11a.6.6 0 0 1-.05-.18c-1.4-6.95 4.65-8.5 6.54-8.43h4.56v8.22c0 1.81 1.16 1.23 2.05.39l-.03-8.47c0-2.97-2.45-2.74-2.45-2.74l3.4-2.98h.38c2.15 0 3.1 1.88 3.19 3.75v4.86s3.84-3.36 3.97-3.49a2.5 2.5 0 0 1 2.43 2.53v6.58c0 1.63 1.2 1.1 1.96.32-1.51-6.23 2.15-8.63 3.94-9.56l6.45 1.88c.16.33.32.78.5 1.29l3.69-3.25c1.49.27 2.37 1.2 2.45 2.3v6.83c0 1.94.98 1.3 1.69.65v-9.22h4.49v7.96c0 2.26 2.04 1.94 2.04 1.94-.78.77-2.04 1.88-2.59 2.4-2.28-.1-3.28-1.15-3.8-2.2l-2.4 2.25c-3.64.6-3.93-2.94-3.93-2.94V20c0-.86-.78-.7-1.4-.7.88 6.17-2.78 8.87-5.43 9.06-2.7.2-4.38-1.39-5.32-2.6-1.26 1.15-2.78 2.58-2.78 2.58-2.44.27-4.05-.99-4.05-3.1v-3.88c0-1.27-1.03-1.27-1.91-1.27v8.06H55V25.6l-2.77 2.6c-2 .65-3.19-.88-3.71-1.79-.38.34-.67.62-1.93 1.8-2.3 0-3.8-1.97-4.27-2.75l-.02-.04-3.23 2.82s-4.04 1.27-4.04-3.71v-8.27c0-1.26-.89-1.44-1.83-1.44v13.33h-4.93l-.02-11.9c0-1.23-.79-1.5-1.83-1.5v13.4h-4.99c.04-1.7 0-10.16 0-11.15 0-2.97-2.44-2.75-2.44-2.75l3.39-2.97h1.3c.76 0 2.74.6 2.74 2.35l2.68-2.35h1.36c1.08 0 2.74.7 2.74 2.4l2.74-2.4h1.28c.98 0 2.74.59 2.74 2.4l.05 7.56c-.03 1.7 0 .29 0 1.29 0 2.87 1.29 2.6 1.94 2.26l-.05-.13"/>
  </g>
  <defs>
    <clipPath id="a">
      <path fill="#fff" d="M3.5 3.5h105.14v43.27H3.5z"/>
    </clipPath>
  </defs>
</svg>
