<svg xmlns="http://www.w3.org/2000/svg" fill="none" viewBox="0 0 113 50">
  <g clip-path="url(#a)">
    <path fill="#CC262F" fill-rule="evenodd" d="m21.34 34.24-3.9-11v8.98h1.4v5.6H10.1v-5.6h1.4V17.86h-1.4V12.3h8.32l3.06 8.65 3.1-8.66 8.16.01v5.57h-1.4v14.36h1.4v5.6H24v-5.6h1.4v-8.98l-4.06 11Zm25.59-21.96 3.24 19.95h1.02v5.59h-8.04v-5.6h1.03v-2.09h-3.72v2.1h1.02v5.59h-8.03v-5.6h1.02l3.24-19.94h9.22Zm-3.34 14.47-1.29-7.9-1.25 7.9h2.54Zm34.36-8.87v4.98h5.81V15l-2.7-2.72h-8.5L69.86 15v20.12l2.7 2.7h8.5l2.7-2.7v-7.85h-5.8v4.98h-1.92V17.88h1.91ZM61.47 37.82V27.68H59.6v4.55h1.01v5.59h-8.7v-5.6h1.4V17.87h-1.4v-5.58h13.14l2.7 2.7v8.06l-2.18 2.15 2.16 2.15v4.9h1.4v5.58h-7.66Zm-1.9-19.96v5.88h1.9v-5.87h-1.9Zm38.4-5.58 3.25 19.95h1.02v5.59H94.2v-5.6h1.03v-2.09H91.5v2.1h1.03v5.59h-8.04v-5.6h1.03l3.24-19.94h9.22Zm-3.33 14.47-1.29-7.9-1.25 7.9h2.53Z" clip-rule="evenodd"/>
  </g>
  <defs>
    <clipPath id="a">
      <path fill="#fff" d="M10.09 12.28h92.15v25.55H10.09z"/>
    </clipPath>
  </defs>
</svg>
