<svg xmlns="http://www.w3.org/2000/svg" fill="none" viewBox="0 0 114 50">
  <path fill="#FCBC00" d="M1 0h112.281v50H1z"/>
  <g clip-path="url(#a)">
    <path fill="#FCBC00" d="M112.721 47.481H1.507a.56.56 0 0 1-.56-.56V3.154c0-.31.25-.56.56-.56h111.217a.56.56 0 0 1 .559.56v43.771a.56.56 0 0 1-.559.56"/>
    <path fill="#23512F" d="M20.896 8.62c-9.068 0-16.416 7.349-16.416 16.416s7.348 16.416 16.416 16.416c9.067 0 16.416-7.349 16.416-16.416S29.962 8.62 20.896 8.62Z"/>
    <path fill="#FCBC00" d="M24.498 16.455c1.416 0 2.565 5.97 2.565 13.337h2.053c0-7.933-2.068-14.362-4.618-14.362-1.45 0-2.743 1.932-3.59 4.955-.846-3.023-2.141-4.955-3.59-4.955-2.55 0-4.618 6.431-4.618 14.362h2.054c0-7.366 1.148-13.337 2.564-13.337 1.416 0 2.565 5.512 2.565 12.312h2.05c0-6.8 1.15-12.312 2.565-12.312Z"/>
    <path fill="#fff" d="M16.86 33.672a.49.49 0 0 1-.978 0 .489.489 0 0 1 .978 0Zm1.821.323a.49.49 0 0 1-.977 0 .489.489 0 0 1 .977 0Zm1.819.135a.49.49 0 0 1-.977 0 .489.489 0 0 1 .977 0Zm1.822 0a.49.49 0 0 1-.978 0 .489.489 0 0 1 .977 0Zm1.818-.135a.49.49 0 0 1-.977 0 .489.489 0 0 1 .977 0Zm1.822-.323a.49.49 0 0 1-.977 0 .489.489 0 0 1 .977 0Zm-12.216-1.839c.486 0 .884.396.884.882a.878.878 0 0 1-.26.625.885.885 0 1 1-.625-1.509m0-.373a1.255 1.255 0 1 0 0 2.51 1.255 1.255 0 0 0 0-2.51Zm15.613 1.26a1.255 1.255 0 1 1-2.51 0 1.255 1.255 0 0 1 2.51 0Z"/>
    <path fill="#23512F" d="M34.057 37.07a.423.423 0 0 1-.443-.446c0-.09.017-.165.055-.233a.405.405 0 0 1 .156-.157.457.457 0 0 1 .232-.055c.088 0 .166.018.232.055a.423.423 0 0 1 .211.391c0 .09-.017.166-.055.234a.423.423 0 0 1-.388.212Zm0-.11c.096 0 .174-.03.23-.09a.339.339 0 0 0 .085-.247.339.339 0 0 0-.086-.247.302.302 0 0 0-.23-.091.3.3 0 0 0-.231.09.353.353 0 0 0-.083.248c0 .103.028.186.083.246a.3.3 0 0 0 .232.091Zm-.177-.118v-.449h.192c.118 0 .179.046.179.136 0 .03-.01.053-.028.07a.179.179 0 0 1-.075.039.18.18 0 0 1 .08.075c.02.035.035.078.043.129h-.131a.334.334 0 0 0-.045-.124.096.096 0 0 0-.086-.045h-.003v.166h-.126v.003Zm.17-.366h-.044v.116h.043c.028 0 .046-.005.058-.017a.05.05 0 0 0 .018-.04.055.055 0 0 0-.018-.043c-.012-.013-.03-.018-.058-.018"/>
    <path fill="#1D1D1B" d="m40.552 28.608 1.04-9.286h2.424l1.94 5.835 1.955-5.835h2.423l1.04 9.286h-2.48l-.54-5.668-1.65 4.988h-1.537l-1.663-5.044-.554 5.724h-2.398Zm14.968.179a3.865 3.865 0 0 1-1.802-.415 3.08 3.08 0 0 1-1.275-1.24c-.315-.55-.471-1.222-.471-2.015 0-.794.156-1.426.471-1.976a3.23 3.23 0 0 1 1.275-1.262c.536-.292 1.136-.436 1.801-.436a3.79 3.79 0 0 1 1.504.298c.466.199.854.496 1.164.894.31.398.502.897.575 1.496h-2.328c-.073-.415-.19-.712-.348-.894a.732.732 0 0 0-.567-.27c-.294 0-.554.162-.776.487-.221.322-.332.877-.332 1.663s.11 1.327.332 1.655c.222.327.481.491.776.491a.77.77 0 0 0 .602-.277c.162-.184.28-.514.353-.985h2.315c-.1.647-.315 1.176-.637 1.587a2.92 2.92 0 0 1-1.172.907 3.71 3.71 0 0 1-1.46.292Zm4.171-.179v-9.283h3.258c1.098 0 2.028.201 2.786.602.759.403 1.33.942 1.718 1.622.388.68.582 1.439.582 2.28 0 .942-.194 1.771-.582 2.487-.388.715-.96 1.277-1.718 1.683-.758.405-1.685.61-2.786.61H59.69Zm3.258-7.565h-.93v5.835h.93c.859 0 1.491-.255 1.9-.761.405-.51.61-1.225.61-2.15 0-.924-.205-1.652-.61-2.16-.406-.51-1.039-.764-1.9-.764Zm9.178 7.744a3.931 3.931 0 0 1-1.789-.403 3.013 3.013 0 0 1-1.275-1.212c-.315-.541-.47-1.227-.47-2.058 0-.748.145-1.398.435-1.947.29-.55.698-.975 1.22-1.275.521-.3 1.128-.451 1.82-.451.732 0 1.351.156 1.865.463.514.31.902.741 1.172 1.295.267.555.4 1.202.4 1.94v.459h-4.587c.055.627.191 1.073.408 1.338.216.264.486.395.811.395.295 0 .526-.078.693-.237.166-.156.282-.378.347-.665h2.245c-.184.786-.574 1.376-1.171 1.766-.597.393-1.305.59-2.127.59m-.055-5.89c-.315 0-.575.136-.784.408-.206.272-.33.662-.367 1.171h2.26c-.038-.499-.15-.887-.333-1.164a.88.88 0 0 0-.776-.415Zm6.528-3.989H76.24v9.7h2.356v-9.7Zm3.466 2.716h-2.355v6.984h2.355v-6.984ZM85 28.608l-2.466-6.986h2.44l1.342 4.77 1.317-4.77h2.288l-2.469 6.986h-2.451Zm8.32.179a3.93 3.93 0 0 1-1.789-.403 3.012 3.012 0 0 1-1.275-1.212c-.315-.541-.47-1.227-.47-2.058 0-.748.145-1.398.435-1.947.292-.55.698-.975 1.22-1.275.52-.3 1.128-.451 1.82-.451.731 0 1.351.156 1.865.463.514.31.902.741 1.172 1.295.267.555.4 1.202.4 1.94v.459h-4.587c.055.627.19 1.073.408 1.338.216.264.486.395.81.395.296 0 .527-.078.694-.237.166-.156.282-.378.347-.665h2.245c-.184.786-.574 1.376-1.171 1.766-.597.393-1.305.59-2.127.59m-.055-5.89c-.315 0-.575.136-.784.408-.206.272-.33.662-.367 1.171h2.26c-.038-.499-.15-.887-.333-1.164a.88.88 0 0 0-.776-.415Zm4.353 5.713v-6.983h2.066l.111 1.22c.12-.333.328-.638.625-.915.295-.277.688-.416 1.179-.416.093 0 .171.005.234.015.066.01.126.018.182.028v2.177a1.375 1.375 0 0 0-.25-.048 2.84 2.84 0 0 0-.32-.02c-.426 0-.776.13-1.053.395-.277.265-.416.668-.416 1.212v3.34h-2.355l-.003-.005Zm4.805 2.744.486-1.441c.287.12.567.179.846.179a.935.935 0 0 0 .575-.194c.171-.129.345-.393.519-.791l.262-.61-2.703-6.873h2.438l1.331 4.407 1.289-4.407h2.288l-2.965 7.581c-.333.85-.721 1.479-1.164 1.885-.444.405-.98.61-1.608.61-.322 0-.619-.031-.886-.091a2.758 2.758 0 0 1-.708-.257M80.975 20.9c-.37 0-.683-.124-.935-.369a1.19 1.19 0 0 1-.38-.894c0-.353.126-.65.38-.894a1.3 1.3 0 0 1 .935-.368c.368 0 .68.123.934.368.255.244.381.541.381.894s-.126.65-.38.894a1.3 1.3 0 0 1-.935.368Zm28.091 7.86a.716.716 0 0 1-.358-.086.622.622 0 0 1-.242-.242.719.719 0 0 1-.086-.36.74.74 0 0 1 .086-.36.623.623 0 0 1 .242-.242.716.716 0 0 1 .358-.086.74.74 0 0 1 .358.086.603.603 0 0 1 .239.242.719.719 0 0 1 .086.36c0 .138-.031.26-.086.36a.635.635 0 0 1-.239.242.718.718 0 0 1-.358.086Zm0-.172a.465.465 0 0 0 .355-.138.53.53 0 0 0 .131-.38.536.536 0 0 0-.131-.384.465.465 0 0 0-.355-.138.474.474 0 0 0-.361.138.544.544 0 0 0-.128.383c0 .164.043.288.128.38.086.094.205.14.361.14Zm-.275-.181v-.69h.295c.184 0 .275.07.275.209a.14.14 0 0 1-.046.108.24.24 0 0 1-.116.058c.053.023.093.06.126.116.033.055.053.12.068.196h-.201a.516.516 0 0 0-.068-.189.153.153 0 0 0-.134-.068h-.005v.257h-.194v.003Zm.26-.564h-.068v.178h.068c.04 0 .07-.007.088-.025a.088.088 0 0 0 .028-.06.083.083 0 0 0-.028-.066c-.018-.017-.048-.027-.088-.027Z"/>
  </g>
  <defs>
    <clipPath id="a">
      <path fill="#fff" d="M.947 2.594H113.28v44.888H.947z"/>
    </clipPath>
  </defs>
</svg>
