<svg xmlns="http://www.w3.org/2000/svg" fill="none" viewBox="0 0 113 50">
  <path fill="#fff" fill-rule="evenodd" d="M6.15 36.3h.62c.9 0 1.67.36 1.67 1.37 0 1.02-.8 1.31-1.67 1.31h-.62V36.3ZM4.4 43.7h1.76v-3.33h.74c1.89 0 3.39-.74 3.39-2.8 0-2.05-1.75-2.65-3.67-2.65H4.4v8.78Zm6.57-3.2a3.2 3.2 0 0 0 3.39 3.35c2.14 0 3.4-1.48 3.4-3.34a3.25 3.25 0 0 0-3.4-3.44c-1.93 0-3.4 1.3-3.4 3.44Zm1.76-.2c0-.97.53-1.92 1.62-1.92 1.1 0 1.64.93 1.64 1.92 0 1.09-.34 2.25-1.64 2.25-1.3 0-1.62-1.18-1.62-2.25Zm6.38 3.4h1.69v-2.37c0-.94 0-2.65 1.37-2.65.3 0 .6.05.76.14v-1.7c-.18-.05-.36-.05-.52-.05-1 0-1.7 1.02-1.77 1.62h-.03v-1.47h-1.5v6.49Zm5.41-1.95c0 1.29.73 2.1 2.06 2.1.5 0 .89-.04 1.24-.14l-.05-1.34a1.5 1.5 0 0 1-.76.18c-.65 0-.8-.52-.8-1.07v-3.02h1.5v-1.24h-1.5V35.4l-1.68.54v1.3h-1.25v1.23h1.25v3.3Zm9.19-1.31c0-.86.3-2.06 1.4-2.06 1.09 0 1.5 1.15 1.5 2.06 0 .91-.36 2.1-1.48 2.1s-1.42-1.2-1.42-2.1Zm2.97 3.26h1.64v-9.44h-1.69v3.72h-.02a2.3 2.3 0 0 0-1.94-.9c-2 0-2.72 1.58-2.72 3.36 0 1.8.73 3.42 2.72 3.42a2.4 2.4 0 0 0 1.99-.89h.02v.73Zm4.57-3.87c.07-.87.55-1.53 1.5-1.53.94 0 1.32.7 1.37 1.53h-2.87Zm4 2.14c-.63.35-1.33.65-2.15.65-1.05 0-1.78-.6-1.85-1.64h4.48c0-2.26-.68-3.91-3.08-3.91-2.02 0-3.01 1.55-3.01 3.42 0 2.13 1.24 3.36 3.38 3.36.9 0 1.61-.17 2.23-.51v-1.37Zm8.23-2.19h.83c.88 0 1.82.17 1.82 1.32 0 1.02-1 1.22-1.82 1.22h-.83v-2.55Zm0-3.48h.68c.8 0 1.7.08 1.7 1.1 0 .9-.92 1.07-1.66 1.07h-.72V36.3Zm-1.76 7.4h3.07c1.11 0 3.1-.32 3.1-2.54 0-1.08-.82-1.89-2.02-2v-.03c1.05-.18 1.75-.91 1.75-1.96 0-1.93-1.7-2.25-2.83-2.25h-3.07v8.78ZM59.6 39c.57-.42 1.28-.7 2-.7 1 0 1.46.36 1.46 1.4h-.93c-.7 0-1.53.06-2.18.38-.64.31-1.1.88-1.1 1.85 0 1.23 1.12 1.93 2.26 1.93.77 0 1.61-.4 2-1.12h.03c0 .2 0 .62.07.97h1.49a50.43 50.43 0 0 1-.1-3.07v-.84c0-1.91-.82-2.73-2.8-2.73-.71 0-1.6.2-2.25.5L59.6 39Zm.86 2.83c0-1 1.12-1.12 1.87-1.12h.73c0 .5-.07.97-.35 1.33-.26.35-.67.58-1.19.58-.6 0-1.06-.24-1.06-.8Zm5.84 1.87h1.68v-2.37c0-.94 0-2.65 1.37-2.65.3 0 .6.05.76.14v-1.7c-.18-.05-.35-.05-.52-.05-1 0-1.7 1.02-1.77 1.62h-.03v-1.47h-1.5v6.49Zm8.98-6.42a5.46 5.46 0 0 0-1.64-.21c-2.02 0-3.13 1.48-3.13 3.36 0 1.98 1.07 3.43 3.2 3.43.69 0 1.2-.07 1.68-.22l-.07-1.4c-.3.13-.82.3-1.3.3-1.18 0-1.75-.91-1.75-2.11 0-1.2.67-2.05 1.72-2.05.51 0 .84.1 1.14.24l.15-1.33Zm2.42 2.55c.09-.87.56-1.53 1.5-1.53.95 0 1.33.7 1.38 1.53h-2.87Zm4.01 2.14c-.63.35-1.33.65-2.15.65-1.04 0-1.77-.6-1.85-1.64h4.48c0-2.26-.68-3.91-3.08-3.91-2.02 0-3.01 1.55-3.01 3.42 0 2.13 1.24 3.36 3.38 3.36.9 0 1.62-.17 2.23-.51v-1.37Z" clip-rule="evenodd"/>
  <path fill="#fff" d="M85.24 34.26h-1.69v9.44h1.69v-9.44Z"/>
  <path fill="#fff" fill-rule="evenodd" d="M86.6 40.5a3.2 3.2 0 0 0 3.38 3.35c2.14 0 3.4-1.48 3.4-3.34a3.25 3.25 0 0 0-3.4-3.44c-1.93 0-3.39 1.3-3.39 3.44Zm1.76-.2c0-.97.53-1.92 1.62-1.92 1.1 0 1.64.93 1.64 1.92 0 1.09-.34 2.25-1.64 2.25-1.3 0-1.62-1.18-1.62-2.25Zm6.34 3.4h1.69v-3.17c0-.83.26-2.15 1.48-2.15 1.08 0 1.1 1.07 1.1 1.86v3.47h1.68v-4.1c0-1.46-.66-2.54-2.2-2.54-.88 0-1.6.29-2.13 1.03h-.02v-.88h-1.6v6.49Zm8.03-4.7c.57-.42 1.28-.7 2-.7 1 0 1.46.36 1.46 1.4h-.93c-.7 0-1.53.06-2.18.38a1.9 1.9 0 0 0-1.1 1.85c0 1.23 1.12 1.93 2.26 1.93.77 0 1.61-.4 2-1.12h.03c.01.2.01.62.07.97h1.49a48.37 48.37 0 0 1-.1-3.07v-.84c0-1.91-.82-2.73-2.8-2.73-.71 0-1.6.2-2.25.5l.05 1.44Zm.86 2.83c0-1 1.12-1.12 1.87-1.12h.73c0 .5-.07.97-.35 1.33-.27.35-.67.58-1.18.58-.6 0-1.07-.24-1.07-.8Zm-58.36-24.4 11.2-11.29 4.72 4.68-11.24 11.29-4.68-4.68ZM56.81 29l-4.78-4.82c1.55-7.72 7.05-4.43 10-12.59l4.91 4.73C64 24.62 58.84 20.95 56.81 29Z" clip-rule="evenodd"/>
</svg>
