<svg xmlns="http://www.w3.org/2000/svg" fill="none" viewBox="0 0 113 50">
  <path fill="#fff" d="M26.57 12.71c-2.12 0-4.1.27-6.04.84a5.65 5.65 0 0 0-3.63 2.88 3 3 0 0 0-.21 2.58 4.97 4.97 0 0 0 2.52 2.73c.91.43 1.88.55 2.88.51a8.78 8.78 0 0 1 2.31.16 6.01 6.01 0 0 1 4.45 3.48c.7 1.59.66 3.22.18 4.85a4.52 4.52 0 0 1-2.25 2.85 5.6 5.6 0 0 1-3.39.6 6.19 6.19 0 0 1-4.78-3.07 5.21 5.21 0 0 1 2.04-7.4c.65-.35 1.33-.5 2.05-.27.93.3 1.42 1.01 1.57 1.93a2 2 0 0 0 1.12 1.54c.44.24.78.06.84-.43a2.55 2.55 0 0 0-1.59-2.8 6.62 6.62 0 0 0-3.04-.51c-1.64.1-3.1.7-4.45 1.61a4.67 4.67 0 0 0-2.19 4.75 4.92 4.92 0 0 0 1.68 3.21 7 7 0 0 0 2.52 1.28c1.78.58 3.6.81 5.47.64 1.86-.18 3.6-.76 5.25-1.64a5.13 5.13 0 0 0 2.9-4.46 7 7 0 0 0-3.68-6.8c-.78-.47-1.63-.8-2.47-1.14-1.35-.55-2.71-1.04-4.03-1.68-.48-.24-.95-.5-1.32-.91-1.28-1.41-.88-3.36.9-4.02a5.6 5.6 0 0 1 5.59.83 3.1 3.1 0 0 1 1.2 1.8c.24 1.05 1.4 1.62 2.48 1.37.15-.03.23-.13.23-.28.02-.82.03-1.64-.17-2.44-.34-1.36-1.15-2.21-2.56-2.43-.82-.13-1.65-.13-2.38-.16Z"/>
  <path fill="#fff" d="M26.57 12.71c.73.03 1.56.03 2.38.16 1.41.22 2.23 1.07 2.56 2.43.2.8.19 1.62.17 2.44 0 .15-.08.25-.23.28-1.07.25-2.24-.32-2.48-1.36a3.08 3.08 0 0 0-1.2-1.8 5.62 5.62 0 0 0-5.6-.84c-1.77.66-2.17 2.61-.88 4.02.37.4.83.67 1.32.9 1.3.65 2.68 1.14 4.02 1.69.84.34 1.69.67 2.47 1.13a7 7 0 0 1 3.67 6.8 5.12 5.12 0 0 1-2.89 4.47 13.85 13.85 0 0 1-5.25 1.64c-1.87.18-3.69-.06-5.47-.64-.9-.3-1.79-.64-2.52-1.28a4.93 4.93 0 0 1-1.68-3.21 4.67 4.67 0 0 1 2.2-4.75 8.7 8.7 0 0 1 4.44-1.61 6.6 6.6 0 0 1 3.04.52 2.55 2.55 0 0 1 1.6 2.8c-.06.48-.4.66-.84.42a2 2 0 0 1-1.13-1.54c-.15-.92-.64-1.63-1.57-1.93a2.55 2.55 0 0 0-2.04.26 5.21 5.21 0 0 0-2.05 7.4 6.18 6.18 0 0 0 4.79 3.08 5.57 5.57 0 0 0 3.38-.6 4.53 4.53 0 0 0 2.25-2.85 6.78 6.78 0 0 0-.18-4.85 6.02 6.02 0 0 0-4.45-3.48 8.7 8.7 0 0 0-2.3-.16 6 6 0 0 1-2.89-.51A4.97 4.97 0 0 1 16.69 19a3 3 0 0 1 .21-2.58 5.65 5.65 0 0 1 3.63-2.88 20.9 20.9 0 0 1 6.05-.84Zm8.4 15.9.34-2.12a59.8 59.8 0 0 1 2.3-9.14c.2-.6.46-1.19.7-1.77.12-.3.34-.44.7-.45.64-.02 1.2.2 1.72.55.25.17.31.36.2.64-.33.9-.62 1.82-.93 2.73a108.17 108.17 0 0 0-1.98 6.62 38.2 38.2 0 0 0-.57 2.83c-.07.41-.1.84-.15 1.26-.02.17 0 .33.2.39.2.07.4-.01.5-.2l.34-.74a27.6 27.6 0 0 1 2.02-3.8c.35-.54.8-.97 1.46-1.11a2.36 2.36 0 0 1 1.54.2l.43.25c.35.21.47.46.37.85-.2.78-.43 1.55-.64 2.32-.24.86-.48 1.71-.63 2.6a7.42 7.42 0 0 0-.17 1.88c.04.61.34 1.16.9 1.3.4.11.76 0 1.09-.22.62-.43.9-1.04.95-1.77a14.3 14.3 0 0 1 1.66-5.89c.28-.5.71-.76 1.3-.76.34 0 .63.05.9.25.23.17.28.29.17.56-.34.87-.63 1.76-.89 2.66a12.86 12.86 0 0 0-.6 4.07c0 .16 0 .34.21.41.23.08.54.03.65-.14a19.36 19.36 0 0 0 3.06-6.18c.13-.43.23-.86.37-1.29.14-.47.33-.61.77-.56.45.05.89.18 1.3.36.37.16.44.42.34.9-.28 1.34-.57 2.67-.81 4.01-.13.67-.27 1.35-.18 2.05.06.5.22.95.74 1.17.3.13.61.1.9-.05.61-.35.96-.87 1-1.6.1-1.64.34-3.25.73-4.85.48-2 1.15-3.93 1.93-5.82.4-.94.8-1.87 1.36-2.72.34-.5.71-.98 1.18-1.42.08.42.06.82-.04 1.22l-.91 3.62-1.16 4.5c-.03.12-.05.23.08.3.12.08.23.02.31-.07a9.84 9.84 0 0 1 2.18-1.61c.7-.44 1.14 0 1.4.61.08.23-.09.4-.26.52l-1.56 1.09c-.12.08-.25.15-.37.24-.34.25-.36.47-.06.76l1.52 1.45a83.57 83.57 0 0 1 3.74 3.8l.08.13.06-.03.14-1.25.25-2.07.15-1.35.2-1.72c.06-.43.1-.86.2-1.28.05-.22.13-.42.27-.6.36-.45.76-.56 1.32-.39.25.08.47.2.69.36.14.1.18.22.16.38-.15.89-.3 1.78-.47 2.67l-.01.2c-.01.2.1.33.29.38.19.05.33-.03.41-.23.41-1 .83-2 1.15-3.03.06-.18.1-.36.2-.53.2-.4.56-.52 1-.5h.43c.28.07.56.1.8.27.29.2.35.36.2.68-.26.51-.53 1.02-.77 1.54-.2.44-.35.9-.36 1.4-.02.44.37.77.78.82.6.07 1.38-.46 1.65-1.04.28-.62.55-1.24.95-1.8a4.9 4.9 0 0 1 6.15-1.72c.17.07.34.15.5.24.32.16.56.37.5.8-.03.24.13.44.36.49l.45.06c.4.01.5.15.38.53-.26.82-.57 1.63-.77 2.47a10.33 10.33 0 0 0-.34 3.46c.04.49.48.88.95.94.75.1 1.47-.66 1.62-1.28.1-.41.12-.83.14-1.26a19.24 19.24 0 0 1 .66-4.43c.15-.58.37-1.13.67-1.67.4-.72 1.3-.85 1.93-.45.17.12.22.25.16.44-.24.9-.5 1.79-.72 2.69-.11.49-.2.99-.24 1.49-.02.24-.02.5-.08.73-.03.17.01.32.2.36.2.04.34-.01.42-.23.22-.58.53-1.13.8-1.7a42.5 42.5 0 0 1 2.01-3.78c.2-.34.45-.63.86-.72.2-.05.4-.04.6.01.4.1.8.17 1.18.3.5.18.65.49.54 1-.24 1.15-.65 2.25-1 3.36-.23.76-.44 1.52-.55 2.3a4.2 4.2 0 0 0 .03 1.86c.21.68.7.9 1.3.78.38-.07.67-.34.9-.64.21-.26.37-.54.5-.84.1-.17.21-.22.42-.16.44.15.55.48.38.86a3.26 3.26 0 0 1-1.83 1.68c-.5.2-1.01.33-1.54.3a2.73 2.73 0 0 1-1.92-.75 2.18 2.18 0 0 1-.6-1.36c-.1-1 .13-1.96.37-2.92l.3-1.24c.04-.11 0-.19-.1-.23-.33-.14-.49-.17-.74.23a17.83 17.83 0 0 0-2.11 5.25c-.14.63-.5.99-1.08 1.14a1.2 1.2 0 0 1-1.1-.31c-.1-.07-.17-.15-.26-.2a.57.57 0 0 0-.72 0c-.94.6-1.93.66-2.94.25-.35-.14-.6-.4-.73-.76-.12-.32-.22-.38-.46-.37-.12 0-.2.07-.28.15a3.8 3.8 0 0 1-4 1.06A3.37 3.37 0 0 1 75 30.93l.01-.7c.01-.19-.07-.24-.24-.25-.26-.02-.5.06-.76.1a2 2 0 0 1-1.3-.2c-.3-.22-.53-.5-.67-.87-.12-.34-.17-.7-.25-1.05-.04-.15-.09-.12-.17-.05-.12.11-.2.26-.27.41-.35.74-.7 1.49-.97 2.26a13.21 13.21 0 0 0-.8 3.6c-.03.32-.16.55-.36.53-.18-.02-.36 0-.53-.05-.45-.11-.88-.26-1.33-.35a3.31 3.31 0 0 0-2.06.24c-.49.22-.69.13-1.04-.26-.32-.35-.61-.71-.92-1.06-.32-.35-.66-.68-.96-1.05-.49-.58-1.03-1.1-1.53-1.66-.26-.3-.55-.56-.83-.83a9.23 9.23 0 0 0-.35-.34.32.32 0 0 0-.34-.07c-.1.04-.16.12-.15.22.03.48-.1.94-.09 1.41v2.3c0 .45-.15.58-.58.47a4.5 4.5 0 0 0-1.16-.16c-.52 0-.96.16-1.36.47-.24.19-.5.35-.8.42-.63.13-1.26.1-1.88-.08a1.61 1.61 0 0 1-1.13-1.13c-.1-.33-.12-.67-.12-1 0-.26-.1-.33-.33-.36-.3-.04-.38.16-.46.35-.32.7-.72 1.35-1.28 1.88-.43.4-.92.65-1.53.62a2.63 2.63 0 0 1-1.46-.63c-.59-.44-.93-.47-1.44-.14-1.09.69-2.24.9-3.48.58a2.52 2.52 0 0 1-1.92-2.44c-.03-.61.05-1.22.17-1.82.14-.68.26-1.37.51-2.02.12-.3 0-.47-.32-.5a.45.45 0 0 0-.46.24c-.6.98-1.11 2-1.54 3.07-.36.89-.65 1.8-.82 2.74-.08.43-.2.8-.68.9-.49.03-.97 0-1.43-.2a1.57 1.57 0 0 1-.95-1.17c-.12-.56-.04-1.12.02-1.68l.1-1.02c.05-.47.1-.95.17-1.42.03-.18.04-.37.06-.56h-.01Zm42.26 2.47c0 .3 0 .6.07.9.13.5.3 1 .79 1.29.46.27 1.1.26 1.47-.26.55-.77.9-1.62 1.23-2.5.36-.95.6-1.95.84-2.94.1-.4.17-.82.13-1.23-.03-.3-.09-.59-.3-.81-.37-.38-.93-.46-1.47-.18A6.18 6.18 0 0 0 77.42 29a7.99 7.99 0 0 0-.2 2.07Z"/>
  <path fill="#fff" d="M61.94 27.65v.01l-.09-.14.09.13Z"/>
  <path fill="#fff" d="m34.97 28.61.34-2.12a59.8 59.8 0 0 1 2.3-9.14c.2-.6.46-1.19.7-1.77.12-.3.34-.44.7-.45.64-.02 1.2.2 1.72.55.25.17.31.36.2.64-.33.9-.62 1.82-.93 2.73a108.17 108.17 0 0 0-1.98 6.62 38.2 38.2 0 0 0-.57 2.83c-.07.41-.1.84-.15 1.26-.02.17 0 .33.2.39.2.07.4-.01.5-.2l.34-.74a27.6 27.6 0 0 1 2.02-3.8c.35-.54.8-.97 1.46-1.11a2.36 2.36 0 0 1 1.54.2l.43.25c.35.21.47.46.37.85-.2.78-.43 1.55-.64 2.32-.24.86-.48 1.71-.63 2.6a7.42 7.42 0 0 0-.17 1.88c.04.61.34 1.16.9 1.3.4.11.76 0 1.09-.22.62-.43.9-1.04.95-1.77a14.3 14.3 0 0 1 1.66-5.89c.28-.5.71-.76 1.3-.76.34 0 .63.05.9.25.23.17.28.29.17.56-.34.87-.63 1.76-.89 2.66a12.86 12.86 0 0 0-.6 4.07c0 .16 0 .34.21.41.23.08.54.03.65-.14a19.36 19.36 0 0 0 3.06-6.18c.13-.43.23-.86.37-1.29.14-.47.33-.61.77-.56.45.05.89.18 1.3.36.37.16.44.42.34.9-.28 1.34-.57 2.67-.81 4.01-.13.67-.27 1.35-.18 2.05.06.5.22.95.74 1.17.3.13.61.1.9-.05.61-.35.96-.87 1-1.6.1-1.64.34-3.25.73-4.85.48-2 1.15-3.93 1.93-5.82.4-.94.8-1.87 1.36-2.72.34-.5.71-.98 1.18-1.42.08.42.06.82-.04 1.22l-.91 3.62-1.16 4.5c-.03.12-.05.23.08.3.12.08.23.02.31-.07a9.84 9.84 0 0 1 2.18-1.61c.7-.44 1.14 0 1.4.61.08.23-.09.4-.26.52l-1.56 1.09c-.12.08-.25.15-.37.24-.34.25-.36.47-.06.76l1.52 1.45a83.57 83.57 0 0 1 3.74 3.8l.08.13.06-.03.14-1.25.25-2.07.15-1.35.2-1.72c.06-.43.1-.86.2-1.28.05-.22.13-.42.27-.6.36-.45.76-.56 1.32-.39.25.08.47.2.69.36.14.1.18.22.16.38-.15.89-.3 1.78-.47 2.67l-.01.2c-.01.2.1.33.29.38.19.05.33-.03.41-.23.41-1 .83-2 1.15-3.03.06-.18.1-.36.2-.53.2-.4.56-.52 1-.5h.43c.28.07.56.1.8.27.29.2.35.36.2.68-.26.51-.53 1.02-.77 1.54-.2.44-.35.9-.36 1.4-.02.44.37.77.78.82.6.07 1.38-.46 1.65-1.04.28-.62.55-1.24.95-1.8a4.9 4.9 0 0 1 6.15-1.72c.17.07.34.15.5.24.32.16.56.37.5.8-.03.24.13.44.36.49l.45.06c.4.01.5.15.38.53-.26.82-.57 1.63-.77 2.47a10.33 10.33 0 0 0-.34 3.46c.04.49.48.88.95.94.75.1 1.47-.66 1.62-1.28.1-.41.12-.83.14-1.26a19.24 19.24 0 0 1 .66-4.43c.15-.58.37-1.13.67-1.67.4-.72 1.3-.85 1.93-.45.17.12.22.25.16.44-.24.9-.5 1.79-.72 2.69-.11.49-.2.99-.24 1.49-.02.24-.02.5-.08.73-.03.17.01.32.2.36.2.04.34-.01.42-.23.22-.58.53-1.13.8-1.7a42.5 42.5 0 0 1 2.01-3.78c.2-.34.45-.63.86-.72.2-.05.4-.04.6.01.4.1.8.17 1.18.3.5.18.65.49.54 1-.24 1.15-.65 2.25-1 3.36-.23.76-.44 1.52-.55 2.3a4.2 4.2 0 0 0 .03 1.86c.21.68.7.9 1.3.78.38-.07.67-.34.9-.64.21-.26.37-.54.5-.84.1-.17.21-.22.42-.16.44.15.55.48.38.86a3.26 3.26 0 0 1-1.83 1.68c-.5.2-1.01.33-1.54.3a2.73 2.73 0 0 1-1.92-.75 2.18 2.18 0 0 1-.6-1.36c-.1-1 .13-1.96.37-2.92l.3-1.24c.04-.11 0-.19-.1-.23-.33-.14-.49-.17-.74.23a17.83 17.83 0 0 0-2.11 5.25c-.14.63-.5.99-1.08 1.14a1.2 1.2 0 0 1-1.1-.31c-.1-.07-.17-.15-.26-.2a.57.57 0 0 0-.72 0c-.94.6-1.93.66-2.94.25-.35-.14-.6-.4-.73-.76-.12-.32-.22-.38-.46-.37-.12 0-.2.07-.28.15a3.8 3.8 0 0 1-4 1.06A3.37 3.37 0 0 1 75 30.93l.01-.7c.01-.19-.07-.24-.24-.25-.26-.02-.5.06-.76.1a2 2 0 0 1-1.3-.2c-.3-.22-.53-.5-.67-.87-.12-.34-.17-.7-.25-1.05-.04-.15-.09-.12-.17-.05-.12.11-.2.26-.27.41-.35.74-.7 1.49-.97 2.26a13.21 13.21 0 0 0-.8 3.6c-.03.32-.16.55-.36.53-.18-.02-.36 0-.53-.05-.45-.11-.88-.26-1.33-.35a3.31 3.31 0 0 0-2.06.24c-.49.22-.69.13-1.04-.26-.32-.35-.61-.71-.92-1.06-.32-.35-.66-.68-.96-1.05-.49-.58-1.03-1.1-1.53-1.66-.26-.3-.55-.56-.83-.83a9.23 9.23 0 0 0-.35-.34.32.32 0 0 0-.34-.07c-.1.04-.16.12-.15.22.03.48-.1.94-.09 1.41v2.3c0 .45-.15.58-.58.47a4.5 4.5 0 0 0-1.16-.16c-.52 0-.96.16-1.36.47-.24.19-.5.35-.8.42-.63.13-1.26.1-1.88-.08a1.61 1.61 0 0 1-1.13-1.13c-.1-.33-.12-.67-.12-1 0-.26-.1-.33-.33-.36-.3-.04-.38.16-.46.35-.32.7-.72 1.35-1.28 1.88-.43.4-.92.65-1.53.62a2.63 2.63 0 0 1-1.46-.63c-.59-.44-.93-.47-1.44-.14-1.09.69-2.24.9-3.48.58a2.52 2.52 0 0 1-1.92-2.44c-.03-.61.05-1.22.17-1.82.14-.68.26-1.37.51-2.02.12-.3 0-.47-.32-.5a.45.45 0 0 0-.46.24c-.6.98-1.11 2-1.54 3.07-.36.89-.65 1.8-.82 2.74-.08.43-.2.8-.68.9-.49.03-.97 0-1.43-.2a1.57 1.57 0 0 1-.95-1.17c-.12-.56-.04-1.12.02-1.68l.1-1.02c.05-.47.1-.95.17-1.42.03-.18.04-.37.06-.56h-.01Zm42.26 2.47c0 .3 0 .6.07.9.13.5.3 1 .79 1.29.46.27 1.1.26 1.47-.26.55-.77.9-1.62 1.23-2.5.36-.95.6-1.95.84-2.94.1-.4.17-.82.13-1.23-.03-.3-.09-.59-.3-.81-.37-.38-.93-.46-1.47-.18A6.18 6.18 0 0 0 77.42 29a7.99 7.99 0 0 0-.2 2.07Z"/>
  <path fill="#fff" d="m55.6 28.88-.29 1.45-.03.18a5.14 5.14 0 0 0-.13 1.52c.1-.11.14-.24.15-.43.06-.91.16-1.82.3-2.72Z"/>
  <path fill="#fff" d="M38.97 13.88a4.2 4.2 0 0 1 2.44.75c.74.48 1.01 1.3.7 2.13-.23.61-.44 1.23-.65 1.88l-.27.81a146.26 146.26 0 0 0-1.5 4.76c.53-.6 1.15-.99 1.88-1.14a3.6 3.6 0 0 1 2.32.3c.21.1.4.22.56.31.81.51 1.15 1.33.92 2.24l-.42 1.53-.23.8-.02.08c-.23.83-.44 1.61-.58 2.4-.1.54-.2 1.09-.16 1.58l.02.14H44c.19-.13.38-.33.41-.83.16-2.3.76-4.45 1.8-6.39a2.63 2.63 0 0 1 2.4-1.42c.66 0 1.2.15 1.65.5.7.5.9 1.22.6 2-.28.74-.54 1.48-.76 2.23a23.75 23.75 0 0 0 1.2-3.52c.44-1.4 1.51-1.5 2.11-1.42.57.06 1.12.22 1.65.45.5.22 1.27.76 1.11 2.05a40.89 40.89 0 0 1 1.89-5.58c.42-1 .85-2 1.48-2.93.46-.69.88-1.2 1.36-1.64a1.25 1.25 0 0 1 2.08.68c.11.58.1 1.17-.05 1.76L62 22.02l-.45 1.73a2.07 2.07 0 0 1 1.77-.26c.44.14 1.04.51 1.43 1.47.23.58.17 1.4-.69 2.02l-1.16.8.09.1.75.7c.74.73 1.43 1.4 2.07 2.06l.09-.7a89.3 89.3 0 0 0 .15-1.36l.1-.87.1-.85.03-.2c.04-.39.09-.8.2-1.23.1-.42.26-.77.5-1.07a2.33 2.33 0 0 1 2.68-.82c.36.12.7.3 1.04.54l.03.03c.31-.45.91-.97 2-.93h.3a21.04 21.04 0 0 0-5.68-11.6A46.1 46.1 0 0 0 64.9 9.3a16.88 16.88 0 0 0-4.56-2.96 13.16 13.16 0 0 0-4.88-1.07c-1.5-.04-3 .08-4.5.27-.58.08-1.18.16-1.74.38-.08.03-.2.05-.19.17.02.1.14.1.22.1.72.08 1.44.08 2.16.18.8.1 1.59.28 2.33.61a7.73 7.73 0 0 1 3.14 2.76 17.94 17.94 0 0 1 2.26 4.9c.02.03.03.08 0 .12-.08-.06-.11-.15-.16-.23a16.82 16.82 0 0 0-2.24-3.07 13.01 13.01 0 0 0-4.56-3.2c-1.88-.79-3.8-1-5.78-.43a3.52 3.52 0 0 1-2.74-.22 5.37 5.37 0 0 0-2.42-.58.7.7 0 0 0-.7.62c-.05.27-.03.55.03.83a4.9 4.9 0 0 0 1.16 2.13c.42.52.84 1.03 1.17 1.6.49.86.72 1.8.77 2.77.02.4-.02.8-.13 1.18-.03.09-.05.22-.18.22-.12 0-.15-.1-.2-.19-.12-.21-.2-.44-.28-.67-.44-1.2-.77-2.43-1.29-3.6-.22-.5-.45-1-.85-1.38-.33-.31-.64-.3-.93.04-.09.1-.16.2-.22.3-.37.62-.64 1.28-.91 1.94l-.52 1.24c.24-.1.51-.17.81-.18ZM72.14 31a3.59 3.59 0 0 1-.47-.35l-.13.35a11.92 11.92 0 0 0-.76 3.45 17.56 17.56 0 0 0 1.54-3.37l-.18-.07Zm-3.09 4.95h-.11c-.15-.01-.34-.02-.57-.08l-.6-.16c-.24-.07-.46-.14-.67-.18a2.04 2.04 0 0 0-1.3.16c-1.26.57-2.02-.05-2.49-.56l-.51-.6-.41-.46-.38-.4-.61-.68c-.26-.3-.54-.6-.83-.91l-.24-.26v1.4c0 .63-.21 1.1-.62 1.43-.4.31-.92.4-1.52.25a3.77 3.77 0 0 0-.88-.13.83.83 0 0 0-.57.2 3.2 3.2 0 0 1-1.32.67c-.85.17-1.68.13-2.5-.12a2.8 2.8 0 0 1-1.56-1.11c-.17.2-.35.4-.54.58-.73.68-1.55 1-2.45.95a3.86 3.86 0 0 1-2.15-.88l-.07-.05a5.47 5.47 0 0 1-4.4.7 3.74 3.74 0 0 1-2.67-2.5c-.07.26-.13.53-.17.78-.07.35-.25 1.34-1.22 1.77a19.13 19.13 0 0 0 8.29 7.4 17.74 17.74 0 0 0 12.8.73c1.2-.39 2.37-.86 3.44-1.54.66-.4 1.29-.86 1.94-1.27a20.58 20.58 0 0 0 5.74-5.28c-.26.14-.55.2-.85.16v-.01Z"/>
</svg>
