<svg xmlns="http://www.w3.org/2000/svg" fill="none" viewBox="0 0 113 50">
  <g clip-path="url(#a)">
    <path fill="#E9651B" d="M95.77 7.54H17.22a7.13 7.13 0 0 0-7.12 7.13v20.4a7.13 7.13 0 0 0 7.12 7.13h78.55c3.93 0 7.13-3.2 7.13-7.13v-20.4c0-3.94-3.2-7.13-7.13-7.13Z"/>
    <path fill="#fff" d="M68.91 34.66c-.84 0-1.6-.6-1.6-1.5 0-.83.67-1.17.67-1.17v-2.72c0-.15-.05-.28-.29-.29-2.32-.1-3.88-1.16-3.88-3.32v-5.83h2.17v5.66c0 .9.36 1.72 2.43 1.72h1c2.08 0 2.43-.83 2.43-1.72v-5.66h2.18v5.83c0 2.17-1.57 3.22-3.89 3.32-.23.01-.28.14-.28.29v2.72s.66.34.66 1.18c0 .89-.75 1.49-1.6 1.49m16.67-11.1c0-1.79-1.04-2.13-2.54-2.13H80.9c-1.5 0-2.56.34-2.56 2.14v1.76c0 1.78 1.06 2.13 2.56 2.13h2.14c1.5 0 2.54-.35 2.54-2.13v-1.76Zm-9.42-.09c0-3.1 2.24-3.8 5.18-3.8h1.25c2.95 0 5.19.7 5.19 3.8v1.95c0 3.06-2.24 3.8-5.19 3.8h-1.25c-2.94 0-5.18-.74-5.18-3.8v-1.95Zm-27.8-2c-2.06 0-2.43.82-2.43 1.66v5.95h-2.18v-6.07c0-2.22 1.58-3.31 4.16-3.31h1.67c1.29 0 2.33.33 3.08.86a5.23 5.23 0 0 1 3.1-.86h1.63c2.56 0 4.19 1.09 4.19 3.31v6.07H59.4v-5.95c0-.84-.37-1.67-2.43-1.67h-.8c-2.05 0-2.42.83-2.42 1.67v5.95h-2.18v-5.95c0-.84-.37-1.67-2.42-1.67h-.8Zm-21.06 4.7c0 .86.43 1.25 1.7 1.25h3.16c2 0 2.53-.08 2.53-1.08v-.06c0-.64-.14-1.02-1.64-1.02h-4.42c-2.28 0-3.3-.76-3.3-2.6v-.53c0-1.66.93-2.47 4.78-2.47h2.27c3.56 0 4.14 1.07 4.14 2.32v.35h-2.1c0-.73-.72-.9-2.13-.9h-2.56c-1.9 0-2.2.16-2.2.9v.33c0 .53.13.85 1.4.85h3.73c2.35 0 4.23.21 4.23 2.85 0 2.78-2.52 2.82-4.42 2.82H29.8c-.57 0-1.17 0-1.63-.04a4.95 4.95 0 0 1-1.43-.31c-.88-.41-1.52-1.17-1.52-2.55v-.1h2.09Zm14 2.9h-2.19v-9.26h2.18v9.26Zm-2.7-12.5c0-.87.72-1.5 1.6-1.5.9 0 1.6.63 1.6 1.5 0 .86-.71 1.46-1.6 1.46-.88 0-1.6-.6-1.6-1.47Z"/>
  </g>
  <defs>
    <clipPath id="a">
      <path fill="#fff" d="M10.1 7.54h92.8V42.2H10.1z"/>
    </clipPath>
  </defs>
</svg>
