<svg xmlns="http://www.w3.org/2000/svg" fill="none" viewBox="0 0 113 50">
  <path fill="#1ED760" d="M22.936 10.526c-7.958 0-14.41 6.452-14.41 14.41s6.452 14.41 14.41 14.41c7.959 0 14.41-6.45 14.41-14.41s-6.45-14.41-14.41-14.41Zm6.61 20.785a.897.897 0 0 1-1.235.299c-3.384-2.069-7.644-2.535-12.66-1.39a.897.897 0 1 1-.4-1.75c5.49-1.255 10.198-.714 13.996 1.606a.9.9 0 0 1 .298 1.236v-.002Zm1.763-3.925a1.124 1.124 0 0 1-1.546.37c-3.872-2.381-9.778-3.07-14.36-1.68a1.124 1.124 0 0 1-.653-2.15c5.234-1.588 11.74-.82 16.188 1.914.528.325.694 1.017.37 1.545v.001Zm.151-4.086c-4.645-2.758-12.306-3.013-16.74-1.667a1.347 1.347 0 1 1-.783-2.58c5.09-1.544 13.552-1.246 18.899 1.928a1.348 1.348 0 0 1-1.377 2.319h.002Zm16.272.53c-2.488-.594-2.931-1.01-2.931-1.885 0-.827.778-1.383 1.935-1.383 1.158 0 2.235.423 3.402 1.292a.157.157 0 0 0 .122.03.156.156 0 0 0 .107-.067l1.215-1.712a.164.164 0 0 0-.032-.222c-1.388-1.114-2.95-1.655-4.778-1.655-2.686 0-4.563 1.612-4.563 3.919 0 2.473 1.619 3.35 4.416 4.026 2.38.548 2.782 1.008 2.782 1.83 0 .909-.812 1.475-2.12 1.475-1.451 0-2.636-.49-3.962-1.637a.174.174 0 0 0-.119-.039.157.157 0 0 0-.112.058l-1.361 1.621a.162.162 0 0 0 .015.226c1.542 1.376 3.438 2.104 5.485 2.104 2.896 0 4.766-1.582 4.766-4.03 0-2.07-1.236-3.214-4.267-3.951Zm10.817-2.455c-1.255 0-2.284.495-3.133 1.507v-1.14a.163.163 0 0 0-.163-.162h-2.228a.163.163 0 0 0-.163.163v12.665c0 .09.073.163.163.163h2.228c.09 0 .163-.074.163-.163V30.41c.85.953 1.878 1.417 3.133 1.417 2.332 0 4.691-1.795 4.691-5.226 0-3.43-2.36-5.227-4.691-5.227v.002Zm2.102 5.227c0 1.747-1.076 2.966-2.618 2.966-1.541 0-2.672-1.274-2.672-2.966 0-1.69 1.15-2.965 2.672-2.965 1.523 0 2.618 1.247 2.618 2.965Zm8.639-5.227c-3.002 0-5.355 2.312-5.355 5.264 0 2.953 2.337 5.208 5.32 5.208 2.982 0 5.372-2.303 5.372-5.245 0-2.94-2.343-5.227-5.336-5.227Zm0 8.212c-1.596 0-2.8-1.284-2.8-2.985 0-1.7 1.161-2.947 2.764-2.947 1.603 0 2.82 1.283 2.82 2.985 0 1.703-1.17 2.947-2.783 2.947Zm11.749-8.007h-2.451v-2.507a.162.162 0 0 0-.163-.163h-2.228a.163.163 0 0 0-.163.163v2.507h-1.072a.163.163 0 0 0-.162.163v1.914c0 .09.073.163.162.163h1.072v4.955c0 2.002.996 3.017 2.962 3.017.8 0 1.462-.166 2.087-.52a.163.163 0 0 0 .083-.141v-1.823a.164.164 0 0 0-.236-.146 2.82 2.82 0 0 1-1.308.316c-.714 0-1.033-.325-1.033-1.052v-4.605h2.45a.164.164 0 0 0 .164-.163v-1.914a.162.162 0 0 0-.163-.163l-.001-.001Zm8.541.009v-.308c0-.906.347-1.31 1.126-1.31.464 0 .837.093 1.255.232a.168.168 0 0 0 .148-.022.165.165 0 0 0 .067-.133v-1.877a.163.163 0 0 0-.115-.156 6.1 6.1 0 0 0-1.852-.266c-2.058 0-3.145 1.159-3.145 3.35v.47h-1.07a.165.165 0 0 0-.165.164v1.924c0 .09.074.163.164.163h1.07v7.641c0 .09.073.163.162.163h2.228c.09 0 .163-.073.163-.163V23.82h2.08l3.188 7.64c-.362.803-.718.962-1.204.962-.393 0-.806-.117-1.229-.348a.164.164 0 0 0-.13-.012.162.162 0 0 0-.095.088l-.756 1.656a.162.162 0 0 0 .07.211c.789.428 1.5.61 2.38.61 1.645 0 2.554-.767 3.356-2.828l3.866-9.987a.167.167 0 0 0-.017-.152.16.16 0 0 0-.134-.07h-2.32a.164.164 0 0 0-.153.11l-2.377 6.785-2.601-6.79a.162.162 0 0 0-.152-.105h-3.806l-.003-.001Zm-4.952-.009H82.4a.163.163 0 0 0-.163.163v9.72c0 .09.073.163.163.163h2.228c.09 0 .163-.073.163-.163v-9.72a.163.163 0 0 0-.163-.163Zm-1.103-4.426a1.597 1.597 0 1 0-.002 3.195 1.597 1.597 0 0 0 .002-3.195Zm19.518 7.55a1.562 1.562 0 0 1-1.569-1.568c0-.86.696-1.576 1.576-1.576.881 0 1.569.707 1.569 1.567s-.695 1.577-1.576 1.577Zm.007-2.988c-.802 0-1.41.638-1.41 1.42 0 .781.603 1.41 1.403 1.41.799 0 1.41-.638 1.41-1.42a1.39 1.39 0 0 0-1.403-1.41Zm.348 1.573.443.62h-.374l-.4-.57h-.343v.57h-.312v-1.645h.733c.383 0 .634.195.634.524 0 .27-.156.435-.381.5Zm-.265-.743h-.409v.52h.409c.204 0 .325-.099.325-.26 0-.17-.122-.26-.325-.26Z"/>
</svg>
