<svg xmlns="http://www.w3.org/2000/svg" data-name="Layer 1" viewBox="0 0 1388 499">
  <path fill="#fff" d="M955.3 269.7c0-21-16.8-37.5-38-37.5a37.5 37.5 0 1 0 0 75c21.2 0 38-16.5 38-37.5m31-61.4V331h-31.6v-11a62.3 62.3 0 0 1-40 14.2c-37.4 0-66.6-28.7-66.6-64.5s29.2-64.6 66.6-64.6a62.3 62.3 0 0 1 40 14.2v-11Zm105 95h-23.8c-7.2 0-11.9-3.2-11.9-9.7V236h35.7v-27.8h-35.7v-35h-31.8v35h-24V236h24v65.5c0 16.4 11.8 29.5 33.3 29.5h34.2Zm72 31c36.5 0 57-17.1 57-40.7 0-16.8-12.1-29.3-37.6-34.7l-27-5.4c-15.6-2.9-20.5-5.7-20.5-11.4 0-7.4 7.5-12 21.4-12 15 0 26 4 29.3 17.6h31.5c-1.7-25.6-20.5-42.6-58.8-42.6-33 0-56.2 13.3-56.2 39.2 0 18 12.8 29.6 40.3 35.3l30.1 6.8c12 2.3 15.1 5.4 15.1 10.3 0 7.6-9 12.5-23.5 12.5-18.2 0-28.7-4-32.7-17.7h-31.9c4.6 25.6 24 42.7 63.5 42.7M720.6 164.7h119.1v28.5h-87v40.7h84.7v27.5h-84.6v41.3h86.9V331h-119ZM664 231.2V209h-8.5a33.1 33.1 0 0 0-29.5 16v-15h-24.2v121h24.5v-68.9c0-18.8 11.6-30.9 27.5-30.9Zm-175.6 28a38.2 38.2 0 0 1 75.2 0Zm38.2-51.7a62.9 62.9 0 0 0-63.4 62.9c0 36 28.6 63.2 65.6 63.2a65 65 0 0 0 53.2-26l-17.7-12.8a42.7 42.7 0 0 1-35.5 17.9 41.1 41.1 0 0 1-40.9-34.5h100.4v-7.8c0-36.1-26.1-63-61.7-63M387 312.8a42.1 42.1 0 0 1-42.6-42c0-23.5 19.1-42 42.6-42a42 42 0 1 1 0 84M320.5 331h24.2v-15.2a62.1 62.1 0 0 0 44 18 63.7 63.7 0 0 0 64.8-63.1 63.7 63.7 0 0 0-64.8-63.4 61.5 61.5 0 0 0-43.8 18v-60.6h-24.4Zm-85.9-19.5c23.5 0 41.6-17.8 41.6-44.1V164.7h25.5V331h-25.2v-15.5a61.7 61.7 0 0 1-44.8 18.3c-36.2 0-64-25.9-64-65v-104H193v102.5c0 26.9 17.9 44.2 41.6 44.2"/>
</svg>
