<svg xmlns="http://www.w3.org/2000/svg" fill="none" viewBox="0 0 113 50">
  <g clip-path="url(#a)">
    <path fill="#FF6900" d="M73.48 7.65C69.35 3.53 63.4 3.07 56.13 3.07c-7.27 0-13.23.46-17.37 4.6-4.13 4.13-4.55 10.07-4.55 17.34s.42 13.22 4.55 17.35c4.14 4.14 10.1 4.55 17.37 4.55 7.28 0 13.23-.41 17.37-4.55 4.13-4.13 4.55-10.08 4.55-17.35 0-7.27-.42-13.23-4.57-17.36Z"/>
    <path fill="#fff" d="M54.52 33.12c0 .14-.12.27-.27.27H50.5a.27.27 0 0 1-.28-.27v-9.78c0-.15.12-.27.28-.27h3.74c.15 0 .27.12.27.27v9.78Z"/>
    <path fill="#fff" d="M61.84 33.12c0 .14-.13.27-.28.27H58a.27.27 0 0 1-.27-.27v-8.44c0-1.47-.1-2.99-.85-3.75-.66-.65-1.87-.8-3.14-.83h-6.45a.27.27 0 0 0-.28.27v12.75c0 .15-.12.27-.27.27h-3.56a.27.27 0 0 1-.28-.27V16.87c0-.15.13-.27.28-.27h10.27c2.69 0 5.5.13 6.88 1.51 1.39 1.4 1.51 4.2 1.51 6.89v8.12Zm7.33 0c0 .14-.12.27-.28.27h-3.56a.27.27 0 0 1-.27-.27V16.87c0-.15.12-.27.27-.27h3.56c.15 0 .28.12.28.27v16.25Z"/>
  </g>
  <defs>
    <clipPath id="a">
      <path fill="#fff" d="M34.21 3.07h43.84v43.84H34.21z"/>
    </clipPath>
  </defs>
</svg>
